<?xml version="1.0" encoding="UTF-8" standalone="no"?>
<!DOCTYPE svg PUBLIC "-//W3C//DTD SVG 1.1//EN"
 "http://www.w3.org/Graphics/SVG/1.1/DTD/svg11.dtd">
<!-- Generated by graphviz version 2.43.0 (0)
 -->
<!-- Title: workflow Pages: 1 -->
<svg width="1043pt" height="79pt"
 viewBox="0.00 0.00 1042.50 79.00" xmlns="http://www.w3.org/2000/svg" xmlns:xlink="http://www.w3.org/1999/xlink">
<g id="graph0" class="graph" transform="scale(1 1) rotate(0) translate(4 75)">
<title>workflow</title>
<polygon fill="white" stroke="transparent" points="-4,4 -4,-75 1038.5,-75 1038.5,4 -4,4"/>
<g id="clust1" class="cluster">
<title>cluster_inputs</title>
<polygon fill="none" stroke="black" stroke-dasharray="5,2" points="8,-8 8,-63 961,-63 961,-8 8,-8"/>
<text text-anchor="middle" x="55.5" y="-51" font-family="Helvetica,sans-Serif" font-size="10.00">Workflow Inputs</text>
</g>
<!-- Non_diseased_lung_minimal_RDS -->
<g id="node1" class="node">
<title>Non_diseased_lung_minimal_RDS</title>
<polygon fill="#94ddf4" stroke="black" points="771,-16.5 771,-35.5 953,-35.5 953,-16.5 771,-16.5"/>
<text text-anchor="middle" x="862" y="-23.5" font-family="Helvetica,sans-Serif" font-size="10.00">Non_diseased_lung_minimal_RDS</text>
</g>
<!-- Non_diseased_lung_minimal_zip -->
<g id="node2" class="node">
<title>Non_diseased_lung_minimal_zip</title>
<polygon fill="#94ddf4" stroke="black" points="591,-16.5 591,-35.5 767,-35.5 767,-16.5 591,-16.5"/>
<text text-anchor="middle" x="679" y="-23.5" font-family="Helvetica,sans-Serif" font-size="10.00">Non_diseased_lung_minimal_zip</text>
</g>
<!-- Xenium_hLung_v1_metadata_csv -->
<g id="node3" class="node">
<title>Xenium_hLung_v1_metadata_csv</title>
<polygon fill="#94ddf4" stroke="black" points="407,-16.5 407,-35.5 587,-35.5 587,-16.5 407,-16.5"/>
<text text-anchor="middle" x="497" y="-23.5" font-family="Helvetica,sans-Serif" font-size="10.00">Xenium_hLung_v1_metadata_csv</text>
</g>
<!-- test_RData -->
<g id="node4" class="node">
<title>test_RData</title>
<polygon fill="#94ddf4" stroke="black" points="331.5,-16.5 331.5,-35.5 402.5,-35.5 402.5,-16.5 331.5,-16.5"/>
<text text-anchor="middle" x="367" y="-23.5" font-family="Helvetica,sans-Serif" font-size="10.00">test_RData</text>
</g>
<!-- test_RHistory -->
<g id="node5" class="node">
<title>test_RHistory</title>
<polygon fill="#94ddf4" stroke="black" points="244.5,-16.5 244.5,-35.5 327.5,-35.5 327.5,-16.5 244.5,-16.5"/>
<text text-anchor="middle" x="286" y="-23.5" font-family="Helvetica,sans-Serif" font-size="10.00">test_RHistory</text>
</g>
<!-- workspace_RData -->
<g id="node6" class="node">
<title>workspace_RData</title>
<polygon fill="#94ddf4" stroke="black" points="136,-16.5 136,-35.5 240,-35.5 240,-16.5 136,-16.5"/>
<text text-anchor="middle" x="188" y="-23.5" font-family="Helvetica,sans-Serif" font-size="10.00">workspace_RData</text>
</g>
<!-- workspace_RHistory -->
<g id="node7" class="node">
<title>workspace_RHistory</title>
<polygon fill="#94ddf4" stroke="black" points="16,-16.5 16,-35.5 132,-35.5 132,-16.5 16,-16.5"/>
<text text-anchor="middle" x="74" y="-23.5" font-family="Helvetica,sans-Serif" font-size="10.00">workspace_RHistory</text>
</g>
<!-- 7_RStudio -->
<g id="node8" class="node">
<title>7_RStudio</title>
<polygon fill="lightgoldenrodyellow" stroke="black" points="969.5,-16.5 969.5,-35.5 1034.5,-35.5 1034.5,-16.5 969.5,-16.5"/>
<text text-anchor="middle" x="1002" y="-23.5" font-family="Helvetica,sans-Serif" font-size="10.00">7_RStudio</text>
</g>
</g>
</svg>
