<?xml version="1.0" encoding="UTF-8" standalone="no"?>
<!DOCTYPE svg PUBLIC "-//W3C//DTD SVG 1.1//EN"
 "http://www.w3.org/Graphics/SVG/1.1/DTD/svg11.dtd">
<!-- Generated by graphviz version 2.43.0 (0)
 -->
<!-- Title: workflow Pages: 1 -->
<svg width="357pt" height="98pt"
 viewBox="0.00 0.00 357.00 98.00" xmlns="http://www.w3.org/2000/svg" xmlns:xlink="http://www.w3.org/1999/xlink">
<g id="graph0" class="graph" transform="scale(1 1) rotate(0) translate(4 94)">
<title>workflow</title>
<polygon fill="white" stroke="transparent" points="-4,4 -4,-94 353,-94 353,4 -4,4"/>
<g id="clust1" class="cluster">
<title>cluster_inputs</title>
<polygon fill="none" stroke="black" stroke-dasharray="5,2" points="8,-27 8,-82 230,-82 230,-27 8,-27"/>
<text text-anchor="middle" x="55.5" y="-70" font-family="Helvetica,sans-Serif" font-size="10.00">Workflow Inputs</text>
</g>
<g id="clust2" class="cluster">
<title>cluster_outputs</title>
<polygon fill="none" stroke="black" stroke-dasharray="5,2" points="238,-8 238,-63 341,-63 341,-8 238,-8"/>
<text text-anchor="middle" x="289.5" y="-15" font-family="Helvetica,sans-Serif" font-size="10.00">Workflow Outputs</text>
</g>
<!-- vocabulary -->
<g id="node1" class="node">
<title>vocabulary</title>
<polygon fill="#94ddf4" stroke="black" points="150.5,-35.5 150.5,-54.5 221.5,-54.5 221.5,-35.5 150.5,-35.5"/>
<text text-anchor="middle" x="186" y="-42.5" font-family="Helvetica,sans-Serif" font-size="10.00">vocabulary</text>
</g>
<!-- output_name -->
<g id="node2" class="node">
<title>output_name</title>
<polygon fill="#94ddf4" stroke="black" points="65.5,-35.5 65.5,-54.5 146.5,-54.5 146.5,-35.5 65.5,-35.5"/>
<text text-anchor="middle" x="106" y="-42.5" font-family="Helvetica,sans-Serif" font-size="10.00">output_name</text>
</g>
<!-- strata -->
<g id="node3" class="node">
<title>strata</title>
<polygon fill="#94ddf4" stroke="black" points="16.5,-35.5 16.5,-54.5 61.5,-54.5 61.5,-35.5 16.5,-35.5"/>
<text text-anchor="middle" x="39" y="-42.5" font-family="Helvetica,sans-Serif" font-size="10.00">strata</text>
</g>
<!-- output_file -->
<g id="node4" class="node">
<title>output_file</title>
<polygon fill="#94ddf4" stroke="black" points="255,-35.5 255,-54.5 323,-54.5 323,-35.5 255,-35.5"/>
<text text-anchor="middle" x="289" y="-42.5" font-family="Helvetica,sans-Serif" font-size="10.00">output_file</text>
</g>
</g>
</svg>
