<?xml version="1.0" encoding="UTF-8" standalone="no"?>
<!DOCTYPE svg PUBLIC "-//W3C//DTD SVG 1.1//EN"
 "http://www.w3.org/Graphics/SVG/1.1/DTD/svg11.dtd">
<!-- Generated by graphviz version 2.40.1 (20161225.0304)
 -->
<!-- Title: workflow Pages: 1 -->
<svg width="1930pt" height="249pt"
 viewBox="0.00 0.00 1930.00 249.00" xmlns="http://www.w3.org/2000/svg" xmlns:xlink="http://www.w3.org/1999/xlink">
<g id="graph0" class="graph" transform="scale(1 1) rotate(0) translate(4 245)">
<title>workflow</title>
<polygon fill="#ffffff" stroke="transparent" points="-4,4 -4,-245 1926,-245 1926,4 -4,4"/>
<g id="clust1" class="cluster">
<title>cluster_inputs</title>
<polygon fill="none" stroke="#000000" stroke-dasharray="5,2" points="8,-178 8,-233 1773,-233 1773,-178 8,-178"/>
<text text-anchor="middle" x="52" y="-221" font-family="Helvetica,sans-Serif" font-size="10.00" fill="#000000">Workflow Inputs</text>
</g>
<g id="clust2" class="cluster">
<title>cluster_outputs</title>
<polygon fill="none" stroke="#000000" stroke-dasharray="5,2" points="518,-8 518,-63 1834,-63 1834,-8 518,-8"/>
<text text-anchor="middle" x="565.5" y="-15" font-family="Helvetica,sans-Serif" font-size="10.00" fill="#000000">Workflow Outputs</text>
</g>
<!-- single_reads -->
<g id="node1" class="node">
<title>single_reads</title>
<polygon fill="#94ddf4" stroke="#000000" points="1355.5,-186.5 1355.5,-205.5 1426.5,-205.5 1426.5,-186.5 1355.5,-186.5"/>
<text text-anchor="middle" x="1391" y="-193.5" font-family="Helvetica,sans-Serif" font-size="10.00" fill="#000000">single_reads</text>
</g>
<!-- before&#45;qc -->
<g id="node40" class="node">
<title>before&#45;qc</title>
<polygon fill="#fafad2" stroke="#000000" points="1441.5,-133.5 1441.5,-152.5 1498.5,-152.5 1498.5,-133.5 1441.5,-133.5"/>
<text text-anchor="middle" x="1470" y="-140.5" font-family="Helvetica,sans-Serif" font-size="10.00" fill="#000000">before&#45;qc</text>
</g>
<!-- single_reads&#45;&gt;before&#45;qc -->
<g id="edge3" class="edge">
<title>single_reads&#45;&gt;before&#45;qc</title>
<path fill="none" stroke="#000000" d="M1397.9032,-186.2308C1403.8073,-178.4858 1412.929,-167.8596 1423,-161 1426.6018,-158.5467 1430.5841,-156.3662 1434.6619,-154.4451"/>
<polygon fill="#000000" stroke="#000000" points="1435.668,-156.6793 1441.1077,-151.6382 1433.7116,-152.1868 1435.668,-156.6793"/>
<text text-anchor="middle" x="1446" y="-163.6" font-family="Helvetica,sans-Serif" font-size="8.00" fill="#000000">single_reads</text>
</g>
<!-- forward_reads -->
<g id="node2" class="node">
<title>forward_reads</title>
<polygon fill="#94ddf4" stroke="#000000" points="1431,-186.5 1431,-205.5 1509,-205.5 1509,-186.5 1431,-186.5"/>
<text text-anchor="middle" x="1470" y="-193.5" font-family="Helvetica,sans-Serif" font-size="10.00" fill="#000000">forward_reads</text>
</g>
<!-- forward_reads&#45;&gt;before&#45;qc -->
<g id="edge1" class="edge">
<title>forward_reads&#45;&gt;before&#45;qc</title>
<path fill="none" stroke="#000000" d="M1470,-186.279C1470,-178.8827 1470,-168.5239 1470,-159.7951"/>
<polygon fill="#000000" stroke="#000000" points="1472.4501,-159.6594 1470,-152.6594 1467.5501,-159.6594 1472.4501,-159.6594"/>
<text text-anchor="middle" x="1496.5" y="-163.6" font-family="Helvetica,sans-Serif" font-size="8.00" fill="#000000">forward_reads</text>
</g>
<!-- reverse_reads -->
<g id="node3" class="node">
<title>reverse_reads</title>
<polygon fill="#94ddf4" stroke="#000000" points="1513,-186.5 1513,-205.5 1591,-205.5 1591,-186.5 1513,-186.5"/>
<text text-anchor="middle" x="1552" y="-193.5" font-family="Helvetica,sans-Serif" font-size="10.00" fill="#000000">reverse_reads</text>
</g>
<!-- reverse_reads&#45;&gt;before&#45;qc -->
<g id="edge2" class="edge">
<title>reverse_reads&#45;&gt;before&#45;qc</title>
<path fill="none" stroke="#000000" d="M1546.4984,-186.4012C1541.542,-178.545 1533.5746,-167.6762 1524,-161 1518.4638,-157.1397 1512.0382,-154.058 1505.5917,-151.6142"/>
<polygon fill="#000000" stroke="#000000" points="1506.0458,-149.1789 1498.6295,-149.2062 1504.4441,-153.8098 1506.0458,-149.1789"/>
<text text-anchor="middle" x="1560" y="-163.6" font-family="Helvetica,sans-Serif" font-size="8.00" fill="#000000">reverse_reads</text>
</g>
<!-- qc_min_length -->
<g id="node4" class="node">
<title>qc_min_length</title>
<polygon fill="#94ddf4" stroke="#000000" points="1595,-186.5 1595,-205.5 1675,-205.5 1675,-186.5 1595,-186.5"/>
<text text-anchor="middle" x="1635" y="-193.5" font-family="Helvetica,sans-Serif" font-size="10.00" fill="#000000">qc_min_length</text>
</g>
<!-- qc_min_length&#45;&gt;before&#45;qc -->
<g id="edge4" class="edge">
<title>qc_min_length&#45;&gt;before&#45;qc</title>
<path fill="none" stroke="#000000" d="M1624.8458,-186.3247C1615.696,-178.1972 1601.4913,-166.9794 1587,-161 1572.6827,-155.0923 1534.6659,-149.9014 1505.8202,-146.6312"/>
<polygon fill="#000000" stroke="#000000" points="1505.9316,-144.1786 1498.7041,-145.8419 1505.3913,-149.0487 1505.9316,-144.1786"/>
<text text-anchor="middle" x="1628" y="-163.6" font-family="Helvetica,sans-Serif" font-size="8.00" fill="#000000">qc_min_length</text>
</g>
<!-- stats_file_name -->
<g id="node5" class="node">
<title>stats_file_name</title>
<polygon fill="#94ddf4" stroke="#000000" points="1679,-186.5 1679,-205.5 1765,-205.5 1765,-186.5 1679,-186.5"/>
<text text-anchor="middle" x="1722" y="-193.5" font-family="Helvetica,sans-Serif" font-size="10.00" fill="#000000">stats_file_name</text>
</g>
<!-- stats_file_name&#45;&gt;before&#45;qc -->
<g id="edge5" class="edge">
<title>stats_file_name&#45;&gt;before&#45;qc</title>
<path fill="none" stroke="#000000" d="M1707.5359,-186.3426C1694.4182,-178.1095 1674.2451,-166.7261 1655,-161 1627.9163,-152.9416 1551.3089,-147.4848 1505.6117,-144.8414"/>
<polygon fill="#000000" stroke="#000000" points="1505.6828,-142.3916 1498.5553,-144.4413 1505.4054,-147.2837 1505.6828,-142.3916"/>
<text text-anchor="middle" x="1704" y="-163.6" font-family="Helvetica,sans-Serif" font-size="8.00" fill="#000000">stats_file_name</text>
</g>
<!-- ssu_db -->
<g id="node6" class="node">
<title>ssu_db</title>
<polygon fill="#94ddf4" stroke="#000000" points="731,-186.5 731,-205.5 779,-205.5 779,-186.5 731,-186.5"/>
<text text-anchor="middle" x="755" y="-193.5" font-family="Helvetica,sans-Serif" font-size="10.00" fill="#000000">ssu_db</text>
</g>
<!-- after&#45;qc -->
<g id="node41" class="node">
<title>after&#45;qc</title>
<polygon fill="#fafad2" stroke="#000000" points="779,-88.5 779,-107.5 829,-107.5 829,-88.5 779,-88.5"/>
<text text-anchor="middle" x="804" y="-95.5" font-family="Helvetica,sans-Serif" font-size="10.00" fill="#000000">after&#45;qc</text>
</g>
<!-- ssu_db&#45;&gt;after&#45;qc -->
<g id="edge8" class="edge">
<title>ssu_db&#45;&gt;after&#45;qc</title>
<path fill="none" stroke="#000000" d="M757.3698,-186.2049C760.6848,-173.4589 767.3972,-150.7241 777,-133 780.7838,-126.0162 785.9213,-118.9585 790.6995,-113.0282"/>
<polygon fill="#000000" stroke="#000000" points="792.6928,-114.4633 795.2945,-107.5182 788.9296,-111.3251 792.6928,-114.4633"/>
<text text-anchor="middle" x="790" y="-141.1" font-family="Helvetica,sans-Serif" font-size="8.00" fill="#000000">ssu_db</text>
</g>
<!-- lsu_db -->
<g id="node7" class="node">
<title>lsu_db</title>
<polygon fill="#94ddf4" stroke="#000000" points="783.5,-186.5 783.5,-205.5 828.5,-205.5 828.5,-186.5 783.5,-186.5"/>
<text text-anchor="middle" x="806" y="-193.5" font-family="Helvetica,sans-Serif" font-size="10.00" fill="#000000">lsu_db</text>
</g>
<!-- lsu_db&#45;&gt;after&#45;qc -->
<g id="edge9" class="edge">
<title>lsu_db&#45;&gt;after&#45;qc</title>
<path fill="none" stroke="#000000" d="M805.8009,-186.2451C805.461,-169.5884 804.7647,-135.4711 804.3445,-114.8802"/>
<polygon fill="#000000" stroke="#000000" points="806.7907,-114.664 804.1983,-107.7154 801.8917,-114.764 806.7907,-114.664"/>
<text text-anchor="middle" x="817" y="-141.1" font-family="Helvetica,sans-Serif" font-size="8.00" fill="#000000">lsu_db</text>
</g>
<!-- ssu_tax -->
<g id="node8" class="node">
<title>ssu_tax</title>
<polygon fill="#94ddf4" stroke="#000000" points="832.5,-186.5 832.5,-205.5 883.5,-205.5 883.5,-186.5 832.5,-186.5"/>
<text text-anchor="middle" x="858" y="-193.5" font-family="Helvetica,sans-Serif" font-size="10.00" fill="#000000">ssu_tax</text>
</g>
<!-- ssu_tax&#45;&gt;after&#45;qc -->
<g id="edge10" class="edge">
<title>ssu_tax&#45;&gt;after&#45;qc</title>
<path fill="none" stroke="#000000" d="M854.4547,-186.285C849.6636,-173.6255 840.5026,-150.9841 830,-133 826.0491,-126.2347 821.043,-119.2188 816.4808,-113.2608"/>
<polygon fill="#000000" stroke="#000000" points="818.37,-111.6996 812.122,-107.7039 814.5145,-114.7238 818.37,-111.6996"/>
<text text-anchor="middle" x="854" y="-141.1" font-family="Helvetica,sans-Serif" font-size="8.00" fill="#000000">ssu_tax</text>
</g>
<!-- lsu_tax -->
<g id="node9" class="node">
<title>lsu_tax</title>
<polygon fill="#94ddf4" stroke="#000000" points="888,-186.5 888,-205.5 936,-205.5 936,-186.5 888,-186.5"/>
<text text-anchor="middle" x="912" y="-193.5" font-family="Helvetica,sans-Serif" font-size="10.00" fill="#000000">lsu_tax</text>
</g>
<!-- lsu_tax&#45;&gt;after&#45;qc -->
<g id="edge11" class="edge">
<title>lsu_tax&#45;&gt;after&#45;qc</title>
<path fill="none" stroke="#000000" d="M907.336,-186.4103C900.4643,-173.0679 886.5189,-148.7701 869,-133 858.9667,-123.9683 846.1863,-116.4437 834.6178,-110.715"/>
<polygon fill="#000000" stroke="#000000" points="835.3497,-108.3499 827.9763,-107.5517 833.2426,-112.7737 835.3497,-108.3499"/>
<text text-anchor="middle" x="898.5" y="-141.1" font-family="Helvetica,sans-Serif" font-size="8.00" fill="#000000">lsu_tax</text>
</g>
<!-- ssu_otus -->
<g id="node10" class="node">
<title>ssu_otus</title>
<polygon fill="#94ddf4" stroke="#000000" points="940,-186.5 940,-205.5 996,-205.5 996,-186.5 940,-186.5"/>
<text text-anchor="middle" x="968" y="-193.5" font-family="Helvetica,sans-Serif" font-size="10.00" fill="#000000">ssu_otus</text>
</g>
<!-- ssu_otus&#45;&gt;after&#45;qc -->
<g id="edge12" class="edge">
<title>ssu_otus&#45;&gt;after&#45;qc</title>
<path fill="none" stroke="#000000" d="M961.9542,-186.449C952.7783,-172.7013 934.0509,-147.4085 912,-133 888.9227,-117.9209 858.8248,-108.8713 836.2659,-103.7639"/>
<polygon fill="#000000" stroke="#000000" points="836.5846,-101.3263 829.2249,-102.2415 835.549,-106.1156 836.5846,-101.3263"/>
<text text-anchor="middle" x="951" y="-141.1" font-family="Helvetica,sans-Serif" font-size="8.00" fill="#000000">ssu_otus</text>
</g>
<!-- lsu_otus -->
<g id="node11" class="node">
<title>lsu_otus</title>
<polygon fill="#94ddf4" stroke="#000000" points="999.5,-186.5 999.5,-205.5 1052.5,-205.5 1052.5,-186.5 999.5,-186.5"/>
<text text-anchor="middle" x="1026" y="-193.5" font-family="Helvetica,sans-Serif" font-size="10.00" fill="#000000">lsu_otus</text>
</g>
<!-- lsu_otus&#45;&gt;after&#45;qc -->
<g id="edge13" class="edge">
<title>lsu_otus&#45;&gt;after&#45;qc</title>
<path fill="none" stroke="#000000" d="M1019.833,-186.1673C1010.4472,-172.0686 991.1965,-146.343 968,-133 945.9191,-120.2988 877.3945,-108.6076 836.2385,-102.4804"/>
<polygon fill="#000000" stroke="#000000" points="836.419,-100.0307 829.1373,-101.4379 835.7072,-104.8788 836.419,-100.0307"/>
<text text-anchor="middle" x="1007" y="-141.1" font-family="Helvetica,sans-Serif" font-size="8.00" fill="#000000">lsu_otus</text>
</g>
<!-- rfam_models -->
<g id="node12" class="node">
<title>rfam_models</title>
<polygon fill="#94ddf4" stroke="#000000" points="1056.5,-186.5 1056.5,-205.5 1129.5,-205.5 1129.5,-186.5 1056.5,-186.5"/>
<text text-anchor="middle" x="1093" y="-193.5" font-family="Helvetica,sans-Serif" font-size="10.00" fill="#000000">rfam_models</text>
</g>
<!-- rfam_models&#45;&gt;after&#45;qc -->
<g id="edge14" class="edge">
<title>rfam_models&#45;&gt;after&#45;qc</title>
<path fill="none" stroke="#000000" d="M1085.1246,-186.0993C1073.2585,-171.9159 1049.3605,-146.0858 1023,-133 990.8026,-117.0167 889.0701,-105.7296 836.3637,-100.791"/>
<polygon fill="#000000" stroke="#000000" points="836.4598,-98.3395 829.2644,-100.1364 836.0098,-103.2188 836.4598,-98.3395"/>
<text text-anchor="middle" x="1075.5" y="-141.1" font-family="Helvetica,sans-Serif" font-size="8.00" fill="#000000">rfam_models</text>
</g>
<!-- rfam_model_clans -->
<g id="node13" class="node">
<title>rfam_model_clans</title>
<polygon fill="#94ddf4" stroke="#000000" points="1134,-186.5 1134,-205.5 1230,-205.5 1230,-186.5 1134,-186.5"/>
<text text-anchor="middle" x="1182" y="-193.5" font-family="Helvetica,sans-Serif" font-size="10.00" fill="#000000">rfam_model_clans</text>
</g>
<!-- rfam_model_clans&#45;&gt;after&#45;qc -->
<g id="edge15" class="edge">
<title>rfam_model_clans&#45;&gt;after&#45;qc</title>
<path fill="none" stroke="#000000" d="M1160.4189,-186.3836C1145.1292,-178.8362 1124.7893,-167.2378 1110,-153 1102.3624,-145.6473 1105.9185,-138.7319 1097,-133 1075.386,-119.1087 907.7208,-105.4959 836.1785,-100.2555"/>
<polygon fill="#000000" stroke="#000000" points="836.3166,-97.8092 829.1575,-99.7456 835.9616,-102.6963 836.3166,-97.8092"/>
<text text-anchor="middle" x="1143" y="-141.1" font-family="Helvetica,sans-Serif" font-size="8.00" fill="#000000">rfam_model_clans</text>
</g>
<!-- ssu_label -->
<g id="node14" class="node">
<title>ssu_label</title>
<polygon fill="#94ddf4" stroke="#000000" points="1234,-186.5 1234,-205.5 1292,-205.5 1292,-186.5 1234,-186.5"/>
<text text-anchor="middle" x="1263" y="-193.5" font-family="Helvetica,sans-Serif" font-size="10.00" fill="#000000">ssu_label</text>
</g>
<!-- ssu_label&#45;&gt;after&#45;qc -->
<g id="edge16" class="edge">
<title>ssu_label&#45;&gt;after&#45;qc</title>
<path fill="none" stroke="#000000" d="M1245.4765,-186.4122C1222.6674,-173.9222 1185.6158,-153.5936 1185,-153 1177.5372,-145.8054 1181.6725,-138.6784 1173,-133 1145.1113,-114.7396 920.6174,-103.1093 836.0608,-99.3395"/>
<polygon fill="#000000" stroke="#000000" points="836.1334,-96.8904 829.0324,-99.0299 835.9177,-101.7857 836.1334,-96.8904"/>
<text text-anchor="middle" x="1202" y="-141.1" font-family="Helvetica,sans-Serif" font-size="8.00" fill="#000000">ssu_label</text>
</g>
<!-- lsu_label -->
<g id="node15" class="node">
<title>lsu_label</title>
<polygon fill="#94ddf4" stroke="#000000" points="1296.5,-186.5 1296.5,-205.5 1351.5,-205.5 1351.5,-186.5 1296.5,-186.5"/>
<text text-anchor="middle" x="1324" y="-193.5" font-family="Helvetica,sans-Serif" font-size="10.00" fill="#000000">lsu_label</text>
</g>
<!-- lsu_label&#45;&gt;after&#45;qc -->
<g id="edge17" class="edge">
<title>lsu_label&#45;&gt;after&#45;qc</title>
<path fill="none" stroke="#000000" d="M1311.126,-186.4146C1291.6146,-172.3854 1252.9087,-146.4693 1216,-133 1146.2972,-107.563 920.5073,-100.3847 836.1691,-98.5637"/>
<polygon fill="#000000" stroke="#000000" points="836.2122,-96.1142 829.1627,-98.4178 836.1101,-101.0131 836.2122,-96.1142"/>
<text text-anchor="middle" x="1272.5" y="-141.1" font-family="Helvetica,sans-Serif" font-size="8.00" fill="#000000">lsu_label</text>
</g>
<!-- 5s_pattern -->
<g id="node16" class="node">
<title>5s_pattern</title>
<polygon fill="#94ddf4" stroke="#000000" points="16,-186.5 16,-205.5 78,-205.5 78,-186.5 16,-186.5"/>
<text text-anchor="middle" x="47" y="-193.5" font-family="Helvetica,sans-Serif" font-size="10.00" fill="#000000">5s_pattern</text>
</g>
<!-- 5s_pattern&#45;&gt;after&#45;qc -->
<g id="edge18" class="edge">
<title>5s_pattern&#45;&gt;after&#45;qc</title>
<path fill="none" stroke="#000000" d="M54.1711,-186.1322C65.0132,-171.99 86.9864,-146.2105 112,-133 145.2964,-115.4151 157.5974,-120.3502 195,-116 308.2347,-102.83 662.5268,-99.077 771.6685,-98.2198"/>
<polygon fill="#000000" stroke="#000000" points="771.8165,-100.6688 778.7975,-98.1652 771.7789,-95.7689 771.8165,-100.6688"/>
<text text-anchor="middle" x="131.5" y="-141.1" font-family="Helvetica,sans-Serif" font-size="8.00" fill="#000000">5s_pattern</text>
</g>
<!-- 5.8s_pattern -->
<g id="node17" class="node">
<title>5.8s_pattern</title>
<polygon fill="#94ddf4" stroke="#000000" points="82.5,-186.5 82.5,-205.5 153.5,-205.5 153.5,-186.5 82.5,-186.5"/>
<text text-anchor="middle" x="118" y="-193.5" font-family="Helvetica,sans-Serif" font-size="10.00" fill="#000000">5.8s_pattern</text>
</g>
<!-- 5.8s_pattern&#45;&gt;after&#45;qc -->
<g id="edge19" class="edge">
<title>5.8s_pattern&#45;&gt;after&#45;qc</title>
<path fill="none" stroke="#000000" d="M124.4031,-186.062C134.1416,-171.8323 154.092,-145.9449 178,-133 214.5653,-113.2018 228.6621,-120.4906 270,-116 368.0641,-105.347 671.7479,-99.9712 771.7229,-98.4567"/>
<polygon fill="#000000" stroke="#000000" points="771.8769,-100.9048 778.8394,-98.3503 771.8035,-96.0054 771.8769,-100.9048"/>
<text text-anchor="middle" x="201" y="-141.1" font-family="Helvetica,sans-Serif" font-size="8.00" fill="#000000">5.8s_pattern</text>
</g>
<!-- unite_db -->
<g id="node18" class="node">
<title>unite_db</title>
<polygon fill="#94ddf4" stroke="#000000" points="157.5,-186.5 157.5,-205.5 210.5,-205.5 210.5,-186.5 157.5,-186.5"/>
<text text-anchor="middle" x="184" y="-193.5" font-family="Helvetica,sans-Serif" font-size="10.00" fill="#000000">unite_db</text>
</g>
<!-- unite_db&#45;&gt;after&#45;qc -->
<g id="edge20" class="edge">
<title>unite_db&#45;&gt;after&#45;qc</title>
<path fill="none" stroke="#000000" d="M191.6305,-186.1825C203.1329,-172.1028 226.3176,-146.4006 252,-133 283.4559,-116.5869 294.802,-120.4684 330,-116 415.7057,-105.1197 679.33,-99.983 771.6559,-98.4838"/>
<polygon fill="#000000" stroke="#000000" points="771.8131,-100.9316 778.773,-98.3699 771.7346,-96.0323 771.8131,-100.9316"/>
<text text-anchor="middle" x="267.5" y="-141.1" font-family="Helvetica,sans-Serif" font-size="8.00" fill="#000000">unite_db</text>
</g>
<!-- unite_tax -->
<g id="node19" class="node">
<title>unite_tax</title>
<polygon fill="#94ddf4" stroke="#000000" points="214,-186.5 214,-205.5 270,-205.5 270,-186.5 214,-186.5"/>
<text text-anchor="middle" x="242" y="-193.5" font-family="Helvetica,sans-Serif" font-size="10.00" fill="#000000">unite_tax</text>
</g>
<!-- unite_tax&#45;&gt;after&#45;qc -->
<g id="edge21" class="edge">
<title>unite_tax&#45;&gt;after&#45;qc</title>
<path fill="none" stroke="#000000" d="M249.9207,-186.1891C261.8433,-172.1176 285.8109,-146.4255 312,-133 343.5735,-116.8143 354.8144,-120.5651 390,-116 463.5832,-106.4531 687.3745,-100.6048 771.5369,-98.693"/>
<polygon fill="#000000" stroke="#000000" points="771.8245,-101.1372 778.7677,-98.5306 771.7144,-96.2385 771.8245,-101.1372"/>
<text text-anchor="middle" x="328.5" y="-141.1" font-family="Helvetica,sans-Serif" font-size="8.00" fill="#000000">unite_tax</text>
</g>
<!-- unite_otu_file -->
<g id="node20" class="node">
<title>unite_otu_file</title>
<polygon fill="#94ddf4" stroke="#000000" points="274,-186.5 274,-205.5 348,-205.5 348,-186.5 274,-186.5"/>
<text text-anchor="middle" x="311" y="-193.5" font-family="Helvetica,sans-Serif" font-size="10.00" fill="#000000">unite_otu_file</text>
</g>
<!-- unite_otu_file&#45;&gt;after&#45;qc -->
<g id="edge22" class="edge">
<title>unite_otu_file&#45;&gt;after&#45;qc</title>
<path fill="none" stroke="#000000" d="M317.5441,-186.0508C327.4877,-171.807 347.8235,-145.9024 372,-133 409.4555,-113.011 423.8301,-120.9164 466,-116 577.6688,-102.9811 711.2054,-99.368 771.5569,-98.3733"/>
<polygon fill="#000000" stroke="#000000" points="771.9304,-100.8179 778.8915,-98.2595 771.8543,-95.9185 771.9304,-100.8179"/>
<text text-anchor="middle" x="396" y="-141.1" font-family="Helvetica,sans-Serif" font-size="8.00" fill="#000000">unite_otu_file</text>
</g>
<!-- unite_label -->
<g id="node21" class="node">
<title>unite_label</title>
<polygon fill="#94ddf4" stroke="#000000" points="352.5,-186.5 352.5,-205.5 415.5,-205.5 415.5,-186.5 352.5,-186.5"/>
<text text-anchor="middle" x="384" y="-193.5" font-family="Helvetica,sans-Serif" font-size="10.00" fill="#000000">unite_label</text>
</g>
<!-- unite_label&#45;&gt;after&#45;qc -->
<g id="edge23" class="edge">
<title>unite_label&#45;&gt;after&#45;qc</title>
<path fill="none" stroke="#000000" d="M391.0018,-186.0864C401.6035,-171.8872 423.1479,-146.0373 448,-133 483.6615,-114.2921 497.0589,-121.1416 537,-116 621.3249,-105.1449 721.5289,-100.6112 771.8198,-98.9082"/>
<polygon fill="#000000" stroke="#000000" points="771.9538,-101.3552 778.8697,-98.6771 771.7932,-96.4578 771.9538,-101.3552"/>
<text text-anchor="middle" x="467.5" y="-141.1" font-family="Helvetica,sans-Serif" font-size="8.00" fill="#000000">unite_label</text>
</g>
<!-- itsonedb -->
<g id="node22" class="node">
<title>itsonedb</title>
<polygon fill="#94ddf4" stroke="#000000" points="419.5,-186.5 419.5,-205.5 472.5,-205.5 472.5,-186.5 419.5,-186.5"/>
<text text-anchor="middle" x="446" y="-193.5" font-family="Helvetica,sans-Serif" font-size="10.00" fill="#000000">itsonedb</text>
</g>
<!-- itsonedb&#45;&gt;after&#45;qc -->
<g id="edge24" class="edge">
<title>itsonedb&#45;&gt;after&#45;qc</title>
<path fill="none" stroke="#000000" d="M453.9255,-186.1984C465.854,-172.1386 489.829,-146.4608 516,-133 559.991,-110.3737 706.0344,-101.8634 771.62,-99.128"/>
<polygon fill="#000000" stroke="#000000" points="771.9385,-101.5673 778.834,-98.837 771.7409,-96.6712 771.9385,-101.5673"/>
<text text-anchor="middle" x="531.5" y="-141.1" font-family="Helvetica,sans-Serif" font-size="8.00" fill="#000000">itsonedb</text>
</g>
<!-- itsonedb_tax -->
<g id="node23" class="node">
<title>itsonedb_tax</title>
<polygon fill="#94ddf4" stroke="#000000" points="477,-186.5 477,-205.5 549,-205.5 549,-186.5 477,-186.5"/>
<text text-anchor="middle" x="513" y="-193.5" font-family="Helvetica,sans-Serif" font-size="10.00" fill="#000000">itsonedb_tax</text>
</g>
<!-- itsonedb_tax&#45;&gt;after&#45;qc -->
<g id="edge25" class="edge">
<title>itsonedb_tax&#45;&gt;after&#45;qc</title>
<path fill="none" stroke="#000000" d="M519.2885,-186.1215C528.8549,-171.9659 548.4608,-146.1699 572,-133 605.5953,-114.2038 716.0535,-104.0835 771.5594,-100.0742"/>
<polygon fill="#000000" stroke="#000000" points="771.8813,-102.5077 778.6915,-99.5709 771.5363,-97.6199 771.8813,-102.5077"/>
<text text-anchor="middle" x="595" y="-141.1" font-family="Helvetica,sans-Serif" font-size="8.00" fill="#000000">itsonedb_tax</text>
</g>
<!-- itsonedb_otu_file -->
<g id="node24" class="node">
<title>itsonedb_otu_file</title>
<polygon fill="#94ddf4" stroke="#000000" points="553,-186.5 553,-205.5 643,-205.5 643,-186.5 553,-186.5"/>
<text text-anchor="middle" x="598" y="-193.5" font-family="Helvetica,sans-Serif" font-size="10.00" fill="#000000">itsonedb_otu_file</text>
</g>
<!-- itsonedb_otu_file&#45;&gt;after&#45;qc -->
<g id="edge26" class="edge">
<title>itsonedb_otu_file&#45;&gt;after&#45;qc</title>
<path fill="none" stroke="#000000" d="M601.5742,-186.1536C607.2307,-172.0379 619.6324,-146.2911 639,-133 660.1826,-118.4633 729.8424,-107.4112 771.5747,-101.8962"/>
<polygon fill="#000000" stroke="#000000" points="772.1461,-104.2927 778.7731,-100.9631 771.5162,-99.4333 772.1461,-104.2927"/>
<text text-anchor="middle" x="669.5" y="-141.1" font-family="Helvetica,sans-Serif" font-size="8.00" fill="#000000">itsonedb_otu_file</text>
</g>
<!-- itsonedb_label -->
<g id="node25" class="node">
<title>itsonedb_label</title>
<polygon fill="#94ddf4" stroke="#000000" points="647.5,-186.5 647.5,-205.5 726.5,-205.5 726.5,-186.5 647.5,-186.5"/>
<text text-anchor="middle" x="687" y="-193.5" font-family="Helvetica,sans-Serif" font-size="10.00" fill="#000000">itsonedb_label</text>
</g>
<!-- itsonedb_label&#45;&gt;after&#45;qc -->
<g id="edge27" class="edge">
<title>itsonedb_label&#45;&gt;after&#45;qc</title>
<path fill="none" stroke="#000000" d="M688.9281,-186.1216C692.0853,-172.4361 699.6107,-147.7334 715,-133 730.5638,-118.0995 753.219,-109.3118 771.7764,-104.2685"/>
<polygon fill="#000000" stroke="#000000" points="772.7427,-106.5509 778.9237,-102.4525 771.536,-101.8018 772.7427,-106.5509"/>
<text text-anchor="middle" x="741" y="-141.1" font-family="Helvetica,sans-Serif" font-size="8.00" fill="#000000">itsonedb_label</text>
</g>
<!-- qc&#45;statistics -->
<g id="node26" class="node">
<title>qc&#45;statistics</title>
<polygon fill="#94ddf4" stroke="#000000" points="1650,-35.5 1650,-54.5 1720,-54.5 1720,-35.5 1650,-35.5"/>
<text text-anchor="middle" x="1685" y="-42.5" font-family="Helvetica,sans-Serif" font-size="10.00" fill="#000000">qc&#45;statistics</text>
</g>
<!-- qc_summary -->
<g id="node27" class="node">
<title>qc_summary</title>
<polygon fill="#94ddf4" stroke="#000000" points="1195.5,-35.5 1195.5,-54.5 1268.5,-54.5 1268.5,-35.5 1195.5,-35.5"/>
<text text-anchor="middle" x="1232" y="-42.5" font-family="Helvetica,sans-Serif" font-size="10.00" fill="#000000">qc_summary</text>
</g>
<!-- qc&#45;status -->
<g id="node28" class="node">
<title>qc&#45;status</title>
<polygon fill="#94ddf4" stroke="#000000" points="1272.5,-35.5 1272.5,-54.5 1329.5,-54.5 1329.5,-35.5 1272.5,-35.5"/>
<text text-anchor="middle" x="1301" y="-42.5" font-family="Helvetica,sans-Serif" font-size="10.00" fill="#000000">qc&#45;status</text>
</g>
<!-- hashsum_paired -->
<g id="node29" class="node">
<title>hashsum_paired</title>
<polygon fill="#94ddf4" stroke="#000000" points="1334,-35.5 1334,-54.5 1422,-54.5 1422,-35.5 1334,-35.5"/>
<text text-anchor="middle" x="1378" y="-42.5" font-family="Helvetica,sans-Serif" font-size="10.00" fill="#000000">hashsum_paired</text>
</g>
<!-- hashsum_single -->
<g id="node30" class="node">
<title>hashsum_single</title>
<polygon fill="#94ddf4" stroke="#000000" points="1426.5,-35.5 1426.5,-54.5 1513.5,-54.5 1513.5,-35.5 1426.5,-35.5"/>
<text text-anchor="middle" x="1470" y="-42.5" font-family="Helvetica,sans-Serif" font-size="10.00" fill="#000000">hashsum_single</text>
</g>
<!-- fastp_filtering_json_report -->
<g id="node31" class="node">
<title>fastp_filtering_json_report</title>
<polygon fill="#94ddf4" stroke="#000000" points="1518,-35.5 1518,-54.5 1646,-54.5 1646,-35.5 1518,-35.5"/>
<text text-anchor="middle" x="1582" y="-42.5" font-family="Helvetica,sans-Serif" font-size="10.00" fill="#000000">fastp_filtering_json_report</text>
</g>
<!-- gz_files -->
<g id="node32" class="node">
<title>gz_files</title>
<polygon fill="#94ddf4" stroke="#000000" points="849,-35.5 849,-54.5 899,-54.5 899,-35.5 849,-35.5"/>
<text text-anchor="middle" x="874" y="-42.5" font-family="Helvetica,sans-Serif" font-size="10.00" fill="#000000">gz_files</text>
</g>
<!-- sequence&#45;categorisation_folder -->
<g id="node33" class="node">
<title>sequence&#45;categorisation_folder</title>
<polygon fill="#94ddf4" stroke="#000000" points="903,-35.5 903,-54.5 1055,-54.5 1055,-35.5 903,-35.5"/>
<text text-anchor="middle" x="979" y="-42.5" font-family="Helvetica,sans-Serif" font-size="10.00" fill="#000000">sequence&#45;categorisation_folder</text>
</g>
<!-- taxonomy&#45;summary_folder -->
<g id="node34" class="node">
<title>taxonomy&#45;summary_folder</title>
<polygon fill="#94ddf4" stroke="#000000" points="1059,-35.5 1059,-54.5 1191,-54.5 1191,-35.5 1059,-35.5"/>
<text text-anchor="middle" x="1125" y="-42.5" font-family="Helvetica,sans-Serif" font-size="10.00" fill="#000000">taxonomy&#45;summary_folder</text>
</g>
<!-- rna&#45;count -->
<g id="node35" class="node">
<title>rna&#45;count</title>
<polygon fill="#94ddf4" stroke="#000000" points="526.5,-35.5 526.5,-54.5 583.5,-54.5 583.5,-35.5 526.5,-35.5"/>
<text text-anchor="middle" x="555" y="-42.5" font-family="Helvetica,sans-Serif" font-size="10.00" fill="#000000">rna&#45;count</text>
</g>
<!-- ITS&#45;length -->
<g id="node36" class="node">
<title>ITS&#45;length</title>
<polygon fill="#94ddf4" stroke="#000000" points="588,-35.5 588,-54.5 650,-54.5 650,-35.5 588,-35.5"/>
<text text-anchor="middle" x="619" y="-42.5" font-family="Helvetica,sans-Serif" font-size="10.00" fill="#000000">ITS&#45;length</text>
</g>
<!-- suppressed_upload -->
<g id="node37" class="node">
<title>suppressed_upload</title>
<polygon fill="#94ddf4" stroke="#000000" points="654.5,-35.5 654.5,-54.5 755.5,-54.5 755.5,-35.5 654.5,-35.5"/>
<text text-anchor="middle" x="705" y="-42.5" font-family="Helvetica,sans-Serif" font-size="10.00" fill="#000000">suppressed_upload</text>
</g>
<!-- completed_flag_file -->
<g id="node38" class="node">
<title>completed_flag_file</title>
<polygon fill="#94ddf4" stroke="#000000" points="1724.5,-35.5 1724.5,-54.5 1825.5,-54.5 1825.5,-35.5 1724.5,-35.5"/>
<text text-anchor="middle" x="1775" y="-42.5" font-family="Helvetica,sans-Serif" font-size="10.00" fill="#000000">completed_flag_file</text>
</g>
<!-- no_tax_flag_file -->
<g id="node39" class="node">
<title>no_tax_flag_file</title>
<polygon fill="#94ddf4" stroke="#000000" points="759.5,-35.5 759.5,-54.5 844.5,-54.5 844.5,-35.5 759.5,-35.5"/>
<text text-anchor="middle" x="802" y="-42.5" font-family="Helvetica,sans-Serif" font-size="10.00" fill="#000000">no_tax_flag_file</text>
</g>
<!-- before&#45;qc&#45;&gt;qc&#45;statistics -->
<g id="edge31" class="edge">
<title>before&#45;qc&#45;&gt;qc&#45;statistics</title>
<path fill="none" stroke="#000000" d="M1498.5679,-138.5754C1537.3395,-131.4763 1607.4569,-114.6639 1657,-80 1664.3223,-74.8768 1670.7099,-67.3065 1675.5278,-60.5157"/>
<polygon fill="#000000" stroke="#000000" points="1677.6357,-61.7711 1679.4929,-54.591 1673.5635,-59.0457 1677.6357,-61.7711"/>
</g>
<!-- before&#45;qc&#45;&gt;qc_summary -->
<g id="edge32" class="edge">
<title>before&#45;qc&#45;&gt;qc_summary</title>
<path fill="none" stroke="#000000" d="M1443.106,-133.4351C1424.2252,-126.6108 1398.4411,-117.0719 1376,-108 1329.6853,-89.277 1318.7599,-83.0409 1273,-63 1268.8877,-61.199 1264.5443,-59.2945 1260.2834,-57.425"/>
<polygon fill="#000000" stroke="#000000" points="1261.095,-55.1056 1253.7005,-54.5357 1259.1256,-59.5925 1261.095,-55.1056"/>
</g>
<!-- before&#45;qc&#45;&gt;qc&#45;status -->
<g id="edge33" class="edge">
<title>before&#45;qc&#45;&gt;qc&#45;status</title>
<path fill="none" stroke="#000000" d="M1453.4879,-133.4249C1423.1503,-115.8327 1358.4898,-78.3373 1323.9193,-58.2905"/>
<polygon fill="#000000" stroke="#000000" points="1325.1141,-56.1512 1317.8295,-54.7591 1322.656,-60.3901 1325.1141,-56.1512"/>
</g>
<!-- before&#45;qc&#45;&gt;hashsum_paired -->
<g id="edge34" class="edge">
<title>before&#45;qc&#45;&gt;hashsum_paired</title>
<path fill="none" stroke="#000000" d="M1460.8423,-133.2451C1444.7233,-116.0748 1411.186,-80.3503 1392.0955,-60.0148"/>
<polygon fill="#000000" stroke="#000000" points="1393.6979,-58.1421 1387.1206,-54.7154 1390.1255,-61.4959 1393.6979,-58.1421"/>
</g>
<!-- before&#45;qc&#45;&gt;hashsum_single -->
<g id="edge35" class="edge">
<title>before&#45;qc&#45;&gt;hashsum_single</title>
<path fill="none" stroke="#000000" d="M1470,-133.2451C1470,-116.5884 1470,-82.4711 1470,-61.8802"/>
<polygon fill="#000000" stroke="#000000" points="1472.4501,-61.7154 1470,-54.7154 1467.5501,-61.7155 1472.4501,-61.7154"/>
</g>
<!-- before&#45;qc&#45;&gt;fastp_filtering_json_report -->
<g id="edge36" class="edge">
<title>before&#45;qc&#45;&gt;fastp_filtering_json_report</title>
<path fill="none" stroke="#000000" d="M1481.1485,-133.2451C1500.9394,-115.928 1542.2991,-79.7383 1565.4322,-59.4968"/>
<polygon fill="#000000" stroke="#000000" points="1567.2419,-61.1688 1570.8966,-54.7154 1564.0152,-57.4812 1567.2419,-61.1688"/>
</g>
<!-- before&#45;qc&#45;&gt;after&#45;qc -->
<g id="edge6" class="edge">
<title>before&#45;qc&#45;&gt;after&#45;qc</title>
<path fill="none" stroke="#000000" d="M1441.1479,-142.4701C1388.311,-141.2118 1278.122,-137.1737 1242,-125 1234.9903,-122.6376 1235.0514,-118.2346 1228,-116 1191.073,-104.2981 928.6738,-99.6749 836.1752,-98.3973"/>
<polygon fill="#000000" stroke="#000000" points="836.0745,-95.9458 829.042,-98.3007 836.0081,-100.8453 836.0745,-95.9458"/>
<text text-anchor="middle" x="1253" y="-118.6" font-family="Helvetica,sans-Serif" font-size="8.00" fill="#000000">status</text>
</g>
<!-- before&#45;qc&#45;&gt;after&#45;qc -->
<g id="edge7" class="edge">
<title>before&#45;qc&#45;&gt;after&#45;qc</title>
<path fill="none" stroke="#000000" d="M1441.312,-142.2951C1394.2716,-140.8207 1302.9696,-136.5314 1273,-125 1266.778,-122.606 1267.2818,-118.2323 1261,-116 1221.3505,-101.9105 934.0234,-98.8126 836.3768,-98.1638"/>
<polygon fill="#000000" stroke="#000000" points="836.1545,-95.7125 829.1391,-98.118 836.1234,-100.6124 836.1545,-95.7125"/>
<text text-anchor="middle" x="1296" y="-118.6" font-family="Helvetica,sans-Serif" font-size="8.00" fill="#000000">filtered_fasta</text>
</g>
<!-- touch_file_flag -->
<g id="node42" class="node">
<title>touch_file_flag</title>
<polygon fill="#fafad2" stroke="#000000" points="1842,-35.5 1842,-54.5 1922,-54.5 1922,-35.5 1842,-35.5"/>
<text text-anchor="middle" x="1882" y="-42.5" font-family="Helvetica,sans-Serif" font-size="10.00" fill="#000000">touch_file_flag</text>
</g>
<!-- before&#45;qc&#45;&gt;touch_file_flag -->
<g id="edge28" class="edge">
<title>before&#45;qc&#45;&gt;touch_file_flag</title>
<path fill="none" stroke="#000000" d="M1498.6944,-142.5564C1586.4669,-140.9226 1847.0314,-133.9137 1874,-108 1886.0741,-96.3982 1886.6377,-76.3888 1885.0986,-62.0309"/>
<polygon fill="#000000" stroke="#000000" points="1887.4741,-61.3228 1884.087,-54.725 1882.6204,-61.9949 1887.4741,-61.3228"/>
<text text-anchor="middle" x="1895" y="-96.1" font-family="Helvetica,sans-Serif" font-size="8.00" fill="#000000">status</text>
</g>
<!-- after&#45;qc&#45;&gt;gz_files -->
<g id="edge37" class="edge">
<title>after&#45;qc&#45;&gt;gz_files</title>
<path fill="none" stroke="#000000" d="M816.8391,-88.279C827.6932,-80.0609 843.3778,-68.1854 855.5726,-58.9522"/>
<polygon fill="#000000" stroke="#000000" points="857.1404,-60.8382 861.2423,-54.6594 854.1826,-56.9316 857.1404,-60.8382"/>
</g>
<!-- after&#45;qc&#45;&gt;sequence&#45;categorisation_folder -->
<g id="edge38" class="edge">
<title>after&#45;qc&#45;&gt;sequence&#45;categorisation_folder</title>
<path fill="none" stroke="#000000" d="M829.0732,-90.4064C858.1904,-81.5881 906.5516,-66.9415 940.4547,-56.6737"/>
<polygon fill="#000000" stroke="#000000" points="941.4683,-58.9267 947.4576,-54.5528 940.048,-54.2371 941.4683,-58.9267"/>
</g>
<!-- after&#45;qc&#45;&gt;taxonomy&#45;summary_folder -->
<g id="edge39" class="edge">
<title>after&#45;qc&#45;&gt;taxonomy&#45;summary_folder</title>
<path fill="none" stroke="#000000" d="M829.0946,-95.4524C874.4522,-90.6367 972.9901,-79.2079 1055,-63 1064.5095,-61.1206 1074.6539,-58.7364 1084.1841,-56.3232"/>
<polygon fill="#000000" stroke="#000000" points="1084.83,-58.6869 1090.9972,-54.5677 1083.6073,-53.9419 1084.83,-58.6869"/>
</g>
<!-- after&#45;qc&#45;&gt;rna&#45;count -->
<g id="edge40" class="edge">
<title>after&#45;qc&#45;&gt;rna&#45;count</title>
<path fill="none" stroke="#000000" d="M778.9882,-96.8613C737.9908,-94.3587 654.4114,-86.5695 588,-63 584.233,-61.6631 580.3795,-59.9355 576.6966,-58.0807"/>
<polygon fill="#000000" stroke="#000000" points="577.6348,-55.8041 570.3069,-54.6617 575.323,-60.1245 577.6348,-55.8041"/>
</g>
<!-- after&#45;qc&#45;&gt;ITS&#45;length -->
<g id="edge41" class="edge">
<title>after&#45;qc&#45;&gt;ITS&#45;length</title>
<path fill="none" stroke="#000000" d="M778.7687,-94.0669C748.5096,-88.9078 696.5452,-78.6326 654,-63 650.0556,-61.5507 645.9865,-59.7589 642.0801,-57.8728"/>
<polygon fill="#000000" stroke="#000000" points="643.063,-55.6245 635.7104,-54.6535 640.8527,-59.9977 643.063,-55.6245"/>
</g>
<!-- after&#45;qc&#45;&gt;suppressed_upload -->
<g id="edge42" class="edge">
<title>after&#45;qc&#45;&gt;suppressed_upload</title>
<path fill="none" stroke="#000000" d="M785.8419,-88.279C770.0724,-79.8367 747.0935,-67.5349 729.6618,-58.2028"/>
<polygon fill="#000000" stroke="#000000" points="730.3707,-55.8033 723.043,-54.6594 728.058,-60.1232 730.3707,-55.8033"/>
</g>
<!-- after&#45;qc&#45;&gt;no_tax_flag_file -->
<g id="edge44" class="edge">
<title>after&#45;qc&#45;&gt;no_tax_flag_file</title>
<path fill="none" stroke="#000000" d="M803.6332,-88.279C803.3541,-80.8827 802.9632,-70.5239 802.6338,-61.7951"/>
<polygon fill="#000000" stroke="#000000" points="805.0768,-61.562 802.3645,-54.6594 800.1803,-61.7468 805.0768,-61.562"/>
</g>
<!-- after&#45;qc&#45;&gt;touch_file_flag -->
<g id="edge29" class="edge">
<title>after&#45;qc&#45;&gt;touch_file_flag</title>
<path fill="none" stroke="#000000" d="M829.1562,-97.6443C977.3757,-95.482 1733.7401,-83.5096 1835,-63 1841.5406,-61.6752 1848.3618,-59.5388 1854.7141,-57.193"/>
<polygon fill="#000000" stroke="#000000" points="1855.754,-59.4173 1861.3875,-54.5937 1853.9756,-54.8514 1855.754,-59.4173"/>
<text text-anchor="middle" x="1755" y="-73.6" font-family="Helvetica,sans-Serif" font-size="8.00" fill="#000000">count</text>
</g>
<!-- default1 -->
<g id="node43" class="node">
<title>default1</title>
<polygon fill="#d5aefc" stroke="#000000" points="1799.5,-88.5 1799.5,-107.5 1874.5,-107.5 1874.5,-88.5 1799.5,-88.5"/>
<text text-anchor="middle" x="1837" y="-95.5" font-family="Helvetica,sans-Serif" font-size="10.00" fill="#000000">wf&#45;completed</text>
</g>
<!-- default1&#45;&gt;touch_file_flag -->
<g id="edge30" class="edge">
<title>default1&#45;&gt;touch_file_flag</title>
<path fill="none" stroke="#000000" d="M1839.1216,-88.3396C1840.6621,-82.8694 1843.1621,-76.1194 1847,-71 1850.3841,-66.486 1854.7643,-62.3966 1859.2738,-58.8671"/>
<polygon fill="#000000" stroke="#000000" points="1860.7724,-60.8067 1864.9898,-54.7062 1857.8886,-56.8452 1860.7724,-60.8067"/>
<text text-anchor="middle" x="1862.5" y="-73.6" font-family="Helvetica,sans-Serif" font-size="8.00" fill="#000000">filename</text>
</g>
</g>
</svg>
