<?xml version="1.0" encoding="UTF-8" standalone="no"?>
<!DOCTYPE svg PUBLIC "-//W3C//DTD SVG 1.1//EN"
 "http://www.w3.org/Graphics/SVG/1.1/DTD/svg11.dtd">
<!-- Generated by graphviz version 2.40.1 (0)
 -->
<!-- Title: workflow Pages: 1 -->
<svg width="127pt" height="201pt"
 viewBox="0.00 0.00 131.00 207.00" xmlns="http://www.w3.org/2000/svg" xmlns:xlink="http://www.w3.org/1999/xlink">
<g id="graph0" class="graph" transform="scale(.9722 .9722) rotate(0) translate(4 203)">
<title>workflow</title>
<g id="clust1" class="cluster">
<title>cluster_inputs</title>
<polygon fill="transparent" stroke="#000000" stroke-dasharray="5,2" points="10.5,-136 10.5,-191 112.5,-191 112.5,-136 10.5,-136"/>
<text text-anchor="middle" x="53" y="-179" font-family="Times,serif" font-size="10.00" fill="#000000">Workflow Inputs</text>
</g>
<!-- 0_Input Dataset -->
<g id="node1" class="node">
<title>0_Input Dataset</title>
<polygon fill="#94ddf4" stroke="#000000" points="19,-144.5 19,-163.5 104,-163.5 104,-144.5 19,-144.5"/>
<text text-anchor="middle" x="61.5" y="-151.5" font-family="Helvetica,sans-Serif" font-size="10.00" fill="#000000">0_Input Dataset</text>
</g>
<!-- 1_Enumerate changes -->
<g id="node2" class="node">
<title>1_Enumerate changes</title>
<polygon fill="#fafad2" stroke="#000000" points="5,-108.5 5,-127.5 118,-127.5 118,-108.5 5,-108.5"/>
<text text-anchor="middle" x="61.5" y="-115.5" font-family="Helvetica,sans-Serif" font-size="10.00" fill="#000000">1_Enumerate changes</text>
</g>
<!-- 0_Input Dataset&#45;&gt;1_Enumerate changes -->
<g id="edge1" class="edge">
<title>0_Input Dataset&#45;&gt;1_Enumerate changes</title>
<path fill="none" stroke="#000000" d="M61.5,-144.1628C61.5,-141.2587 61.5,-137.9949 61.5,-134.783"/>
<polygon fill="#000000" stroke="#000000" points="63.9501,-134.5764 61.5,-127.5764 59.0501,-134.5765 63.9501,-134.5764"/>
</g>
<!-- 2_Split file -->
<g id="node5" class="node">
<title>2_Split file</title>
<polygon fill="#fafad2" stroke="#000000" points="31,-72.5 31,-91.5 92,-91.5 92,-72.5 31,-72.5"/>
<text text-anchor="middle" x="61.5" y="-79.5" font-family="Helvetica,sans-Serif" font-size="10.00" fill="#000000">2_Split file</text>
</g>
<!-- 1_Enumerate changes&#45;&gt;2_Split file -->
<g id="edge4" class="edge">
<title>1_Enumerate changes&#45;&gt;2_Split file</title>
<path fill="none" stroke="#000000" d="M61.5,-108.1628C61.5,-105.2587 61.5,-101.9949 61.5,-98.783"/>
<polygon fill="#000000" stroke="#000000" points="63.9501,-98.5764 61.5,-91.5764 59.0501,-98.5765 63.9501,-98.5764"/>
</g>
<!-- 4_Concatenate datasets -->
<g id="node3" class="node">
<title>4_Concatenate datasets</title>
<polygon fill="#fafad2" stroke="#000000" points=".5,-.5 .5,-19.5 122.5,-19.5 122.5,-.5 .5,-.5"/>
<text text-anchor="middle" x="61.5" y="-7.5" font-family="Helvetica,sans-Serif" font-size="10.00" fill="#000000">4_Concatenate datasets</text>
</g>
<!-- 3_Compound conversion -->
<g id="node4" class="node">
<title>3_Compound conversion</title>
<polygon fill="#fafad2" stroke="#000000" points="0,-36.5 0,-55.5 123,-55.5 123,-36.5 0,-36.5"/>
<text text-anchor="middle" x="61.5" y="-43.5" font-family="Helvetica,sans-Serif" font-size="10.00" fill="#000000">3_Compound conversion</text>
</g>
<!-- 3_Compound conversion&#45;&gt;4_Concatenate datasets -->
<g id="edge2" class="edge">
<title>3_Compound conversion&#45;&gt;4_Concatenate datasets</title>
<path fill="none" stroke="#000000" d="M61.5,-36.1628C61.5,-33.2587 61.5,-29.9949 61.5,-26.783"/>
<polygon fill="#000000" stroke="#000000" points="63.9501,-26.5764 61.5,-19.5764 59.0501,-26.5765 63.9501,-26.5764"/>
</g>
<!-- 2_Split file&#45;&gt;3_Compound conversion -->
<g id="edge3" class="edge">
<title>2_Split file&#45;&gt;3_Compound conversion</title>
<path fill="none" stroke="#000000" d="M61.5,-72.1628C61.5,-69.2587 61.5,-65.9949 61.5,-62.783"/>
<polygon fill="#000000" stroke="#000000" points="63.9501,-62.5764 61.5,-55.5764 59.0501,-62.5765 63.9501,-62.5764"/>
</g>
</g>
</svg>
