<?xml version="1.0" encoding="UTF-8" standalone="no"?>
<!DOCTYPE svg PUBLIC "-//W3C//DTD SVG 1.1//EN"
 "http://www.w3.org/Graphics/SVG/1.1/DTD/svg11.dtd">
<!-- Generated by graphviz version 2.43.0 (0)
 -->
<!-- Title: workflow Pages: 1 -->
<svg width="1725pt" height="429pt"
 viewBox="0.00 0.00 1725.00 429.00" xmlns="http://www.w3.org/2000/svg" xmlns:xlink="http://www.w3.org/1999/xlink">
<g id="graph0" class="graph" transform="scale(1 1) rotate(0) translate(4 425)">
<title>workflow</title>
<polygon fill="white" stroke="transparent" points="-4,4 -4,-425 1721,-425 1721,4 -4,4"/>
<g id="clust1" class="cluster">
<title>cluster_inputs</title>
<polygon fill="none" stroke="black" stroke-dasharray="5,2" points="741,-358 741,-413 921,-413 921,-358 741,-358"/>
<text text-anchor="middle" x="788.5" y="-401" font-family="Helvetica,sans-Serif" font-size="10.00">Workflow Inputs</text>
</g>
<g id="clust2" class="cluster">
<title>cluster_outputs</title>
<polygon fill="none" stroke="black" stroke-dasharray="5,2" points="31,-8 31,-63 1509,-63 1509,-8 31,-8"/>
<text text-anchor="middle" x="82.5" y="-15" font-family="Helvetica,sans-Serif" font-size="10.00">Workflow Outputs</text>
</g>
<!-- step&#45;1&#45;data -->
<g id="node1" class="node">
<title>step&#45;1&#45;data</title>
<polygon fill="#94ddf4" stroke="black" points="851,-366.5 851,-385.5 913,-385.5 913,-366.5 851,-366.5"/>
<text text-anchor="middle" x="882" y="-373.5" font-family="Helvetica,sans-Serif" font-size="10.00">Input File</text>
</g>
<!-- step&#45;1 -->
<g id="node16" class="node">
<title>step&#45;1</title>
<polygon fill="lightgoldenrodyellow" stroke="black" points="1007,-313.5 1007,-332.5 1069,-332.5 1069,-313.5 1007,-313.5"/>
<text text-anchor="middle" x="1038" y="-320.5" font-family="Helvetica,sans-Serif" font-size="10.00">Input File</text>
</g>
<!-- step&#45;1&#45;data&#45;&gt;step&#45;1 -->
<g id="edge1" class="edge">
<title>step&#45;1&#45;data&#45;&gt;step&#45;1</title>
<path fill="none" stroke="black" d="M908.11,-366.46C934.77,-357.75 976.23,-344.19 1005.11,-334.75"/>
<polygon fill="black" stroke="black" points="1005.91,-337.07 1011.8,-332.56 1004.39,-332.41 1005.91,-337.07"/>
<text text-anchor="middle" x="992.5" y="-343.6" font-family="Helvetica,sans-Serif" font-size="8.00">data</text>
</g>
<!-- step&#45;4&#45;data -->
<g id="node2" class="node">
<title>step&#45;4&#45;data</title>
<polygon fill="#94ddf4" stroke="black" points="749,-366.5 749,-385.5 847,-385.5 847,-366.5 749,-366.5"/>
<text text-anchor="middle" x="798" y="-373.5" font-family="Helvetica,sans-Serif" font-size="10.00">Select One Gene</text>
</g>
<!-- step&#45;4 -->
<g id="node19" class="node">
<title>step&#45;4</title>
<polygon fill="lightgoldenrodyellow" stroke="black" points="694,-178.5 694,-197.5 792,-197.5 792,-178.5 694,-178.5"/>
<text text-anchor="middle" x="743" y="-185.5" font-family="Helvetica,sans-Serif" font-size="10.00">Select One Gene</text>
</g>
<!-- step&#45;4&#45;data&#45;&gt;step&#45;4 -->
<g id="edge7" class="edge">
<title>step&#45;4&#45;data&#45;&gt;step&#45;4</title>
<path fill="none" stroke="black" d="M777.78,-366.48C761.74,-358.22 742,-343.99 742,-324 742,-324 742,-324 742,-232 742,-223.04 742.22,-213.03 742.45,-204.93"/>
<polygon fill="black" stroke="black" points="744.91,-204.64 742.68,-197.57 740.02,-204.48 744.91,-204.64"/>
<text text-anchor="middle" x="751.5" y="-276.1" font-family="Helvetica,sans-Serif" font-size="8.00">data</text>
</g>
<!-- step&#45;1&#45;output -->
<g id="node3" class="node">
<title>step&#45;1&#45;output</title>
<polygon fill="#94ddf4" stroke="black" points="1071,-35.5 1071,-54.5 1127,-54.5 1127,-35.5 1071,-35.5"/>
<text text-anchor="middle" x="1099" y="-42.5" font-family="Helvetica,sans-Serif" font-size="10.00">File URL</text>
</g>
<!-- step&#45;2&#45;output -->
<g id="node4" class="node">
<title>step&#45;2&#45;output</title>
<polygon fill="#94ddf4" stroke="black" points="1393,-35.5 1393,-54.5 1501,-54.5 1501,-35.5 1393,-35.5"/>
<text text-anchor="middle" x="1447" y="-42.5" font-family="Helvetica,sans-Serif" font-size="10.00">Gene Count Matrix</text>
</g>
<!-- step&#45;3&#45;output -->
<g id="node5" class="node">
<title>step&#45;3&#45;output</title>
<polygon fill="#94ddf4" stroke="black" points="1218.5,-35.5 1218.5,-54.5 1301.5,-54.5 1301.5,-35.5 1218.5,-35.5"/>
<text text-anchor="middle" x="1260" y="-42.5" font-family="Helvetica,sans-Serif" font-size="10.00">Scored Genes</text>
</g>
<!-- step&#45;4&#45;output -->
<g id="node6" class="node">
<title>step&#45;4&#45;output</title>
<polygon fill="#94ddf4" stroke="black" points="723,-35.5 723,-54.5 765,-54.5 765,-35.5 723,-35.5"/>
<text text-anchor="middle" x="744" y="-42.5" font-family="Helvetica,sans-Serif" font-size="10.00">Gene</text>
</g>
<!-- step&#45;5&#45;output -->
<g id="node7" class="node">
<title>step&#45;5&#45;output</title>
<polygon fill="#94ddf4" stroke="black" points="855,-35.5 855,-54.5 1067,-54.5 1067,-35.5 855,-35.5"/>
<text text-anchor="middle" x="961" y="-42.5" font-family="Helvetica,sans-Serif" font-size="10.00">LINCS L1000 Reverse Search Dashboard</text>
</g>
<!-- step&#45;6&#45;output -->
<g id="node8" class="node">
<title>step&#45;6&#45;output</title>
<polygon fill="#94ddf4" stroke="black" points="769.5,-35.5 769.5,-54.5 850.5,-54.5 850.5,-35.5 769.5,-35.5"/>
<text text-anchor="middle" x="810" y="-42.5" font-family="Helvetica,sans-Serif" font-size="10.00">Scored Drugs</text>
</g>
<!-- step&#45;7&#45;output -->
<g id="node9" class="node">
<title>step&#45;7&#45;output</title>
<polygon fill="#94ddf4" stroke="black" points="1131.5,-35.5 1131.5,-54.5 1214.5,-54.5 1214.5,-35.5 1131.5,-35.5"/>
<text text-anchor="middle" x="1173" y="-42.5" font-family="Helvetica,sans-Serif" font-size="10.00">Scored Genes</text>
</g>
<!-- step&#45;8&#45;output -->
<g id="node10" class="node">
<title>step&#45;8&#45;output</title>
<polygon fill="#94ddf4" stroke="black" points="1305.5,-35.5 1305.5,-54.5 1388.5,-54.5 1388.5,-35.5 1305.5,-35.5"/>
<text text-anchor="middle" x="1347" y="-42.5" font-family="Helvetica,sans-Serif" font-size="10.00">Scored Genes</text>
</g>
<!-- step&#45;9&#45;output -->
<g id="node11" class="node">
<title>step&#45;9&#45;output</title>
<polygon fill="#94ddf4" stroke="black" points="325.5,-35.5 325.5,-54.5 438.5,-54.5 438.5,-35.5 325.5,-35.5"/>
<text text-anchor="middle" x="382" y="-42.5" font-family="Helvetica,sans-Serif" font-size="10.00">MetGENE Summary</text>
</g>
<!-- step&#45;10&#45;output -->
<g id="node12" class="node">
<title>step&#45;10&#45;output</title>
<polygon fill="#94ddf4" stroke="black" points="175,-35.5 175,-54.5 321,-54.5 321,-35.5 175,-35.5"/>
<text text-anchor="middle" x="248" y="-42.5" font-family="Helvetica,sans-Serif" font-size="10.00">MetGENE metabolite table</text>
</g>
<!-- step&#45;11&#45;output -->
<g id="node13" class="node">
<title>step&#45;11&#45;output</title>
<polygon fill="#94ddf4" stroke="black" points="442.5,-35.5 442.5,-54.5 579.5,-54.5 579.5,-35.5 442.5,-35.5"/>
<text text-anchor="middle" x="511" y="-42.5" font-family="Helvetica,sans-Serif" font-size="10.00">MetGENE Reaction Table</text>
</g>
<!-- step&#45;12&#45;output -->
<g id="node14" class="node">
<title>step&#45;12&#45;output</title>
<polygon fill="#94ddf4" stroke="black" points="39,-35.5 39,-54.5 171,-54.5 171,-35.5 39,-35.5"/>
<text text-anchor="middle" x="105" y="-42.5" font-family="Helvetica,sans-Serif" font-size="10.00">Regulatory Element Set</text>
</g>
<!-- step&#45;13&#45;output -->
<g id="node15" class="node">
<title>step&#45;13&#45;output</title>
<polygon fill="#94ddf4" stroke="black" points="583.5,-35.5 583.5,-54.5 718.5,-54.5 718.5,-35.5 583.5,-35.5"/>
<text text-anchor="middle" x="651" y="-42.5" font-family="Helvetica,sans-Serif" font-size="10.00">GlyGen Protein Products</text>
</g>
<!-- step&#45;1&#45;&gt;step&#45;1&#45;output -->
<g id="edge28" class="edge">
<title>step&#45;1&#45;&gt;step&#45;1&#45;output</title>
<path fill="none" stroke="black" d="M1038,-313.43C1038,-304.76 1038,-290.94 1038,-279 1038,-279 1038,-279 1038,-97 1038,-86.3 1060.35,-69.87 1078,-58.56"/>
<polygon fill="black" stroke="black" points="1079.61,-60.44 1084.23,-54.65 1077,-56.29 1079.61,-60.44"/>
</g>
<!-- step&#45;2 -->
<g id="node17" class="node">
<title>step&#45;2</title>
<polygon fill="lightgoldenrodyellow" stroke="black" points="1045.5,-268.5 1045.5,-287.5 1260.5,-287.5 1260.5,-268.5 1045.5,-268.5"/>
<text text-anchor="middle" x="1153" y="-275.5" font-family="Helvetica,sans-Serif" font-size="10.00">Resolve a Gene Count Matrix from a File</text>
</g>
<!-- step&#45;1&#45;&gt;step&#45;2 -->
<g id="edge3" class="edge">
<title>step&#45;1&#45;&gt;step&#45;2</title>
<path fill="none" stroke="black" d="M1061,-313.4C1078.94,-306.69 1103.99,-297.32 1123.43,-290.06"/>
<polygon fill="black" stroke="black" points="1124.35,-292.33 1130.04,-287.58 1122.63,-287.74 1124.35,-292.33"/>
<text text-anchor="middle" x="1121" y="-298.6" font-family="Helvetica,sans-Serif" font-size="8.00">File URL</text>
</g>
<!-- step&#45;2&#45;&gt;step&#45;2&#45;output -->
<g id="edge29" class="edge">
<title>step&#45;2&#45;&gt;step&#45;2&#45;output</title>
<path fill="none" stroke="black" d="M1260.56,-274.96C1318.41,-270.82 1378,-260.2 1378,-234 1378,-234 1378,-234 1378,-97 1378,-85.03 1377.06,-79.96 1385,-71 1390.07,-65.28 1396.63,-60.85 1403.59,-57.42"/>
<polygon fill="black" stroke="black" points="1404.65,-59.63 1410.05,-54.55 1402.66,-55.16 1404.65,-59.63"/>
</g>
<!-- step&#45;3 -->
<g id="node18" class="node">
<title>step&#45;3</title>
<polygon fill="lightgoldenrodyellow" stroke="black" points="859,-223.5 859,-242.5 1031,-242.5 1031,-223.5 859,-223.5"/>
<text text-anchor="middle" x="945" y="-230.5" font-family="Helvetica,sans-Serif" font-size="10.00">Screen for Targets against GTEx</text>
</g>
<!-- step&#45;2&#45;&gt;step&#45;3 -->
<g id="edge5" class="edge">
<title>step&#45;2&#45;&gt;step&#45;3</title>
<path fill="none" stroke="black" d="M1111.41,-268.4C1077.29,-261.35 1028.94,-251.35 993.15,-243.95"/>
<polygon fill="black" stroke="black" points="993.52,-241.53 986.16,-242.51 992.52,-246.33 993.52,-241.53"/>
<text text-anchor="middle" x="1105" y="-253.6" font-family="Helvetica,sans-Serif" font-size="8.00">Gene Count Matrix</text>
</g>
<!-- step&#45;3&#45;&gt;step&#45;3&#45;output -->
<g id="edge30" class="edge">
<title>step&#45;3&#45;&gt;step&#45;3&#45;output</title>
<path fill="none" stroke="black" d="M1031.31,-229.76C1135.24,-225.88 1296,-215.59 1296,-189 1296,-189 1296,-189 1296,-97 1296,-82.37 1285.99,-68.99 1276.52,-59.6"/>
<polygon fill="black" stroke="black" points="1278.18,-57.8 1271.39,-54.82 1274.84,-61.39 1278.18,-57.8"/>
</g>
<!-- step&#45;3&#45;&gt;step&#45;4 -->
<g id="edge8" class="edge">
<title>step&#45;3&#45;&gt;step&#45;4</title>
<path fill="none" stroke="black" d="M913.59,-223.4C893.26,-218 866.18,-211.12 842,-206 828.27,-203.09 813.39,-200.33 799.44,-197.92"/>
<polygon fill="black" stroke="black" points="799.55,-195.45 792.24,-196.68 798.73,-200.28 799.55,-195.45"/>
<text text-anchor="middle" x="907" y="-208.6" font-family="Helvetica,sans-Serif" font-size="8.00">Scored Genes</text>
</g>
<!-- step&#45;4&#45;&gt;step&#45;4&#45;output -->
<g id="edge31" class="edge">
<title>step&#45;4&#45;&gt;step&#45;4&#45;output</title>
<path fill="none" stroke="black" d="M743.06,-178.18C743.23,-154.94 743.68,-91.75 743.89,-61.95"/>
<polygon fill="black" stroke="black" points="746.34,-61.83 743.94,-54.82 741.44,-61.8 746.34,-61.83"/>
</g>
<!-- step&#45;5 -->
<g id="node20" class="node">
<title>step&#45;5</title>
<polygon fill="lightgoldenrodyellow" stroke="black" points="867,-133.5 867,-152.5 1023,-152.5 1023,-133.5 867,-133.5"/>
<text text-anchor="middle" x="945" y="-140.5" font-family="Helvetica,sans-Serif" font-size="10.00">LINCS L1000 Reverse Search</text>
</g>
<!-- step&#45;4&#45;&gt;step&#45;5 -->
<g id="edge10" class="edge">
<title>step&#45;4&#45;&gt;step&#45;5</title>
<path fill="none" stroke="black" d="M783.39,-178.4C816.39,-171.38 863.09,-161.44 897.81,-154.05"/>
<polygon fill="black" stroke="black" points="898.69,-156.36 905.02,-152.51 897.67,-151.57 898.69,-156.36"/>
<text text-anchor="middle" x="873" y="-163.6" font-family="Helvetica,sans-Serif" font-size="8.00">Gene</text>
</g>
<!-- step&#45;9 -->
<g id="node24" class="node">
<title>step&#45;9</title>
<polygon fill="lightgoldenrodyellow" stroke="black" points="369,-133.5 369,-152.5 467,-152.5 467,-133.5 369,-133.5"/>
<text text-anchor="middle" x="418" y="-140.5" font-family="Helvetica,sans-Serif" font-size="10.00">MetGENE Search</text>
</g>
<!-- step&#45;4&#45;&gt;step&#45;9 -->
<g id="edge18" class="edge">
<title>step&#45;4&#45;&gt;step&#45;9</title>
<path fill="none" stroke="black" d="M693.77,-181.5C640.82,-175.44 553.96,-165.08 474.27,-153.47"/>
<polygon fill="black" stroke="black" points="474.36,-151 467.08,-152.41 473.65,-155.85 474.36,-151"/>
<text text-anchor="middle" x="601" y="-163.6" font-family="Helvetica,sans-Serif" font-size="8.00">Gene</text>
</g>
<!-- step&#45;12 -->
<g id="node27" class="node">
<title>step&#45;12</title>
<polygon fill="lightgoldenrodyellow" stroke="black" points="0,-88.5 0,-107.5 210,-107.5 210,-88.5 0,-88.5"/>
<text text-anchor="middle" x="105" y="-95.5" font-family="Helvetica,sans-Serif" font-size="10.00">Resolve Regulatory Elements from LDH</text>
</g>
<!-- step&#45;4&#45;&gt;step&#45;12 -->
<g id="edge24" class="edge">
<title>step&#45;4&#45;&gt;step&#45;12</title>
<path fill="none" stroke="black" d="M693.97,-185.63C560.37,-181.68 198.53,-169.5 179,-153 166.07,-142.07 181.86,-128.07 170,-116 168.32,-114.29 166.5,-112.75 164.56,-111.36"/>
<polygon fill="black" stroke="black" points="165.69,-109.18 158.44,-107.61 163.13,-113.36 165.69,-109.18"/>
<text text-anchor="middle" x="190" y="-141.1" font-family="Helvetica,sans-Serif" font-size="8.00">Gene</text>
</g>
<!-- step&#45;13 -->
<g id="node28" class="node">
<title>step&#45;13</title>
<polygon fill="lightgoldenrodyellow" stroke="black" points="549,-88.5 549,-107.5 737,-107.5 737,-88.5 549,-88.5"/>
<text text-anchor="middle" x="643" y="-95.5" font-family="Helvetica,sans-Serif" font-size="10.00">Search GlyGen for Protein Products</text>
</g>
<!-- step&#45;4&#45;&gt;step&#45;13 -->
<g id="edge26" class="edge">
<title>step&#45;4&#45;&gt;step&#45;13</title>
<path fill="none" stroke="black" d="M735.23,-178.35C729.71,-171.81 722.52,-162.37 718,-153 710.61,-137.65 720.09,-128 708,-116 706.26,-114.28 704.37,-112.72 702.36,-111.31"/>
<polygon fill="black" stroke="black" points="703.3,-109.02 696.03,-107.54 700.79,-113.23 703.3,-109.02"/>
<text text-anchor="middle" x="729" y="-141.1" font-family="Helvetica,sans-Serif" font-size="8.00">Gene</text>
</g>
<!-- step&#45;5&#45;&gt;step&#45;5&#45;output -->
<g id="edge32" class="edge">
<title>step&#45;5&#45;&gt;step&#45;5&#45;output</title>
<path fill="none" stroke="black" d="M1003.07,-133.5C1010.93,-131.24 1017.25,-128.44 1020,-125 1038.34,-102.04 1005.55,-74.35 981.96,-58.6"/>
<polygon fill="black" stroke="black" points="983.11,-56.42 975.9,-54.67 980.45,-60.53 983.11,-56.42"/>
</g>
<!-- step&#45;6 -->
<g id="node21" class="node">
<title>step&#45;6</title>
<polygon fill="lightgoldenrodyellow" stroke="black" points="750.5,-88.5 750.5,-107.5 955.5,-107.5 955.5,-88.5 750.5,-88.5"/>
<text text-anchor="middle" x="853" y="-95.5" font-family="Helvetica,sans-Serif" font-size="10.00">Extract Down Regulating Perturbagens</text>
</g>
<!-- step&#45;5&#45;&gt;step&#45;6 -->
<g id="edge12" class="edge">
<title>step&#45;5&#45;&gt;step&#45;6</title>
<path fill="none" stroke="black" d="M877.05,-133.44C868.43,-131.21 861.42,-128.43 858,-125 855.31,-122.3 853.84,-118.63 853.08,-114.89"/>
<polygon fill="black" stroke="black" points="855.51,-114.58 852.36,-107.86 850.63,-115.08 855.51,-114.58"/>
<text text-anchor="middle" x="940.5" y="-118.6" font-family="Helvetica,sans-Serif" font-size="8.00">LINCS L1000 Reverse Search Dashboard</text>
</g>
<!-- step&#45;7 -->
<g id="node22" class="node">
<title>step&#45;7</title>
<polygon fill="lightgoldenrodyellow" stroke="black" points="1082.5,-88.5 1082.5,-107.5 1279.5,-107.5 1279.5,-88.5 1082.5,-88.5"/>
<text text-anchor="middle" x="1181" y="-95.5" font-family="Helvetica,sans-Serif" font-size="10.00">Extract Down Regulating CRISPR KOs</text>
</g>
<!-- step&#45;5&#45;&gt;step&#45;7 -->
<g id="edge14" class="edge">
<title>step&#45;5&#45;&gt;step&#45;7</title>
<path fill="none" stroke="black" d="M999.2,-133.41C1009.87,-131.12 1020.88,-128.34 1031,-125 1039.87,-122.07 1041.03,-118.63 1050,-116 1059.65,-113.16 1069.85,-110.8 1080.11,-108.83"/>
<polygon fill="black" stroke="black" points="1080.78,-111.2 1087.22,-107.53 1079.89,-106.38 1080.78,-111.2"/>
<text text-anchor="middle" x="1132.5" y="-118.6" font-family="Helvetica,sans-Serif" font-size="8.00">LINCS L1000 Reverse Search Dashboard</text>
</g>
<!-- step&#45;6&#45;&gt;step&#45;6&#45;output -->
<g id="edge33" class="edge">
<title>step&#45;6&#45;&gt;step&#45;6&#45;output</title>
<path fill="none" stroke="black" d="M845.51,-88.12C839.04,-80.44 829.56,-69.2 822.02,-60.26"/>
<polygon fill="black" stroke="black" points="823.79,-58.55 817.4,-54.78 820.04,-61.71 823.79,-58.55"/>
</g>
<!-- step&#45;7&#45;&gt;step&#45;7&#45;output -->
<g id="edge34" class="edge">
<title>step&#45;7&#45;&gt;step&#45;7&#45;output</title>
<path fill="none" stroke="black" d="M1179.61,-88.12C1178.47,-80.88 1176.84,-70.47 1175.48,-61.82"/>
<polygon fill="black" stroke="black" points="1177.88,-61.32 1174.38,-54.78 1173.04,-62.08 1177.88,-61.32"/>
</g>
<!-- step&#45;8 -->
<g id="node23" class="node">
<title>step&#45;8</title>
<polygon fill="lightgoldenrodyellow" stroke="black" points="1517,-35.5 1517,-54.5 1717,-54.5 1717,-35.5 1517,-35.5"/>
<text text-anchor="middle" x="1617" y="-42.5" font-family="Helvetica,sans-Serif" font-size="10.00">Filter genes by Understudied Proteins</text>
</g>
<!-- step&#45;7&#45;&gt;step&#45;8 -->
<g id="edge16" class="edge">
<title>step&#45;7&#45;&gt;step&#45;8</title>
<path fill="none" stroke="black" d="M1276.9,-88.48C1342.61,-82.3 1431.71,-73.26 1510,-63 1526.17,-60.88 1543.67,-58.25 1559.73,-55.69"/>
<polygon fill="black" stroke="black" points="1560.48,-58.05 1567,-54.52 1559.7,-53.21 1560.48,-58.05"/>
<text text-anchor="middle" x="1467" y="-73.6" font-family="Helvetica,sans-Serif" font-size="8.00">Scored Genes</text>
</g>
<!-- step&#45;8&#45;&gt;step&#45;8&#45;output -->
<g id="edge35" class="edge">
<title>step&#45;8&#45;&gt;step&#45;8&#45;output</title>
<path fill="none" stroke="black" d="M1593.52,-54.51C1552.5,-69.76 1465.42,-95.98 1395,-75.5 1383.6,-72.18 1372.32,-65.25 1363.56,-58.84"/>
<polygon fill="black" stroke="black" points="1364.98,-56.84 1357.93,-54.53 1362,-60.73 1364.98,-56.84"/>
</g>
<!-- step&#45;9&#45;&gt;step&#45;9&#45;output -->
<g id="edge36" class="edge">
<title>step&#45;9&#45;&gt;step&#45;9&#45;output</title>
<path fill="none" stroke="black" d="M416.38,-133.23C415.34,-128.14 413.84,-121.64 412,-116 405.7,-96.74 396.19,-75.45 389.57,-61.46"/>
<polygon fill="black" stroke="black" points="391.64,-60.11 386.41,-54.86 387.23,-62.23 391.64,-60.11"/>
</g>
<!-- step&#45;10 -->
<g id="node25" class="node">
<title>step&#45;10</title>
<polygon fill="lightgoldenrodyellow" stroke="black" points="214.5,-88.5 214.5,-107.5 337.5,-107.5 337.5,-88.5 214.5,-88.5"/>
<text text-anchor="middle" x="276" y="-95.5" font-family="Helvetica,sans-Serif" font-size="10.00">MetGENE Metabolites</text>
</g>
<!-- step&#45;9&#45;&gt;step&#45;10 -->
<g id="edge20" class="edge">
<title>step&#45;9&#45;&gt;step&#45;10</title>
<path fill="none" stroke="black" d="M368.76,-135.44C357.69,-132.98 346.2,-129.61 336,-125 329.92,-122.26 329.88,-119.15 324,-116 320.01,-113.86 315.7,-111.9 311.35,-110.13"/>
<polygon fill="black" stroke="black" points="311.94,-107.73 304.53,-107.5 310.18,-112.3 311.94,-107.73"/>
<text text-anchor="middle" x="375.5" y="-118.6" font-family="Helvetica,sans-Serif" font-size="8.00">MetGENE Summary</text>
</g>
<!-- step&#45;11 -->
<g id="node26" class="node">
<title>step&#45;11</title>
<polygon fill="lightgoldenrodyellow" stroke="black" points="431.5,-88.5 431.5,-107.5 544.5,-107.5 544.5,-88.5 431.5,-88.5"/>
<text text-anchor="middle" x="488" y="-95.5" font-family="Helvetica,sans-Serif" font-size="10.00">MetGENE Reactions</text>
</g>
<!-- step&#45;9&#45;&gt;step&#45;11 -->
<g id="edge22" class="edge">
<title>step&#45;9&#45;&gt;step&#45;11</title>
<path fill="none" stroke="black" d="M421.86,-133.15C424.73,-127.51 429.17,-120.44 435,-116 437.69,-113.95 440.64,-112.14 443.72,-110.55"/>
<polygon fill="black" stroke="black" points="444.87,-112.72 450.2,-107.57 442.82,-108.27 444.87,-112.72"/>
<text text-anchor="middle" x="474.5" y="-118.6" font-family="Helvetica,sans-Serif" font-size="8.00">MetGENE Summary</text>
</g>
<!-- step&#45;10&#45;&gt;step&#45;10&#45;output -->
<g id="edge37" class="edge">
<title>step&#45;10&#45;&gt;step&#45;10&#45;output</title>
<path fill="none" stroke="black" d="M271.12,-88.12C267.03,-80.66 261.09,-69.84 256.25,-61.03"/>
<polygon fill="black" stroke="black" points="258.34,-59.74 252.82,-54.78 254.04,-62.1 258.34,-59.74"/>
</g>
<!-- step&#45;11&#45;&gt;step&#45;11&#45;output -->
<g id="edge38" class="edge">
<title>step&#45;11&#45;&gt;step&#45;11&#45;output</title>
<path fill="none" stroke="black" d="M492.01,-88.12C495.34,-80.73 500.15,-70.05 504.1,-61.29"/>
<polygon fill="black" stroke="black" points="506.4,-62.17 507.04,-54.78 501.93,-60.16 506.4,-62.17"/>
</g>
<!-- step&#45;12&#45;&gt;step&#45;12&#45;output -->
<g id="edge39" class="edge">
<title>step&#45;12&#45;&gt;step&#45;12&#45;output</title>
<path fill="none" stroke="black" d="M105,-88.12C105,-80.88 105,-70.47 105,-61.82"/>
<polygon fill="black" stroke="black" points="107.45,-61.78 105,-54.78 102.55,-61.78 107.45,-61.78"/>
</g>
<!-- step&#45;13&#45;&gt;step&#45;13&#45;output -->
<g id="edge40" class="edge">
<title>step&#45;13&#45;&gt;step&#45;13&#45;output</title>
<path fill="none" stroke="black" d="M644.39,-88.12C645.53,-80.88 647.16,-70.47 648.52,-61.82"/>
<polygon fill="black" stroke="black" points="650.96,-62.08 649.62,-54.78 646.12,-61.32 650.96,-62.08"/>
</g>
<!-- default1 -->
<g id="node29" class="node">
<title>default1</title>
<polygon fill="#d5aefc" stroke="black" points="985,-366.5 985,-385.5 1091,-385.5 1091,-366.5 985,-366.5"/>
<text text-anchor="middle" x="1038" y="-373.5" font-family="Helvetica,sans-Serif" font-size="10.00">step&#45;1&#45;output.json</text>
</g>
<!-- default1&#45;&gt;step&#45;1 -->
<g id="edge2" class="edge">
<title>default1&#45;&gt;step&#45;1</title>
<path fill="none" stroke="black" d="M1038,-366.12C1038,-358.88 1038,-348.47 1038,-339.82"/>
<polygon fill="black" stroke="black" points="1040.45,-339.78 1038,-332.78 1035.55,-339.78 1040.45,-339.78"/>
<text text-anchor="middle" x="1070" y="-343.6" font-family="Helvetica,sans-Serif" font-size="8.00">outputFilename</text>
</g>
<!-- default2 -->
<g id="node30" class="node">
<title>default2</title>
<polygon fill="#d5aefc" stroke="black" points="1100,-313.5 1100,-332.5 1206,-332.5 1206,-313.5 1100,-313.5"/>
<text text-anchor="middle" x="1153" y="-320.5" font-family="Helvetica,sans-Serif" font-size="10.00">step&#45;2&#45;output.json</text>
</g>
<!-- default2&#45;&gt;step&#45;2 -->
<g id="edge4" class="edge">
<title>default2&#45;&gt;step&#45;2</title>
<path fill="none" stroke="black" d="M1153,-313.3C1153,-308.05 1153,-301.21 1153,-295.02"/>
<polygon fill="black" stroke="black" points="1155.45,-294.69 1153,-287.69 1150.55,-294.69 1155.45,-294.69"/>
<text text-anchor="middle" x="1185" y="-298.6" font-family="Helvetica,sans-Serif" font-size="8.00">outputFilename</text>
</g>
<!-- default3 -->
<g id="node31" class="node">
<title>default3</title>
<polygon fill="#d5aefc" stroke="black" points="828,-268.5 828,-287.5 934,-287.5 934,-268.5 828,-268.5"/>
<text text-anchor="middle" x="881" y="-275.5" font-family="Helvetica,sans-Serif" font-size="10.00">step&#45;3&#45;output.json</text>
</g>
<!-- default3&#45;&gt;step&#45;3 -->
<g id="edge6" class="edge">
<title>default3&#45;&gt;step&#45;3</title>
<path fill="none" stroke="black" d="M880.1,-268.29C880.02,-262.7 880.89,-255.65 885,-251 886.41,-249.4 887.96,-247.95 889.62,-246.63"/>
<polygon fill="black" stroke="black" points="891.16,-248.55 895.63,-242.63 888.44,-244.47 891.16,-248.55"/>
<text text-anchor="middle" x="917" y="-253.6" font-family="Helvetica,sans-Serif" font-size="8.00">outputFilename</text>
</g>
<!-- default4 -->
<g id="node32" class="node">
<title>default4</title>
<polygon fill="#d5aefc" stroke="black" points="749,-223.5 749,-242.5 855,-242.5 855,-223.5 749,-223.5"/>
<text text-anchor="middle" x="802" y="-230.5" font-family="Helvetica,sans-Serif" font-size="10.00">step&#45;4&#45;output.json</text>
</g>
<!-- default4&#45;&gt;step&#45;4 -->
<g id="edge9" class="edge">
<title>default4&#45;&gt;step&#45;4</title>
<path fill="none" stroke="black" d="M790.06,-223.3C781.66,-217.18 770.28,-208.88 760.82,-201.98"/>
<polygon fill="black" stroke="black" points="762.02,-199.83 754.92,-197.69 759.14,-203.79 762.02,-199.83"/>
<text text-anchor="middle" x="809" y="-208.6" font-family="Helvetica,sans-Serif" font-size="8.00">outputFilename</text>
</g>
<!-- default5 -->
<g id="node33" class="node">
<title>default5</title>
<polygon fill="#d5aefc" stroke="black" points="892,-178.5 892,-197.5 998,-197.5 998,-178.5 892,-178.5"/>
<text text-anchor="middle" x="945" y="-185.5" font-family="Helvetica,sans-Serif" font-size="10.00">step&#45;5&#45;output.json</text>
</g>
<!-- default5&#45;&gt;step&#45;5 -->
<g id="edge11" class="edge">
<title>default5&#45;&gt;step&#45;5</title>
<path fill="none" stroke="black" d="M945,-178.3C945,-173.05 945,-166.21 945,-160.02"/>
<polygon fill="black" stroke="black" points="947.45,-159.69 945,-152.69 942.55,-159.69 947.45,-159.69"/>
<text text-anchor="middle" x="977" y="-163.6" font-family="Helvetica,sans-Serif" font-size="8.00">outputFilename</text>
</g>
<!-- default6 -->
<g id="node34" class="node">
<title>default6</title>
<polygon fill="#d5aefc" stroke="black" points="751,-133.5 751,-152.5 857,-152.5 857,-133.5 751,-133.5"/>
<text text-anchor="middle" x="804" y="-140.5" font-family="Helvetica,sans-Serif" font-size="10.00">step&#45;6&#45;output.json</text>
</g>
<!-- default6&#45;&gt;step&#45;6 -->
<g id="edge13" class="edge">
<title>default6&#45;&gt;step&#45;6</title>
<path fill="none" stroke="black" d="M791.47,-133.47C785.5,-128.34 780.53,-121.73 785,-116 786.8,-113.69 790.33,-111.65 794.87,-109.86"/>
<polygon fill="black" stroke="black" points="795.78,-112.14 801.62,-107.57 794.21,-107.5 795.78,-112.14"/>
<text text-anchor="middle" x="817" y="-118.6" font-family="Helvetica,sans-Serif" font-size="8.00">outputFilename</text>
</g>
<!-- default7 -->
<g id="node35" class="node">
<title>default7</title>
<polygon fill="#d5aefc" stroke="black" points="1171,-133.5 1171,-152.5 1277,-152.5 1277,-133.5 1171,-133.5"/>
<text text-anchor="middle" x="1224" y="-140.5" font-family="Helvetica,sans-Serif" font-size="10.00">step&#45;7&#45;output.json</text>
</g>
<!-- default7&#45;&gt;step&#45;7 -->
<g id="edge15" class="edge">
<title>default7&#45;&gt;step&#45;7</title>
<path fill="none" stroke="black" d="M1223.13,-133.43C1222.18,-127.91 1220.18,-120.88 1216,-116 1214.64,-114.41 1213.1,-112.96 1211.44,-111.64"/>
<polygon fill="black" stroke="black" points="1212.6,-109.47 1205.43,-107.6 1209.87,-113.54 1212.6,-109.47"/>
<text text-anchor="middle" x="1252" y="-118.6" font-family="Helvetica,sans-Serif" font-size="8.00">outputFilename</text>
</g>
<!-- default8 -->
<g id="node36" class="node">
<title>default8</title>
<polygon fill="#d5aefc" stroke="black" points="1564,-88.5 1564,-107.5 1670,-107.5 1670,-88.5 1564,-88.5"/>
<text text-anchor="middle" x="1617" y="-95.5" font-family="Helvetica,sans-Serif" font-size="10.00">step&#45;8&#45;output.json</text>
</g>
<!-- default8&#45;&gt;step&#45;8 -->
<g id="edge17" class="edge">
<title>default8&#45;&gt;step&#45;8</title>
<path fill="none" stroke="black" d="M1617,-88.12C1617,-80.88 1617,-70.47 1617,-61.82"/>
<polygon fill="black" stroke="black" points="1619.45,-61.78 1617,-54.78 1614.55,-61.78 1619.45,-61.78"/>
<text text-anchor="middle" x="1649" y="-73.6" font-family="Helvetica,sans-Serif" font-size="8.00">outputFilename</text>
</g>
<!-- default9 -->
<g id="node37" class="node">
<title>default9</title>
<polygon fill="#d5aefc" stroke="black" points="365,-178.5 365,-197.5 471,-197.5 471,-178.5 365,-178.5"/>
<text text-anchor="middle" x="418" y="-185.5" font-family="Helvetica,sans-Serif" font-size="10.00">step&#45;9&#45;output.json</text>
</g>
<!-- default9&#45;&gt;step&#45;9 -->
<g id="edge19" class="edge">
<title>default9&#45;&gt;step&#45;9</title>
<path fill="none" stroke="black" d="M418,-178.3C418,-173.05 418,-166.21 418,-160.02"/>
<polygon fill="black" stroke="black" points="420.45,-159.69 418,-152.69 415.55,-159.69 420.45,-159.69"/>
<text text-anchor="middle" x="450" y="-163.6" font-family="Helvetica,sans-Serif" font-size="8.00">outputFilename</text>
</g>
<!-- default10 -->
<g id="node38" class="node">
<title>default10</title>
<polygon fill="#d5aefc" stroke="black" points="203,-133.5 203,-152.5 315,-152.5 315,-133.5 203,-133.5"/>
<text text-anchor="middle" x="259" y="-140.5" font-family="Helvetica,sans-Serif" font-size="10.00">step&#45;10&#45;output.json</text>
</g>
<!-- default10&#45;&gt;step&#45;10 -->
<g id="edge21" class="edge">
<title>default10&#45;&gt;step&#45;10</title>
<path fill="none" stroke="black" d="M259.28,-133.03C259.71,-127.88 260.71,-121.38 263,-116 263.31,-115.28 263.65,-114.57 264.02,-113.86"/>
<polygon fill="black" stroke="black" points="266.18,-115.03 267.94,-107.82 262.07,-112.36 266.18,-115.03"/>
<text text-anchor="middle" x="295" y="-118.6" font-family="Helvetica,sans-Serif" font-size="8.00">outputFilename</text>
</g>
<!-- default11 -->
<g id="node39" class="node">
<title>default11</title>
<polygon fill="#d5aefc" stroke="black" points="471,-133.5 471,-152.5 583,-152.5 583,-133.5 471,-133.5"/>
<text text-anchor="middle" x="527" y="-140.5" font-family="Helvetica,sans-Serif" font-size="10.00">step&#45;11&#45;output.json</text>
</g>
<!-- default11&#45;&gt;step&#45;11 -->
<g id="edge23" class="edge">
<title>default11&#45;&gt;step&#45;11</title>
<path fill="none" stroke="black" d="M524.33,-133.08C522.39,-127.69 519.33,-120.93 515,-116 513.66,-114.48 512.16,-113.04 510.56,-111.7"/>
<polygon fill="black" stroke="black" points="511.96,-109.7 504.87,-107.52 509.06,-113.64 511.96,-109.7"/>
<text text-anchor="middle" x="552" y="-118.6" font-family="Helvetica,sans-Serif" font-size="8.00">outputFilename</text>
</g>
<!-- default12 -->
<g id="node40" class="node">
<title>default12</title>
<polygon fill="#d5aefc" stroke="black" points="49,-133.5 49,-152.5 161,-152.5 161,-133.5 49,-133.5"/>
<text text-anchor="middle" x="105" y="-140.5" font-family="Helvetica,sans-Serif" font-size="10.00">step&#45;12&#45;output.json</text>
</g>
<!-- default12&#45;&gt;step&#45;12 -->
<g id="edge25" class="edge">
<title>default12&#45;&gt;step&#45;12</title>
<path fill="none" stroke="black" d="M105,-133.3C105,-128.05 105,-121.21 105,-115.02"/>
<polygon fill="black" stroke="black" points="107.45,-114.69 105,-107.69 102.55,-114.69 107.45,-114.69"/>
<text text-anchor="middle" x="137" y="-118.6" font-family="Helvetica,sans-Serif" font-size="8.00">outputFilename</text>
</g>
<!-- default13 -->
<g id="node41" class="node">
<title>default13</title>
<polygon fill="#d5aefc" stroke="black" points="587,-133.5 587,-152.5 699,-152.5 699,-133.5 587,-133.5"/>
<text text-anchor="middle" x="643" y="-140.5" font-family="Helvetica,sans-Serif" font-size="10.00">step&#45;13&#45;output.json</text>
</g>
<!-- default13&#45;&gt;step&#45;13 -->
<g id="edge27" class="edge">
<title>default13&#45;&gt;step&#45;13</title>
<path fill="none" stroke="black" d="M643,-133.3C643,-128.05 643,-121.21 643,-115.02"/>
<polygon fill="black" stroke="black" points="645.45,-114.69 643,-107.69 640.55,-114.69 645.45,-114.69"/>
<text text-anchor="middle" x="675" y="-118.6" font-family="Helvetica,sans-Serif" font-size="8.00">outputFilename</text>
</g>
</g>
</svg>
