<?xml version="1.0" encoding="UTF-8" standalone="no"?>
<!DOCTYPE svg PUBLIC "-//W3C//DTD SVG 1.1//EN"
 "http://www.w3.org/Graphics/SVG/1.1/DTD/svg11.dtd">
<!-- Generated by graphviz version 2.43.0 (0)
 -->
<!-- Title: workflow Pages: 1 -->
<svg width="1107pt" height="241pt"
 viewBox="0.00 0.00 1107.00 241.00" xmlns="http://www.w3.org/2000/svg" xmlns:xlink="http://www.w3.org/1999/xlink">
<g id="graph0" class="graph" transform="scale(1 1) rotate(0) translate(4 237)">
<title>workflow</title>
<polygon fill="white" stroke="transparent" points="-4,4 -4,-237 1103,-237 1103,4 -4,4"/>
<g id="clust1" class="cluster">
<title>cluster_inputs</title>
<polygon fill="none" stroke="black" stroke-dasharray="5,2" points="8,-170 8,-225 1091,-225 1091,-170 8,-170"/>
<text text-anchor="middle" x="55.5" y="-213" font-family="Helvetica,sans-Serif" font-size="10.00">Workflow Inputs</text>
</g>
<g id="clust2" class="cluster">
<title>cluster_outputs</title>
<polygon fill="none" stroke="black" stroke-dasharray="5,2" points="19,-8 19,-63 906,-63 906,-8 19,-8"/>
<text text-anchor="middle" x="70.5" y="-15" font-family="Helvetica,sans-Serif" font-size="10.00">Workflow Outputs</text>
</g>
<!-- date -->
<g id="node1" class="node">
<title>date</title>
<polygon fill="#94ddf4" stroke="black" points="16,-178.5 16,-197.5 54,-197.5 54,-178.5 16,-178.5"/>
<text text-anchor="middle" x="35" y="-185.5" font-family="Helvetica,sans-Serif" font-size="10.00">date</text>
</g>
<!-- select_products -->
<g id="node17" class="node">
<title>select_products</title>
<polygon fill="lightgoldenrodyellow" stroke="black" points="92.5,-125.5 92.5,-144.5 185.5,-144.5 185.5,-125.5 92.5,-125.5"/>
<text text-anchor="middle" x="139" y="-132.5" font-family="Helvetica,sans-Serif" font-size="10.00">select_products</text>
</g>
<!-- date&#45;&gt;select_products -->
<g id="edge1" class="edge">
<title>date&#45;&gt;select_products</title>
<path fill="none" stroke="black" d="M43.57,-178.25C51.56,-170.56 64.15,-159.6 77,-153 81.57,-150.65 86.51,-148.6 91.53,-146.81"/>
<polygon fill="black" stroke="black" points="92.52,-149.06 98.4,-144.53 90.98,-144.41 92.52,-149.06"/>
<text text-anchor="middle" x="86.5" y="-155.6" font-family="Helvetica,sans-Serif" font-size="8.00">date</text>
</g>
<!-- delta -->
<g id="node2" class="node">
<title>delta</title>
<polygon fill="#94ddf4" stroke="black" points="58.5,-178.5 58.5,-197.5 99.5,-197.5 99.5,-178.5 58.5,-178.5"/>
<text text-anchor="middle" x="79" y="-185.5" font-family="Helvetica,sans-Serif" font-size="10.00">delta</text>
</g>
<!-- delta&#45;&gt;select_products -->
<g id="edge2" class="edge">
<title>delta&#45;&gt;select_products</title>
<path fill="none" stroke="black" d="M84.36,-178.33C89.29,-170.9 97.15,-160.27 106,-153 108.06,-151.3 110.32,-149.71 112.66,-148.24"/>
<polygon fill="black" stroke="black" points="114.12,-150.22 118.96,-144.6 111.67,-145.98 114.12,-150.22"/>
<text text-anchor="middle" x="117" y="-155.6" font-family="Helvetica,sans-Serif" font-size="8.00">delta</text>
</g>
<!-- aoi -->
<g id="node3" class="node">
<title>aoi</title>
<polygon fill="#94ddf4" stroke="black" points="104,-178.5 104,-197.5 136,-197.5 136,-178.5 104,-178.5"/>
<text text-anchor="middle" x="120" y="-185.5" font-family="Helvetica,sans-Serif" font-size="10.00">aoi</text>
</g>
<!-- aoi&#45;&gt;select_products -->
<g id="edge3" class="edge">
<title>aoi&#45;&gt;select_products</title>
<path fill="none" stroke="black" d="M123.31,-178.12C126.03,-170.8 129.96,-160.26 133.21,-151.55"/>
<polygon fill="black" stroke="black" points="135.58,-152.2 135.73,-144.78 130.99,-150.49 135.58,-152.2"/>
<text text-anchor="middle" x="138.5" y="-155.6" font-family="Helvetica,sans-Serif" font-size="8.00">aoi</text>
</g>
<!-- collection -->
<g id="node4" class="node">
<title>collection</title>
<polygon fill="#94ddf4" stroke="black" points="140,-178.5 140,-197.5 204,-197.5 204,-178.5 140,-178.5"/>
<text text-anchor="middle" x="172" y="-185.5" font-family="Helvetica,sans-Serif" font-size="10.00">collection</text>
</g>
<!-- collection&#45;&gt;select_products -->
<g id="edge4" class="edge">
<title>collection&#45;&gt;select_products</title>
<path fill="none" stroke="black" d="M166.25,-178.12C161.38,-170.58 154.29,-159.63 148.56,-150.77"/>
<polygon fill="black" stroke="black" points="150.54,-149.33 144.68,-144.78 146.43,-151.99 150.54,-149.33"/>
<text text-anchor="middle" x="175" y="-155.6" font-family="Helvetica,sans-Serif" font-size="8.00">collection</text>
</g>
<!-- cloud_cover -->
<g id="node5" class="node">
<title>cloud_cover</title>
<polygon fill="#94ddf4" stroke="black" points="208.5,-178.5 208.5,-197.5 283.5,-197.5 283.5,-178.5 208.5,-178.5"/>
<text text-anchor="middle" x="246" y="-185.5" font-family="Helvetica,sans-Serif" font-size="10.00">cloud_cover</text>
</g>
<!-- cloud_cover&#45;&gt;select_products -->
<g id="edge5" class="edge">
<title>cloud_cover&#45;&gt;select_products</title>
<path fill="none" stroke="black" d="M235.47,-178.41C225.73,-170.83 210.6,-159.94 196,-153 191.15,-150.69 185.91,-148.62 180.65,-146.79"/>
<polygon fill="black" stroke="black" points="181.41,-144.46 174,-144.59 179.88,-149.11 181.41,-144.46"/>
<text text-anchor="middle" x="235.5" y="-155.6" font-family="Helvetica,sans-Serif" font-size="8.00">cloud_cover</text>
</g>
<!-- s3_access_key -->
<g id="node6" class="node">
<title>s3_access_key</title>
<polygon fill="#94ddf4" stroke="black" points="287.5,-178.5 287.5,-197.5 684.5,-197.5 684.5,-178.5 287.5,-178.5"/>
<text text-anchor="middle" x="486" y="-185.5" font-family="Helvetica,sans-Serif" font-size="10.00">S3 access key required to retrieve products hosted on a protected S3 location.</text>
</g>
<!-- process -->
<g id="node18" class="node">
<title>process</title>
<polygon fill="lightgoldenrodyellow" stroke="black" points="459,-80.5 459,-99.5 513,-99.5 513,-80.5 459,-80.5"/>
<text text-anchor="middle" x="486" y="-87.5" font-family="Helvetica,sans-Serif" font-size="10.00">process</text>
</g>
<!-- s3_access_key&#45;&gt;process -->
<g id="edge7" class="edge">
<title>s3_access_key&#45;&gt;process</title>
<path fill="none" stroke="black" d="M486,-178.48C486,-162.37 486,-127.21 486,-106.71"/>
<polygon fill="black" stroke="black" points="488.45,-106.64 486,-99.64 483.55,-106.64 488.45,-106.64"/>
<text text-anchor="middle" x="516.5" y="-133.1" font-family="Helvetica,sans-Serif" font-size="8.00">s3_access_key</text>
</g>
<!-- s3_secret_key -->
<g id="node7" class="node">
<title>s3_secret_key</title>
<polygon fill="#94ddf4" stroke="black" points="689,-178.5 689,-197.5 1083,-197.5 1083,-178.5 689,-178.5"/>
<text text-anchor="middle" x="886" y="-185.5" font-family="Helvetica,sans-Serif" font-size="10.00">S3 secret key required to retrieve products hosted on a protected S3 location.</text>
</g>
<!-- s3_secret_key&#45;&gt;process -->
<g id="edge8" class="edge">
<title>s3_secret_key&#45;&gt;process</title>
<path fill="none" stroke="black" d="M850.5,-178.48C774.1,-160.14 594.92,-117.14 519.94,-99.14"/>
<polygon fill="black" stroke="black" points="520.39,-96.73 513.01,-97.48 519.25,-101.5 520.39,-96.73"/>
<text text-anchor="middle" x="734" y="-133.1" font-family="Helvetica,sans-Serif" font-size="8.00">s3_secret_key</text>
</g>
<!-- chlorophyll_a -->
<g id="node8" class="node">
<title>chlorophyll_a</title>
<polygon fill="#94ddf4" stroke="black" points="27,-35.5 27,-54.5 109,-54.5 109,-35.5 27,-35.5"/>
<text text-anchor="middle" x="68" y="-42.5" font-family="Helvetica,sans-Serif" font-size="10.00">chlorophyll_a</text>
</g>
<!-- chlorophyll_a_color -->
<g id="node9" class="node">
<title>chlorophyll_a_color</title>
<polygon fill="#94ddf4" stroke="black" points="113.5,-35.5 113.5,-54.5 224.5,-54.5 224.5,-35.5 113.5,-35.5"/>
<text text-anchor="middle" x="169" y="-42.5" font-family="Helvetica,sans-Serif" font-size="10.00">chlorophyll_a_color</text>
</g>
<!-- chlorophyll_a_plot -->
<g id="node10" class="node">
<title>chlorophyll_a_plot</title>
<polygon fill="#94ddf4" stroke="black" points="228,-35.5 228,-54.5 334,-54.5 334,-35.5 228,-35.5"/>
<text text-anchor="middle" x="281" y="-42.5" font-family="Helvetica,sans-Serif" font-size="10.00">chlorophyll_a_plot</text>
</g>
<!-- cyanobacteria -->
<g id="node11" class="node">
<title>cyanobacteria</title>
<polygon fill="#94ddf4" stroke="black" points="338,-35.5 338,-54.5 424,-54.5 424,-35.5 338,-35.5"/>
<text text-anchor="middle" x="381" y="-42.5" font-family="Helvetica,sans-Serif" font-size="10.00">cyanobacteria</text>
</g>
<!-- cyanobacteria_color -->
<g id="node12" class="node">
<title>cyanobacteria_color</title>
<polygon fill="#94ddf4" stroke="black" points="428.5,-35.5 428.5,-54.5 543.5,-54.5 543.5,-35.5 428.5,-35.5"/>
<text text-anchor="middle" x="486" y="-42.5" font-family="Helvetica,sans-Serif" font-size="10.00">cyanobacteria_color</text>
</g>
<!-- cyanobacteria_plot -->
<g id="node13" class="node">
<title>cyanobacteria_plot</title>
<polygon fill="#94ddf4" stroke="black" points="548,-35.5 548,-54.5 658,-54.5 658,-35.5 548,-35.5"/>
<text text-anchor="middle" x="603" y="-42.5" font-family="Helvetica,sans-Serif" font-size="10.00">cyanobacteria_plot</text>
</g>
<!-- turbidity -->
<g id="node14" class="node">
<title>turbidity</title>
<polygon fill="#94ddf4" stroke="black" points="662,-35.5 662,-54.5 720,-54.5 720,-35.5 662,-35.5"/>
<text text-anchor="middle" x="691" y="-42.5" font-family="Helvetica,sans-Serif" font-size="10.00">turbidity</text>
</g>
<!-- turbidity_color -->
<g id="node15" class="node">
<title>turbidity_color</title>
<polygon fill="#94ddf4" stroke="black" points="724.5,-35.5 724.5,-54.5 811.5,-54.5 811.5,-35.5 724.5,-35.5"/>
<text text-anchor="middle" x="768" y="-42.5" font-family="Helvetica,sans-Serif" font-size="10.00">turbidity_color</text>
</g>
<!-- turbidity_plot -->
<g id="node16" class="node">
<title>turbidity_plot</title>
<polygon fill="#94ddf4" stroke="black" points="816,-35.5 816,-54.5 898,-54.5 898,-35.5 816,-35.5"/>
<text text-anchor="middle" x="857" y="-42.5" font-family="Helvetica,sans-Serif" font-size="10.00">turbidity_plot</text>
</g>
<!-- select_products&#45;&gt;process -->
<g id="edge6" class="edge">
<title>select_products&#45;&gt;process</title>
<path fill="none" stroke="black" d="M185.8,-128.2C256.55,-119.43 389.11,-103.01 451.66,-95.26"/>
<polygon fill="black" stroke="black" points="452.28,-97.65 458.93,-94.35 451.68,-92.78 452.28,-97.65"/>
<text text-anchor="middle" x="366" y="-110.6" font-family="Helvetica,sans-Serif" font-size="8.00">product_url</text>
</g>
<!-- process&#45;&gt;chlorophyll_a -->
<g id="edge9" class="edge">
<title>process&#45;&gt;chlorophyll_a</title>
<path fill="none" stroke="black" d="M458.8,-88.13C384.46,-85.59 179.03,-77.45 113,-63 106.53,-61.58 99.75,-59.41 93.47,-57.09"/>
<polygon fill="black" stroke="black" points="94.31,-54.79 86.9,-54.54 92.54,-59.36 94.31,-54.79"/>
</g>
<!-- process&#45;&gt;chlorophyll_a_color -->
<g id="edge10" class="edge">
<title>process&#45;&gt;chlorophyll_a_color</title>
<path fill="none" stroke="black" d="M458.76,-87.81C411.6,-85.41 311.82,-78.8 229,-63 220.19,-61.32 210.8,-58.95 202.12,-56.5"/>
<polygon fill="black" stroke="black" points="202.75,-54.14 195.34,-54.54 201.39,-58.84 202.75,-54.14"/>
</g>
<!-- process&#45;&gt;chlorophyll_a_plot -->
<g id="edge11" class="edge">
<title>process&#45;&gt;chlorophyll_a_plot</title>
<path fill="none" stroke="black" d="M458.8,-85.19C428.97,-80.79 379.77,-72.86 338,-63 330.23,-61.16 321.95,-58.89 314.18,-56.6"/>
<polygon fill="black" stroke="black" points="314.63,-54.18 307.22,-54.51 313.22,-58.87 314.63,-54.18"/>
</g>
<!-- process&#45;&gt;cyanobacteria -->
<g id="edge12" class="edge">
<title>process&#45;&gt;cyanobacteria</title>
<path fill="none" stroke="black" d="M465,-80.4C448.84,-73.78 426.34,-64.57 408.7,-57.34"/>
<polygon fill="black" stroke="black" points="409.37,-54.97 401.96,-54.58 407.51,-59.5 409.37,-54.97"/>
</g>
<!-- process&#45;&gt;cyanobacteria_color -->
<g id="edge13" class="edge">
<title>process&#45;&gt;cyanobacteria_color</title>
<path fill="none" stroke="black" d="M486,-80.3C486,-75.05 486,-68.21 486,-62.02"/>
<polygon fill="black" stroke="black" points="488.45,-61.69 486,-54.69 483.55,-61.69 488.45,-61.69"/>
</g>
<!-- process&#45;&gt;cyanobacteria_plot -->
<g id="edge14" class="edge">
<title>process&#45;&gt;cyanobacteria_plot</title>
<path fill="none" stroke="black" d="M509.4,-80.4C527.65,-73.69 553.14,-64.32 572.91,-57.06"/>
<polygon fill="black" stroke="black" points="573.92,-59.3 579.65,-54.58 572.23,-54.7 573.92,-59.3"/>
</g>
<!-- process&#45;&gt;turbidity -->
<g id="edge15" class="edge">
<title>process&#45;&gt;turbidity</title>
<path fill="none" stroke="black" d="M513.14,-87.62C547.57,-85.26 608.43,-79.03 658,-63 662.16,-61.65 666.44,-59.82 670.48,-57.86"/>
<polygon fill="black" stroke="black" points="671.89,-59.89 676.98,-54.5 669.64,-55.54 671.89,-59.89"/>
</g>
<!-- process&#45;&gt;turbidity_color -->
<g id="edge16" class="edge">
<title>process&#45;&gt;turbidity_color</title>
<path fill="none" stroke="black" d="M513.13,-88.08C557.25,-86.12 647.04,-80.21 721,-63 727.58,-61.47 734.5,-59.3 740.95,-57.02"/>
<polygon fill="black" stroke="black" points="742,-59.24 747.73,-54.52 740.31,-54.64 742,-59.24"/>
</g>
<!-- process&#45;&gt;turbidity_plot -->
<g id="edge17" class="edge">
<title>process&#45;&gt;turbidity_plot</title>
<path fill="none" stroke="black" d="M513,-89.39C569.32,-89.66 703.13,-87.39 812,-63 818.21,-61.61 824.71,-59.54 830.77,-57.32"/>
<polygon fill="black" stroke="black" points="832,-59.47 837.65,-54.68 830.24,-54.9 832,-59.47"/>
</g>
</g>
</svg>
