<?xml version="1.0" encoding="UTF-8" standalone="no"?>
<!DOCTYPE svg PUBLIC "-//W3C//DTD SVG 1.1//EN"
 "http://www.w3.org/Graphics/SVG/1.1/DTD/svg11.dtd">
<!-- Generated by graphviz version 2.40.1 (0)
 -->
<!-- Title: workflow Pages: 1 -->
<svg width="1253pt" height="803pt"
 viewBox="0.00 0.00 1289.00 826.00" xmlns="http://www.w3.org/2000/svg" xmlns:xlink="http://www.w3.org/1999/xlink">
<g id="graph0" class="graph" transform="scale(.9722 .9722) rotate(0) translate(4 822)">
<title>workflow</title>
<g id="clust1" class="cluster">
<title>cluster_inputs</title>
<polygon fill="transparent" stroke="#000000" stroke-dasharray="5,2" points="8,-755 8,-810 1273,-810 1273,-755 8,-755"/>
<text text-anchor="middle" x="50.5" y="-798" font-family="Times,serif" font-size="10.00" fill="#000000">Workflow Inputs</text>
</g>
<g id="clust2" class="cluster">
<title>cluster_outputs</title>
<polygon fill="transparent" stroke="#000000" stroke-dasharray="5,2" points="461,-8 461,-63 589,-63 589,-8 461,-8"/>
<text text-anchor="middle" x="507" y="-15" font-family="Times,serif" font-size="10.00" fill="#000000">Workflow Outputs</text>
</g>
<!-- step6_grompp_min_config -->
<g id="node1" class="node">
<title>step6_grompp_min_config</title>
<polygon fill="#94ddf4" stroke="#000000" points="878,-763.5 878,-782.5 1008,-782.5 1008,-763.5 878,-763.5"/>
<text text-anchor="middle" x="943" y="-770.5" font-family="Helvetica,sans-Serif" font-size="10.00" fill="#000000">step6_grompp_min_config</text>
</g>
<!-- step6_grompp_min -->
<g id="node14" class="node">
<title>step6_grompp_min</title>
<polygon fill="#fafad2" stroke="#000000" points="714,-485.5 714,-504.5 914,-504.5 914,-485.5 714,-485.5"/>
<text text-anchor="middle" x="814" y="-492.5" font-family="Helvetica,sans-Serif" font-size="10.00" fill="#000000">Wrapper of the GROMACS grompp module</text>
</g>
<!-- step6_grompp_min_config&#45;&gt;step6_grompp_min -->
<g id="edge10" class="edge">
<title>step6_grompp_min_config&#45;&gt;step6_grompp_min</title>
<path fill="none" stroke="#000000" d="M906.9598,-763.4685C857.5959,-750.1583 775,-726.8622 775,-720 775,-720 775,-720 775,-540 775,-526.8682 778.5351,-523.0395 787,-513 788.1757,-511.6056 789.4859,-510.276 790.8776,-509.0171"/>
<polygon fill="#000000" stroke="#000000" points="792.5784,-510.7952 796.5386,-504.5247 789.5324,-506.957 792.5784,-510.7952"/>
<text text-anchor="middle" x="786" y="-628.1" font-family="Helvetica,sans-Serif" font-size="8.00" fill="#000000">config</text>
</g>
<!-- step5_genion_config -->
<g id="node2" class="node">
<title>step5_genion_config</title>
<polygon fill="#94ddf4" stroke="#000000" points="1159.5,-763.5 1159.5,-782.5 1264.5,-782.5 1264.5,-763.5 1159.5,-763.5"/>
<text text-anchor="middle" x="1212" y="-770.5" font-family="Helvetica,sans-Serif" font-size="10.00" fill="#000000">step5_genion_config</text>
</g>
<!-- step5_genion -->
<g id="node15" class="node">
<title>step5_genion</title>
<polygon fill="#fafad2" stroke="#000000" points="901,-530.5 901,-549.5 975,-549.5 975,-530.5 901,-530.5"/>
<text text-anchor="middle" x="938" y="-537.5" font-family="Helvetica,sans-Serif" font-size="10.00" fill="#000000">step5_genion</text>
</g>
<!-- step5_genion_config&#45;&gt;step5_genion -->
<g id="edge12" class="edge">
<title>step5_genion_config&#45;&gt;step5_genion</title>
<path fill="none" stroke="#000000" d="M1208.4645,-763.3796C1204.9248,-752.8719 1200,-735.4722 1200,-720 1200,-720 1200,-720 1200,-585 1200,-563.176 1056.9701,-549.0356 982.2687,-543.1386"/>
<polygon fill="#000000" stroke="#000000" points="982.4289,-540.6938 975.26,-542.5937 982.049,-545.579 982.4289,-540.6938"/>
<text text-anchor="middle" x="1211" y="-650.6" font-family="Helvetica,sans-Serif" font-size="8.00" fill="#000000">config</text>
</g>
<!-- step9_grompp_nvt_config -->
<g id="node3" class="node">
<title>step9_grompp_nvt_config</title>
<polygon fill="#94ddf4" stroke="#000000" points="746,-763.5 746,-782.5 874,-782.5 874,-763.5 746,-763.5"/>
<text text-anchor="middle" x="810" y="-770.5" font-family="Helvetica,sans-Serif" font-size="10.00" fill="#000000">step9_grompp_nvt_config</text>
</g>
<!-- step9_grompp_nvt -->
<g id="node22" class="node">
<title>step9_grompp_nvt</title>
<polygon fill="#fafad2" stroke="#000000" points="639,-350.5 639,-369.5 839,-369.5 839,-350.5 639,-350.5"/>
<text text-anchor="middle" x="739" y="-357.5" font-family="Helvetica,sans-Serif" font-size="10.00" fill="#000000">Wrapper of the GROMACS grompp module</text>
</g>
<!-- step9_grompp_nvt_config&#45;&gt;step9_grompp_nvt -->
<g id="edge32" class="edge">
<title>step9_grompp_nvt_config&#45;&gt;step9_grompp_nvt</title>
<path fill="none" stroke="#000000" d="M778.8171,-763.4934C748.5015,-753.2908 707,-736.3397 707,-720 707,-720 707,-720 707,-405 707,-393.4723 714.0606,-382.8454 721.5487,-374.8166"/>
<polygon fill="#000000" stroke="#000000" points="723.4708,-376.3611 726.7195,-369.6941 720.0223,-372.88 723.4708,-376.3611"/>
<text text-anchor="middle" x="718" y="-560.6" font-family="Helvetica,sans-Serif" font-size="8.00" fill="#000000">config</text>
</g>
<!-- step11_grompp_npt_config -->
<g id="node4" class="node">
<title>step11_grompp_npt_config</title>
<polygon fill="#94ddf4" stroke="#000000" points="400.5,-763.5 400.5,-782.5 533.5,-782.5 533.5,-763.5 400.5,-763.5"/>
<text text-anchor="middle" x="467" y="-770.5" font-family="Helvetica,sans-Serif" font-size="10.00" fill="#000000">step11_grompp_npt_config</text>
</g>
<!-- step11_grompp_npt -->
<g id="node13" class="node">
<title>step11_grompp_npt</title>
<polygon fill="#fafad2" stroke="#000000" points="576,-260.5 576,-279.5 776,-279.5 776,-260.5 576,-260.5"/>
<text text-anchor="middle" x="676" y="-267.5" font-family="Helvetica,sans-Serif" font-size="10.00" fill="#000000">Wrapper of the GROMACS grompp module</text>
</g>
<!-- step11_grompp_npt_config&#45;&gt;step11_grompp_npt -->
<g id="edge7" class="edge">
<title>step11_grompp_npt_config&#45;&gt;step11_grompp_npt</title>
<path fill="none" stroke="#000000" d="M513.3182,-763.4646C535.3703,-755.9389 557,-742.7569 557,-720 557,-720 557,-720 557,-315 557,-302.6033 554.8307,-296.3428 564,-288 566.7222,-285.5232 571.0367,-283.386 576.4207,-281.5419"/>
<polygon fill="#000000" stroke="#000000" points="577.1995,-283.8662 583.201,-279.509 575.7922,-279.1726 577.1995,-283.8662"/>
<text text-anchor="middle" x="568" y="-515.6" font-family="Helvetica,sans-Serif" font-size="8.00" fill="#000000">config</text>
</g>
<!-- step13_grompp_md_config -->
<g id="node5" class="node">
<title>step13_grompp_md_config</title>
<polygon fill="#94ddf4" stroke="#000000" points="148.5,-763.5 148.5,-782.5 281.5,-782.5 281.5,-763.5 148.5,-763.5"/>
<text text-anchor="middle" x="215" y="-770.5" font-family="Helvetica,sans-Serif" font-size="10.00" fill="#000000">step13_grompp_md_config</text>
</g>
<!-- step13_grompp_md -->
<g id="node17" class="node">
<title>step13_grompp_md</title>
<polygon fill="#fafad2" stroke="#000000" points="506,-170.5 506,-189.5 706,-189.5 706,-170.5 506,-170.5"/>
<text text-anchor="middle" x="606" y="-177.5" font-family="Helvetica,sans-Serif" font-size="10.00" fill="#000000">Wrapper of the GROMACS grompp module</text>
</g>
<!-- step13_grompp_md_config&#45;&gt;step13_grompp_md -->
<g id="edge21" class="edge">
<title>step13_grompp_md_config&#45;&gt;step13_grompp_md</title>
<path fill="none" stroke="#000000" d="M246.5225,-763.487C258.7371,-760.2035 272.9093,-756.8802 286,-755 309.7725,-751.5855 480.1742,-757.0212 502,-747 516.8624,-740.1761 527,-736.3541 527,-720 527,-720 527,-720 527,-225 527,-209.3957 538.781,-199.1326 553.2441,-192.4123"/>
<polygon fill="#000000" stroke="#000000" points="554.533,-194.529 560.0454,-189.5675 552.6421,-190.0085 554.533,-194.529"/>
<text text-anchor="middle" x="538" y="-470.6" font-family="Helvetica,sans-Serif" font-size="8.00" fill="#000000">config</text>
</g>
<!-- step14_mdrun_md_config -->
<g id="node6" class="node">
<title>step14_mdrun_md_config</title>
<polygon fill="#94ddf4" stroke="#000000" points="16,-763.5 16,-782.5 144,-782.5 144,-763.5 16,-763.5"/>
<text text-anchor="middle" x="80" y="-770.5" font-family="Helvetica,sans-Serif" font-size="10.00" fill="#000000">step14_mdrun_md_config</text>
</g>
<!-- step14_mdrun_md -->
<g id="node12" class="node">
<title>step14_mdrun_md</title>
<polygon fill="#fafad2" stroke="#000000" points="449.5,-125.5 449.5,-144.5 546.5,-144.5 546.5,-125.5 449.5,-125.5"/>
<text text-anchor="middle" x="498" y="-132.5" font-family="Helvetica,sans-Serif" font-size="10.00" fill="#000000">step14_mdrun_md</text>
</g>
<!-- step14_mdrun_md_config&#45;&gt;step14_mdrun_md -->
<g id="edge2" class="edge">
<title>step14_mdrun_md_config&#45;&gt;step14_mdrun_md</title>
<path fill="none" stroke="#000000" d="M111.9338,-763.4255C123.2388,-760.3354 136.1036,-757.1552 148,-755 186.4569,-748.033 498,-759.0828 498,-720 498,-720 498,-720 498,-180 498,-170.6689 498,-160.2495 498,-151.7884"/>
<polygon fill="#000000" stroke="#000000" points="500.4501,-151.6559 498,-144.656 495.5501,-151.656 500.4501,-151.6559"/>
<text text-anchor="middle" x="509" y="-448.1" font-family="Helvetica,sans-Serif" font-size="8.00" fill="#000000">config</text>
</g>
<!-- step8_make_ndx_config -->
<g id="node7" class="node">
<title>step8_make_ndx_config</title>
<polygon fill="#94ddf4" stroke="#000000" points="537.5,-763.5 537.5,-782.5 658.5,-782.5 658.5,-763.5 537.5,-763.5"/>
<text text-anchor="middle" x="598" y="-770.5" font-family="Helvetica,sans-Serif" font-size="10.00" fill="#000000">step8_make_ndx_config</text>
</g>
<!-- step8_make_ndx -->
<g id="node20" class="node">
<title>step8_make_ndx</title>
<polygon fill="#fafad2" stroke="#000000" points="587,-395.5 587,-414.5 677,-414.5 677,-395.5 587,-395.5"/>
<text text-anchor="middle" x="632" y="-402.5" font-family="Helvetica,sans-Serif" font-size="10.00" fill="#000000">step8_make_ndx</text>
</g>
<!-- step8_make_ndx_config&#45;&gt;step8_make_ndx -->
<g id="edge28" class="edge">
<title>step8_make_ndx_config&#45;&gt;step8_make_ndx</title>
<path fill="none" stroke="#000000" d="M605.0257,-763.3828C611.7896,-753.157 621,-736.2493 621,-720 621,-720 621,-720 621,-450 621,-440.4206 623.3812,-430.0138 625.9279,-421.6232"/>
<polygon fill="#000000" stroke="#000000" points="628.299,-422.2551 628.1527,-414.8401 623.643,-420.7279 628.299,-422.2551"/>
<text text-anchor="middle" x="632" y="-583.1" font-family="Helvetica,sans-Serif" font-size="8.00" fill="#000000">config</text>
</g>
<!-- step2_editconf_config -->
<g id="node8" class="node">
<title>step2_editconf_config</title>
<polygon fill="#94ddf4" stroke="#000000" points="285.5,-763.5 285.5,-782.5 396.5,-782.5 396.5,-763.5 285.5,-763.5"/>
<text text-anchor="middle" x="341" y="-770.5" font-family="Helvetica,sans-Serif" font-size="10.00" fill="#000000">step2_editconf_config</text>
</g>
<!-- step4_grompp_genion_config -->
<g id="node9" class="node">
<title>step4_grompp_genion_config</title>
<polygon fill="#94ddf4" stroke="#000000" points="1012.5,-763.5 1012.5,-782.5 1155.5,-782.5 1155.5,-763.5 1012.5,-763.5"/>
<text text-anchor="middle" x="1084" y="-770.5" font-family="Helvetica,sans-Serif" font-size="10.00" fill="#000000">step4_grompp_genion_config</text>
</g>
<!-- step4_grompp_genion -->
<g id="node23" class="node">
<title>step4_grompp_genion</title>
<polygon fill="#fafad2" stroke="#000000" points="948,-575.5 948,-594.5 1148,-594.5 1148,-575.5 948,-575.5"/>
<text text-anchor="middle" x="1048" y="-582.5" font-family="Helvetica,sans-Serif" font-size="10.00" fill="#000000">Wrapper of the GROMACS grompp module</text>
</g>
<!-- step4_grompp_genion_config&#45;&gt;step4_grompp_genion -->
<g id="edge37" class="edge">
<title>step4_grompp_genion_config&#45;&gt;step4_grompp_genion</title>
<path fill="none" stroke="#000000" d="M1049.8996,-763.4665C1037.1621,-760.2634 1022.5112,-756.9997 1009,-755 993.9162,-752.7675 883.7821,-756.6792 872,-747 862.4211,-739.1308 865,-732.3967 865,-720 865,-720 865,-720 865,-630 865,-617.8472 926.6434,-604.6429 978.3761,-595.7012"/>
<polygon fill="#000000" stroke="#000000" points="978.7899,-598.1161 985.2778,-594.5231 977.9653,-593.286 978.7899,-598.1161"/>
<text text-anchor="middle" x="876" y="-673.1" font-family="Helvetica,sans-Serif" font-size="8.00" fill="#000000">config</text>
</g>
<!-- step1_pdb_file -->
<g id="node10" class="node">
<title>step1_pdb_file</title>
<polygon fill="#94ddf4" stroke="#000000" points="662.5,-763.5 662.5,-782.5 741.5,-782.5 741.5,-763.5 662.5,-763.5"/>
<text text-anchor="middle" x="702" y="-770.5" font-family="Helvetica,sans-Serif" font-size="10.00" fill="#000000">step1_pdb_file</text>
</g>
<!-- step15_gather_outputs -->
<g id="node16" class="node">
<title>step15_gather_outputs</title>
<polygon fill="#fafad2" stroke="#000000" points="467,-80.5 467,-99.5 583,-99.5 583,-80.5 467,-80.5"/>
<text text-anchor="middle" x="525" y="-87.5" font-family="Helvetica,sans-Serif" font-size="10.00" fill="#000000">step15_gather_outputs</text>
</g>
<!-- step1_pdb_file&#45;&gt;step15_gather_outputs -->
<g id="edge19" class="edge">
<title>step1_pdb_file&#45;&gt;step15_gather_outputs</title>
<path fill="none" stroke="#000000" d="M682.2468,-763.4991C675.0671,-760.3778 666.7997,-757.1589 659,-755 606.6318,-740.5046 417,-774.3373 417,-720 417,-720 417,-720 417,-135 417,-117.3897 430.4359,-116.2391 446,-108 450.4445,-105.6472 455.1884,-103.6005 460.0612,-101.8203"/>
<polygon fill="#000000" stroke="#000000" points="460.9222,-104.1156 466.77,-99.5542 459.3541,-99.4733 460.9222,-104.1156"/>
<text text-anchor="middle" x="453.5" y="-425.6" font-family="Helvetica,sans-Serif" font-size="8.00" fill="#000000">external_project_file</text>
</g>
<!-- step1_pdb2gmx -->
<g id="node25" class="node">
<title>step1_pdb2gmx</title>
<polygon fill="#fafad2" stroke="#000000" points="872.5,-710.5 872.5,-729.5 957.5,-729.5 957.5,-710.5 872.5,-710.5"/>
<text text-anchor="middle" x="915" y="-717.5" font-family="Helvetica,sans-Serif" font-size="10.00" fill="#000000">step1_pdb2gmx</text>
</g>
<!-- step1_pdb_file&#45;&gt;step1_pdb2gmx -->
<g id="edge39" class="edge">
<title>step1_pdb_file&#45;&gt;step1_pdb2gmx</title>
<path fill="none" stroke="#000000" d="M723.1976,-763.4061C730.3399,-760.4227 738.4219,-757.3132 746,-755 785.4628,-742.954 831.3705,-733.7401 865.371,-727.7971"/>
<polygon fill="#000000" stroke="#000000" points="865.957,-730.1823 872.439,-726.5787 865.1245,-725.3535 865.957,-730.1823"/>
<text text-anchor="middle" x="838" y="-740.6" font-family="Helvetica,sans-Serif" font-size="8.00" fill="#000000">input_pdb_path</text>
</g>
<!-- dir -->
<g id="node11" class="node">
<title>dir</title>
<polygon fill="#94ddf4" stroke="#000000" points="469,-35.5 469,-54.5 581,-54.5 581,-35.5 469,-35.5"/>
<text text-anchor="middle" x="525" y="-42.5" font-family="Helvetica,sans-Serif" font-size="10.00" fill="#000000">whole workflow output</text>
</g>
<!-- step14_mdrun_md&#45;&gt;step15_gather_outputs -->
<g id="edge14" class="edge">
<title>step14_mdrun_md&#45;&gt;step15_gather_outputs</title>
<path fill="none" stroke="#000000" d="M497.2543,-125.4315C497.2557,-119.992 498.0057,-113.242 501,-108 501.6038,-106.9429 502.2975,-105.9287 503.0596,-104.9585"/>
<polygon fill="#000000" stroke="#000000" points="504.8763,-106.605 508.0226,-99.889 501.3749,-103.1771 504.8763,-106.605"/>
<text text-anchor="middle" x="524.5" y="-110.6" font-family="Helvetica,sans-Serif" font-size="8.00" fill="#000000">external_files</text>
</g>
<!-- step14_mdrun_md&#45;&gt;step15_gather_outputs -->
<g id="edge15" class="edge">
<title>step14_mdrun_md&#45;&gt;step15_gather_outputs</title>
<path fill="none" stroke="#000000" d="M530.8088,-125.448C537.4179,-122.8591 542.9697,-119.9516 545,-117 547.7098,-113.0604 546.6339,-108.8756 543.9187,-105.0064"/>
<polygon fill="#000000" stroke="#000000" points="545.5438,-103.1523 539.0178,-99.6289 541.9222,-106.4529 545.5438,-103.1523"/>
<text text-anchor="middle" x="569.5" y="-110.6" font-family="Helvetica,sans-Serif" font-size="8.00" fill="#000000">external_files</text>
</g>
<!-- step14_mdrun_md&#45;&gt;step15_gather_outputs -->
<g id="edge16" class="edge">
<title>step14_mdrun_md&#45;&gt;step15_gather_outputs</title>
<path fill="none" stroke="#000000" d="M459.3708,-125.3779C449.9903,-121.1553 444.1396,-115.4333 450,-108 451.8809,-105.6143 455.4512,-103.5088 460.053,-101.6591"/>
<polygon fill="#000000" stroke="#000000" points="461.0886,-103.8936 466.9058,-99.2932 459.4894,-99.2619 461.0886,-103.8936"/>
<text text-anchor="middle" x="473.5" y="-110.6" font-family="Helvetica,sans-Serif" font-size="8.00" fill="#000000">external_files</text>
</g>
<!-- step12_mdrun_npt -->
<g id="node24" class="node">
<title>step12_mdrun_npt</title>
<polygon fill="#fafad2" stroke="#000000" points="619.5,-215.5 619.5,-234.5 716.5,-234.5 716.5,-215.5 619.5,-215.5"/>
<text text-anchor="middle" x="668" y="-222.5" font-family="Helvetica,sans-Serif" font-size="10.00" fill="#000000">step12_mdrun_npt</text>
</g>
<!-- step11_grompp_npt&#45;&gt;step12_mdrun_npt -->
<g id="edge38" class="edge">
<title>step11_grompp_npt&#45;&gt;step12_mdrun_npt</title>
<path fill="none" stroke="#000000" d="M674.3034,-260.4567C673.3276,-254.9678 672.0744,-247.9184 670.9428,-241.5532"/>
<polygon fill="#000000" stroke="#000000" points="673.3316,-240.9927 669.6941,-234.5296 668.5073,-241.8504 673.3316,-240.9927"/>
<text text-anchor="middle" x="698" y="-245.6" font-family="Helvetica,sans-Serif" font-size="8.00" fill="#000000">input_tpr_path</text>
</g>
<!-- step7_mdrun_min -->
<g id="node21" class="node">
<title>step7_mdrun_min</title>
<polygon fill="#fafad2" stroke="#000000" points="754,-440.5 754,-459.5 848,-459.5 848,-440.5 754,-440.5"/>
<text text-anchor="middle" x="801" y="-447.5" font-family="Helvetica,sans-Serif" font-size="10.00" fill="#000000">step7_mdrun_min</text>
</g>
<!-- step6_grompp_min&#45;&gt;step7_mdrun_min -->
<g id="edge30" class="edge">
<title>step6_grompp_min&#45;&gt;step7_mdrun_min</title>
<path fill="none" stroke="#000000" d="M811.243,-485.4567C809.6574,-479.9678 807.6209,-472.9184 805.782,-466.5532"/>
<polygon fill="#000000" stroke="#000000" points="808.0496,-465.5746 803.753,-459.5296 803.3421,-466.9346 808.0496,-465.5746"/>
<text text-anchor="middle" x="834" y="-470.6" font-family="Helvetica,sans-Serif" font-size="8.00" fill="#000000">input_tpr_path</text>
</g>
<!-- step5_genion&#45;&gt;step11_grompp_npt -->
<g id="edge4" class="edge">
<title>step5_genion&#45;&gt;step11_grompp_npt</title>
<path fill="none" stroke="#000000" d="M940.278,-530.4318C944.2409,-511.3373 950.2616,-467.9412 931,-440 915.9894,-418.2253 892.251,-436.607 877,-415 868.6351,-403.1489 874,-397.0059 874,-382.5 874,-382.5 874,-382.5 874,-315 874,-302.1116 809.3828,-289.263 753.9762,-280.6148"/>
<polygon fill="#000000" stroke="#000000" points="754.2147,-278.1727 746.9233,-279.5285 753.4687,-283.0156 754.2147,-278.1727"/>
<text text-anchor="middle" x="911" y="-403.1" font-family="Helvetica,sans-Serif" font-size="8.00" fill="#000000">input_top_zip_path</text>
</g>
<!-- step5_genion&#45;&gt;step6_grompp_min -->
<g id="edge8" class="edge">
<title>step5_genion&#45;&gt;step6_grompp_min</title>
<path fill="none" stroke="#000000" d="M900.7354,-537.9715C859.5919,-535.3426 798.1781,-530.1107 791,-522 787.4419,-517.9796 788.9752,-513.566 792.5447,-509.4932"/>
<polygon fill="#000000" stroke="#000000" points="794.4133,-511.1044 797.9249,-504.572 791.1061,-507.4887 794.4133,-511.1044"/>
<text text-anchor="middle" x="825" y="-515.6" font-family="Helvetica,sans-Serif" font-size="8.00" fill="#000000">input_top_zip_path</text>
</g>
<!-- step5_genion&#45;&gt;step6_grompp_min -->
<g id="edge9" class="edge">
<title>step5_genion&#45;&gt;step6_grompp_min</title>
<path fill="none" stroke="#000000" d="M900.7142,-533.2754C889.855,-530.5635 878.1808,-526.8877 868,-522 861.9901,-519.1147 861.7715,-516.3368 856,-513 852.6519,-511.0643 849.0559,-509.2131 845.4278,-507.4844"/>
<polygon fill="#000000" stroke="#000000" points="846.2949,-505.1872 838.9092,-504.5132 844.2626,-509.6459 846.2949,-505.1872"/>
<text text-anchor="middle" x="895.5" y="-515.6" font-family="Helvetica,sans-Serif" font-size="8.00" fill="#000000">input_gro_path</text>
</g>
<!-- step5_genion&#45;&gt;step15_gather_outputs -->
<g id="edge17" class="edge">
<title>step5_genion&#45;&gt;step15_gather_outputs</title>
<path fill="none" stroke="#000000" d="M975.2207,-535.1288C998.4632,-529.7575 1024,-518.5072 1024,-495 1024,-495 1024,-495 1024,-135 1024,-113.4761 725.622,-98.3321 590.3216,-92.5714"/>
<polygon fill="#000000" stroke="#000000" points="590.3155,-90.1191 583.2182,-92.2712 590.1085,-95.0147 590.3155,-90.1191"/>
<text text-anchor="middle" x="1047.5" y="-313.1" font-family="Helvetica,sans-Serif" font-size="8.00" fill="#000000">external_files</text>
</g>
<!-- step5_genion&#45;&gt;step13_grompp_md -->
<g id="edge20" class="edge">
<title>step5_genion&#45;&gt;step13_grompp_md</title>
<path fill="none" stroke="#000000" d="M941.8473,-530.1599C945.0193,-521.1542 949,-507.3855 949,-495 949,-495 949,-495 949,-225 949,-200.8797 813.934,-189.3112 713.3146,-184.0396"/>
<polygon fill="#000000" stroke="#000000" points="713.2483,-181.583 706.1319,-183.6708 712.997,-186.4766 713.2483,-181.583"/>
<text text-anchor="middle" x="983" y="-358.1" font-family="Helvetica,sans-Serif" font-size="8.00" fill="#000000">input_top_zip_path</text>
</g>
<!-- step5_genion&#45;&gt;step9_grompp_nvt -->
<g id="edge34" class="edge">
<title>step5_genion&#45;&gt;step9_grompp_nvt</title>
<path fill="none" stroke="#000000" d="M934.9914,-530.1368C930.5976,-516.2353 922.2672,-491.8111 916,-485 899.1771,-466.7169 882.3218,-478.7318 866,-460 845.9641,-437.0057 865.6155,-416.5161 844,-395 833.3499,-384.3989 819.4082,-377.0085 805.1797,-371.8565"/>
<polygon fill="#000000" stroke="#000000" points="805.6008,-369.4132 798.1849,-369.5029 804.0381,-374.0574 805.6008,-369.4132"/>
<text text-anchor="middle" x="900" y="-448.1" font-family="Helvetica,sans-Serif" font-size="8.00" fill="#000000">input_top_zip_path</text>
</g>
<!-- step15_gather_outputs&#45;&gt;dir -->
<g id="edge41" class="edge">
<title>step15_gather_outputs&#45;&gt;dir</title>
<path fill="none" stroke="#000000" d="M525,-80.4567C525,-74.9678 525,-67.9184 525,-61.5532"/>
<polygon fill="#000000" stroke="#000000" points="527.4501,-61.5296 525,-54.5296 522.5501,-61.5296 527.4501,-61.5296"/>
</g>
<!-- step13_grompp_md&#45;&gt;step14_mdrun_md -->
<g id="edge1" class="edge">
<title>step13_grompp_md&#45;&gt;step14_mdrun_md</title>
<path fill="none" stroke="#000000" d="M574.8811,-170.4647C567.3163,-167.9177 559.3039,-165.0254 552,-162 542.0258,-157.8685 531.3361,-152.6908 522.1214,-147.9776"/>
<polygon fill="#000000" stroke="#000000" points="523.0457,-145.6971 515.7036,-144.6493 520.7898,-150.0469 523.0457,-145.6971"/>
<text text-anchor="middle" x="578" y="-155.6" font-family="Helvetica,sans-Serif" font-size="8.00" fill="#000000">input_tpr_path</text>
</g>
<!-- step13_grompp_md&#45;&gt;step15_gather_outputs -->
<g id="edge18" class="edge">
<title>step13_grompp_md&#45;&gt;step15_gather_outputs</title>
<path fill="none" stroke="#000000" d="M607.4189,-170.2024C609.0468,-154.8777 609.7291,-125.2131 594,-108 591.9155,-105.7188 588.02,-103.6428 583.0992,-101.7787"/>
<polygon fill="#000000" stroke="#000000" points="583.7925,-99.4273 576.3769,-99.5314 582.2389,-104.0745 583.7925,-99.4273"/>
<text text-anchor="middle" x="630.5" y="-133.1" font-family="Helvetica,sans-Serif" font-size="8.00" fill="#000000">external_files</text>
</g>
<!-- step3_solvate -->
<g id="node18" class="node">
<title>step3_solvate</title>
<polygon fill="#fafad2" stroke="#000000" points="945.5,-620.5 945.5,-639.5 1022.5,-639.5 1022.5,-620.5 945.5,-620.5"/>
<text text-anchor="middle" x="984" y="-627.5" font-family="Helvetica,sans-Serif" font-size="10.00" fill="#000000">step3_solvate</text>
</g>
<!-- step3_solvate&#45;&gt;step5_genion -->
<g id="edge11" class="edge">
<title>step3_solvate&#45;&gt;step5_genion</title>
<path fill="none" stroke="#000000" d="M945.2996,-622.1919C918.4665,-615.9018 886.1465,-606.2689 878,-595 866.0476,-578.4663 886.66,-563.0884 906.908,-552.8212"/>
<polygon fill="#000000" stroke="#000000" points="908.1898,-554.923 913.4275,-549.6723 906.0586,-550.5107 908.1898,-554.923"/>
<text text-anchor="middle" x="912" y="-583.1" font-family="Helvetica,sans-Serif" font-size="8.00" fill="#000000">input_top_zip_path</text>
</g>
<!-- step3_solvate&#45;&gt;step4_grompp_genion -->
<g id="edge35" class="edge">
<title>step3_solvate&#45;&gt;step4_grompp_genion</title>
<path fill="none" stroke="#000000" d="M1022.6762,-620.4124C1030.4414,-617.846 1037.1092,-614.9579 1040,-612 1042.7486,-609.1876 1044.5598,-605.4769 1045.7513,-601.7101"/>
<polygon fill="#000000" stroke="#000000" points="1048.2005,-601.9878 1047.3623,-594.6189 1043.4223,-600.9022 1048.2005,-601.9878"/>
<text text-anchor="middle" x="1079" y="-605.6" font-family="Helvetica,sans-Serif" font-size="8.00" fill="#000000">input_top_zip_path</text>
</g>
<!-- step3_solvate&#45;&gt;step4_grompp_genion -->
<g id="edge36" class="edge">
<title>step3_solvate&#45;&gt;step4_grompp_genion</title>
<path fill="none" stroke="#000000" d="M981.3258,-620.3464C980.3778,-614.744 980.3203,-607.8573 984,-603 985.639,-600.8365 988.8358,-598.8604 992.9628,-597.0759"/>
<polygon fill="#000000" stroke="#000000" points="993.8998,-599.3413 999.6018,-594.5989 992.1869,-594.7504 993.8998,-599.3413"/>
<text text-anchor="middle" x="1011.5" y="-605.6" font-family="Helvetica,sans-Serif" font-size="8.00" fill="#000000">input_gro_path</text>
</g>
<!-- step10_mdrun_nvt -->
<g id="node19" class="node">
<title>step10_mdrun_nvt</title>
<polygon fill="#fafad2" stroke="#000000" points="689.5,-305.5 689.5,-324.5 786.5,-324.5 786.5,-305.5 689.5,-305.5"/>
<text text-anchor="middle" x="738" y="-312.5" font-family="Helvetica,sans-Serif" font-size="10.00" fill="#000000">step10_mdrun_nvt</text>
</g>
<!-- step10_mdrun_nvt&#45;&gt;step11_grompp_npt -->
<g id="edge5" class="edge">
<title>step10_mdrun_nvt&#45;&gt;step11_grompp_npt</title>
<path fill="none" stroke="#000000" d="M737.3447,-305.3981C736.4725,-299.6729 734.4857,-292.6395 730,-288 728.0402,-285.973 724.2711,-283.9553 719.5967,-282.0435"/>
<polygon fill="#000000" stroke="#000000" points="720.1615,-279.6403 712.7462,-279.5112 718.4625,-284.2364 720.1615,-279.6403"/>
<text text-anchor="middle" x="762.5" y="-290.6" font-family="Helvetica,sans-Serif" font-size="8.00" fill="#000000">input_gro_path</text>
</g>
<!-- step10_mdrun_nvt&#45;&gt;step11_grompp_npt -->
<g id="edge6" class="edge">
<title>step10_mdrun_nvt&#45;&gt;step11_grompp_npt</title>
<path fill="none" stroke="#000000" d="M691.7094,-305.471C684.3874,-303.0619 678.423,-300.2265 676,-297 673.8273,-294.1068 672.9648,-290.5037 672.8199,-286.8818"/>
<polygon fill="#000000" stroke="#000000" points="675.2821,-286.8001 673.3406,-279.6424 670.3947,-286.4486 675.2821,-286.8001"/>
<text text-anchor="middle" x="702.5" y="-290.6" font-family="Helvetica,sans-Serif" font-size="8.00" fill="#000000">input_cpt_path</text>
</g>
<!-- step8_make_ndx&#45;&gt;step11_grompp_npt -->
<g id="edge3" class="edge">
<title>step8_make_ndx&#45;&gt;step11_grompp_npt</title>
<path fill="none" stroke="#000000" d="M632.3291,-395.4804C632.914,-384.3715 634.5326,-365.5418 639,-350 645.6581,-326.8366 658.1286,-301.894 666.7394,-286.1291"/>
<polygon fill="#000000" stroke="#000000" points="668.9054,-287.2751 670.1652,-279.9665 664.6226,-284.8943 668.9054,-287.2751"/>
<text text-anchor="middle" x="671.5" y="-335.6" font-family="Helvetica,sans-Serif" font-size="8.00" fill="#000000">input_ndx_path</text>
</g>
<!-- step8_make_ndx&#45;&gt;step13_grompp_md -->
<g id="edge23" class="edge">
<title>step8_make_ndx&#45;&gt;step13_grompp_md</title>
<path fill="none" stroke="#000000" d="M600.5,-395.4035C584.75,-388.4547 569,-377.2047 569,-360 569,-360 569,-360 569,-225 569,-212.7712 577.2531,-202.0559 585.9637,-194.1522"/>
<polygon fill="#000000" stroke="#000000" points="587.5921,-195.9841 591.3766,-189.606 584.4407,-192.2319 587.5921,-195.9841"/>
<text text-anchor="middle" x="596.5" y="-290.6" font-family="Helvetica,sans-Serif" font-size="8.00" fill="#000000">input_ndx_path</text>
</g>
<!-- step8_make_ndx&#45;&gt;step9_grompp_nvt -->
<g id="edge33" class="edge">
<title>step8_make_ndx&#45;&gt;step9_grompp_nvt</title>
<path fill="none" stroke="#000000" d="M635.3764,-395.321C637.9345,-389.4159 642.0389,-382.2159 648,-378 651.5234,-375.5081 657.5599,-373.2707 664.9028,-371.2904"/>
<polygon fill="#000000" stroke="#000000" points="665.7699,-373.6 671.979,-369.5441 664.5958,-368.8427 665.7699,-373.6"/>
<text text-anchor="middle" x="675.5" y="-380.6" font-family="Helvetica,sans-Serif" font-size="8.00" fill="#000000">input_ndx_path</text>
</g>
<!-- step7_mdrun_min&#45;&gt;step8_make_ndx -->
<g id="edge29" class="edge">
<title>step7_mdrun_min&#45;&gt;step8_make_ndx</title>
<path fill="none" stroke="#000000" d="M757.5628,-440.4757C746.275,-437.8641 734.1543,-434.9388 723,-432 705.2916,-427.3344 685.8102,-421.6318 669.4317,-416.6716"/>
<polygon fill="#000000" stroke="#000000" points="670.0266,-414.2917 662.6165,-414.5964 668.5993,-418.9792 670.0266,-414.2917"/>
<text text-anchor="middle" x="760" y="-425.6" font-family="Helvetica,sans-Serif" font-size="8.00" fill="#000000">input_structure_path</text>
</g>
<!-- step7_mdrun_min&#45;&gt;step9_grompp_nvt -->
<g id="edge31" class="edge">
<title>step7_mdrun_min&#45;&gt;step9_grompp_nvt</title>
<path fill="none" stroke="#000000" d="M799.6215,-440.358C798.5885,-435.0209 796.8483,-428.3959 794,-423 784.1256,-404.2937 767.6775,-386.4751 755.3357,-374.5921"/>
<polygon fill="#000000" stroke="#000000" points="756.7706,-372.5783 749.9925,-369.5682 753.414,-376.1482 756.7706,-372.5783"/>
<text text-anchor="middle" x="815.5" y="-403.1" font-family="Helvetica,sans-Serif" font-size="8.00" fill="#000000">input_gro_path</text>
</g>
<!-- step9_grompp_nvt&#45;&gt;step10_mdrun_nvt -->
<g id="edge27" class="edge">
<title>step9_grompp_nvt&#45;&gt;step10_mdrun_nvt</title>
<path fill="none" stroke="#000000" d="M738.7879,-350.4567C738.666,-344.9678 738.5093,-337.9184 738.3678,-331.5532"/>
<polygon fill="#000000" stroke="#000000" points="740.8168,-331.4734 738.2118,-324.5296 735.918,-331.5823 740.8168,-331.4734"/>
<text text-anchor="middle" x="764" y="-335.6" font-family="Helvetica,sans-Serif" font-size="8.00" fill="#000000">input_tpr_path</text>
</g>
<!-- step4_grompp_genion&#45;&gt;step5_genion -->
<g id="edge13" class="edge">
<title>step4_grompp_genion&#45;&gt;step5_genion</title>
<path fill="none" stroke="#000000" d="M1024.6718,-575.4567C1008.192,-568.7149 985.9574,-559.619 968.135,-552.3279"/>
<polygon fill="#000000" stroke="#000000" points="968.7011,-549.9125 961.2945,-549.5296 966.8457,-554.4477 968.7011,-549.9125"/>
<text text-anchor="middle" x="1028" y="-560.6" font-family="Helvetica,sans-Serif" font-size="8.00" fill="#000000">input_tpr_path</text>
</g>
<!-- step12_mdrun_npt&#45;&gt;step13_grompp_md -->
<g id="edge22" class="edge">
<title>step12_mdrun_npt&#45;&gt;step13_grompp_md</title>
<path fill="none" stroke="#000000" d="M667.3447,-215.3981C666.4725,-209.6729 664.4857,-202.6395 660,-198 658.0402,-195.973 654.2711,-193.9553 649.5967,-192.0435"/>
<polygon fill="#000000" stroke="#000000" points="650.1615,-189.6403 642.7462,-189.5112 648.4625,-194.2364 650.1615,-189.6403"/>
<text text-anchor="middle" x="692.5" y="-200.6" font-family="Helvetica,sans-Serif" font-size="8.00" fill="#000000">input_gro_path</text>
</g>
<!-- step12_mdrun_npt&#45;&gt;step13_grompp_md -->
<g id="edge24" class="edge">
<title>step12_mdrun_npt&#45;&gt;step13_grompp_md</title>
<path fill="none" stroke="#000000" d="M621.7094,-215.471C614.3874,-213.0619 608.423,-210.2265 606,-207 603.8273,-204.1068 602.9648,-200.5037 602.8199,-196.8818"/>
<polygon fill="#000000" stroke="#000000" points="605.2821,-196.8001 603.3406,-189.6424 600.3947,-196.4486 605.2821,-196.8001"/>
<text text-anchor="middle" x="632.5" y="-200.6" font-family="Helvetica,sans-Serif" font-size="8.00" fill="#000000">input_cpt_path</text>
</g>
<!-- step1_pdb2gmx&#45;&gt;step3_solvate -->
<g id="edge25" class="edge">
<title>step1_pdb2gmx&#45;&gt;step3_solvate</title>
<path fill="none" stroke="#000000" d="M909.8915,-710.2187C904.5612,-698.5201 898.1194,-678.7916 907,-665 914.2443,-653.7496 926.0876,-646.0738 938.3379,-640.8533"/>
<polygon fill="#000000" stroke="#000000" points="939.5242,-643.0207 945.1589,-638.1985 937.7469,-638.4544 939.5242,-643.0207"/>
<text text-anchor="middle" x="941" y="-673.1" font-family="Helvetica,sans-Serif" font-size="8.00" fill="#000000">input_top_zip_path</text>
</g>
<!-- step2_editconf -->
<g id="node26" class="node">
<title>step2_editconf</title>
<polygon fill="#fafad2" stroke="#000000" points="977,-665.5 977,-684.5 1057,-684.5 1057,-665.5 977,-665.5"/>
<text text-anchor="middle" x="1017" y="-672.5" font-family="Helvetica,sans-Serif" font-size="10.00" fill="#000000">step2_editconf</text>
</g>
<!-- step1_pdb2gmx&#45;&gt;step2_editconf -->
<g id="edge40" class="edge">
<title>step1_pdb2gmx&#45;&gt;step2_editconf</title>
<path fill="none" stroke="#000000" d="M936.6316,-710.4567C951.7776,-703.7746 972.1659,-694.7798 988.617,-687.5219"/>
<polygon fill="#000000" stroke="#000000" points="989.9841,-689.5967 995.3996,-684.5296 988.0062,-685.1136 989.9841,-689.5967"/>
<text text-anchor="middle" x="1002.5" y="-695.6" font-family="Helvetica,sans-Serif" font-size="8.00" fill="#000000">input_gro_path</text>
</g>
<!-- step2_editconf&#45;&gt;step3_solvate -->
<g id="edge26" class="edge">
<title>step2_editconf&#45;&gt;step3_solvate</title>
<path fill="none" stroke="#000000" d="M1010.0015,-665.4567C1005.7139,-659.6098 1000.1277,-651.9923 995.2326,-645.3171"/>
<polygon fill="#000000" stroke="#000000" points="997.1036,-643.7256 990.9884,-639.5296 993.1522,-646.6233 997.1036,-643.7256"/>
<text text-anchor="middle" x="1043" y="-650.6" font-family="Helvetica,sans-Serif" font-size="8.00" fill="#000000">input_solute_gro_path</text>
</g>
</g>
</svg>
