<?xml version="1.0" encoding="UTF-8" standalone="no"?>
<!DOCTYPE svg PUBLIC "-//W3C//DTD SVG 1.1//EN"
 "http://www.w3.org/Graphics/SVG/1.1/DTD/svg11.dtd">
<!-- Generated by graphviz version 2.40.1 (20161225.0304)
 -->
<!-- Title: workflow Pages: 1 -->
<svg width="178pt" height="331pt"
 viewBox="0.00 0.00 178.00 331.00" xmlns="http://www.w3.org/2000/svg" xmlns:xlink="http://www.w3.org/1999/xlink">
<g id="graph0" class="graph" transform="scale(1 1) rotate(0) translate(4 327)">
<title>workflow</title>
<polygon fill="#ffffff" stroke="transparent" points="-4,4 -4,-327 174,-327 174,4 -4,4"/>
<g id="clust1" class="cluster">
<title>cluster_inputs</title>
<polygon fill="none" stroke="#000000" stroke-dasharray="5,2" points="55,-260 55,-315 145,-315 145,-260 55,-260"/>
<text text-anchor="middle" x="99" y="-303" font-family="Helvetica,sans-Serif" font-size="10.00" fill="#000000">Workflow Inputs</text>
</g>
<g id="clust2" class="cluster">
<title>cluster_outputs</title>
<polygon fill="none" stroke="#000000" stroke-dasharray="5,2" points="67,-8 67,-63 162,-63 162,-8 67,-8"/>
<text text-anchor="middle" x="114.5" y="-15" font-family="Helvetica,sans-Serif" font-size="10.00" fill="#000000">Workflow Outputs</text>
</g>
<!-- workdir_array -->
<g id="node1" class="node">
<title>workdir_array</title>
<polygon fill="#94ddf4" stroke="#000000" points="62.5,-268.5 62.5,-287.5 137.5,-287.5 137.5,-268.5 62.5,-268.5"/>
<text text-anchor="middle" x="100" y="-275.5" font-family="Helvetica,sans-Serif" font-size="10.00" fill="#000000">workdir_array</text>
</g>
<!-- brucker_to_script -->
<g id="node3" class="node">
<title>brucker_to_script</title>
<polygon fill="#fafad2" stroke="#000000" points="0,-215.5 0,-234.5 92,-234.5 92,-215.5 0,-215.5"/>
<text text-anchor="middle" x="46" y="-222.5" font-family="Helvetica,sans-Serif" font-size="10.00" fill="#000000">brucker_to_script</text>
</g>
<!-- workdir_array&#45;&gt;brucker_to_script -->
<g id="edge1" class="edge">
<title>workdir_array&#45;&gt;brucker_to_script</title>
<path fill="none" stroke="#000000" d="M87.5159,-268.3268C81.6909,-263.616 74.7837,-257.7395 69,-252 65.2998,-248.3281 61.5317,-244.1321 58.1452,-240.1602"/>
<polygon fill="#000000" stroke="#000000" points="59.8697,-238.4022 53.509,-234.5884 56.1031,-241.5364 59.8697,-238.4022"/>
<text text-anchor="middle" x="82.5" y="-245.6" font-family="Helvetica,sans-Serif" font-size="8.00" fill="#000000">workdir</text>
</g>
<!-- script_to_fid -->
<g id="node4" class="node">
<title>script_to_fid</title>
<polygon fill="#fafad2" stroke="#000000" points="57,-170.5 57,-189.5 127,-189.5 127,-170.5 57,-170.5"/>
<text text-anchor="middle" x="92" y="-177.5" font-family="Helvetica,sans-Serif" font-size="10.00" fill="#000000">script_to_fid</text>
</g>
<!-- workdir_array&#45;&gt;script_to_fid -->
<g id="edge2" class="edge">
<title>workdir_array&#45;&gt;script_to_fid</title>
<path fill="none" stroke="#000000" d="M99.2037,-268.2451C97.844,-251.5884 95.0589,-217.4711 93.378,-196.8802"/>
<polygon fill="#000000" stroke="#000000" points="95.8046,-196.4929 92.7931,-189.7154 90.9208,-196.8916 95.8046,-196.4929"/>
<text text-anchor="middle" x="110.5" y="-223.1" font-family="Helvetica,sans-Serif" font-size="8.00" fill="#000000">workdir</text>
</g>
<!-- fid_to_pipe -->
<g id="node5" class="node">
<title>fid_to_pipe</title>
<polygon fill="#fafad2" stroke="#000000" points="81,-125.5 81,-144.5 145,-144.5 145,-125.5 81,-125.5"/>
<text text-anchor="middle" x="113" y="-132.5" font-family="Helvetica,sans-Serif" font-size="10.00" fill="#000000">fid_to_pipe</text>
</g>
<!-- workdir_array&#45;&gt;fid_to_pipe -->
<g id="edge4" class="edge">
<title>workdir_array&#45;&gt;fid_to_pipe</title>
<path fill="none" stroke="#000000" d="M107.4326,-268.3809C113.3957,-260.0553 121.3517,-247.4285 125,-235 135.2656,-200.0284 136.8943,-187.0901 124,-153 123.7279,-152.2806 123.4264,-151.5582 123.1022,-150.838"/>
<polygon fill="#000000" stroke="#000000" points="125.2089,-149.5818 119.7503,-144.5611 120.8866,-151.89 125.2089,-149.5818"/>
<text text-anchor="middle" x="147.5" y="-200.6" font-family="Helvetica,sans-Serif" font-size="8.00" fill="#000000">workdir</text>
</g>
<!-- final_result -->
<g id="node2" class="node">
<title>final_result</title>
<polygon fill="#94ddf4" stroke="#000000" points="81,-35.5 81,-54.5 145,-54.5 145,-35.5 81,-35.5"/>
<text text-anchor="middle" x="113" y="-42.5" font-family="Helvetica,sans-Serif" font-size="10.00" fill="#000000">final_result</text>
</g>
<!-- brucker_to_script&#45;&gt;script_to_fid -->
<g id="edge3" class="edge">
<title>brucker_to_script&#45;&gt;script_to_fid</title>
<path fill="none" stroke="#000000" d="M54.9821,-215.3411C59.9174,-210.1189 66.1987,-203.6089 72,-198 73.1461,-196.892 74.3419,-195.7595 75.554,-194.6288"/>
<polygon fill="#000000" stroke="#000000" points="77.3588,-196.2982 80.8672,-189.7641 74.0499,-192.6841 77.3588,-196.2982"/>
<text text-anchor="middle" x="84" y="-200.6" font-family="Helvetica,sans-Serif" font-size="8.00" fill="#000000">fidcom</text>
</g>
<!-- script_to_fid&#45;&gt;fid_to_pipe -->
<g id="edge5" class="edge">
<title>script_to_fid&#45;&gt;fid_to_pipe</title>
<path fill="none" stroke="#000000" d="M96.4536,-170.4567C99.0707,-164.8485 102.4481,-157.6112 105.4685,-151.139"/>
<polygon fill="#000000" stroke="#000000" points="107.8128,-151.909 108.5529,-144.5296 103.3725,-149.8368 107.8128,-151.909"/>
<text text-anchor="middle" x="114" y="-155.6" font-family="Helvetica,sans-Serif" font-size="8.00" fill="#000000">fiddir</text>
</g>
<!-- pipe_to_pick -->
<g id="node6" class="node">
<title>pipe_to_pick</title>
<polygon fill="#fafad2" stroke="#000000" points="77.5,-80.5 77.5,-99.5 148.5,-99.5 148.5,-80.5 77.5,-80.5"/>
<text text-anchor="middle" x="113" y="-87.5" font-family="Helvetica,sans-Serif" font-size="10.00" fill="#000000">pipe_to_pick</text>
</g>
<!-- fid_to_pipe&#45;&gt;pipe_to_pick -->
<g id="edge6" class="edge">
<title>fid_to_pipe&#45;&gt;pipe_to_pick</title>
<path fill="none" stroke="#000000" d="M113,-125.4567C113,-119.9678 113,-112.9184 113,-106.5532"/>
<polygon fill="#000000" stroke="#000000" points="115.4501,-106.5296 113,-99.5296 110.5501,-106.5296 115.4501,-106.5296"/>
<text text-anchor="middle" x="118" y="-110.6" font-family="Helvetica,sans-Serif" font-size="8.00" fill="#000000">ft2</text>
</g>
<!-- pipe_to_pick&#45;&gt;final_result -->
<g id="edge7" class="edge">
<title>pipe_to_pick&#45;&gt;final_result</title>
<path fill="none" stroke="#000000" d="M113,-80.4567C113,-74.9678 113,-67.9184 113,-61.5532"/>
<polygon fill="#000000" stroke="#000000" points="115.4501,-61.5296 113,-54.5296 110.5501,-61.5296 115.4501,-61.5296"/>
</g>
</g>
</svg>
