<?xml version="1.0" encoding="UTF-8" standalone="no"?>
<!DOCTYPE svg PUBLIC "-//W3C//DTD SVG 1.1//EN"
 "http://www.w3.org/Graphics/SVG/1.1/DTD/svg11.dtd">
<!-- Generated by graphviz version 2.40.1 (20161225.0304)
 -->
<!-- Title: workflow Pages: 1 -->
<svg width="773pt" height="466pt"
 viewBox="0.00 0.00 772.50 466.00" xmlns="http://www.w3.org/2000/svg" xmlns:xlink="http://www.w3.org/1999/xlink">
<g id="graph0" class="graph" transform="scale(1 1) rotate(0) translate(4 462)">
<title>workflow</title>
<polygon fill="#ffffff" stroke="transparent" points="-4,4 -4,-462 768.5,-462 768.5,4 -4,4"/>
<g id="clust1" class="cluster">
<title>cluster_inputs</title>
<polygon fill="none" stroke="#000000" stroke-dasharray="5,2" points="259.5,-395 259.5,-450 756.5,-450 756.5,-395 259.5,-395"/>
<text text-anchor="middle" x="303.5" y="-438" font-family="Helvetica,sans-Serif" font-size="10.00" fill="#000000">Workflow Inputs</text>
</g>
<g id="clust2" class="cluster">
<title>cluster_outputs</title>
<polygon fill="none" stroke="#000000" stroke-dasharray="5,2" points="19.5,-8 19.5,-63 685.5,-63 685.5,-8 19.5,-8"/>
<text text-anchor="middle" x="67" y="-15" font-family="Helvetica,sans-Serif" font-size="10.00" fill="#000000">Workflow Outputs</text>
</g>
<!-- inputReads -->
<g id="node1" class="node">
<title>inputReads</title>
<polygon fill="#94ddf4" stroke="#000000" points="467.5,-403.5 467.5,-422.5 533.5,-422.5 533.5,-403.5 467.5,-403.5"/>
<text text-anchor="middle" x="500.5" y="-410.5" font-family="Helvetica,sans-Serif" font-size="10.00" fill="#000000">inputReads</text>
</g>
<!-- relabel -->
<g id="node16" class="node">
<title>relabel</title>
<polygon fill="#fafad2" stroke="#000000" points="478,-350.5 478,-369.5 523,-369.5 523,-350.5 478,-350.5"/>
<text text-anchor="middle" x="500.5" y="-357.5" font-family="Helvetica,sans-Serif" font-size="10.00" fill="#000000">relabel</text>
</g>
<!-- inputReads&#45;&gt;relabel -->
<g id="edge1" class="edge">
<title>inputReads&#45;&gt;relabel</title>
<path fill="none" stroke="#000000" d="M500.5,-403.279C500.5,-395.8827 500.5,-385.5239 500.5,-376.7951"/>
<polygon fill="#000000" stroke="#000000" points="502.9501,-376.6594 500.5,-369.6594 498.0501,-376.6594 502.9501,-376.6594"/>
<text text-anchor="middle" x="516" y="-380.6" font-family="Helvetica,sans-Serif" font-size="8.00" fill="#000000">readsFA</text>
</g>
<!-- metadata -->
<g id="node2" class="node">
<title>metadata</title>
<polygon fill="#94ddf4" stroke="#000000" points="595,-403.5 595,-422.5 652,-422.5 652,-403.5 595,-403.5"/>
<text text-anchor="middle" x="623.5" y="-410.5" font-family="Helvetica,sans-Serif" font-size="10.00" fill="#000000">metadata</text>
</g>
<!-- mergeMetadata -->
<g id="node23" class="node">
<title>mergeMetadata</title>
<polygon fill="#fafad2" stroke="#000000" points="585.5,-260.5 585.5,-279.5 669.5,-279.5 669.5,-260.5 585.5,-260.5"/>
<text text-anchor="middle" x="627.5" y="-267.5" font-family="Helvetica,sans-Serif" font-size="10.00" fill="#000000">mergeMetadata</text>
</g>
<!-- metadata&#45;&gt;mergeMetadata -->
<g id="edge19" class="edge">
<title>metadata&#45;&gt;mergeMetadata</title>
<path fill="none" stroke="#000000" d="M628.7185,-403.2447C635.5442,-389.8776 647.1456,-364.9104 651.5,-342 655.2976,-322.0191 645.7899,-299.9569 637.6415,-285.5877"/>
<polygon fill="#000000" stroke="#000000" points="639.7369,-284.3179 634.046,-279.5621 635.529,-286.8287 639.7369,-284.3179"/>
<text text-anchor="middle" x="668.5" y="-335.6" font-family="Helvetica,sans-Serif" font-size="8.00" fill="#000000">metadata</text>
</g>
<!-- metadataSchema -->
<g id="node3" class="node">
<title>metadataSchema</title>
<polygon fill="#94ddf4" stroke="#000000" points="656,-403.5 656,-422.5 749,-422.5 749,-403.5 656,-403.5"/>
<text text-anchor="middle" x="702.5" y="-410.5" font-family="Helvetica,sans-Serif" font-size="10.00" fill="#000000">metadataSchema</text>
</g>
<!-- metadataSchema&#45;&gt;mergeMetadata -->
<g id="edge20" class="edge">
<title>metadataSchema&#45;&gt;mergeMetadata</title>
<path fill="none" stroke="#000000" d="M702.2389,-403.0774C701.4591,-387.3705 698.3996,-356.1864 686.5,-333 676.5619,-313.6356 658.9078,-295.9641 645.4928,-284.2983"/>
<polygon fill="#000000" stroke="#000000" points="646.9631,-282.333 640.0379,-279.6789 643.7965,-286.0724 646.9631,-282.333"/>
<text text-anchor="middle" x="721.5" y="-335.6" font-family="Helvetica,sans-Serif" font-size="8.00" fill="#000000">metadataSchema</text>
</g>
<!-- subjects -->
<g id="node4" class="node">
<title>subjects</title>
<polygon fill="#94ddf4" stroke="#000000" points="538,-403.5 538,-422.5 591,-422.5 591,-403.5 538,-403.5"/>
<text text-anchor="middle" x="564.5" y="-410.5" font-family="Helvetica,sans-Serif" font-size="10.00" fill="#000000">subjects</text>
</g>
<!-- subjects&#45;&gt;relabel -->
<g id="edge2" class="edge">
<title>subjects&#45;&gt;relabel</title>
<path fill="none" stroke="#000000" d="M557.0663,-403.3083C550.9971,-395.8091 541.9125,-385.4765 532.5,-378 530.4318,-376.3572 528.1947,-374.7746 525.8976,-373.2757"/>
<polygon fill="#000000" stroke="#000000" points="527.0023,-371.0796 519.7517,-369.5201 524.4472,-375.2607 527.0023,-371.0796"/>
<text text-anchor="middle" x="556" y="-380.6" font-family="Helvetica,sans-Serif" font-size="8.00" fill="#000000">subjects</text>
</g>
<!-- subjects&#45;&gt;mergeMetadata -->
<g id="edge21" class="edge">
<title>subjects&#45;&gt;mergeMetadata</title>
<path fill="none" stroke="#000000" d="M571.9686,-403.3182C583.6007,-387.7302 605.91,-355.701 617.5,-325 622.1788,-312.6062 624.7112,-297.7924 626.0558,-286.663"/>
<polygon fill="#000000" stroke="#000000" points="628.5005,-286.8425 626.8088,-279.6216 623.6283,-286.3214 628.5005,-286.8425"/>
<text text-anchor="middle" x="628" y="-335.6" font-family="Helvetica,sans-Serif" font-size="8.00" fill="#000000">subjects</text>
</g>
<!-- exclude -->
<g id="node5" class="node">
<title>exclude</title>
<polygon fill="#94ddf4" stroke="#000000" points="413.5,-403.5 413.5,-422.5 463.5,-422.5 463.5,-403.5 413.5,-403.5"/>
<text text-anchor="middle" x="438.5" y="-410.5" font-family="Helvetica,sans-Serif" font-size="10.00" fill="#000000">exclude</text>
</g>
<!-- exclude&#45;&gt;relabel -->
<g id="edge3" class="edge">
<title>exclude&#45;&gt;relabel</title>
<path fill="none" stroke="#000000" d="M446.3129,-403.4407C452.6529,-396.0146 462.0586,-385.7156 471.5,-378 473.3354,-376.5001 475.3052,-375.0295 477.3227,-373.6156"/>
<polygon fill="#000000" stroke="#000000" points="478.9467,-375.4787 483.4311,-369.5716 476.2418,-371.3929 478.9467,-375.4787"/>
<text text-anchor="middle" x="485.5" y="-380.6" font-family="Helvetica,sans-Serif" font-size="8.00" fill="#000000">exclude</text>
</g>
<!-- bin_widths -->
<g id="node6" class="node">
<title>bin_widths</title>
<polygon fill="#94ddf4" stroke="#000000" points="346,-403.5 346,-422.5 409,-422.5 409,-403.5 346,-403.5"/>
<text text-anchor="middle" x="377.5" y="-410.5" font-family="Helvetica,sans-Serif" font-size="10.00" fill="#000000">bin_widths</text>
</g>
<!-- bin_paths -->
<g id="node24" class="node">
<title>bin_paths</title>
<polygon fill="#fafad2" stroke="#000000" points="112,-125.5 112,-144.5 171,-144.5 171,-125.5 112,-125.5"/>
<text text-anchor="middle" x="141.5" y="-132.5" font-family="Helvetica,sans-Serif" font-size="10.00" fill="#000000">bin_paths</text>
</g>
<!-- bin_widths&#45;&gt;bin_paths -->
<g id="edge25" class="edge">
<title>bin_widths&#45;&gt;bin_paths</title>
<path fill="none" stroke="#000000" d="M361.2007,-403.3702C355.45,-400.3126 348.8359,-397.1669 342.5,-395 302.291,-381.2482 154.5,-402.4956 154.5,-360 154.5,-360 154.5,-360 154.5,-180 154.5,-170.3141 151.6858,-159.8998 148.6761,-151.5318"/>
<polygon fill="#000000" stroke="#000000" points="150.8685,-150.4096 146.0468,-144.7745 146.302,-152.1865 150.8685,-150.4096"/>
<text text-anchor="middle" x="171.5" y="-268.1" font-family="Helvetica,sans-Serif" font-size="8.00" fill="#000000">bin_width</text>
</g>
<!-- cells_per_file -->
<g id="node7" class="node">
<title>cells_per_file</title>
<polygon fill="#94ddf4" stroke="#000000" points="267.5,-403.5 267.5,-422.5 341.5,-422.5 341.5,-403.5 267.5,-403.5"/>
<text text-anchor="middle" x="304.5" y="-410.5" font-family="Helvetica,sans-Serif" font-size="10.00" fill="#000000">cells_per_file</text>
</g>
<!-- segment_components -->
<g id="node26" class="node">
<title>segment_components</title>
<polygon fill="#fafad2" stroke="#000000" points="0,-80.5 0,-99.5 147,-99.5 147,-80.5 0,-80.5"/>
<text text-anchor="middle" x="73.5" y="-87.5" font-family="Helvetica,sans-Serif" font-size="10.00" fill="#000000">Run component segmentation</text>
</g>
<!-- cells_per_file&#45;&gt;segment_components -->
<g id="edge28" class="edge">
<title>cells_per_file&#45;&gt;segment_components</title>
<path fill="none" stroke="#000000" d="M267.3165,-408.9951C197.2185,-400.9395 52.5,-381.683 52.5,-360 52.5,-360 52.5,-360 52.5,-135 52.5,-124.7622 57.0186,-114.3396 61.8638,-106.1065"/>
<polygon fill="#000000" stroke="#000000" points="64.2155,-106.976 65.9185,-99.7578 60.0858,-104.3385 64.2155,-106.976"/>
<text text-anchor="middle" x="75.5" y="-245.6" font-family="Helvetica,sans-Serif" font-size="8.00" fill="#000000">cells_per_file</text>
</g>
<!-- odgiGraph -->
<g id="node8" class="node">
<title>odgiGraph</title>
<polygon fill="#94ddf4" stroke="#000000" points="339,-35.5 339,-54.5 400,-54.5 400,-35.5 339,-35.5"/>
<text text-anchor="middle" x="369.5" y="-42.5" font-family="Helvetica,sans-Serif" font-size="10.00" fill="#000000">odgiGraph</text>
</g>
<!-- odgiPNG -->
<g id="node9" class="node">
<title>odgiPNG</title>
<polygon fill="#94ddf4" stroke="#000000" points="278.5,-35.5 278.5,-54.5 334.5,-54.5 334.5,-35.5 278.5,-35.5"/>
<text text-anchor="middle" x="306.5" y="-42.5" font-family="Helvetica,sans-Serif" font-size="10.00" fill="#000000">odgiPNG</text>
</g>
<!-- seqwishGFA -->
<g id="node10" class="node">
<title>seqwishGFA</title>
<polygon fill="#94ddf4" stroke="#000000" points="141,-35.5 141,-54.5 214,-54.5 214,-35.5 141,-35.5"/>
<text text-anchor="middle" x="177.5" y="-42.5" font-family="Helvetica,sans-Serif" font-size="10.00" fill="#000000">seqwishGFA</text>
</g>
<!-- odgiRDF -->
<g id="node11" class="node">
<title>odgiRDF</title>
<polygon fill="#94ddf4" stroke="#000000" points="218.5,-35.5 218.5,-54.5 274.5,-54.5 274.5,-35.5 218.5,-35.5"/>
<text text-anchor="middle" x="246.5" y="-42.5" font-family="Helvetica,sans-Serif" font-size="10.00" fill="#000000">odgiRDF</text>
</g>
<!-- readsMergeDedup -->
<g id="node12" class="node">
<title>readsMergeDedup</title>
<polygon fill="#94ddf4" stroke="#000000" points="488.5,-35.5 488.5,-54.5 584.5,-54.5 584.5,-35.5 488.5,-35.5"/>
<text text-anchor="middle" x="536.5" y="-42.5" font-family="Helvetica,sans-Serif" font-size="10.00" fill="#000000">readsMergeDedup</text>
</g>
<!-- mergedMetadata -->
<g id="node13" class="node">
<title>mergedMetadata</title>
<polygon fill="#94ddf4" stroke="#000000" points="589,-35.5 589,-54.5 678,-54.5 678,-35.5 589,-35.5"/>
<text text-anchor="middle" x="633.5" y="-42.5" font-family="Helvetica,sans-Serif" font-size="10.00" fill="#000000">mergedMetadata</text>
</g>
<!-- indexed_paths -->
<g id="node14" class="node">
<title>indexed_paths</title>
<polygon fill="#94ddf4" stroke="#000000" points="404.5,-35.5 404.5,-54.5 484.5,-54.5 484.5,-35.5 404.5,-35.5"/>
<text text-anchor="middle" x="444.5" y="-42.5" font-family="Helvetica,sans-Serif" font-size="10.00" fill="#000000">indexed_paths</text>
</g>
<!-- colinear_components -->
<g id="node15" class="node">
<title>colinear_components</title>
<polygon fill="#94ddf4" stroke="#000000" points="28,-35.5 28,-54.5 137,-54.5 137,-35.5 28,-35.5"/>
<text text-anchor="middle" x="82.5" y="-42.5" font-family="Helvetica,sans-Serif" font-size="10.00" fill="#000000">colinear_components</text>
</g>
<!-- dedup -->
<g id="node17" class="node">
<title>dedup</title>
<polygon fill="#fafad2" stroke="#000000" points="473,-305.5 473,-324.5 516,-324.5 516,-305.5 473,-305.5"/>
<text text-anchor="middle" x="494.5" y="-312.5" font-family="Helvetica,sans-Serif" font-size="10.00" fill="#000000">dedup</text>
</g>
<!-- relabel&#45;&gt;dedup -->
<g id="edge4" class="edge">
<title>relabel&#45;&gt;dedup</title>
<path fill="none" stroke="#000000" d="M499.2276,-350.4567C498.4957,-344.9678 497.5558,-337.9184 496.7071,-331.5532"/>
<polygon fill="#000000" stroke="#000000" points="499.1244,-331.1444 495.7706,-324.5296 494.2673,-331.792 499.1244,-331.1444"/>
<text text-anchor="middle" x="508" y="-335.6" font-family="Helvetica,sans-Serif" font-size="8.00" fill="#000000">reads</text>
</g>
<!-- relabel&#45;&gt;mergeMetadata -->
<g id="edge23" class="edge">
<title>relabel&#45;&gt;mergeMetadata</title>
<path fill="none" stroke="#000000" d="M512.2838,-350.2818C526.1499,-338.9862 550.0121,-319.9814 571.5,-305 582.2479,-297.5066 594.5597,-289.7285 604.8972,-283.4133"/>
<polygon fill="#000000" stroke="#000000" points="606.3307,-285.4094 611.047,-279.6859 603.7908,-281.219 606.3307,-285.4094"/>
<text text-anchor="middle" x="596" y="-313.1" font-family="Helvetica,sans-Serif" font-size="8.00" fill="#000000">originalLabels</text>
</g>
<!-- dedup&#45;&gt;readsMergeDedup -->
<g id="edge34" class="edge">
<title>dedup&#45;&gt;readsMergeDedup</title>
<path fill="none" stroke="#000000" d="M504.089,-305.4381C515.3462,-293.1502 532.5,-270.6308 532.5,-247.5 532.5,-247.5 532.5,-247.5 532.5,-90 532.5,-80.6322 533.3707,-70.2103 534.2996,-61.757"/>
<polygon fill="#000000" stroke="#000000" points="536.7528,-61.8741 535.1458,-54.634 531.8871,-61.296 536.7528,-61.8741"/>
</g>
<!-- overlapReads -->
<g id="node18" class="node">
<title>overlapReads</title>
<polygon fill="#fafad2" stroke="#000000" points="316,-260.5 316,-279.5 393,-279.5 393,-260.5 316,-260.5"/>
<text text-anchor="middle" x="354.5" y="-267.5" font-family="Helvetica,sans-Serif" font-size="10.00" fill="#000000">overlapReads</text>
</g>
<!-- dedup&#45;&gt;overlapReads -->
<g id="edge5" class="edge">
<title>dedup&#45;&gt;overlapReads</title>
<path fill="none" stroke="#000000" d="M480.3984,-305.3815C476.5212,-302.6979 472.3302,-299.7607 468.5,-297 463.0917,-293.1019 462.6166,-290.6518 456.5,-288 446.3396,-283.595 422.3444,-279.262 400.1791,-275.9514"/>
<polygon fill="#000000" stroke="#000000" points="400.3472,-273.5001 393.0668,-274.9137 399.6397,-278.3487 400.3472,-273.5001"/>
<text text-anchor="middle" x="479.5" y="-290.6" font-family="Helvetica,sans-Serif" font-size="8.00" fill="#000000">target</text>
</g>
<!-- dedup&#45;&gt;overlapReads -->
<g id="edge6" class="edge">
<title>dedup&#45;&gt;overlapReads</title>
<path fill="none" stroke="#000000" d="M472.7865,-310.2422C461.1086,-307.2533 446.6517,-302.8475 434.5,-297 428.1677,-293.9529 427.8758,-290.955 421.5,-288 414.8614,-284.9232 407.6005,-282.293 400.3865,-280.0707"/>
<polygon fill="#000000" stroke="#000000" points="400.6188,-277.5868 393.213,-277.983 399.2495,-282.2916 400.6188,-277.5868"/>
<text text-anchor="middle" x="445" y="-290.6" font-family="Helvetica,sans-Serif" font-size="8.00" fill="#000000">query</text>
</g>
<!-- induceGraph -->
<g id="node19" class="node">
<title>induceGraph</title>
<polygon fill="#fafad2" stroke="#000000" points="272,-215.5 272,-234.5 343,-234.5 343,-215.5 272,-215.5"/>
<text text-anchor="middle" x="307.5" y="-222.5" font-family="Helvetica,sans-Serif" font-size="10.00" fill="#000000">induceGraph</text>
</g>
<!-- dedup&#45;&gt;induceGraph -->
<g id="edge10" class="edge">
<title>dedup&#45;&gt;induceGraph</title>
<path fill="none" stroke="#000000" d="M494.15,-305.498C493.4709,-299.8104 491.7424,-292.7813 487.5,-288 469.0548,-267.2115 397.3914,-246.595 350.242,-234.8652"/>
<polygon fill="#000000" stroke="#000000" points="350.5677,-232.4224 343.1852,-233.1302 349.3978,-237.1807 350.5677,-232.4224"/>
<text text-anchor="middle" x="492" y="-268.1" font-family="Helvetica,sans-Serif" font-size="8.00" fill="#000000">readsFA</text>
</g>
<!-- dedup&#45;&gt;mergeMetadata -->
<g id="edge22" class="edge">
<title>dedup&#45;&gt;mergeMetadata</title>
<path fill="none" stroke="#000000" d="M516.2398,-306.5608C522.5974,-303.8007 529.4585,-300.5285 535.5,-297 541.2568,-293.6379 541.4469,-290.7937 547.5,-288 557.1489,-283.5467 567.9729,-280.16 578.4662,-277.5965"/>
<polygon fill="#000000" stroke="#000000" points="579.0242,-279.9822 585.2985,-276.0279 577.9277,-275.2065 579.0242,-279.9822"/>
<text text-anchor="middle" x="556.5" y="-290.6" font-family="Helvetica,sans-Serif" font-size="8.00" fill="#000000">dups</text>
</g>
<!-- overlapReads&#45;&gt;induceGraph -->
<g id="edge11" class="edge">
<title>overlapReads&#45;&gt;induceGraph</title>
<path fill="none" stroke="#000000" d="M344.5325,-260.4567C338.1766,-254.3712 329.8172,-246.3675 322.6493,-239.5047"/>
<polygon fill="#000000" stroke="#000000" points="324.2037,-237.601 317.4531,-234.5296 320.8149,-241.1403 324.2037,-237.601"/>
<text text-anchor="middle" x="353" y="-245.6" font-family="Helvetica,sans-Serif" font-size="8.00" fill="#000000">readsPAF</text>
</g>
<!-- induceGraph&#45;&gt;seqwishGFA -->
<g id="edge32" class="edge">
<title>induceGraph&#45;&gt;seqwishGFA</title>
<path fill="none" stroke="#000000" d="M271.9087,-219.7067C233.7255,-212.9995 178.5,-199.865 178.5,-180 178.5,-180 178.5,-180 178.5,-90 178.5,-80.6666 178.2823,-70.2471 178.0501,-61.7865"/>
<polygon fill="#000000" stroke="#000000" points="180.4951,-61.5788 177.8386,-54.6546 175.5973,-61.7242 180.4951,-61.5788"/>
</g>
<!-- buildGraph -->
<g id="node20" class="node">
<title>buildGraph</title>
<polygon fill="#fafad2" stroke="#000000" points="259,-170.5 259,-189.5 322,-189.5 322,-170.5 259,-170.5"/>
<text text-anchor="middle" x="290.5" y="-177.5" font-family="Helvetica,sans-Serif" font-size="10.00" fill="#000000">buildGraph</text>
</g>
<!-- induceGraph&#45;&gt;buildGraph -->
<g id="edge12" class="edge">
<title>induceGraph&#45;&gt;buildGraph</title>
<path fill="none" stroke="#000000" d="M303.8947,-215.4567C301.7761,-209.8485 299.042,-202.6112 296.597,-196.139"/>
<polygon fill="#000000" stroke="#000000" points="298.8658,-195.212 294.1001,-189.5296 294.282,-196.9438 298.8658,-195.212"/>
<text text-anchor="middle" x="317.5" y="-200.6" font-family="Helvetica,sans-Serif" font-size="8.00" fill="#000000">inputGFA</text>
</g>
<!-- buildGraph&#45;&gt;odgiGraph -->
<g id="edge30" class="edge">
<title>buildGraph&#45;&gt;odgiGraph</title>
<path fill="none" stroke="#000000" d="M322.089,-176.8264C360.1718,-172.2721 420.7867,-162.4457 434.5,-145 439.9932,-138.0117 437.3503,-133.4195 434.5,-125 425.4541,-98.2792 402.9015,-74.1317 386.9068,-59.5206"/>
<polygon fill="#000000" stroke="#000000" points="388.2081,-57.3995 381.3478,-54.5819 384.9537,-61.0627 388.2081,-57.3995"/>
</g>
<!-- vizGraph -->
<g id="node21" class="node">
<title>vizGraph</title>
<polygon fill="#fafad2" stroke="#000000" points="283.5,-80.5 283.5,-99.5 339.5,-99.5 339.5,-80.5 283.5,-80.5"/>
<text text-anchor="middle" x="311.5" y="-87.5" font-family="Helvetica,sans-Serif" font-size="10.00" fill="#000000">vizGraph</text>
</g>
<!-- buildGraph&#45;&gt;vizGraph -->
<g id="edge13" class="edge">
<title>buildGraph&#45;&gt;vizGraph</title>
<path fill="none" stroke="#000000" d="M287.1968,-170.1286C283.9072,-158.3412 280.5195,-138.5254 289.5,-125 294.5682,-117.3669 303.0175,-124.3411 308.5,-117 310.6783,-114.0832 311.8158,-110.4707 312.342,-106.8473"/>
<polygon fill="#000000" stroke="#000000" points="314.801,-106.7265 312.7014,-99.6135 309.907,-106.4833 314.801,-106.7265"/>
<text text-anchor="middle" x="326" y="-133.1" font-family="Helvetica,sans-Serif" font-size="8.00" fill="#000000">sparse_graph_index</text>
</g>
<!-- odgi2rdf -->
<g id="node22" class="node">
<title>odgi2rdf</title>
<polygon fill="#fafad2" stroke="#000000" points="195,-80.5 195,-99.5 246,-99.5 246,-80.5 195,-80.5"/>
<text text-anchor="middle" x="220.5" y="-87.5" font-family="Helvetica,sans-Serif" font-size="10.00" fill="#000000">odgi2rdf</text>
</g>
<!-- buildGraph&#45;&gt;odgi2rdf -->
<g id="edge18" class="edge">
<title>buildGraph&#45;&gt;odgi2rdf</title>
<path fill="none" stroke="#000000" d="M283.9531,-170.3367C279.2846,-164.2791 272.4432,-156.9029 264.5,-153 249.8532,-145.8032 202.3929,-157.1518 191.5,-145 180.8779,-133.1503 192.1067,-116.709 203.5425,-104.8941"/>
<polygon fill="#000000" stroke="#000000" points="205.4375,-106.468 208.7336,-99.8243 202.0138,-102.9625 205.4375,-106.468"/>
<text text-anchor="middle" x="199.5" y="-133.1" font-family="Helvetica,sans-Serif" font-size="8.00" fill="#000000">odgi</text>
</g>
<!-- buildGraph&#45;&gt;bin_paths -->
<g id="edge24" class="edge">
<title>buildGraph&#45;&gt;bin_paths</title>
<path fill="none" stroke="#000000" d="M258.7901,-176.3758C239.797,-173.6376 215.3672,-169.1069 194.5,-162 183.8573,-158.3753 172.6808,-152.9501 163.3495,-147.9115"/>
<polygon fill="#000000" stroke="#000000" points="164.5238,-145.7613 157.2134,-144.5119 162.1491,-150.0474 164.5238,-145.7613"/>
<text text-anchor="middle" x="231" y="-155.6" font-family="Helvetica,sans-Serif" font-size="8.00" fill="#000000">sparse_graph_index</text>
</g>
<!-- index_paths -->
<g id="node25" class="node">
<title>index_paths</title>
<polygon fill="#fafad2" stroke="#000000" points="431.5,-80.5 431.5,-99.5 525.5,-99.5 525.5,-80.5 431.5,-80.5"/>
<text text-anchor="middle" x="478.5" y="-87.5" font-family="Helvetica,sans-Serif" font-size="10.00" fill="#000000">Create path index</text>
</g>
<!-- buildGraph&#45;&gt;index_paths -->
<g id="edge26" class="edge">
<title>buildGraph&#45;&gt;index_paths</title>
<path fill="none" stroke="#000000" d="M322.356,-178.1968C364.9986,-175.4976 436.3673,-169.8692 445.5,-162 458.4047,-150.8806 448.5125,-140.5354 455.5,-125 458.5226,-118.2798 462.7566,-111.3952 466.7691,-105.5296"/>
<polygon fill="#000000" stroke="#000000" points="468.9104,-106.7458 470.9684,-99.6207 464.9163,-103.9073 468.9104,-106.7458"/>
<text text-anchor="middle" x="492" y="-133.1" font-family="Helvetica,sans-Serif" font-size="8.00" fill="#000000">sparse_graph_index</text>
</g>
<!-- vizGraph&#45;&gt;odgiPNG -->
<g id="edge31" class="edge">
<title>vizGraph&#45;&gt;odgiPNG</title>
<path fill="none" stroke="#000000" d="M310.4396,-80.4567C309.8298,-74.9678 309.0465,-67.9184 308.3392,-61.5532"/>
<polygon fill="#000000" stroke="#000000" points="310.767,-61.2162 307.5588,-54.5296 305.8969,-61.7574 310.767,-61.2162"/>
</g>
<!-- odgi2rdf&#45;&gt;odgiRDF -->
<g id="edge33" class="edge">
<title>odgi2rdf&#45;&gt;odgiRDF</title>
<path fill="none" stroke="#000000" d="M226.0139,-80.4567C229.3231,-74.7292 233.6141,-67.3025 237.4133,-60.727"/>
<polygon fill="#000000" stroke="#000000" points="239.6134,-61.8164 240.994,-54.5296 235.3707,-59.365 239.6134,-61.8164"/>
</g>
<!-- mergeMetadata&#45;&gt;mergedMetadata -->
<g id="edge35" class="edge">
<title>mergeMetadata&#45;&gt;mergedMetadata</title>
<path fill="none" stroke="#000000" d="M629.1928,-260.3784C630.6433,-251.2903 632.5,-237.2625 632.5,-225 632.5,-225 632.5,-225 632.5,-90 632.5,-80.6666 632.7177,-70.2471 632.9499,-61.7865"/>
<polygon fill="#000000" stroke="#000000" points="635.4027,-61.7242 633.1614,-54.6546 630.5049,-61.5788 635.4027,-61.7242"/>
</g>
<!-- bin_paths&#45;&gt;segment_components -->
<g id="edge27" class="edge">
<title>bin_paths&#45;&gt;segment_components</title>
<path fill="none" stroke="#000000" d="M147.233,-125.3833C149.7498,-119.7939 151.3573,-112.908 147.5,-108 145.7434,-105.765 142.4892,-103.7729 138.2899,-102.0053"/>
<polygon fill="#000000" stroke="#000000" points="138.9418,-99.6362 131.5257,-99.5739 137.2843,-104.2474 138.9418,-99.6362"/>
<text text-anchor="middle" x="158" y="-110.6" font-family="Helvetica,sans-Serif" font-size="8.00" fill="#000000">bins</text>
</g>
<!-- bin_paths&#45;&gt;segment_components -->
<g id="edge29" class="edge">
<title>bin_paths&#45;&gt;segment_components</title>
<path fill="none" stroke="#000000" d="M111.6662,-131.8415C92.6205,-129.1395 70.4293,-124.4752 64.5,-117 61.9428,-113.7761 62.0019,-109.7923 63.2456,-105.8842"/>
<polygon fill="#000000" stroke="#000000" points="65.4722,-106.9064 66.2045,-99.5263 61.0297,-104.839 65.4722,-106.9064"/>
<text text-anchor="middle" x="105.5" y="-110.6" font-family="Helvetica,sans-Serif" font-size="8.00" fill="#000000">pangenome_sequence</text>
</g>
<!-- index_paths&#45;&gt;indexed_paths -->
<g id="edge36" class="edge">
<title>index_paths&#45;&gt;indexed_paths</title>
<path fill="none" stroke="#000000" d="M471.2895,-80.4567C466.8719,-74.6098 461.1164,-66.9923 456.0729,-60.3171"/>
<polygon fill="#000000" stroke="#000000" points="457.8748,-58.6377 451.7001,-54.5296 453.9652,-61.5916 457.8748,-58.6377"/>
</g>
<!-- segment_components&#45;&gt;colinear_components -->
<g id="edge37" class="edge">
<title>segment_components&#45;&gt;colinear_components</title>
<path fill="none" stroke="#000000" d="M75.4087,-80.4567C76.5064,-74.9678 77.9163,-67.9184 79.1894,-61.5532"/>
<polygon fill="#000000" stroke="#000000" points="81.6236,-61.8742 80.5941,-54.5296 76.8188,-60.9131 81.6236,-61.8742"/>
</g>
<!-- default1 -->
<g id="node27" class="node">
<title>default1</title>
<polygon fill="#d5aefc" stroke="#000000" points="360,-305.5 360,-324.5 393,-324.5 393,-305.5 360,-305.5"/>
<text text-anchor="middle" x="376.5" y="-312.5" font-family="Helvetica,sans-Serif" font-size="10.00" fill="#000000">true</text>
</g>
<!-- default1&#45;&gt;overlapReads -->
<g id="edge7" class="edge">
<title>default1&#45;&gt;overlapReads</title>
<path fill="none" stroke="#000000" d="M374.5838,-305.4226C373.2967,-300.1057 371.3148,-293.4794 368.5,-288 368.093,-287.2077 367.6494,-286.4156 367.1787,-285.6298"/>
<polygon fill="#000000" stroke="#000000" points="369.1808,-284.2172 363.2009,-279.8305 365.14,-286.9889 369.1808,-284.2172"/>
<text text-anchor="middle" x="396" y="-290.6" font-family="Helvetica,sans-Serif" font-size="8.00" fill="#000000">outputCIGAR</text>
</g>
<!-- default2 -->
<g id="node28" class="node">
<title>default2</title>
<polygon fill="#d5aefc" stroke="#000000" points="263.5,-305.5 263.5,-324.5 309.5,-324.5 309.5,-305.5 263.5,-305.5"/>
<text text-anchor="middle" x="286.5" y="-312.5" font-family="Helvetica,sans-Serif" font-size="10.00" fill="#000000">asm20</text>
</g>
<!-- default2&#45;&gt;overlapReads -->
<g id="edge8" class="edge">
<title>default2&#45;&gt;overlapReads</title>
<path fill="none" stroke="#000000" d="M288.2851,-305.3205C289.8171,-299.5662 292.5882,-292.5292 297.5,-288 299.7261,-285.9472 303.8995,-283.895 309.0167,-281.9496"/>
<polygon fill="#000000" stroke="#000000" points="310.118,-284.1608 315.9275,-279.5507 308.5112,-279.5317 310.118,-284.1608"/>
<text text-anchor="middle" x="309" y="-290.6" font-family="Helvetica,sans-Serif" font-size="8.00" fill="#000000">preset</text>
</g>
<!-- default3 -->
<g id="node29" class="node">
<title>default3</title>
<polygon fill="#d5aefc" stroke="#000000" points="313.5,-305.5 313.5,-324.5 335.5,-324.5 335.5,-305.5 313.5,-305.5"/>
<text text-anchor="middle" x="324.5" y="-312.5" font-family="Helvetica,sans-Serif" font-size="10.00" fill="#000000">1</text>
</g>
<!-- default3&#45;&gt;overlapReads -->
<g id="edge9" class="edge">
<title>default3&#45;&gt;overlapReads</title>
<path fill="none" stroke="#000000" d="M322.2829,-305.4159C321.5438,-299.9712 321.5438,-293.2212 324.5,-288 325.1958,-286.7711 326.0126,-285.617 326.9228,-284.5341"/>
<polygon fill="#000000" stroke="#000000" points="328.6654,-286.2593 332.1232,-279.6983 325.3286,-282.671 328.6654,-286.2593"/>
<text text-anchor="middle" x="346" y="-290.6" font-family="Helvetica,sans-Serif" font-size="8.00" fill="#000000">miniWinSize</text>
</g>
<!-- default4 -->
<g id="node30" class="node">
<title>default4</title>
<polygon fill="#d5aefc" stroke="#000000" points="391,-125.5 391,-144.5 434,-144.5 434,-125.5 391,-125.5"/>
<text text-anchor="middle" x="412.5" y="-132.5" font-family="Helvetica,sans-Serif" font-size="10.00" fill="#000000">50000</text>
</g>
<!-- default4&#45;&gt;vizGraph -->
<g id="edge14" class="edge">
<title>default4&#45;&gt;vizGraph</title>
<path fill="none" stroke="#000000" d="M407.6693,-125.3492C404.2282,-119.4554 399.0557,-112.2573 392.5,-108 384.874,-103.0476 365.0717,-98.6024 346.9566,-95.3684"/>
<polygon fill="#000000" stroke="#000000" points="347.1786,-92.9206 339.8642,-94.1462 346.3464,-97.7495 347.1786,-92.9206"/>
<text text-anchor="middle" x="411" y="-110.6" font-family="Helvetica,sans-Serif" font-size="8.00" fill="#000000">width</text>
</g>
<!-- default5 -->
<g id="node31" class="node">
<title>default5</title>
<polygon fill="#d5aefc" stroke="#000000" points="209.5,-125.5 209.5,-144.5 241.5,-144.5 241.5,-125.5 209.5,-125.5"/>
<text text-anchor="middle" x="225.5" y="-132.5" font-family="Helvetica,sans-Serif" font-size="10.00" fill="#000000">500</text>
</g>
<!-- default5&#45;&gt;vizGraph -->
<g id="edge15" class="edge">
<title>default5&#45;&gt;vizGraph</title>
<path fill="none" stroke="#000000" d="M226.3505,-125.4881C227.3711,-119.6498 229.6077,-112.4613 234.5,-108 240.7576,-102.2937 258.8678,-97.9069 275.9528,-94.893"/>
<polygon fill="#000000" stroke="#000000" points="276.6745,-97.2564 283.1746,-93.6856 275.8664,-92.4235 276.6745,-97.2564"/>
<text text-anchor="middle" x="245.5" y="-110.6" font-family="Helvetica,sans-Serif" font-size="8.00" fill="#000000">height</text>
</g>
<!-- default6 -->
<g id="node32" class="node">
<title>default6</title>
<polygon fill="#d5aefc" stroke="#000000" points="246,-125.5 246,-144.5 279,-144.5 279,-125.5 246,-125.5"/>
<text text-anchor="middle" x="262.5" y="-132.5" font-family="Helvetica,sans-Serif" font-size="10.00" fill="#000000">true</text>
</g>
<!-- default6&#45;&gt;vizGraph -->
<g id="edge16" class="edge">
<title>default6&#45;&gt;vizGraph</title>
<path fill="none" stroke="#000000" d="M258.9586,-125.4415C257.5417,-119.8728 256.9708,-112.9882 260.5,-108 262.7629,-104.8017 268.9701,-101.7757 276.3096,-99.1497"/>
<polygon fill="#000000" stroke="#000000" points="277.4021,-101.3697 283.2876,-96.857 275.8726,-96.7145 277.4021,-101.3697"/>
<text text-anchor="middle" x="286" y="-110.6" font-family="Helvetica,sans-Serif" font-size="8.00" fill="#000000">path_per_row</text>
</g>
<!-- default7 -->
<g id="node33" class="node">
<title>default7</title>
<polygon fill="#d5aefc" stroke="#000000" points="364.5,-125.5 364.5,-144.5 386.5,-144.5 386.5,-125.5 364.5,-125.5"/>
<text text-anchor="middle" x="375.5" y="-132.5" font-family="Helvetica,sans-Serif" font-size="10.00" fill="#000000">4</text>
</g>
<!-- default7&#45;&gt;vizGraph -->
<g id="edge17" class="edge">
<title>default7&#45;&gt;vizGraph</title>
<path fill="none" stroke="#000000" d="M364.3521,-127.1616C355.1659,-120.7026 341.9192,-111.3885 330.9859,-103.701"/>
<polygon fill="#000000" stroke="#000000" points="332.3258,-101.6481 325.1903,-99.626 329.5074,-105.6565 332.3258,-101.6481"/>
<text text-anchor="middle" x="370" y="-110.6" font-family="Helvetica,sans-Serif" font-size="8.00" fill="#000000">path_height</text>
</g>
</g>
</svg>
