<?xml version="1.0" encoding="UTF-8" standalone="no"?>
<!DOCTYPE svg PUBLIC "-//W3C//DTD SVG 1.1//EN"
 "http://www.w3.org/Graphics/SVG/1.1/DTD/svg11.dtd">
<!-- Generated by graphviz version 2.40.1 (20161225.0304)
 -->
<!-- Title: workflow Pages: 1 -->
<svg width="623pt" height="116pt"
 viewBox="0.00 0.00 623.00 116.00" xmlns="http://www.w3.org/2000/svg" xmlns:xlink="http://www.w3.org/1999/xlink">
<g id="graph0" class="graph" transform="scale(1 1) rotate(0) translate(4 112)">
<title>workflow</title>
<polygon fill="#ffffff" stroke="transparent" points="-4,4 -4,-112 619,-112 619,4 -4,4"/>
<g id="clust1" class="cluster">
<title>cluster_inputs</title>
<polygon fill="none" stroke="#000000" stroke-dasharray="5,2" points="8,-45 8,-100 607,-100 607,-45 8,-45"/>
<text text-anchor="middle" x="52" y="-88" font-family="Helvetica,sans-Serif" font-size="10.00" fill="#000000">Workflow Inputs</text>
</g>
<!-- #main/S2B_MSIL2A_20200626T095029_N0214_R079_T34VFN_20200626T123234_tar -->
<g id="node1" class="node">
<title>#main/S2B_MSIL2A_20200626T095029_N0214_R079_T34VFN_20200626T123234_tar</title>
<polygon fill="#94ddf4" stroke="#000000" points="16,-53.5 16,-72.5 382,-72.5 382,-53.5 16,-53.5"/>
<text text-anchor="middle" x="199" y="-60.5" font-family="Helvetica,sans-Serif" font-size="10.00" fill="#000000">S2B_MSIL2A_20200626T095029_N0214_R079_T34VFN_20200626T123234_tar</text>
</g>
<!-- #main/3_EODIE -->
<g id="node4" class="node">
<title>#main/3_EODIE</title>
<polygon fill="#fafad2" stroke="#000000" points="410.5,-.5 410.5,-19.5 469.5,-19.5 469.5,-.5 410.5,-.5"/>
<text text-anchor="middle" x="440" y="-7.5" font-family="Helvetica,sans-Serif" font-size="10.00" fill="#000000">3_EODIE</text>
</g>
<!-- #main/S2B_MSIL2A_20200626T095029_N0214_R079_T34VFN_20200626T123234_tar&#45;&gt;#main/3_EODIE -->
<g id="edge2" class="edge">
<title>#main/S2B_MSIL2A_20200626T095029_N0214_R079_T34VFN_20200626T123234_tar&#45;&gt;#main/3_EODIE</title>
<path fill="none" stroke="#000000" d="M242.3643,-53.4635C288.3214,-43.3567 360.1027,-27.5708 403.3376,-18.0627"/>
<polygon fill="#000000" stroke="#000000" points="403.9731,-20.4315 410.2835,-16.5352 402.9206,-15.6459 403.9731,-20.4315"/>
<text text-anchor="middle" x="390.5" y="-30.6" font-family="Helvetica,sans-Serif" font-size="8.00" fill="#000000">input_type|input_file</text>
</g>
<!-- #main/sentinel2_tiles_world -->
<g id="node2" class="node">
<title>#main/sentinel2_tiles_world</title>
<polygon fill="#94ddf4" stroke="#000000" points="386.5,-53.5 386.5,-72.5 493.5,-72.5 493.5,-53.5 386.5,-53.5"/>
<text text-anchor="middle" x="440" y="-60.5" font-family="Helvetica,sans-Serif" font-size="10.00" fill="#000000">sentinel2_tiles_world</text>
</g>
<!-- #main/sentinel2_tiles_world&#45;&gt;#main/3_EODIE -->
<g id="edge3" class="edge">
<title>#main/sentinel2_tiles_world&#45;&gt;#main/3_EODIE</title>
<path fill="none" stroke="#000000" d="M440,-53.279C440,-45.8827 440,-35.5239 440,-26.7951"/>
<polygon fill="#000000" stroke="#000000" points="442.4501,-26.6594 440,-19.6594 437.5501,-26.6594 442.4501,-26.6594"/>
<text text-anchor="middle" x="472.5" y="-30.6" font-family="Helvetica,sans-Serif" font-size="8.00" fill="#000000">input_type|s2_shp</text>
</g>
<!-- #main/test_parcels_32635 -->
<g id="node3" class="node">
<title>#main/test_parcels_32635</title>
<polygon fill="#94ddf4" stroke="#000000" points="497.5,-53.5 497.5,-72.5 598.5,-72.5 598.5,-53.5 497.5,-53.5"/>
<text text-anchor="middle" x="548" y="-60.5" font-family="Helvetica,sans-Serif" font-size="10.00" fill="#000000">test_parcels_32635</text>
</g>
<!-- #main/test_parcels_32635&#45;&gt;#main/3_EODIE -->
<g id="edge1" class="edge">
<title>#main/test_parcels_32635&#45;&gt;#main/3_EODIE</title>
<path fill="none" stroke="#000000" d="M538.8545,-53.3521C530.8749,-45.466 518.6253,-34.5808 506,-28 496.9318,-23.2733 486.4975,-19.6899 476.6419,-17.0155"/>
<polygon fill="#000000" stroke="#000000" points="476.9833,-14.5745 469.5955,-15.2254 475.7768,-19.3236 476.9833,-14.5745"/>
<text text-anchor="middle" x="528" y="-30.6" font-family="Helvetica,sans-Serif" font-size="8.00" fill="#000000">input</text>
</g>
</g>
</svg>
