<?xml version="1.0" encoding="UTF-8" standalone="no"?>
<!DOCTYPE svg PUBLIC "-//W3C//DTD SVG 1.1//EN"
 "http://www.w3.org/Graphics/SVG/1.1/DTD/svg11.dtd">
<!-- Generated by graphviz version 2.43.0 (0)
 -->
<!-- Title: workflow Pages: 1 -->
<svg width="2374pt" height="421pt"
 viewBox="0.00 0.00 2374.00 421.00" xmlns="http://www.w3.org/2000/svg" xmlns:xlink="http://www.w3.org/1999/xlink">
<g id="graph0" class="graph" transform="scale(1 1) rotate(0) translate(4 417)">
<title>workflow</title>
<polygon fill="white" stroke="transparent" points="-4,4 -4,-417 2370,-417 2370,4 -4,4"/>
<g id="clust1" class="cluster">
<title>cluster_inputs</title>
<polygon fill="none" stroke="black" stroke-dasharray="5,2" points="8,-350 8,-405 2358,-405 2358,-350 8,-350"/>
<text text-anchor="middle" x="55.5" y="-393" font-family="Helvetica,sans-Serif" font-size="10.00">Workflow Inputs</text>
</g>
<g id="clust2" class="cluster">
<title>cluster_outputs</title>
<polygon fill="none" stroke="black" stroke-dasharray="5,2" points="1535,-8 1535,-63 1713,-63 1713,-8 1535,-8"/>
<text text-anchor="middle" x="1586.5" y="-15" font-family="Helvetica,sans-Serif" font-size="10.00">Workflow Outputs</text>
</g>
<!-- stringdb_input_file -->
<g id="node1" class="node">
<title>stringdb_input_file</title>
<polygon fill="#94ddf4" stroke="black" points="514,-358.5 514,-377.5 592,-377.5 592,-358.5 514,-358.5"/>
<text text-anchor="middle" x="553" y="-365.5" font-family="Helvetica,sans-Serif" font-size="10.00">STRING data</text>
</g>
<!-- import_stringdb -->
<g id="node22" class="node">
<title>import_stringdb</title>
<polygon fill="lightgoldenrodyellow" stroke="black" points="652.5,-305.5 652.5,-324.5 741.5,-324.5 741.5,-305.5 652.5,-305.5"/>
<text text-anchor="middle" x="697" y="-312.5" font-family="Helvetica,sans-Serif" font-size="10.00">Import STRING</text>
</g>
<!-- stringdb_input_file&#45;&gt;import_stringdb -->
<g id="edge1" class="edge">
<title>stringdb_input_file&#45;&gt;import_stringdb</title>
<path fill="none" stroke="black" d="M551.03,-358.23C549.86,-350.53 549.65,-339.56 556,-333 568.13,-320.47 609.9,-316.6 644.85,-315.64"/>
<polygon fill="black" stroke="black" points="645.25,-318.08 652.19,-315.48 645.14,-313.18 645.25,-318.08"/>
<text text-anchor="middle" x="594" y="-335.6" font-family="Helvetica,sans-Serif" font-size="8.00">stringdb_input_file</text>
</g>
<!-- mirtarbase_input_file -->
<g id="node2" class="node">
<title>mirtarbase_input_file</title>
<polygon fill="#94ddf4" stroke="black" points="1017,-358.5 1017,-377.5 1115,-377.5 1115,-358.5 1017,-358.5"/>
<text text-anchor="middle" x="1066" y="-365.5" font-family="Helvetica,sans-Serif" font-size="10.00">miRTarBase data</text>
</g>
<!-- import_mirtarbase -->
<g id="node23" class="node">
<title>import_mirtarbase</title>
<polygon fill="lightgoldenrodyellow" stroke="black" points="1011.5,-305.5 1011.5,-324.5 1120.5,-324.5 1120.5,-305.5 1011.5,-305.5"/>
<text text-anchor="middle" x="1066" y="-312.5" font-family="Helvetica,sans-Serif" font-size="10.00">Import miRTarBase</text>
</g>
<!-- mirtarbase_input_file&#45;&gt;import_mirtarbase -->
<g id="edge4" class="edge">
<title>mirtarbase_input_file&#45;&gt;import_mirtarbase</title>
<path fill="none" stroke="black" d="M1066,-358.12C1066,-350.88 1066,-340.47 1066,-331.82"/>
<polygon fill="black" stroke="black" points="1068.45,-331.78 1066,-324.78 1063.55,-331.78 1068.45,-331.78"/>
<text text-anchor="middle" x="1109" y="-335.6" font-family="Helvetica,sans-Serif" font-size="8.00">mirtarbase_input_file</text>
</g>
<!-- entrez2string -->
<g id="node3" class="node">
<title>entrez2string</title>
<polygon fill="#94ddf4" stroke="black" points="763,-358.5 763,-377.5 909,-377.5 909,-358.5 763,-358.5"/>
<text text-anchor="middle" x="836" y="-365.5" font-family="Helvetica,sans-Serif" font-size="10.00">STRING identifier mapping</text>
</g>
<!-- map_stringdb -->
<g id="node24" class="node">
<title>map_stringdb</title>
<polygon fill="lightgoldenrodyellow" stroke="black" points="876.5,-260.5 876.5,-279.5 953.5,-279.5 953.5,-260.5 876.5,-260.5"/>
<text text-anchor="middle" x="915" y="-267.5" font-family="Helvetica,sans-Serif" font-size="10.00">Map STRING</text>
</g>
<!-- entrez2string&#45;&gt;map_stringdb -->
<g id="edge7" class="edge">
<title>entrez2string&#45;&gt;map_stringdb</title>
<path fill="none" stroke="black" d="M843.01,-358.48C856.62,-341.94 886.74,-305.34 903.39,-285.11"/>
<polygon fill="black" stroke="black" points="905.34,-286.6 907.89,-279.64 901.55,-283.49 905.34,-286.6"/>
<text text-anchor="middle" x="912.5" y="-313.1" font-family="Helvetica,sans-Serif" font-size="8.00">entrez2string</text>
</g>
<!-- bridgedb -->
<g id="node4" class="node">
<title>bridgedb</title>
<polygon fill="#94ddf4" stroke="black" points="1119,-358.5 1119,-377.5 1213,-377.5 1213,-358.5 1119,-358.5"/>
<text text-anchor="middle" x="1166" y="-365.5" font-family="Helvetica,sans-Serif" font-size="10.00">BridgeDB cache</text>
</g>
<!-- bridgedb&#45;&gt;map_stringdb -->
<g id="edge8" class="edge">
<title>bridgedb&#45;&gt;map_stringdb</title>
<path fill="none" stroke="black" d="M1164.54,-358.31C1163.12,-349.82 1160.89,-336.53 1159,-325 1157.65,-316.78 1159.15,-293.62 1153,-288 1149.5,-284.8 1028.97,-277.46 960.81,-273.56"/>
<polygon fill="black" stroke="black" points="960.71,-271.1 953.58,-273.15 960.43,-275.99 960.71,-271.1"/>
<text text-anchor="middle" x="1177.5" y="-313.1" font-family="Helvetica,sans-Serif" font-size="8.00">bridgedb</text>
</g>
<!-- map_mirtarbase -->
<g id="node25" class="node">
<title>map_mirtarbase</title>
<polygon fill="lightgoldenrodyellow" stroke="black" points="1070,-260.5 1070,-279.5 1168,-279.5 1168,-260.5 1070,-260.5"/>
<text text-anchor="middle" x="1119" y="-267.5" font-family="Helvetica,sans-Serif" font-size="10.00">Map miRTarBase</text>
</g>
<!-- bridgedb&#45;&gt;map_mirtarbase -->
<g id="edge9" class="edge">
<title>bridgedb&#45;&gt;map_mirtarbase</title>
<path fill="none" stroke="black" d="M1175.99,-358.33C1188.81,-346.12 1208.15,-323.29 1197,-305 1190.64,-294.56 1180.23,-287.32 1169.07,-282.3"/>
<polygon fill="black" stroke="black" points="1169.84,-279.97 1162.44,-279.59 1167.99,-284.5 1169.84,-279.97"/>
<text text-anchor="middle" x="1218.5" y="-313.1" font-family="Helvetica,sans-Serif" font-size="8.00">bridgedb</text>
</g>
<!-- integrate_graph -->
<g id="node26" class="node">
<title>integrate_graph</title>
<polygon fill="lightgoldenrodyellow" stroke="black" points="1198,-215.5 1198,-234.5 1302,-234.5 1302,-215.5 1198,-215.5"/>
<text text-anchor="middle" x="1250" y="-222.5" font-family="Helvetica,sans-Serif" font-size="10.00">Integrate network</text>
</g>
<!-- bridgedb&#45;&gt;integrate_graph -->
<g id="edge18" class="edge">
<title>bridgedb&#45;&gt;integrate_graph</title>
<path fill="none" stroke="black" d="M1192.57,-358.37C1208.4,-351.79 1227.43,-341.08 1238,-325 1246.76,-311.69 1249.12,-266.33 1249.76,-241.9"/>
<polygon fill="black" stroke="black" points="1252.22,-241.82 1249.92,-234.77 1247.32,-241.71 1252.22,-241.82"/>
<text text-anchor="middle" x="1264.5" y="-290.6" font-family="Helvetica,sans-Serif" font-size="8.00">bridgedb</text>
</g>
<!-- mRNA&#45;mRNA_bicor -->
<g id="node5" class="node">
<title>mRNA&#45;mRNA_bicor</title>
<polygon fill="#94ddf4" stroke="black" points="1217.5,-358.5 1217.5,-377.5 1376.5,-377.5 1376.5,-358.5 1217.5,-358.5"/>
<text text-anchor="middle" x="1297" y="-365.5" font-family="Helvetica,sans-Serif" font-size="10.00">mRNA expression correlation</text>
</g>
<!-- mRNA&#45;mRNA_bicor&#45;&gt;integrate_graph -->
<g id="edge13" class="edge">
<title>mRNA&#45;mRNA_bicor&#45;&gt;integrate_graph</title>
<path fill="none" stroke="black" d="M1297.22,-358.43C1297.34,-343.64 1296.45,-312.54 1288,-288 1281.91,-270.31 1270.14,-252.33 1261.3,-240.32"/>
<polygon fill="black" stroke="black" points="1263.17,-238.73 1257,-234.62 1259.26,-241.68 1263.17,-238.73"/>
<text text-anchor="middle" x="1328" y="-290.6" font-family="Helvetica,sans-Serif" font-size="8.00">mRNA&#45;mRNA_bicor</text>
</g>
<!-- miRNA&#45;mRNA_bicor -->
<g id="node6" class="node">
<title>miRNA&#45;mRNA_bicor</title>
<polygon fill="#94ddf4" stroke="black" points="1381,-358.5 1381,-377.5 1521,-377.5 1521,-358.5 1381,-358.5"/>
<text text-anchor="middle" x="1451" y="-365.5" font-family="Helvetica,sans-Serif" font-size="10.00">miRNA mRNA correlation</text>
</g>
<!-- miRNA&#45;mRNA_bicor&#45;&gt;integrate_graph -->
<g id="edge14" class="edge">
<title>miRNA&#45;mRNA_bicor&#45;&gt;integrate_graph</title>
<path fill="none" stroke="black" d="M1443.3,-358.37C1429.22,-342.93 1397.94,-310.13 1367,-288 1337.95,-267.22 1301.06,-248.82 1276.55,-237.57"/>
<polygon fill="black" stroke="black" points="1277.37,-235.25 1269.98,-234.59 1275.34,-239.71 1277.37,-235.25"/>
<text text-anchor="middle" x="1417" y="-290.6" font-family="Helvetica,sans-Serif" font-size="8.00">miRNA&#45;mRNA_bicor</text>
</g>
<!-- de_mRNA -->
<g id="node7" class="node">
<title>de_mRNA</title>
<polygon fill="#94ddf4" stroke="black" points="1525.5,-358.5 1525.5,-377.5 1680.5,-377.5 1680.5,-358.5 1525.5,-358.5"/>
<text text-anchor="middle" x="1603" y="-365.5" font-family="Helvetica,sans-Serif" font-size="10.00">Differential gene expression</text>
</g>
<!-- de_mRNA&#45;&gt;integrate_graph -->
<g id="edge15" class="edge">
<title>de_mRNA&#45;&gt;integrate_graph</title>
<path fill="none" stroke="black" d="M1589.38,-358.39C1564.09,-342.69 1507.84,-309.11 1457,-288 1402.19,-265.25 1336.07,-246.94 1293.56,-236.27"/>
<polygon fill="black" stroke="black" points="1294.07,-233.87 1286.68,-234.56 1292.88,-238.63 1294.07,-233.87"/>
<text text-anchor="middle" x="1495.5" y="-290.6" font-family="Helvetica,sans-Serif" font-size="8.00">de_mRNA</text>
</g>
<!-- de_miRNA -->
<g id="node8" class="node">
<title>de_miRNA</title>
<polygon fill="#94ddf4" stroke="black" points="152,-358.5 152,-377.5 316,-377.5 316,-358.5 152,-358.5"/>
<text text-anchor="middle" x="234" y="-365.5" font-family="Helvetica,sans-Serif" font-size="10.00">Differential miRNA expression</text>
</g>
<!-- de_miRNA&#45;&gt;integrate_graph -->
<g id="edge16" class="edge">
<title>de_miRNA&#45;&gt;integrate_graph</title>
<path fill="none" stroke="black" d="M260.3,-358.49C323.71,-338.28 490.32,-287.11 633,-260 698.48,-247.56 715.54,-247.99 782,-243 928.82,-231.97 1102.12,-228.04 1190.96,-226.68"/>
<polygon fill="black" stroke="black" points="1191.02,-229.13 1197.99,-226.58 1190.95,-224.23 1191.02,-229.13"/>
<text text-anchor="middle" x="525.5" y="-290.6" font-family="Helvetica,sans-Serif" font-size="8.00">de_miRNA</text>
</g>
<!-- variant_burden -->
<g id="node9" class="node">
<title>variant_burden</title>
<polygon fill="#94ddf4" stroke="black" points="320.5,-358.5 320.5,-377.5 409.5,-377.5 409.5,-358.5 320.5,-358.5"/>
<text text-anchor="middle" x="365" y="-365.5" font-family="Helvetica,sans-Serif" font-size="10.00">Variant Burden</text>
</g>
<!-- variant_burden&#45;&gt;integrate_graph -->
<g id="edge17" class="edge">
<title>variant_burden&#45;&gt;integrate_graph</title>
<path fill="none" stroke="black" d="M387.6,-358.44C429.43,-342.82 521.96,-309.36 602,-288 813.23,-231.63 1075.25,-225.05 1190.68,-225.2"/>
<polygon fill="black" stroke="black" points="1190.73,-227.65 1197.73,-225.22 1190.74,-222.75 1190.73,-227.65"/>
<text text-anchor="middle" x="633" y="-290.6" font-family="Helvetica,sans-Serif" font-size="8.00">variant_burden</text>
</g>
<!-- stringdb_number_of_edges -->
<g id="node10" class="node">
<title>stringdb_number_of_edges</title>
<polygon fill="#94ddf4" stroke="black" points="596.5,-358.5 596.5,-377.5 675.5,-377.5 675.5,-358.5 596.5,-358.5"/>
<text text-anchor="middle" x="636" y="-365.5" font-family="Helvetica,sans-Serif" font-size="10.00">STRING limit</text>
</g>
<!-- stringdb_number_of_edges&#45;&gt;import_stringdb -->
<g id="edge2" class="edge">
<title>stringdb_number_of_edges&#45;&gt;import_stringdb</title>
<path fill="none" stroke="black" d="M633.63,-358.23C632.16,-350.74 631.48,-340.08 637,-333 639.5,-329.8 642.55,-327.17 645.94,-325.01"/>
<polygon fill="black" stroke="black" points="647.32,-327.06 652.37,-321.63 645.03,-322.72 647.32,-327.06"/>
<text text-anchor="middle" x="692.5" y="-335.6" font-family="Helvetica,sans-Serif" font-size="8.00">stringdb_number_of_edges</text>
</g>
<!-- stringdb_min_weight -->
<g id="node11" class="node">
<title>stringdb_min_weight</title>
<polygon fill="#94ddf4" stroke="black" points="679.5,-358.5 679.5,-377.5 758.5,-377.5 758.5,-358.5 679.5,-358.5"/>
<text text-anchor="middle" x="719" y="-365.5" font-family="Helvetica,sans-Serif" font-size="10.00">STRING filter</text>
</g>
<!-- stringdb_min_weight&#45;&gt;import_stringdb -->
<g id="edge3" class="edge">
<title>stringdb_min_weight&#45;&gt;import_stringdb</title>
<path fill="none" stroke="black" d="M735.02,-358.44C745.33,-351.79 755.65,-342.18 749,-333 748,-331.63 746.89,-330.36 745.69,-329.2"/>
<polygon fill="black" stroke="black" points="746.91,-327.04 739.87,-324.71 743.92,-330.92 746.91,-327.04"/>
<text text-anchor="middle" x="793.5" y="-335.6" font-family="Helvetica,sans-Serif" font-size="8.00">stringdb_min_weight</text>
</g>
<!-- mirtarbase_number_of_edges -->
<g id="node12" class="node">
<title>mirtarbase_number_of_edges</title>
<polygon fill="#94ddf4" stroke="black" points="913.5,-358.5 913.5,-377.5 1012.5,-377.5 1012.5,-358.5 913.5,-358.5"/>
<text text-anchor="middle" x="963" y="-365.5" font-family="Helvetica,sans-Serif" font-size="10.00">miRTarBase limit</text>
</g>
<!-- mirtarbase_number_of_edges&#45;&gt;import_mirtarbase -->
<g id="edge5" class="edge">
<title>mirtarbase_number_of_edges&#45;&gt;import_mirtarbase</title>
<path fill="none" stroke="black" d="M952.5,-358.27C945.01,-351.01 937.34,-340.65 944,-333 952.18,-323.6 978.2,-319.24 1004.12,-317.27"/>
<polygon fill="black" stroke="black" points="1004.59,-319.69 1011.41,-316.78 1004.26,-314.8 1004.59,-319.69"/>
<text text-anchor="middle" x="1004.5" y="-335.6" font-family="Helvetica,sans-Serif" font-size="8.00">mirtarbase_number_of_edges</text>
</g>
<!-- max_cor_edges -->
<g id="node13" class="node">
<title>max_cor_edges</title>
<polygon fill="#94ddf4" stroke="black" points="414,-358.5 414,-377.5 510,-377.5 510,-358.5 414,-358.5"/>
<text text-anchor="middle" x="462" y="-365.5" font-family="Helvetica,sans-Serif" font-size="10.00">Correlation limit</text>
</g>
<!-- max_cor_edges&#45;&gt;integrate_graph -->
<g id="edge19" class="edge">
<title>max_cor_edges&#45;&gt;integrate_graph</title>
<path fill="none" stroke="black" d="M482.8,-358.4C500.52,-351.22 526.74,-340.9 550,-333 617.12,-310.21 633.95,-304 703,-288 818.53,-261.22 848.19,-256.56 966,-243 1043.29,-234.1 1132.99,-229.72 1190.56,-227.66"/>
<polygon fill="black" stroke="black" points="1190.86,-230.1 1197.77,-227.41 1190.69,-225.21 1190.86,-230.1"/>
<text text-anchor="middle" x="735" y="-290.6" font-family="Helvetica,sans-Serif" font-size="8.00">max_cor_edges</text>
</g>
<!-- mogamun_generations -->
<g id="node14" class="node">
<title>mogamun_generations</title>
<polygon fill="#94ddf4" stroke="black" points="16,-358.5 16,-377.5 148,-377.5 148,-358.5 16,-358.5"/>
<text text-anchor="middle" x="82" y="-365.5" font-family="Helvetica,sans-Serif" font-size="10.00">MOGAMUN generations</text>
</g>
<!-- run_mogamun -->
<g id="node28" class="node">
<title>run_mogamun</title>
<polygon fill="lightgoldenrodyellow" stroke="black" points="1700.5,-125.5 1700.5,-144.5 1793.5,-144.5 1793.5,-125.5 1700.5,-125.5"/>
<text text-anchor="middle" x="1747" y="-132.5" font-family="Helvetica,sans-Serif" font-size="10.00">Run MOGAMUN</text>
</g>
<!-- mogamun_generations&#45;&gt;run_mogamun -->
<g id="edge22" class="edge">
<title>mogamun_generations&#45;&gt;run_mogamun</title>
<path fill="none" stroke="black" d="M89.07,-358.19C96.15,-348.47 106,-332.05 106,-316 106,-316 106,-316 106,-179 106,-136 1569.57,-148.65 1694.01,-144.89"/>
<polygon fill="black" stroke="black" points="1694.39,-147.32 1701.26,-144.53 1694.15,-142.43 1694.39,-147.32"/>
<text text-anchor="middle" x="153.5" y="-245.6" font-family="Helvetica,sans-Serif" font-size="8.00">mogamun_generations</text>
</g>
<!-- mogamun_runs -->
<g id="node15" class="node">
<title>mogamun_runs</title>
<polygon fill="#94ddf4" stroke="black" points="1684.5,-358.5 1684.5,-377.5 1779.5,-377.5 1779.5,-358.5 1684.5,-358.5"/>
<text text-anchor="middle" x="1732" y="-365.5" font-family="Helvetica,sans-Serif" font-size="10.00">MOGAMUN runs</text>
</g>
<!-- mogamun_runs&#45;&gt;run_mogamun -->
<g id="edge23" class="edge">
<title>mogamun_runs&#45;&gt;run_mogamun</title>
<path fill="none" stroke="black" d="M1733.91,-358.39C1735.99,-348.29 1739,-331.01 1739,-316 1739,-316 1739,-316 1739,-179 1739,-169.81 1740.79,-159.71 1742.67,-151.6"/>
<polygon fill="black" stroke="black" points="1745.05,-152.19 1744.38,-144.81 1740.3,-151 1745.05,-152.19"/>
<text text-anchor="middle" x="1771" y="-245.6" font-family="Helvetica,sans-Serif" font-size="8.00">mogamun_runs</text>
</g>
<!-- mogamun_cores -->
<g id="node16" class="node">
<title>mogamun_cores</title>
<polygon fill="#94ddf4" stroke="black" points="1783.5,-358.5 1783.5,-377.5 1884.5,-377.5 1884.5,-358.5 1783.5,-358.5"/>
<text text-anchor="middle" x="1834" y="-365.5" font-family="Helvetica,sans-Serif" font-size="10.00">MOGAMUN cores</text>
</g>
<!-- mogamun_cores&#45;&gt;run_mogamun -->
<g id="edge24" class="edge">
<title>mogamun_cores&#45;&gt;run_mogamun</title>
<path fill="none" stroke="black" d="M1831.81,-358.4C1829.45,-348.32 1826,-331.06 1826,-316 1826,-316 1826,-316 1826,-179 1826,-163.56 1814.22,-153.64 1799.76,-147.27"/>
<polygon fill="black" stroke="black" points="1800.37,-144.87 1792.95,-144.58 1798.57,-149.43 1800.37,-144.87"/>
<text text-anchor="middle" x="1860" y="-245.6" font-family="Helvetica,sans-Serif" font-size="8.00">mogamun_cores</text>
</g>
<!-- mogamun_min_size -->
<g id="node17" class="node">
<title>mogamun_min_size</title>
<polygon fill="#94ddf4" stroke="black" points="1889,-358.5 1889,-377.5 2035,-377.5 2035,-358.5 1889,-358.5"/>
<text text-anchor="middle" x="1962" y="-365.5" font-family="Helvetica,sans-Serif" font-size="10.00">Minimum subnetwork size</text>
</g>
<!-- postprocess_mogamun -->
<g id="node29" class="node">
<title>postprocess_mogamun</title>
<polygon fill="lightgoldenrodyellow" stroke="black" points="1767.5,-80.5 1767.5,-99.5 1900.5,-99.5 1900.5,-80.5 1767.5,-80.5"/>
<text text-anchor="middle" x="1834" y="-87.5" font-family="Helvetica,sans-Serif" font-size="10.00">Postprocess MOGAMUN</text>
</g>
<!-- mogamun_min_size&#45;&gt;postprocess_mogamun -->
<g id="edge27" class="edge">
<title>mogamun_min_size&#45;&gt;postprocess_mogamun</title>
<path fill="none" stroke="black" d="M1951.92,-358.33C1942.21,-348.97 1929,-333.08 1929,-316 1929,-316 1929,-316 1929,-134 1929,-118.54 1918.42,-108.6 1904.33,-102.23"/>
<polygon fill="black" stroke="black" points="1905.04,-99.88 1897.63,-99.55 1903.22,-104.43 1905.04,-99.88"/>
<text text-anchor="middle" x="1969.5" y="-223.1" font-family="Helvetica,sans-Serif" font-size="8.00">mogamun_min_size</text>
</g>
<!-- mogamun_max_size -->
<g id="node18" class="node">
<title>mogamun_max_size</title>
<polygon fill="#94ddf4" stroke="black" points="2039.5,-358.5 2039.5,-377.5 2188.5,-377.5 2188.5,-358.5 2039.5,-358.5"/>
<text text-anchor="middle" x="2114" y="-365.5" font-family="Helvetica,sans-Serif" font-size="10.00">Maximum subnetwork size</text>
</g>
<!-- mogamun_max_size&#45;&gt;postprocess_mogamun -->
<g id="edge28" class="edge">
<title>mogamun_max_size&#45;&gt;postprocess_mogamun</title>
<path fill="none" stroke="black" d="M2106.93,-358.19C2099.85,-348.47 2090,-332.05 2090,-316 2090,-316 2090,-316 2090,-134 2090,-115.39 1983.43,-102.89 1907.81,-96.37"/>
<polygon fill="black" stroke="black" points="1907.77,-93.91 1900.59,-95.76 1907.36,-98.79 1907.77,-93.91"/>
<text text-anchor="middle" x="2131.5" y="-223.1" font-family="Helvetica,sans-Serif" font-size="8.00">mogamun_max_size</text>
</g>
<!-- mogamun_merge_threshold -->
<g id="node19" class="node">
<title>mogamun_merge_threshold</title>
<polygon fill="#94ddf4" stroke="black" points="2192,-358.5 2192,-377.5 2350,-377.5 2350,-358.5 2192,-358.5"/>
<text text-anchor="middle" x="2271" y="-365.5" font-family="Helvetica,sans-Serif" font-size="10.00">Subnetwork merge threshold</text>
</g>
<!-- mogamun_merge_threshold&#45;&gt;postprocess_mogamun -->
<g id="edge29" class="edge">
<title>mogamun_merge_threshold&#45;&gt;postprocess_mogamun</title>
<path fill="none" stroke="black" d="M2265.04,-358.42C2258.83,-348.62 2250,-331.9 2250,-316 2250,-316 2250,-316 2250,-134 2250,-100.01 2027.39,-92.74 1907.86,-91.28"/>
<polygon fill="black" stroke="black" points="1907.87,-88.83 1900.84,-91.2 1907.81,-93.73 1907.87,-88.83"/>
<text text-anchor="middle" x="2307.5" y="-223.1" font-family="Helvetica,sans-Serif" font-size="8.00">mogamun_merge_threshold</text>
</g>
<!-- full_graph -->
<g id="node20" class="node">
<title>full_graph</title>
<polygon fill="#94ddf4" stroke="black" points="1543.5,-35.5 1543.5,-54.5 1620.5,-54.5 1620.5,-35.5 1543.5,-35.5"/>
<text text-anchor="middle" x="1582" y="-42.5" font-family="Helvetica,sans-Serif" font-size="10.00">Full network</text>
</g>
<!-- subnetworks -->
<g id="node21" class="node">
<title>subnetworks</title>
<polygon fill="#94ddf4" stroke="black" points="1625,-35.5 1625,-54.5 1705,-54.5 1705,-35.5 1625,-35.5"/>
<text text-anchor="middle" x="1665" y="-42.5" font-family="Helvetica,sans-Serif" font-size="10.00">Subnetworks</text>
</g>
<!-- import_stringdb&#45;&gt;map_stringdb -->
<g id="edge6" class="edge">
<title>import_stringdb&#45;&gt;map_stringdb</title>
<path fill="none" stroke="black" d="M731.18,-305.42C753.3,-300.03 782.75,-293.15 809,-288 828.54,-284.17 850.23,-280.58 868.87,-277.69"/>
<polygon fill="black" stroke="black" points="869.57,-280.06 876.12,-276.58 868.83,-275.22 869.57,-280.06"/>
<text text-anchor="middle" x="846.5" y="-290.6" font-family="Helvetica,sans-Serif" font-size="8.00">stringdb_edge_list</text>
</g>
<!-- import_mirtarbase&#45;&gt;map_mirtarbase -->
<g id="edge10" class="edge">
<title>import_mirtarbase&#45;&gt;map_mirtarbase</title>
<path fill="none" stroke="black" d="M1076.73,-305.3C1084.2,-299.24 1094.3,-291.04 1102.75,-284.18"/>
<polygon fill="black" stroke="black" points="1104.4,-286 1108.29,-279.69 1101.31,-282.2 1104.4,-286"/>
<text text-anchor="middle" x="1139.5" y="-290.6" font-family="Helvetica,sans-Serif" font-size="8.00">mirtarbase_edge_list</text>
</g>
<!-- map_stringdb&#45;&gt;integrate_graph -->
<g id="edge11" class="edge">
<title>map_stringdb&#45;&gt;integrate_graph</title>
<path fill="none" stroke="black" d="M939.5,-260.39C957.41,-254.48 982.42,-247 1005,-243 1067.82,-231.88 1140.91,-227.95 1190.8,-226.6"/>
<polygon fill="black" stroke="black" points="1191.06,-229.05 1197.99,-226.42 1190.93,-224.15 1191.06,-229.05"/>
<text text-anchor="middle" x="1061" y="-245.6" font-family="Helvetica,sans-Serif" font-size="8.00">stringdb_mapped_edge_list</text>
</g>
<!-- map_mirtarbase&#45;&gt;integrate_graph -->
<g id="edge12" class="edge">
<title>map_mirtarbase&#45;&gt;integrate_graph</title>
<path fill="none" stroke="black" d="M1117.89,-260.08C1117.71,-254.41 1118.57,-247.35 1123,-243 1132.77,-233.42 1162.5,-229.12 1190.74,-227.24"/>
<polygon fill="black" stroke="black" points="1191.03,-229.68 1197.87,-226.81 1190.74,-224.78 1191.03,-229.68"/>
<text text-anchor="middle" x="1184.5" y="-245.6" font-family="Helvetica,sans-Serif" font-size="8.00">mirtarbase_mapped_edge_list</text>
</g>
<!-- integrate_graph&#45;&gt;full_graph -->
<g id="edge30" class="edge">
<title>integrate_graph&#45;&gt;full_graph</title>
<path fill="none" stroke="black" d="M1302.04,-219.47C1347.07,-214.06 1405,-202.85 1405,-181 1405,-181 1405,-181 1405,-89 1405,-62.04 1483.5,-51.92 1535.94,-48.17"/>
<polygon fill="black" stroke="black" points="1536.34,-50.59 1543.16,-47.68 1536.01,-45.71 1536.34,-50.59"/>
</g>
<!-- igraph_to_mogamun -->
<g id="node27" class="node">
<title>igraph_to_mogamun</title>
<polygon fill="lightgoldenrodyellow" stroke="black" points="1549.5,-170.5 1549.5,-189.5 1708.5,-189.5 1708.5,-170.5 1549.5,-170.5"/>
<text text-anchor="middle" x="1629" y="-177.5" font-family="Helvetica,sans-Serif" font-size="10.00">Convert igraph to MOGAMUN</text>
</g>
<!-- integrate_graph&#45;&gt;igraph_to_mogamun -->
<g id="edge20" class="edge">
<title>integrate_graph&#45;&gt;igraph_to_mogamun</title>
<path fill="none" stroke="black" d="M1302.29,-218.56C1333.32,-215.29 1373.41,-211.01 1409,-207 1456.33,-201.67 1509.35,-195.42 1551.48,-190.37"/>
<polygon fill="black" stroke="black" points="1552.02,-192.78 1558.68,-189.51 1551.44,-187.91 1552.02,-192.78"/>
<text text-anchor="middle" x="1510" y="-200.6" font-family="Helvetica,sans-Serif" font-size="8.00">full_graph_rds</text>
</g>
<!-- igraph_to_mogamun&#45;&gt;run_mogamun -->
<g id="edge21" class="edge">
<title>igraph_to_mogamun&#45;&gt;run_mogamun</title>
<path fill="none" stroke="black" d="M1639.63,-170.31C1647.13,-164.59 1657.66,-157.37 1668,-153 1673.09,-150.85 1682.52,-148.41 1693.15,-146.07"/>
<polygon fill="black" stroke="black" points="1693.93,-148.41 1700.26,-144.55 1692.91,-143.62 1693.93,-148.41"/>
<text text-anchor="middle" x="1701.5" y="-155.6" font-family="Helvetica,sans-Serif" font-size="8.00">mogamun_input</text>
</g>
<!-- igraph_to_mogamun&#45;&gt;postprocess_mogamun -->
<g id="edge25" class="edge">
<title>igraph_to_mogamun&#45;&gt;postprocess_mogamun</title>
<path fill="none" stroke="black" d="M1626.56,-170.48C1623.76,-158.7 1620.86,-137.46 1632,-125 1648.93,-106.08 1709.81,-97.69 1760.35,-93.96"/>
<polygon fill="black" stroke="black" points="1760.6,-96.4 1767.41,-93.47 1760.26,-91.52 1760.6,-96.4"/>
<text text-anchor="middle" x="1665.5" y="-133.1" font-family="Helvetica,sans-Serif" font-size="8.00">mogamun_input</text>
</g>
<!-- run_mogamun&#45;&gt;postprocess_mogamun -->
<g id="edge26" class="edge">
<title>run_mogamun&#45;&gt;postprocess_mogamun</title>
<path fill="none" stroke="black" d="M1764.61,-125.3C1777.78,-118.79 1795.94,-109.81 1810.38,-102.68"/>
<polygon fill="black" stroke="black" points="1811.53,-104.84 1816.72,-99.54 1809.36,-100.45 1811.53,-104.84"/>
<text text-anchor="middle" x="1834.5" y="-110.6" font-family="Helvetica,sans-Serif" font-size="8.00">mogamun_results</text>
</g>
<!-- postprocess_mogamun&#45;&gt;subnetworks -->
<g id="edge31" class="edge">
<title>postprocess_mogamun&#45;&gt;subnetworks</title>
<path fill="none" stroke="black" d="M1800.21,-80.4C1772.94,-73.47 1734.51,-63.69 1705.58,-56.33"/>
<polygon fill="black" stroke="black" points="1705.83,-53.86 1698.45,-54.51 1704.63,-58.61 1705.83,-53.86"/>
</g>
</g>
</svg>
