<?xml version="1.0" encoding="UTF-8" standalone="no"?>
<!DOCTYPE svg PUBLIC "-//W3C//DTD SVG 1.1//EN"
 "http://www.w3.org/Graphics/SVG/1.1/DTD/svg11.dtd">
<!-- Generated by graphviz version 2.40.1 (0)
 -->
<!-- Title: workflow Pages: 1 -->
<svg width="253pt" height="166pt"
 viewBox="0.00 0.00 260.00 171.00" xmlns="http://www.w3.org/2000/svg" xmlns:xlink="http://www.w3.org/1999/xlink">
<g id="graph0" class="graph" transform="scale(.9722 .9722) rotate(0) translate(4 167)">
<title>workflow</title>
<g id="clust1" class="cluster">
<title>cluster_inputs</title>
<polygon fill="transparent" stroke="#000000" stroke-dasharray="5,2" points="8,-100 8,-155 244,-155 244,-100 8,-100"/>
<text text-anchor="middle" x="50.5" y="-143" font-family="Times,serif" font-size="10.00" fill="#000000">Workflow Inputs</text>
</g>
<!-- 1_Input Dataset Collection -->
<g id="node1" class="node">
<title>1_Input Dataset Collection</title>
<polygon fill="#94ddf4" stroke="#000000" points="16,-108.5 16,-127.5 146,-127.5 146,-108.5 16,-108.5"/>
<text text-anchor="middle" x="81" y="-115.5" font-family="Helvetica,sans-Serif" font-size="10.00" fill="#000000">1_Input Dataset Collection</text>
</g>
<!-- 2_Collapse Collection -->
<g id="node3" class="node">
<title>2_Collapse Collection</title>
<polygon fill="#fafad2" stroke="#000000" points="51,-72.5 51,-91.5 161,-91.5 161,-72.5 51,-72.5"/>
<text text-anchor="middle" x="106" y="-79.5" font-family="Helvetica,sans-Serif" font-size="10.00" fill="#000000">2_Collapse Collection</text>
</g>
<!-- 1_Input Dataset Collection&#45;&gt;2_Collapse Collection -->
<g id="edge1" class="edge">
<title>1_Input Dataset Collection&#45;&gt;2_Collapse Collection</title>
<path fill="none" stroke="#000000" d="M87.8314,-108.1628C90.1282,-104.8553 92.7491,-101.0813 95.2717,-97.4488"/>
<polygon fill="#000000" stroke="#000000" points="97.3693,-98.7235 99.3497,-91.5764 93.3445,-95.9286 97.3693,-98.7235"/>
</g>
<!-- 0_Input Dataset -->
<g id="node2" class="node">
<title>0_Input Dataset</title>
<polygon fill="#94ddf4" stroke="#000000" points="150.5,-108.5 150.5,-127.5 235.5,-127.5 235.5,-108.5 150.5,-108.5"/>
<text text-anchor="middle" x="193" y="-115.5" font-family="Helvetica,sans-Serif" font-size="10.00" fill="#000000">0_Input Dataset</text>
</g>
<!-- 4_XChem TransFS pose scoring -->
<g id="node4" class="node">
<title>4_XChem TransFS pose scoring</title>
<polygon fill="#fafad2" stroke="#000000" points="65,-.5 65,-19.5 221,-19.5 221,-.5 65,-.5"/>
<text text-anchor="middle" x="143" y="-7.5" font-family="Helvetica,sans-Serif" font-size="10.00" fill="#000000">4_XChem TransFS pose scoring</text>
</g>
<!-- 0_Input Dataset&#45;&gt;4_XChem TransFS pose scoring -->
<g id="edge3" class="edge">
<title>0_Input Dataset&#45;&gt;4_XChem TransFS pose scoring</title>
<path fill="none" stroke="#000000" d="M189.035,-108.2912C182.6523,-92.8243 169.5415,-61.712 157,-36 155.3565,-32.6306 153.5096,-29.0647 151.7096,-25.6894"/>
<polygon fill="#000000" stroke="#000000" points="153.863,-24.5207 148.3719,-19.5356 149.5557,-26.8569 153.863,-24.5207"/>
</g>
<!-- 3_Split file -->
<g id="node5" class="node">
<title>3_Split file</title>
<polygon fill="#fafad2" stroke="#000000" points="93.5,-36.5 93.5,-55.5 154.5,-55.5 154.5,-36.5 93.5,-36.5"/>
<text text-anchor="middle" x="124" y="-43.5" font-family="Helvetica,sans-Serif" font-size="10.00" fill="#000000">3_Split file</text>
</g>
<!-- 2_Collapse Collection&#45;&gt;3_Split file -->
<g id="edge4" class="edge">
<title>2_Collapse Collection&#45;&gt;3_Split file</title>
<path fill="none" stroke="#000000" d="M110.9186,-72.1628C112.4917,-69.0167 114.2758,-65.4484 116.0093,-61.9813"/>
<polygon fill="#000000" stroke="#000000" points="118.2726,-62.9331 119.2118,-55.5764 113.8899,-60.7417 118.2726,-62.9331"/>
</g>
<!-- 3_Split file&#45;&gt;4_XChem TransFS pose scoring -->
<g id="edge2" class="edge">
<title>3_Split file&#45;&gt;4_XChem TransFS pose scoring</title>
<path fill="none" stroke="#000000" d="M129.1918,-36.1628C130.8523,-33.0167 132.7356,-29.4484 134.5654,-25.9813"/>
<polygon fill="#000000" stroke="#000000" points="136.8452,-26.9107 137.9458,-19.5764 132.5117,-24.6236 136.8452,-26.9107"/>
</g>
</g>
</svg>
