<?xml version="1.0" encoding="UTF-8" standalone="no"?>
<!DOCTYPE svg PUBLIC "-//W3C//DTD SVG 1.1//EN"
 "http://www.w3.org/Graphics/SVG/1.1/DTD/svg11.dtd">
<!-- Generated by graphviz version 2.40.1 (0)
 -->
<!-- Title: workflow Pages: 1 -->
<svg width="339pt" height="166pt"
 viewBox="0.00 0.00 349.00 171.00" xmlns="http://www.w3.org/2000/svg" xmlns:xlink="http://www.w3.org/1999/xlink">
<g id="graph0" class="graph" transform="scale(.9722 .9722) rotate(0) translate(4 167)">
<title>workflow</title>
<g id="clust1" class="cluster">
<title>cluster_inputs</title>
<polygon fill="transparent" stroke="#000000" stroke-dasharray="5,2" points="8,-100 8,-155 333,-155 333,-100 8,-100"/>
<text text-anchor="middle" x="50.5" y="-143" font-family="Times,serif" font-size="10.00" fill="#000000">Workflow Inputs</text>
</g>
<!-- 1_Input Dataset -->
<g id="node1" class="node">
<title>1_Input Dataset</title>
<polygon fill="#94ddf4" stroke="#000000" points="16.5,-108.5 16.5,-127.5 101.5,-127.5 101.5,-108.5 16.5,-108.5"/>
<text text-anchor="middle" x="59" y="-115.5" font-family="Helvetica,sans-Serif" font-size="10.00" fill="#000000">1_Input Dataset</text>
</g>
<!-- 6_rDock docking -->
<g id="node6" class="node">
<title>6_rDock docking</title>
<polygon fill="#fafad2" stroke="#000000" points="88.5,-.5 88.5,-19.5 177.5,-19.5 177.5,-.5 88.5,-.5"/>
<text text-anchor="middle" x="133" y="-7.5" font-family="Helvetica,sans-Serif" font-size="10.00" fill="#000000">6_rDock docking</text>
</g>
<!-- 1_Input Dataset&#45;&gt;6_rDock docking -->
<g id="edge5" class="edge">
<title>1_Input Dataset&#45;&gt;6_rDock docking</title>
<path fill="none" stroke="#000000" d="M59.7551,-108.2716C60.858,-98.5488 63.5398,-83.44 70,-72 80.8942,-52.7081 99.538,-35.4566 113.7255,-24.08"/>
<polygon fill="#000000" stroke="#000000" points="115.4866,-25.8135 119.4974,-19.5752 112.4718,-21.9507 115.4866,-25.8135"/>
</g>
<!-- 0_Input Dataset -->
<g id="node2" class="node">
<title>0_Input Dataset</title>
<polygon fill="#94ddf4" stroke="#000000" points="105.5,-108.5 105.5,-127.5 190.5,-127.5 190.5,-108.5 105.5,-108.5"/>
<text text-anchor="middle" x="148" y="-115.5" font-family="Helvetica,sans-Serif" font-size="10.00" fill="#000000">0_Input Dataset</text>
</g>
<!-- 3_Compound conversion -->
<g id="node7" class="node">
<title>3_Compound conversion</title>
<polygon fill="#fafad2" stroke="#000000" points="71.5,-72.5 71.5,-91.5 194.5,-91.5 194.5,-72.5 71.5,-72.5"/>
<text text-anchor="middle" x="133" y="-79.5" font-family="Helvetica,sans-Serif" font-size="10.00" fill="#000000">3_Compound conversion</text>
</g>
<!-- 0_Input Dataset&#45;&gt;3_Compound conversion -->
<g id="edge6" class="edge">
<title>0_Input Dataset&#45;&gt;3_Compound conversion</title>
<path fill="none" stroke="#000000" d="M143.9012,-108.1628C142.6239,-105.0974 141.1796,-101.6311 139.7701,-98.2482"/>
<polygon fill="#000000" stroke="#000000" points="141.9441,-97.0956 136.9902,-91.5764 137.421,-98.9803 141.9441,-97.0956"/>
</g>
<!-- 2_Input Dataset Collection -->
<g id="node3" class="node">
<title>2_Input Dataset Collection</title>
<polygon fill="#94ddf4" stroke="#000000" points="195,-108.5 195,-127.5 325,-127.5 325,-108.5 195,-108.5"/>
<text text-anchor="middle" x="260" y="-115.5" font-family="Helvetica,sans-Serif" font-size="10.00" fill="#000000">2_Input Dataset Collection</text>
</g>
<!-- 4_Concatenate datasets -->
<g id="node4" class="node">
<title>4_Concatenate datasets</title>
<polygon fill="#fafad2" stroke="#000000" points="199,-72.5 199,-91.5 321,-91.5 321,-72.5 199,-72.5"/>
<text text-anchor="middle" x="260" y="-79.5" font-family="Helvetica,sans-Serif" font-size="10.00" fill="#000000">4_Concatenate datasets</text>
</g>
<!-- 2_Input Dataset Collection&#45;&gt;4_Concatenate datasets -->
<g id="edge1" class="edge">
<title>2_Input Dataset Collection&#45;&gt;4_Concatenate datasets</title>
<path fill="none" stroke="#000000" d="M260,-108.1628C260,-105.2587 260,-101.9949 260,-98.783"/>
<polygon fill="#000000" stroke="#000000" points="262.4501,-98.5764 260,-91.5764 257.5501,-98.5765 262.4501,-98.5764"/>
</g>
<!-- 5_Split file -->
<g id="node5" class="node">
<title>5_Split file</title>
<polygon fill="#fafad2" stroke="#000000" points="184.5,-36.5 184.5,-55.5 245.5,-55.5 245.5,-36.5 184.5,-36.5"/>
<text text-anchor="middle" x="215" y="-43.5" font-family="Helvetica,sans-Serif" font-size="10.00" fill="#000000">5_Split file</text>
</g>
<!-- 4_Concatenate datasets&#45;&gt;5_Split file -->
<g id="edge2" class="edge">
<title>4_Concatenate datasets&#45;&gt;5_Split file</title>
<path fill="none" stroke="#000000" d="M247.7036,-72.1628C243.065,-68.452 237.6924,-64.1539 232.6591,-60.1272"/>
<polygon fill="#000000" stroke="#000000" points="233.9672,-58.0362 226.9705,-55.5764 230.9061,-61.8625 233.9672,-58.0362"/>
</g>
<!-- 5_Split file&#45;&gt;6_rDock docking -->
<g id="edge3" class="edge">
<title>5_Split file&#45;&gt;6_rDock docking</title>
<path fill="none" stroke="#000000" d="M193.0255,-36.3527C183.2966,-32.0814 171.7312,-27.0039 161.3613,-22.4513"/>
<polygon fill="#000000" stroke="#000000" points="162.1452,-20.1198 154.7508,-19.5491 160.1754,-24.6065 162.1452,-20.1198"/>
</g>
<!-- 3_Compound conversion&#45;&gt;6_rDock docking -->
<g id="edge4" class="edge">
<title>3_Compound conversion&#45;&gt;6_rDock docking</title>
<path fill="none" stroke="#000000" d="M133,-72.2898C133,-60.6304 133,-40.8817 133,-26.7454"/>
<polygon fill="#000000" stroke="#000000" points="135.4501,-26.5564 133,-19.5564 130.5501,-26.5564 135.4501,-26.5564"/>
</g>
</g>
</svg>
