<?xml version="1.0" encoding="UTF-8" standalone="no"?>
<!DOCTYPE svg PUBLIC "-//W3C//DTD SVG 1.1//EN"
 "http://www.w3.org/Graphics/SVG/1.1/DTD/svg11.dtd">
<!-- Generated by graphviz version 2.40.1 (20161225.0304)
 -->
<!-- Title: workflow Pages: 1 -->
<svg width="727pt" height="98pt"
 viewBox="0.00 0.00 727.00 98.00" xmlns="http://www.w3.org/2000/svg" xmlns:xlink="http://www.w3.org/1999/xlink">
<g id="graph0" class="graph" transform="scale(1 1) rotate(0) translate(4 94)">
<title>workflow</title>
<polygon fill="#ffffff" stroke="transparent" points="-4,4 -4,-94 723,-94 723,4 -4,4"/>
<g id="clust1" class="cluster">
<title>cluster_inputs</title>
<polygon fill="none" stroke="#000000" stroke-dasharray="5,2" points="8,-27 8,-82 453,-82 453,-27 8,-27"/>
<text text-anchor="middle" x="52" y="-70" font-family="Helvetica,sans-Serif" font-size="10.00" fill="#000000">Workflow Inputs</text>
</g>
<g id="clust2" class="cluster">
<title>cluster_outputs</title>
<polygon fill="none" stroke="#000000" stroke-dasharray="5,2" points="461,-8 461,-63 711,-63 711,-8 461,-8"/>
<text text-anchor="middle" x="508.5" y="-15" font-family="Helvetica,sans-Serif" font-size="10.00" fill="#000000">Workflow Outputs</text>
</g>
<!-- t1 -->
<g id="node1" class="node">
<title>t1</title>
<polygon fill="#94ddf4" stroke="#000000" points="419.5,-35.5 419.5,-54.5 444.5,-54.5 444.5,-35.5 419.5,-35.5"/>
<text text-anchor="middle" x="432" y="-42.5" font-family="Helvetica,sans-Serif" font-size="10.00" fill="#000000">t1</text>
</g>
<!-- t2 -->
<g id="node2" class="node">
<title>t2</title>
<polygon fill="#94ddf4" stroke="#000000" points="390.5,-35.5 390.5,-54.5 415.5,-54.5 415.5,-35.5 390.5,-35.5"/>
<text text-anchor="middle" x="403" y="-42.5" font-family="Helvetica,sans-Serif" font-size="10.00" fill="#000000">t2</text>
</g>
<!-- do_cone_search -->
<g id="node3" class="node">
<title>do_cone_search</title>
<polygon fill="#94ddf4" stroke="#000000" points="299,-35.5 299,-54.5 387,-54.5 387,-35.5 299,-35.5"/>
<text text-anchor="middle" x="343" y="-42.5" font-family="Helvetica,sans-Serif" font-size="10.00" fill="#000000">do_cone_search</text>
</g>
<!-- ra -->
<g id="node4" class="node">
<title>ra</title>
<polygon fill="#94ddf4" stroke="#000000" points="270.5,-35.5 270.5,-54.5 295.5,-54.5 295.5,-35.5 270.5,-35.5"/>
<text text-anchor="middle" x="283" y="-42.5" font-family="Helvetica,sans-Serif" font-size="10.00" fill="#000000">ra</text>
</g>
<!-- dec -->
<g id="node5" class="node">
<title>dec</title>
<polygon fill="#94ddf4" stroke="#000000" points="234,-35.5 234,-54.5 266,-54.5 266,-35.5 234,-35.5"/>
<text text-anchor="middle" x="250" y="-42.5" font-family="Helvetica,sans-Serif" font-size="10.00" fill="#000000">dec</text>
</g>
<!-- radius -->
<g id="node6" class="node">
<title>radius</title>
<polygon fill="#94ddf4" stroke="#000000" points="186.5,-35.5 186.5,-54.5 229.5,-54.5 229.5,-35.5 186.5,-35.5"/>
<text text-anchor="middle" x="208" y="-42.5" font-family="Helvetica,sans-Serif" font-size="10.00" fill="#000000">radius</text>
</g>
<!-- level_threshold -->
<g id="node7" class="node">
<title>level_threshold</title>
<polygon fill="#94ddf4" stroke="#000000" points="100,-35.5 100,-54.5 182,-54.5 182,-35.5 100,-35.5"/>
<text text-anchor="middle" x="141" y="-42.5" font-family="Helvetica,sans-Serif" font-size="10.00" fill="#000000">level_threshold</text>
</g>
<!-- contour_levels -->
<g id="node8" class="node">
<title>contour_levels</title>
<polygon fill="#94ddf4" stroke="#000000" points="16,-35.5 16,-54.5 96,-54.5 96,-35.5 16,-35.5"/>
<text text-anchor="middle" x="56" y="-42.5" font-family="Helvetica,sans-Serif" font-size="10.00" fill="#000000">contour_levels</text>
</g>
<!-- asciicat -->
<g id="node9" class="node">
<title>asciicat</title>
<polygon fill="#94ddf4" stroke="#000000" points="653,-35.5 653,-54.5 703,-54.5 703,-35.5 653,-35.5"/>
<text text-anchor="middle" x="678" y="-42.5" font-family="Helvetica,sans-Serif" font-size="10.00" fill="#000000">asciicat</text>
</g>
<!-- skymap_files -->
<g id="node10" class="node">
<title>skymap_files</title>
<polygon fill="#94ddf4" stroke="#000000" points="575,-35.5 575,-54.5 649,-54.5 649,-35.5 575,-35.5"/>
<text text-anchor="middle" x="612" y="-42.5" font-family="Helvetica,sans-Serif" font-size="10.00" fill="#000000">skymap_files</text>
</g>
<!-- image -->
<g id="node11" class="node">
<title>image</title>
<polygon fill="#94ddf4" stroke="#000000" points="527.5,-35.5 527.5,-54.5 570.5,-54.5 570.5,-35.5 527.5,-35.5"/>
<text text-anchor="middle" x="549" y="-42.5" font-family="Helvetica,sans-Serif" font-size="10.00" fill="#000000">image</text>
</g>
<!-- contours -->
<g id="node12" class="node">
<title>contours</title>
<polygon fill="#94ddf4" stroke="#000000" points="469,-35.5 469,-54.5 523,-54.5 523,-35.5 469,-35.5"/>
<text text-anchor="middle" x="496" y="-42.5" font-family="Helvetica,sans-Serif" font-size="10.00" fill="#000000">contours</text>
</g>
</g>
</svg>
