<?xml version="1.0" encoding="UTF-8" standalone="no"?>
<!DOCTYPE svg PUBLIC "-//W3C//DTD SVG 1.1//EN"
 "http://www.w3.org/Graphics/SVG/1.1/DTD/svg11.dtd">
<!-- Generated by graphviz version 2.40.1 (20161225.0304)
 -->
<!-- Title: workflow Pages: 1 -->
<svg width="3153pt" height="331pt"
 viewBox="0.00 0.00 3153.00 331.00" xmlns="http://www.w3.org/2000/svg" xmlns:xlink="http://www.w3.org/1999/xlink">
<g id="graph0" class="graph" transform="scale(1 1) rotate(0) translate(4 327)">
<title>workflow</title>
<polygon fill="#ffffff" stroke="transparent" points="-4,4 -4,-327 3149,-327 3149,4 -4,4"/>
<g id="clust1" class="cluster">
<title>cluster_inputs</title>
<polygon fill="none" stroke="#000000" stroke-dasharray="5,2" points="8,-260 8,-315 3137,-315 3137,-260 8,-260"/>
<text text-anchor="middle" x="52" y="-303" font-family="Helvetica,sans-Serif" font-size="10.00" fill="#000000">Workflow Inputs</text>
</g>
<g id="clust2" class="cluster">
<title>cluster_outputs</title>
<polygon fill="none" stroke="#000000" stroke-dasharray="5,2" points="1150,-8 1150,-63 1911,-63 1911,-8 1150,-8"/>
<text text-anchor="middle" x="1197.5" y="-15" font-family="Helvetica,sans-Serif" font-size="10.00" fill="#000000">Workflow Outputs</text>
</g>
<!-- step1_fpocket_select_config -->
<g id="node1" class="node">
<title>step1_fpocket_select_config</title>
<polygon fill="#94ddf4" stroke="#000000" points="16.5,-268.5 16.5,-287.5 157.5,-287.5 157.5,-268.5 16.5,-268.5"/>
<text text-anchor="middle" x="87" y="-275.5" font-family="Helvetica,sans-Serif" font-size="10.00" fill="#000000">step1_fpocket_select_config</text>
</g>
<!-- step1_fpocket_select -->
<g id="node25" class="node">
<title>step1_fpocket_select</title>
<polygon fill="#fafad2" stroke="#000000" points="618.5,-215.5 618.5,-234.5 699.5,-234.5 699.5,-215.5 618.5,-215.5"/>
<text text-anchor="middle" x="659" y="-222.5" font-family="Helvetica,sans-Serif" font-size="10.00" fill="#000000">FPocketSelect</text>
</g>
<!-- step1_fpocket_select_config&#45;&gt;step1_fpocket_select -->
<g id="edge1" class="edge">
<title>step1_fpocket_select_config&#45;&gt;step1_fpocket_select</title>
<path fill="none" stroke="#000000" d="M121.4921,-268.4812C134.1433,-265.3195 148.6363,-262.0792 162,-260 325.5643,-234.5523 522.3183,-227.5924 611.2385,-225.7001"/>
<polygon fill="#000000" stroke="#000000" points="611.5305,-228.1448 618.479,-225.5522 611.4304,-223.2458 611.5305,-228.1448"/>
<text text-anchor="middle" x="308" y="-245.6" font-family="Helvetica,sans-Serif" font-size="8.00" fill="#000000">config</text>
</g>
<!-- step1_fpocket_select_input_pockets_zip -->
<g id="node2" class="node">
<title>step1_fpocket_select_input_pockets_zip</title>
<polygon fill="#94ddf4" stroke="#000000" points="162,-268.5 162,-287.5 356,-287.5 356,-268.5 162,-268.5"/>
<text text-anchor="middle" x="259" y="-275.5" font-family="Helvetica,sans-Serif" font-size="10.00" fill="#000000">step1_fpocket_select_input_pockets_zip</text>
</g>
<!-- step1_fpocket_select_input_pockets_zip&#45;&gt;step1_fpocket_select -->
<g id="edge2" class="edge">
<title>step1_fpocket_select_input_pockets_zip&#45;&gt;step1_fpocket_select</title>
<path fill="none" stroke="#000000" d="M309.7851,-268.4651C325.8226,-265.5842 343.6285,-262.5197 360,-260 448.3559,-246.4015 552.1231,-235.3498 611.263,-229.5123"/>
<polygon fill="#000000" stroke="#000000" points="611.5228,-231.9487 618.2499,-228.8264 611.044,-227.0721 611.5228,-231.9487"/>
<text text-anchor="middle" x="514" y="-245.6" font-family="Helvetica,sans-Serif" font-size="8.00" fill="#000000">input_pockets_zip</text>
</g>
<!-- step1_fpocket_select_output_pocket_pdb -->
<g id="node3" class="node">
<title>step1_fpocket_select_output_pocket_pdb</title>
<polygon fill="#94ddf4" stroke="#000000" points="360.5,-268.5 360.5,-287.5 557.5,-287.5 557.5,-268.5 360.5,-268.5"/>
<text text-anchor="middle" x="459" y="-275.5" font-family="Helvetica,sans-Serif" font-size="10.00" fill="#000000">step1_fpocket_select_output_pocket_pdb</text>
</g>
<!-- step1_fpocket_select_output_pocket_pdb&#45;&gt;step1_fpocket_select -->
<g id="edge3" class="edge">
<title>step1_fpocket_select_output_pocket_pdb&#45;&gt;step1_fpocket_select</title>
<path fill="none" stroke="#000000" d="M494.0081,-268.4598C520.1585,-261.3614 556.7901,-251.4769 589,-243 597.248,-240.8293 606.0506,-238.5424 614.532,-236.3541"/>
<polygon fill="#000000" stroke="#000000" points="615.3939,-238.6621 621.5616,-234.5437 614.1718,-233.917 615.3939,-238.6621"/>
<text text-anchor="middle" x="623.5" y="-245.6" font-family="Helvetica,sans-Serif" font-size="8.00" fill="#000000">output_pocket_pdb</text>
</g>
<!-- step1_fpocket_select_output_pocket_pqr -->
<g id="node4" class="node">
<title>step1_fpocket_select_output_pocket_pqr</title>
<polygon fill="#94ddf4" stroke="#000000" points="561.5,-268.5 561.5,-287.5 756.5,-287.5 756.5,-268.5 561.5,-268.5"/>
<text text-anchor="middle" x="659" y="-275.5" font-family="Helvetica,sans-Serif" font-size="10.00" fill="#000000">step1_fpocket_select_output_pocket_pqr</text>
</g>
<!-- step1_fpocket_select_output_pocket_pqr&#45;&gt;step1_fpocket_select -->
<g id="edge4" class="edge">
<title>step1_fpocket_select_output_pocket_pqr&#45;&gt;step1_fpocket_select</title>
<path fill="none" stroke="#000000" d="M659,-268.279C659,-260.8827 659,-250.5239 659,-241.7951"/>
<polygon fill="#000000" stroke="#000000" points="661.4501,-241.6594 659,-234.6594 656.5501,-241.6594 661.4501,-241.6594"/>
<text text-anchor="middle" x="692.5" y="-245.6" font-family="Helvetica,sans-Serif" font-size="8.00" fill="#000000">output_pocket_pqr</text>
</g>
<!-- step2_box_config -->
<g id="node5" class="node">
<title>step2_box_config</title>
<polygon fill="#94ddf4" stroke="#000000" points="760.5,-268.5 760.5,-287.5 853.5,-287.5 853.5,-268.5 760.5,-268.5"/>
<text text-anchor="middle" x="807" y="-275.5" font-family="Helvetica,sans-Serif" font-size="10.00" fill="#000000">step2_box_config</text>
</g>
<!-- step2_box -->
<g id="node26" class="node">
<title>step2_box</title>
<polygon fill="#fafad2" stroke="#000000" points="910,-170.5 910,-189.5 944,-189.5 944,-170.5 910,-170.5"/>
<text text-anchor="middle" x="927" y="-177.5" font-family="Helvetica,sans-Serif" font-size="10.00" fill="#000000">Box</text>
</g>
<!-- step2_box_config&#45;&gt;step2_box -->
<g id="edge5" class="edge">
<title>step2_box_config&#45;&gt;step2_box</title>
<path fill="none" stroke="#000000" d="M818.9448,-268.2451C840.2392,-250.8547 884.8392,-214.4313 909.5628,-194.2403"/>
<polygon fill="#000000" stroke="#000000" points="911.2315,-196.0408 915.1035,-189.7154 908.1321,-192.2456 911.2315,-196.0408"/>
<text text-anchor="middle" x="893" y="-223.1" font-family="Helvetica,sans-Serif" font-size="8.00" fill="#000000">config</text>
</g>
<!-- step2_box_output_pdb_path -->
<g id="node6" class="node">
<title>step2_box_output_pdb_path</title>
<polygon fill="#94ddf4" stroke="#000000" points="857.5,-268.5 857.5,-287.5 996.5,-287.5 996.5,-268.5 857.5,-268.5"/>
<text text-anchor="middle" x="927" y="-275.5" font-family="Helvetica,sans-Serif" font-size="10.00" fill="#000000">step2_box_output_pdb_path</text>
</g>
<!-- step2_box_output_pdb_path&#45;&gt;step2_box -->
<g id="edge7" class="edge">
<title>step2_box_output_pdb_path&#45;&gt;step2_box</title>
<path fill="none" stroke="#000000" d="M927,-268.2451C927,-251.5884 927,-217.4711 927,-196.8802"/>
<polygon fill="#000000" stroke="#000000" points="929.4501,-196.7154 927,-189.7154 924.5501,-196.7155 929.4501,-196.7154"/>
<text text-anchor="middle" x="957.5" y="-223.1" font-family="Helvetica,sans-Serif" font-size="8.00" fill="#000000">output_pdb_path</text>
</g>
<!-- step3_babel_convert_prep_lig_config -->
<g id="node7" class="node">
<title>step3_babel_convert_prep_lig_config</title>
<polygon fill="#94ddf4" stroke="#000000" points="1207.5,-268.5 1207.5,-287.5 1384.5,-287.5 1384.5,-268.5 1207.5,-268.5"/>
<text text-anchor="middle" x="1296" y="-275.5" font-family="Helvetica,sans-Serif" font-size="10.00" fill="#000000">step3_babel_convert_prep_lig_config</text>
</g>
<!-- step3_babel_convert_prep_lig -->
<g id="node27" class="node">
<title>step3_babel_convert_prep_lig</title>
<polygon fill="#fafad2" stroke="#000000" points="1448,-215.5 1448,-234.5 1524,-234.5 1524,-215.5 1448,-215.5"/>
<text text-anchor="middle" x="1486" y="-222.5" font-family="Helvetica,sans-Serif" font-size="10.00" fill="#000000">BabelConvert</text>
</g>
<!-- step3_babel_convert_prep_lig_config&#45;&gt;step3_babel_convert_prep_lig -->
<g id="edge8" class="edge">
<title>step3_babel_convert_prep_lig_config&#45;&gt;step3_babel_convert_prep_lig</title>
<path fill="none" stroke="#000000" d="M1330.4076,-268.4021C1362.5553,-259.4346 1410.5908,-246.0352 1444.7749,-236.4996"/>
<polygon fill="#000000" stroke="#000000" points="1445.7641,-238.7673 1451.8484,-234.5265 1444.4475,-234.0475 1445.7641,-238.7673"/>
<text text-anchor="middle" x="1430" y="-245.6" font-family="Helvetica,sans-Serif" font-size="8.00" fill="#000000">config</text>
</g>
<!-- step3_babel_convert_prep_lig_input_path -->
<g id="node8" class="node">
<title>step3_babel_convert_prep_lig_input_path</title>
<polygon fill="#94ddf4" stroke="#000000" points="1388,-268.5 1388,-287.5 1584,-287.5 1584,-268.5 1388,-268.5"/>
<text text-anchor="middle" x="1486" y="-275.5" font-family="Helvetica,sans-Serif" font-size="10.00" fill="#000000">step3_babel_convert_prep_lig_input_path</text>
</g>
<!-- step3_babel_convert_prep_lig_input_path&#45;&gt;step3_babel_convert_prep_lig -->
<g id="edge9" class="edge">
<title>step3_babel_convert_prep_lig_input_path&#45;&gt;step3_babel_convert_prep_lig</title>
<path fill="none" stroke="#000000" d="M1486,-268.279C1486,-260.8827 1486,-250.5239 1486,-241.7951"/>
<polygon fill="#000000" stroke="#000000" points="1488.4501,-241.6594 1486,-234.6594 1483.5501,-241.6594 1488.4501,-241.6594"/>
<text text-anchor="middle" x="1505" y="-245.6" font-family="Helvetica,sans-Serif" font-size="8.00" fill="#000000">input_path</text>
</g>
<!-- step3_babel_convert_prep_lig_output_path -->
<g id="node9" class="node">
<title>step3_babel_convert_prep_lig_output_path</title>
<polygon fill="#94ddf4" stroke="#000000" points="1001,-268.5 1001,-287.5 1203,-287.5 1203,-268.5 1001,-268.5"/>
<text text-anchor="middle" x="1102" y="-275.5" font-family="Helvetica,sans-Serif" font-size="10.00" fill="#000000">step3_babel_convert_prep_lig_output_path</text>
</g>
<!-- step3_babel_convert_prep_lig_output_path&#45;&gt;step3_babel_convert_prep_lig -->
<g id="edge10" class="edge">
<title>step3_babel_convert_prep_lig_output_path&#45;&gt;step3_babel_convert_prep_lig</title>
<path fill="none" stroke="#000000" d="M1154.8033,-268.4707C1171.4763,-265.59 1189.9858,-262.5243 1207,-260 1289.0293,-247.83 1385.0443,-236.4 1440.3648,-230.0866"/>
<polygon fill="#000000" stroke="#000000" points="1440.8869,-232.4931 1447.5651,-229.2676 1440.3331,-227.6245 1440.8869,-232.4931"/>
<text text-anchor="middle" x="1350.5" y="-245.6" font-family="Helvetica,sans-Serif" font-size="8.00" fill="#000000">output_path</text>
</g>
<!-- step4_str_check_add_hydrogens_config -->
<g id="node10" class="node">
<title>step4_str_check_add_hydrogens_config</title>
<polygon fill="#94ddf4" stroke="#000000" points="2275.5,-268.5 2275.5,-287.5 2466.5,-287.5 2466.5,-268.5 2275.5,-268.5"/>
<text text-anchor="middle" x="2371" y="-275.5" font-family="Helvetica,sans-Serif" font-size="10.00" fill="#000000">step4_str_check_add_hydrogens_config</text>
</g>
<!-- step4_str_check_add_hydrogens -->
<g id="node28" class="node">
<title>step4_str_check_add_hydrogens</title>
<polygon fill="#fafad2" stroke="#000000" points="2080,-215.5 2080,-234.5 2202,-234.5 2202,-215.5 2080,-215.5"/>
<text text-anchor="middle" x="2141" y="-222.5" font-family="Helvetica,sans-Serif" font-size="10.00" fill="#000000">StrCheckAddHydrogens</text>
</g>
<!-- step4_str_check_add_hydrogens_config&#45;&gt;step4_str_check_add_hydrogens -->
<g id="edge11" class="edge">
<title>step4_str_check_add_hydrogens_config&#45;&gt;step4_str_check_add_hydrogens</title>
<path fill="none" stroke="#000000" d="M2330.5932,-268.4804C2300.413,-261.3924 2258.1434,-251.5119 2221,-243 2211.1911,-240.7522 2200.6996,-238.3733 2190.6504,-236.1071"/>
<polygon fill="#000000" stroke="#000000" points="2191.145,-233.7072 2183.7777,-234.5593 2190.0683,-238.4875 2191.145,-233.7072"/>
<text text-anchor="middle" x="2269" y="-245.6" font-family="Helvetica,sans-Serif" font-size="8.00" fill="#000000">config</text>
</g>
<!-- step4_str_check_add_hydrogens_input_structure_path -->
<g id="node11" class="node">
<title>step4_str_check_add_hydrogens_input_structure_path</title>
<polygon fill="#94ddf4" stroke="#000000" points="2471,-268.5 2471,-287.5 2725,-287.5 2725,-268.5 2471,-268.5"/>
<text text-anchor="middle" x="2598" y="-275.5" font-family="Helvetica,sans-Serif" font-size="10.00" fill="#000000">step4_str_check_add_hydrogens_input_structure_path</text>
</g>
<!-- step4_str_check_add_hydrogens_input_structure_path&#45;&gt;step4_str_check_add_hydrogens -->
<g id="edge12" class="edge">
<title>step4_str_check_add_hydrogens_input_structure_path&#45;&gt;step4_str_check_add_hydrogens</title>
<path fill="none" stroke="#000000" d="M2531.4065,-268.4613C2510.7787,-265.6112 2487.9639,-262.5651 2467,-260 2378.0047,-249.1109 2275.1106,-238.3716 2209.1114,-231.7201"/>
<polygon fill="#000000" stroke="#000000" points="2209.2565,-229.2724 2202.0464,-231.0094 2208.766,-234.1478 2209.2565,-229.2724"/>
<text text-anchor="middle" x="2432" y="-245.6" font-family="Helvetica,sans-Serif" font-size="8.00" fill="#000000">input_structure_path</text>
</g>
<!-- step4_str_check_add_hydrogens_output_structure_path -->
<g id="node12" class="node">
<title>step4_str_check_add_hydrogens_output_structure_path</title>
<polygon fill="#94ddf4" stroke="#000000" points="2011,-268.5 2011,-287.5 2271,-287.5 2271,-268.5 2011,-268.5"/>
<text text-anchor="middle" x="2141" y="-275.5" font-family="Helvetica,sans-Serif" font-size="10.00" fill="#000000">step4_str_check_add_hydrogens_output_structure_path</text>
</g>
<!-- step4_str_check_add_hydrogens_output_structure_path&#45;&gt;step4_str_check_add_hydrogens -->
<g id="edge13" class="edge">
<title>step4_str_check_add_hydrogens_output_structure_path&#45;&gt;step4_str_check_add_hydrogens</title>
<path fill="none" stroke="#000000" d="M2141,-268.279C2141,-260.8827 2141,-250.5239 2141,-241.7951"/>
<polygon fill="#000000" stroke="#000000" points="2143.4501,-241.6594 2141,-234.6594 2138.5501,-241.6594 2143.4501,-241.6594"/>
<text text-anchor="middle" x="2180.5" y="-245.6" font-family="Helvetica,sans-Serif" font-size="8.00" fill="#000000">output_structure_path</text>
</g>
<!-- step5_autodock_vina_run_output_pdbqt_path -->
<g id="node13" class="node">
<title>step5_autodock_vina_run_output_pdbqt_path</title>
<polygon fill="#94ddf4" stroke="#000000" points="1587.5,-268.5 1587.5,-287.5 1800.5,-287.5 1800.5,-268.5 1587.5,-268.5"/>
<text text-anchor="middle" x="1694" y="-275.5" font-family="Helvetica,sans-Serif" font-size="10.00" fill="#000000">step5_autodock_vina_run_output_pdbqt_path</text>
</g>
<!-- step5_autodock_vina_run -->
<g id="node29" class="node">
<title>step5_autodock_vina_run</title>
<polygon fill="#fafad2" stroke="#000000" points="1638,-125.5 1638,-144.5 1736,-144.5 1736,-125.5 1638,-125.5"/>
<text text-anchor="middle" x="1687" y="-132.5" font-family="Helvetica,sans-Serif" font-size="10.00" fill="#000000">AutoDockVinaRun</text>
</g>
<!-- step5_autodock_vina_run_output_pdbqt_path&#45;&gt;step5_autodock_vina_run -->
<g id="edge17" class="edge">
<title>step5_autodock_vina_run_output_pdbqt_path&#45;&gt;step5_autodock_vina_run</title>
<path fill="none" stroke="#000000" d="M1693.5189,-268.171C1692.3393,-244.0743 1689.2929,-181.8407 1687.8206,-151.7638"/>
<polygon fill="#000000" stroke="#000000" points="1690.2555,-151.393 1687.4661,-144.5211 1685.3613,-151.6326 1690.2555,-151.393"/>
<text text-anchor="middle" x="1724" y="-200.6" font-family="Helvetica,sans-Serif" font-size="8.00" fill="#000000">output_pdbqt_path</text>
</g>
<!-- step5_autodock_vina_run_output_log_path -->
<g id="node14" class="node">
<title>step5_autodock_vina_run_output_log_path</title>
<polygon fill="#94ddf4" stroke="#000000" points="1805,-268.5 1805,-287.5 2007,-287.5 2007,-268.5 1805,-268.5"/>
<text text-anchor="middle" x="1906" y="-275.5" font-family="Helvetica,sans-Serif" font-size="10.00" fill="#000000">step5_autodock_vina_run_output_log_path</text>
</g>
<!-- step5_autodock_vina_run_output_log_path&#45;&gt;step5_autodock_vina_run -->
<g id="edge18" class="edge">
<title>step5_autodock_vina_run_output_log_path&#45;&gt;step5_autodock_vina_run</title>
<path fill="none" stroke="#000000" d="M1891.2907,-268.3953C1853.2651,-243.5658 1751.618,-177.1935 1707.6927,-148.5117"/>
<polygon fill="#000000" stroke="#000000" points="1708.8459,-146.3387 1701.6452,-144.5629 1706.1669,-150.4415 1708.8459,-146.3387"/>
<text text-anchor="middle" x="1825" y="-200.6" font-family="Helvetica,sans-Serif" font-size="8.00" fill="#000000">output_log_path</text>
</g>
<!-- step6_babel_convert_pose_pdb_config -->
<g id="node15" class="node">
<title>step6_babel_convert_pose_pdb_config</title>
<polygon fill="#94ddf4" stroke="#000000" points="2729.5,-268.5 2729.5,-287.5 2914.5,-287.5 2914.5,-268.5 2729.5,-268.5"/>
<text text-anchor="middle" x="2822" y="-275.5" font-family="Helvetica,sans-Serif" font-size="10.00" fill="#000000">step6_babel_convert_pose_pdb_config</text>
</g>
<!-- step6_babel_convert_pose_pdb -->
<g id="node30" class="node">
<title>step6_babel_convert_pose_pdb</title>
<polygon fill="#fafad2" stroke="#000000" points="2489,-80.5 2489,-99.5 2565,-99.5 2565,-80.5 2489,-80.5"/>
<text text-anchor="middle" x="2527" y="-87.5" font-family="Helvetica,sans-Serif" font-size="10.00" fill="#000000">BabelConvert</text>
</g>
<!-- step6_babel_convert_pose_pdb_config&#45;&gt;step6_babel_convert_pose_pdb -->
<g id="edge19" class="edge">
<title>step6_babel_convert_pose_pdb_config&#45;&gt;step6_babel_convert_pose_pdb</title>
<path fill="none" stroke="#000000" d="M2771.7885,-268.4341C2732.3308,-259.4335 2684,-244.4409 2684,-225 2684,-225 2684,-225 2684,-135 2684,-111.5361 2618.38,-99.6027 2571.9866,-94.0979"/>
<polygon fill="#000000" stroke="#000000" points="2572.2382,-91.6608 2565.0053,-93.3003 2571.6819,-96.5292 2572.2382,-91.6608"/>
<text text-anchor="middle" x="2695" y="-178.1" font-family="Helvetica,sans-Serif" font-size="8.00" fill="#000000">config</text>
</g>
<!-- step6_babel_convert_pose_pdb_output_path -->
<g id="node16" class="node">
<title>step6_babel_convert_pose_pdb_output_path</title>
<polygon fill="#94ddf4" stroke="#000000" points="2919,-268.5 2919,-287.5 3129,-287.5 3129,-268.5 2919,-268.5"/>
<text text-anchor="middle" x="3024" y="-275.5" font-family="Helvetica,sans-Serif" font-size="10.00" fill="#000000">step6_babel_convert_pose_pdb_output_path</text>
</g>
<!-- step6_babel_convert_pose_pdb_output_path&#45;&gt;step6_babel_convert_pose_pdb -->
<g id="edge21" class="edge">
<title>step6_babel_convert_pose_pdb_output_path&#45;&gt;step6_babel_convert_pose_pdb</title>
<path fill="none" stroke="#000000" d="M2962.2945,-268.465C2919.07,-259.9817 2869,-245.6897 2869,-225 2869,-225 2869,-225 2869,-135 2869,-105.4156 2665.2352,-94.6915 2572.2708,-91.3382"/>
<polygon fill="#000000" stroke="#000000" points="2572.318,-88.8885 2565.2362,-91.0909 2572.1458,-93.7854 2572.318,-88.8885"/>
<text text-anchor="middle" x="2890.5" y="-178.1" font-family="Helvetica,sans-Serif" font-size="8.00" fill="#000000">output_path</text>
</g>
<!-- step1_fpocket_select_out1 -->
<g id="node17" class="node">
<title>step1_fpocket_select_out1</title>
<polygon fill="#94ddf4" stroke="#000000" points="1258.5,-35.5 1258.5,-54.5 1357.5,-54.5 1357.5,-35.5 1258.5,-35.5"/>
<text text-anchor="middle" x="1308" y="-42.5" font-family="Helvetica,sans-Serif" font-size="10.00" fill="#000000">output_pocket_pdb</text>
</g>
<!-- step1_fpocket_select_out2 -->
<g id="node18" class="node">
<title>step1_fpocket_select_out2</title>
<polygon fill="#94ddf4" stroke="#000000" points="1157.5,-35.5 1157.5,-54.5 1254.5,-54.5 1254.5,-35.5 1157.5,-35.5"/>
<text text-anchor="middle" x="1206" y="-42.5" font-family="Helvetica,sans-Serif" font-size="10.00" fill="#000000">output_pocket_pqr</text>
</g>
<!-- step2_box_out1 -->
<g id="node19" class="node">
<title>step2_box_out1</title>
<polygon fill="#94ddf4" stroke="#000000" points="1361.5,-35.5 1361.5,-54.5 1450.5,-54.5 1450.5,-35.5 1361.5,-35.5"/>
<text text-anchor="middle" x="1406" y="-42.5" font-family="Helvetica,sans-Serif" font-size="10.00" fill="#000000">output_pdb_path</text>
</g>
<!-- step3_babel_convert_prep_lig_out1 -->
<g id="node20" class="node">
<title>step3_babel_convert_prep_lig_out1</title>
<polygon fill="#94ddf4" stroke="#000000" points="1455,-35.5 1455,-54.5 1523,-54.5 1523,-35.5 1455,-35.5"/>
<text text-anchor="middle" x="1489" y="-42.5" font-family="Helvetica,sans-Serif" font-size="10.00" fill="#000000">output_path</text>
</g>
<!-- step4_str_check_add_hydrogens_out1 -->
<g id="node21" class="node">
<title>step4_str_check_add_hydrogens_out1</title>
<polygon fill="#94ddf4" stroke="#000000" points="1719.5,-35.5 1719.5,-54.5 1830.5,-54.5 1830.5,-35.5 1719.5,-35.5"/>
<text text-anchor="middle" x="1775" y="-42.5" font-family="Helvetica,sans-Serif" font-size="10.00" fill="#000000">output_structure_path</text>
</g>
<!-- step5_autodock_vina_run_out1 -->
<g id="node22" class="node">
<title>step5_autodock_vina_run_out1</title>
<polygon fill="#94ddf4" stroke="#000000" points="1527.5,-35.5 1527.5,-54.5 1624.5,-54.5 1624.5,-35.5 1527.5,-35.5"/>
<text text-anchor="middle" x="1576" y="-42.5" font-family="Helvetica,sans-Serif" font-size="10.00" fill="#000000">output_pdbqt_path</text>
</g>
<!-- step5_autodock_vina_run_out2 -->
<g id="node23" class="node">
<title>step5_autodock_vina_run_out2</title>
<polygon fill="#94ddf4" stroke="#000000" points="1629,-35.5 1629,-54.5 1715,-54.5 1715,-35.5 1629,-35.5"/>
<text text-anchor="middle" x="1672" y="-42.5" font-family="Helvetica,sans-Serif" font-size="10.00" fill="#000000">output_log_path</text>
</g>
<!-- step6_babel_convert_pose_pdb_out1 -->
<g id="node24" class="node">
<title>step6_babel_convert_pose_pdb_out1</title>
<polygon fill="#94ddf4" stroke="#000000" points="1835,-35.5 1835,-54.5 1903,-54.5 1903,-35.5 1835,-35.5"/>
<text text-anchor="middle" x="1869" y="-42.5" font-family="Helvetica,sans-Serif" font-size="10.00" fill="#000000">output_path</text>
</g>
<!-- step1_fpocket_select&#45;&gt;step1_fpocket_select_out1 -->
<g id="edge22" class="edge">
<title>step1_fpocket_select&#45;&gt;step1_fpocket_select_out1</title>
<path fill="none" stroke="#000000" d="M685.0327,-215.4679C699.6567,-208.2588 715,-196.7128 715,-180 715,-180 715,-180 715,-90 715,-59.9625 1225.4956,-68.6339 1255,-63 1262.3736,-61.592 1270.1232,-59.3947 1277.3504,-57.0127"/>
<polygon fill="#000000" stroke="#000000" points="1278.5517,-59.1901 1284.3702,-54.5915 1276.9539,-54.5579 1278.5517,-59.1901"/>
</g>
<!-- step1_fpocket_select&#45;&gt;step1_fpocket_select_out2 -->
<g id="edge23" class="edge">
<title>step1_fpocket_select&#45;&gt;step1_fpocket_select_out2</title>
<path fill="none" stroke="#000000" d="M670.1709,-215.4878C678.7003,-207.113 689,-194.0842 689,-180 689,-180 689,-180 689,-90 689,-77.0805 699.0137,-75.8211 711,-71 750.8251,-54.9816 1029.263,-48.1386 1150.1738,-45.899"/>
<polygon fill="#000000" stroke="#000000" points="1150.2548,-48.3481 1157.2089,-45.7706 1150.1653,-43.4489 1150.2548,-48.3481"/>
</g>
<!-- step1_fpocket_select&#45;&gt;step2_box -->
<g id="edge6" class="edge">
<title>step1_fpocket_select&#45;&gt;step2_box</title>
<path fill="none" stroke="#000000" d="M699.6136,-216.0119C725.8833,-210.3825 760.8641,-203.23 792,-198 830.5789,-191.5198 875.6779,-185.8975 902.7564,-182.7309"/>
<polygon fill="#000000" stroke="#000000" points="903.224,-185.1432 909.8956,-181.9041 902.6602,-180.2757 903.224,-185.1432"/>
<text text-anchor="middle" x="820" y="-200.6" font-family="Helvetica,sans-Serif" font-size="8.00" fill="#000000">input_pdb_path</text>
</g>
<!-- step2_box&#45;&gt;step2_box_out1 -->
<g id="edge24" class="edge">
<title>step2_box&#45;&gt;step2_box_out1</title>
<path fill="none" stroke="#000000" d="M944.0081,-175.9917C1002.2677,-162.1331 1198.976,-114.277 1358,-63 1363.4794,-61.2332 1369.2544,-59.21 1374.8259,-57.1727"/>
<polygon fill="#000000" stroke="#000000" points="1376.0294,-59.3392 1381.7366,-54.603 1374.3216,-54.7464 1376.0294,-59.3392"/>
</g>
<!-- step2_box&#45;&gt;step5_autodock_vina_run -->
<g id="edge16" class="edge">
<title>step2_box&#45;&gt;step5_autodock_vina_run</title>
<path fill="none" stroke="#000000" d="M944.3016,-178.9756C1036.6836,-173.5056 1473.4733,-147.643 1630.5573,-138.342"/>
<polygon fill="#000000" stroke="#000000" points="1630.9807,-140.7713 1637.8236,-137.9118 1630.691,-135.8799 1630.9807,-140.7713"/>
<text text-anchor="middle" x="1402.5" y="-155.6" font-family="Helvetica,sans-Serif" font-size="8.00" fill="#000000">input_box_path</text>
</g>
<!-- step3_babel_convert_prep_lig&#45;&gt;step3_babel_convert_prep_lig_out1 -->
<g id="edge25" class="edge">
<title>step3_babel_convert_prep_lig&#45;&gt;step3_babel_convert_prep_lig_out1</title>
<path fill="none" stroke="#000000" d="M1486.3386,-215.3454C1486.6287,-206.234 1487,-192.1905 1487,-180 1487,-180 1487,-180 1487,-90 1487,-80.6597 1487.4353,-70.2397 1487.8998,-61.7806"/>
<polygon fill="#000000" stroke="#000000" points="1490.3539,-61.7833 1488.3229,-54.6504 1485.4625,-61.493 1490.3539,-61.7833"/>
</g>
<!-- step3_babel_convert_prep_lig&#45;&gt;step5_autodock_vina_run -->
<g id="edge14" class="edge">
<title>step3_babel_convert_prep_lig&#45;&gt;step5_autodock_vina_run</title>
<path fill="none" stroke="#000000" d="M1505.3698,-215.3009C1528.0954,-204.0232 1566.9953,-185.0352 1601,-170 1618.931,-162.0718 1639.2358,-153.7768 1655.6115,-147.2531"/>
<polygon fill="#000000" stroke="#000000" points="1656.7673,-149.4304 1662.3707,-144.5719 1654.9605,-144.8757 1656.7673,-149.4304"/>
<text text-anchor="middle" x="1645" y="-178.1" font-family="Helvetica,sans-Serif" font-size="8.00" fill="#000000">input_ligand_pdbqt_path</text>
</g>
<!-- step4_str_check_add_hydrogens&#45;&gt;step4_str_check_add_hydrogens_out1 -->
<g id="edge26" class="edge">
<title>step4_str_check_add_hydrogens&#45;&gt;step4_str_check_add_hydrogens_out1</title>
<path fill="none" stroke="#000000" d="M2133.7795,-215.188C2128.0508,-206.4227 2121,-192.995 2121,-180 2121,-180 2121,-180 2121,-90 2121,-58.0809 1866.3277,-69.1157 1835,-63 1826.6611,-61.3721 1817.8239,-59.0614 1809.5692,-56.6363"/>
<polygon fill="#000000" stroke="#000000" points="1810.2056,-54.2692 1802.7959,-54.5847 1808.7851,-58.9588 1810.2056,-54.2692"/>
</g>
<!-- step4_str_check_add_hydrogens&#45;&gt;step5_autodock_vina_run -->
<g id="edge15" class="edge">
<title>step4_str_check_add_hydrogens&#45;&gt;step5_autodock_vina_run</title>
<path fill="none" stroke="#000000" d="M2104.3778,-215.4245C2045.8863,-200.404 1927.6121,-171.1488 1826,-153 1798.8492,-148.1506 1768.4927,-144.0669 1743.0914,-141.0214"/>
<polygon fill="#000000" stroke="#000000" points="1743.3045,-138.5796 1736.0651,-140.1902 1742.7288,-143.4457 1743.3045,-138.5796"/>
<text text-anchor="middle" x="2045.5" y="-178.1" font-family="Helvetica,sans-Serif" font-size="8.00" fill="#000000">input_receptor_pdbqt_path</text>
</g>
<!-- step5_autodock_vina_run&#45;&gt;step5_autodock_vina_run_out1 -->
<g id="edge27" class="edge">
<title>step5_autodock_vina_run&#45;&gt;step5_autodock_vina_run_out1</title>
<path fill="none" stroke="#000000" d="M1675.1211,-125.3684C1655.5092,-109.4669 1616.2661,-77.6482 1593.4817,-59.1743"/>
<polygon fill="#000000" stroke="#000000" points="1594.7739,-57.0679 1587.7935,-54.5623 1591.6878,-60.874 1594.7739,-57.0679"/>
</g>
<!-- step5_autodock_vina_run&#45;&gt;step5_autodock_vina_run_out2 -->
<g id="edge28" class="edge">
<title>step5_autodock_vina_run&#45;&gt;step5_autodock_vina_run_out2</title>
<path fill="none" stroke="#000000" d="M1685.3947,-125.3684C1682.8685,-110.2113 1677.932,-80.5921 1674.8089,-61.8532"/>
<polygon fill="#000000" stroke="#000000" points="1677.1613,-61.0643 1673.5937,-54.5623 1672.3279,-61.8699 1677.1613,-61.0643"/>
</g>
<!-- step5_autodock_vina_run&#45;&gt;step6_babel_convert_pose_pdb -->
<g id="edge20" class="edge">
<title>step5_autodock_vina_run&#45;&gt;step6_babel_convert_pose_pdb</title>
<path fill="none" stroke="#000000" d="M1736.1008,-132.3696C1886.0421,-124.337 2336.5509,-100.2026 2481.5248,-92.4362"/>
<polygon fill="#000000" stroke="#000000" points="2481.7441,-94.878 2488.6029,-92.057 2481.4819,-89.9851 2481.7441,-94.878"/>
<text text-anchor="middle" x="2201" y="-110.6" font-family="Helvetica,sans-Serif" font-size="8.00" fill="#000000">input_path</text>
</g>
<!-- step6_babel_convert_pose_pdb&#45;&gt;step6_babel_convert_pose_pdb_out1 -->
<g id="edge29" class="edge">
<title>step6_babel_convert_pose_pdb&#45;&gt;step6_babel_convert_pose_pdb_out1</title>
<path fill="none" stroke="#000000" d="M2488.779,-87.3861C2373.5244,-79.5039 2029.9917,-56.0101 1910.5109,-47.8389"/>
<polygon fill="#000000" stroke="#000000" points="1910.4558,-45.3795 1903.3049,-47.3461 1910.1214,-50.2681 1910.4558,-45.3795"/>
</g>
</g>
</svg>
