<?xml version="1.0" encoding="UTF-8" standalone="no"?>
<!DOCTYPE svg PUBLIC "-//W3C//DTD SVG 1.1//EN"
 "http://www.w3.org/Graphics/SVG/1.1/DTD/svg11.dtd">
<!-- Generated by graphviz version 2.40.1 (20161225.0304)
 -->
<!-- Title: workflow Pages: 1 -->
<svg width="311pt" height="341pt"
 viewBox="0.00 0.00 311.00 341.00" xmlns="http://www.w3.org/2000/svg" xmlns:xlink="http://www.w3.org/1999/xlink">
<g id="graph0" class="graph" transform="scale(1 1) rotate(0) translate(4 337)">
<title>workflow</title>
<polygon fill="#ffffff" stroke="transparent" points="-4,4 -4,-337 307,-337 307,4 -4,4"/>
<g id="clust1" class="cluster">
<title>cluster_inputs</title>
<polygon fill="none" stroke="#000000" stroke-dasharray="5,2" points="8,-270 8,-325 295,-325 295,-270 8,-270"/>
<text text-anchor="middle" x="52" y="-313" font-family="Helvetica,sans-Serif" font-size="10.00" fill="#000000">Workflow Inputs</text>
</g>
<!-- #main/CLM&#45;FATES restart file -->
<g id="node1" class="node">
<title>#main/CLM&#45;FATES restart file</title>
<polygon fill="#94ddf4" stroke="#000000" points="16.5,-278.5 16.5,-297.5 135.5,-297.5 135.5,-278.5 16.5,-278.5"/>
<text text-anchor="middle" x="76" y="-285.5" font-family="Helvetica,sans-Serif" font-size="10.00" fill="#000000">CLM&#45;FATES restart file</text>
</g>
<!-- #main/2_CTSM_FATES&#45;EMERALD -->
<g id="node3" class="node">
<title>#main/2_CTSM_FATES&#45;EMERALD</title>
<polygon fill="#fafad2" stroke="#000000" points="71.5,-225.5 71.5,-244.5 216.5,-244.5 216.5,-225.5 71.5,-225.5"/>
<text text-anchor="middle" x="144" y="-232.5" font-family="Helvetica,sans-Serif" font-size="10.00" fill="#000000">2_CTSM_FATES&#45;EMERALD</text>
</g>
<!-- #main/CLM&#45;FATES restart file&#45;&gt;#main/2_CTSM_FATES&#45;EMERALD -->
<g id="edge1" class="edge">
<title>#main/CLM&#45;FATES restart file&#45;&gt;#main/2_CTSM_FATES&#45;EMERALD</title>
<path fill="none" stroke="#000000" d="M75.3807,-278.4958C75.4029,-270.6974 76.7281,-259.8602 83,-253 84.9464,-250.871 88.6394,-248.8612 93.2849,-247.0107"/>
<polygon fill="#000000" stroke="#000000" points="94.3519,-249.2322 100.1356,-244.5897 92.7192,-244.6122 94.3519,-249.2322"/>
<text text-anchor="middle" x="144.5" y="-255.6" font-family="Helvetica,sans-Serif" font-size="8.00" fill="#000000">adv_period|condi_type_run|restart</text>
</g>
<!-- #main/Input dataset for CLM&#45;FATES -->
<g id="node2" class="node">
<title>#main/Input dataset for CLM&#45;FATES</title>
<polygon fill="#94ddf4" stroke="#000000" points="139.5,-278.5 139.5,-297.5 286.5,-297.5 286.5,-278.5 139.5,-278.5"/>
<text text-anchor="middle" x="213" y="-285.5" font-family="Helvetica,sans-Serif" font-size="10.00" fill="#000000">Input dataset for CLM&#45;FATES</text>
</g>
<!-- #main/Input dataset for CLM&#45;FATES&#45;&gt;#main/2_CTSM_FATES&#45;EMERALD -->
<g id="edge2" class="edge">
<title>#main/Input dataset for CLM&#45;FATES&#45;&gt;#main/2_CTSM_FATES&#45;EMERALD</title>
<path fill="none" stroke="#000000" d="M212.6931,-278.4454C211.9344,-270.6163 209.6429,-259.7623 203,-253 200.9157,-250.8782 196.9581,-248.8297 192.0384,-246.9227"/>
<polygon fill="#000000" stroke="#000000" points="192.7771,-244.5856 185.3607,-244.5878 191.1598,-249.211 192.7771,-244.5856"/>
<text text-anchor="middle" x="225" y="-255.6" font-family="Helvetica,sans-Serif" font-size="8.00" fill="#000000">inputdata</text>
</g>
<!-- #main/3_Extract Dataset -->
<g id="node4" class="node">
<title>#main/3_Extract Dataset</title>
<polygon fill="#fafad2" stroke="#000000" points="96,-180.5 96,-199.5 192,-199.5 192,-180.5 96,-180.5"/>
<text text-anchor="middle" x="144" y="-187.5" font-family="Helvetica,sans-Serif" font-size="10.00" fill="#000000">3_Extract Dataset</text>
</g>
<!-- #main/2_CTSM_FATES&#45;EMERALD&#45;&gt;#main/3_Extract Dataset -->
<g id="edge3" class="edge">
<title>#main/2_CTSM_FATES&#45;EMERALD&#45;&gt;#main/3_Extract Dataset</title>
<path fill="none" stroke="#000000" d="M144,-225.4567C144,-219.9678 144,-212.9184 144,-206.5532"/>
<polygon fill="#000000" stroke="#000000" points="146.4501,-206.5296 144,-199.5296 141.5501,-206.5296 146.4501,-206.5296"/>
<text text-anchor="middle" x="153" y="-210.6" font-family="Helvetica,sans-Serif" font-size="8.00" fill="#000000">input</text>
</g>
<!-- #main/4_NetCDF xarray Metadata Info -->
<g id="node5" class="node">
<title>#main/4_NetCDF xarray Metadata Info</title>
<polygon fill="#fafad2" stroke="#000000" points="21.5,-135.5 21.5,-154.5 178.5,-154.5 178.5,-135.5 21.5,-135.5"/>
<text text-anchor="middle" x="100" y="-142.5" font-family="Helvetica,sans-Serif" font-size="10.00" fill="#000000">4_NetCDF xarray Metadata Info</text>
</g>
<!-- #main/3_Extract Dataset&#45;&gt;#main/4_NetCDF xarray Metadata Info -->
<g id="edge4" class="edge">
<title>#main/3_Extract Dataset&#45;&gt;#main/4_NetCDF xarray Metadata Info</title>
<path fill="none" stroke="#000000" d="M134.6687,-180.4567C128.8352,-174.4905 121.1989,-166.6807 114.5783,-159.9096"/>
<polygon fill="#000000" stroke="#000000" points="115.9634,-157.8218 109.3178,-154.5296 112.4599,-161.2475 115.9634,-157.8218"/>
<text text-anchor="middle" x="134" y="-165.6" font-family="Helvetica,sans-Serif" font-size="8.00" fill="#000000">input</text>
</g>
<!-- #main/5_NetCDF xarray Selection -->
<g id="node6" class="node">
<title>#main/5_NetCDF xarray Selection</title>
<polygon fill="#fafad2" stroke="#000000" points="75.5,-90.5 75.5,-109.5 212.5,-109.5 212.5,-90.5 75.5,-90.5"/>
<text text-anchor="middle" x="144" y="-97.5" font-family="Helvetica,sans-Serif" font-size="10.00" fill="#000000">5_NetCDF xarray Selection</text>
</g>
<!-- #main/3_Extract Dataset&#45;&gt;#main/5_NetCDF xarray Selection -->
<g id="edge5" class="edge">
<title>#main/3_Extract Dataset&#45;&gt;#main/5_NetCDF xarray Selection</title>
<path fill="none" stroke="#000000" d="M157.983,-180.4108C165.7662,-174.1852 174.7249,-165.3209 179,-155 182.4016,-146.7877 182.4016,-143.2123 179,-135 175.7269,-127.098 169.7083,-120.0499 163.5738,-114.3862"/>
<polygon fill="#000000" stroke="#000000" points="164.8909,-112.288 157.983,-109.5892 161.7002,-116.0068 164.8909,-112.288"/>
<text text-anchor="middle" x="190" y="-143.1" font-family="Helvetica,sans-Serif" font-size="8.00" fill="#000000">input</text>
</g>
<!-- #main/4_NetCDF xarray Metadata Info&#45;&gt;#main/5_NetCDF xarray Selection -->
<g id="edge6" class="edge">
<title>#main/4_NetCDF xarray Metadata Info&#45;&gt;#main/5_NetCDF xarray Selection</title>
<path fill="none" stroke="#000000" d="M109.3313,-135.4567C115.1648,-129.4905 122.8011,-121.6807 129.4217,-114.9096"/>
<polygon fill="#000000" stroke="#000000" points="131.5401,-116.2475 134.6822,-109.5296 128.0366,-112.8218 131.5401,-116.2475"/>
<text text-anchor="middle" x="139" y="-120.6" font-family="Helvetica,sans-Serif" font-size="8.00" fill="#000000">var_tab</text>
</g>
<!-- #main/6_Replace -->
<g id="node7" class="node">
<title>#main/6_Replace</title>
<polygon fill="#fafad2" stroke="#000000" points="112.5,-45.5 112.5,-64.5 175.5,-64.5 175.5,-45.5 112.5,-45.5"/>
<text text-anchor="middle" x="144" y="-52.5" font-family="Helvetica,sans-Serif" font-size="10.00" fill="#000000">6_Replace</text>
</g>
<!-- #main/5_NetCDF xarray Selection&#45;&gt;#main/6_Replace -->
<g id="edge7" class="edge">
<title>#main/5_NetCDF xarray Selection&#45;&gt;#main/6_Replace</title>
<path fill="none" stroke="#000000" d="M144,-90.4567C144,-84.9678 144,-77.9184 144,-71.5532"/>
<polygon fill="#000000" stroke="#000000" points="146.4501,-71.5296 144,-64.5296 141.5501,-71.5296 146.4501,-71.5296"/>
<text text-anchor="middle" x="152" y="-75.6" font-family="Helvetica,sans-Serif" font-size="8.00" fill="#000000">infile</text>
</g>
<!-- #main/7_Scatterplot with ggplot2 -->
<g id="node8" class="node">
<title>#main/7_Scatterplot with ggplot2</title>
<polygon fill="#fafad2" stroke="#000000" points="79,-.5 79,-19.5 209,-19.5 209,-.5 79,-.5"/>
<text text-anchor="middle" x="144" y="-7.5" font-family="Helvetica,sans-Serif" font-size="10.00" fill="#000000">7_Scatterplot with ggplot2</text>
</g>
<!-- #main/6_Replace&#45;&gt;#main/7_Scatterplot with ggplot2 -->
<g id="edge8" class="edge">
<title>#main/6_Replace&#45;&gt;#main/7_Scatterplot with ggplot2</title>
<path fill="none" stroke="#000000" d="M144,-45.4567C144,-39.9678 144,-32.9184 144,-26.5532"/>
<polygon fill="#000000" stroke="#000000" points="146.4501,-26.5296 144,-19.5296 141.5501,-26.5296 146.4501,-26.5296"/>
<text text-anchor="middle" x="155" y="-30.6" font-family="Helvetica,sans-Serif" font-size="8.00" fill="#000000">input1</text>
</g>
</g>
</svg>
