<?xml version="1.0" encoding="UTF-8" standalone="no"?>
<!DOCTYPE svg PUBLIC "-//W3C//DTD SVG 1.1//EN"
 "http://www.w3.org/Graphics/SVG/1.1/DTD/svg11.dtd">
<!-- Generated by graphviz version 2.40.1 (20161225.0304)
 -->
<!-- Title: workflow Pages: 1 -->
<svg width="1547pt" height="680pt"
 viewBox="0.00 0.00 1547.00 679.50" xmlns="http://www.w3.org/2000/svg" xmlns:xlink="http://www.w3.org/1999/xlink">
<g id="graph0" class="graph" transform="scale(1 1) rotate(0) translate(4 675.5)">
<title>workflow</title>
<polygon fill="#ffffff" stroke="transparent" points="-4,4 -4,-675.5 1543,-675.5 1543,4 -4,4"/>
<g id="clust1" class="cluster">
<title>cluster_inputs</title>
<polygon fill="none" stroke="#000000" stroke-dasharray="5,2" points="69,-540 69,-614 1463,-614 1463,-540 69,-540"/>
<text text-anchor="middle" x="113" y="-602" font-family="Helvetica,sans-Serif" font-size="10.00" fill="#000000">Workflow Inputs</text>
</g>
<!-- CPAT_header_tab -->
<g id="node1" class="node">
<title>CPAT_header_tab</title>
<polygon fill="#94ddf4" stroke="#000000" points="723.5,-548.5 723.5,-567.5 820.5,-567.5 820.5,-548.5 723.5,-548.5"/>
<text text-anchor="middle" x="772" y="-555.5" font-family="Helvetica,sans-Serif" font-size="10.00" fill="#000000">CPAT_header_tab</text>
</g>
<!-- 32_Concatenate datasets -->
<g id="node33" class="node">
<title>32_Concatenate datasets</title>
<polygon fill="#fafad2" stroke="#000000" points="295,-45.5 295,-64.5 423,-64.5 423,-45.5 295,-45.5"/>
<text text-anchor="middle" x="359" y="-52.5" font-family="Helvetica,sans-Serif" font-size="10.00" fill="#000000">32_Concatenate datasets</text>
</g>
<!-- CPAT_header_tab&#45;&gt;32_Concatenate datasets -->
<g id="edge46" class="edge">
<title>CPAT_header_tab&#45;&gt;32_Concatenate datasets</title>
<path fill="none" stroke="#000000" d="M749.1,-548.441C740.1771,-545.1518 729.7642,-541.8367 720,-540 629.5183,-522.9796 602.9323,-551.7184 513,-532 493.7312,-527.7752 487.8478,-526.7466 472,-515 430.3973,-484.1635 421.5439,-471.1234 398,-425 384.424,-398.404 388.9037,-388.7956 381,-360 371.2077,-324.3236 358,-316.9958 358,-280 358,-280 358,-280 358,-100 358,-90.6666 358.2177,-80.2471 358.4499,-71.7865"/>
<polygon fill="#000000" stroke="#000000" points="360.9027,-71.7242 358.6614,-64.6546 356.0049,-71.5788 360.9027,-71.7242"/>
<text text-anchor="middle" x="373" y="-300.6" font-family="Helvetica,sans-Serif" font-size="8.00" fill="#000000">inputs</text>
</g>
<!-- GRCh38_p13_genome_fa_gz -->
<g id="node2" class="node">
<title>GRCh38_p13_genome_fa_gz</title>
<polygon fill="#94ddf4" stroke="#000000" points="985.5,-548.5 985.5,-567.5 1130.5,-567.5 1130.5,-548.5 985.5,-548.5"/>
<text text-anchor="middle" x="1058" y="-555.5" font-family="Helvetica,sans-Serif" font-size="10.00" fill="#000000">GRCh38_p13_genome_fa_gz</text>
</g>
<!-- 13_RNA STAR -->
<g id="node14" class="node">
<title>13_RNA STAR</title>
<polygon fill="#fafad2" stroke="#000000" points="983,-495.5 983,-514.5 1067,-514.5 1067,-495.5 983,-495.5"/>
<text text-anchor="middle" x="1025" y="-502.5" font-family="Helvetica,sans-Serif" font-size="10.00" fill="#000000">13_RNA STAR</text>
</g>
<!-- GRCh38_p13_genome_fa_gz&#45;&gt;13_RNA STAR -->
<g id="edge5" class="edge">
<title>GRCh38_p13_genome_fa_gz&#45;&gt;13_RNA STAR</title>
<path fill="none" stroke="#000000" d="M1097.0823,-548.4351C1109.2046,-545.5839 1122.6286,-542.5438 1135,-540 1144.9487,-537.9544 1173.4768,-539.7851 1180,-532 1182.569,-528.934 1182.6603,-525.9871 1180,-523 1172.9598,-515.0949 1116.7382,-510.1329 1074.0142,-507.4669"/>
<polygon fill="#000000" stroke="#000000" points="1074.1505,-505.0208 1067.0151,-507.0429 1073.8541,-509.9118 1074.1505,-505.0208"/>
<text text-anchor="middle" x="1248.5" y="-525.6" font-family="Helvetica,sans-Serif" font-size="8.00" fill="#000000">refGenomeSource|genomeFastaFiles</text>
</g>
<!-- 28_CPAT -->
<g id="node29" class="node">
<title>28_CPAT</title>
<polygon fill="#fafad2" stroke="#000000" points="558.5,-180.5 558.5,-199.5 617.5,-199.5 617.5,-180.5 558.5,-180.5"/>
<text text-anchor="middle" x="588" y="-187.5" font-family="Helvetica,sans-Serif" font-size="10.00" fill="#000000">28_CPAT</text>
</g>
<!-- GRCh38_p13_genome_fa_gz&#45;&gt;28_CPAT -->
<g id="edge39" class="edge">
<title>GRCh38_p13_genome_fa_gz&#45;&gt;28_CPAT</title>
<path fill="none" stroke="#000000" d="M1092.6249,-548.463C1105.791,-545.2186 1120.9918,-541.9282 1135,-540 1155.0527,-537.2399 1298.4737,-540.155 1317,-532 1332.5323,-525.1629 1344,-521.9706 1344,-505 1344,-505 1344,-505 1344,-235 1344,-198.5537 776.7246,-191.4832 624.9622,-190.2437"/>
<polygon fill="#000000" stroke="#000000" points="624.6553,-187.7913 617.6361,-190.1858 624.6165,-192.6912 624.6553,-187.7913"/>
<text text-anchor="middle" x="1346" y="-368.1" font-family="Helvetica,sans-Serif" font-size="8.00" fill="#000000">r</text>
</g>
<!-- Input Dataset Collection -->
<g id="node3" class="node">
<title>Input Dataset Collection</title>
<polygon fill="#94ddf4" stroke="#000000" points="1135,-548.5 1135,-567.5 1257,-567.5 1257,-548.5 1135,-548.5"/>
<text text-anchor="middle" x="1196" y="-555.5" font-family="Helvetica,sans-Serif" font-size="10.00" fill="#000000">Input Dataset Collection</text>
</g>
<!-- 11_fastp -->
<g id="node12" class="node">
<title>11_fastp</title>
<polygon fill="#fafad2" stroke="#000000" points="1471,-548.5 1471,-567.5 1525,-567.5 1525,-548.5 1471,-548.5"/>
<text text-anchor="middle" x="1498" y="-555.5" font-family="Helvetica,sans-Serif" font-size="10.00" fill="#000000">11_fastp</text>
</g>
<!-- Input Dataset Collection&#45;&gt;11_fastp -->
<g id="edge2" class="edge">
<title>Input Dataset Collection&#45;&gt;11_fastp</title>
<path fill="none" stroke="#000000" d="M1203.5034,-567.8576C1214.4292,-581.3016 1236.1451,-604.7698 1261,-614 1303.2892,-629.7046 1424.6863,-636.1234 1464,-614 1478.8868,-605.6226 1488.0085,-587.8006 1493.0058,-574.499"/>
<polygon fill="#000000" stroke="#000000" points="1495.3973,-575.0794 1495.3681,-567.663 1490.7661,-573.4789 1495.3973,-575.0794"/>
<text text-anchor="middle" x="1364" y="-624.6" font-family="Helvetica,sans-Serif" font-size="8.00" fill="#000000">single_paired|paired_input</text>
</g>
<!-- 12_Flatten collection -->
<g id="node13" class="node">
<title>12_Flatten collection</title>
<polygon fill="#fafad2" stroke="#000000" points="1363.5,-495.5 1363.5,-514.5 1470.5,-514.5 1470.5,-495.5 1363.5,-495.5"/>
<text text-anchor="middle" x="1417" y="-502.5" font-family="Helvetica,sans-Serif" font-size="10.00" fill="#000000">12_Flatten collection</text>
</g>
<!-- Input Dataset Collection&#45;&gt;12_Flatten collection -->
<g id="edge3" class="edge">
<title>Input Dataset Collection&#45;&gt;12_Flatten collection</title>
<path fill="none" stroke="#000000" d="M1225.1416,-548.4565C1236.2457,-545.2114 1249.0934,-541.9222 1261,-540 1278.5725,-537.1632 1408.7318,-544.8969 1421,-532 1423.6945,-529.1675 1424.2368,-525.3565 1423.7344,-521.4919"/>
<polygon fill="#000000" stroke="#000000" points="1426.0919,-520.8232 1421.9407,-514.6775 1421.3533,-522.0706 1426.0919,-520.8232"/>
<text text-anchor="middle" x="1432" y="-525.6" font-family="Helvetica,sans-Serif" font-size="8.00" fill="#000000">input</text>
</g>
<!-- Pfam&#45;A_hmm_dat_gz -->
<g id="node4" class="node">
<title>Pfam&#45;A_hmm_dat_gz</title>
<polygon fill="#94ddf4" stroke="#000000" points="76.5,-548.5 76.5,-567.5 187.5,-567.5 187.5,-548.5 76.5,-548.5"/>
<text text-anchor="middle" x="132" y="-555.5" font-family="Helvetica,sans-Serif" font-size="10.00" fill="#000000">Pfam&#45;A_hmm_dat_gz</text>
</g>
<!-- 29_PfamScan -->
<g id="node30" class="node">
<title>29_PfamScan</title>
<polygon fill="#fafad2" stroke="#000000" points="206,-180.5 206,-199.5 284,-199.5 284,-180.5 206,-180.5"/>
<text text-anchor="middle" x="245" y="-187.5" font-family="Helvetica,sans-Serif" font-size="10.00" fill="#000000">29_PfamScan</text>
</g>
<!-- Pfam&#45;A_hmm_dat_gz&#45;&gt;29_PfamScan -->
<g id="edge42" class="edge">
<title>Pfam&#45;A_hmm_dat_gz&#45;&gt;29_PfamScan</title>
<path fill="none" stroke="#000000" d="M141.4922,-548.3674C150.2813,-538.3909 162,-521.9171 162,-505 162,-505 162,-505 162,-235 162,-215.4988 179.9264,-204.4044 199.117,-198.1147"/>
<polygon fill="#000000" stroke="#000000" points="199.9216,-200.4315 205.9304,-196.0844 198.5222,-195.7355 199.9216,-200.4315"/>
<text text-anchor="middle" x="181.5" y="-368.1" font-family="Helvetica,sans-Serif" font-size="8.00" fill="#000000">pfam_data</text>
</g>
<!-- Pfam&#45;A_hmm_gz -->
<g id="node5" class="node">
<title>Pfam&#45;A_hmm_gz</title>
<polygon fill="#94ddf4" stroke="#000000" points="192,-548.5 192,-567.5 284,-567.5 284,-548.5 192,-548.5"/>
<text text-anchor="middle" x="238" y="-555.5" font-family="Helvetica,sans-Serif" font-size="10.00" fill="#000000">Pfam&#45;A_hmm_gz</text>
</g>
<!-- Pfam&#45;A_hmm_gz&#45;&gt;29_PfamScan -->
<g id="edge43" class="edge">
<title>Pfam&#45;A_hmm_gz&#45;&gt;29_PfamScan</title>
<path fill="none" stroke="#000000" d="M238,-548.2317C238,-537.5974 238,-520.0903 238,-505 238,-505 238,-505 238,-235 238,-225.5567 239.5237,-215.1298 241.1493,-206.6926"/>
<polygon fill="#000000" stroke="#000000" points="243.6,-206.9415 242.6301,-199.5889 238.8031,-205.9416 243.6,-206.9415"/>
<text text-anchor="middle" x="260.5" y="-368.1" font-family="Helvetica,sans-Serif" font-size="8.00" fill="#000000">pfam_library</text>
</g>
<!-- active_site_dat_gz -->
<g id="node6" class="node">
<title>active_site_dat_gz</title>
<polygon fill="#94ddf4" stroke="#000000" points="288,-548.5 288,-567.5 386,-567.5 386,-548.5 288,-548.5"/>
<text text-anchor="middle" x="337" y="-555.5" font-family="Helvetica,sans-Serif" font-size="10.00" fill="#000000">active_site_dat_gz</text>
</g>
<!-- active_site_dat_gz&#45;&gt;29_PfamScan -->
<g id="edge40" class="edge">
<title>active_site_dat_gz&#45;&gt;29_PfamScan</title>
<path fill="none" stroke="#000000" d="M320.9114,-548.3992C307.6464,-539.1312 291,-523.763 291,-505 291,-505 291,-505 291,-235 291,-221.7088 281.0656,-211.0526 270.4302,-203.4527"/>
<polygon fill="#000000" stroke="#000000" points="271.7007,-201.3558 264.5081,-199.5476 269.0033,-205.4465 271.7007,-201.3558"/>
<text text-anchor="middle" x="330" y="-368.1" font-family="Helvetica,sans-Serif" font-size="8.00" fill="#000000">active_sites|active_file</text>
</g>
<!-- gencode_v43_annotation_gtf_gz -->
<g id="node7" class="node">
<title>gencode_v43_annotation_gtf_gz</title>
<polygon fill="#94ddf4" stroke="#000000" points="824.5,-548.5 824.5,-567.5 981.5,-567.5 981.5,-548.5 824.5,-548.5"/>
<text text-anchor="middle" x="903" y="-555.5" font-family="Helvetica,sans-Serif" font-size="10.00" fill="#000000">gencode_v43_annotation_gtf_gz</text>
</g>
<!-- 10_Convert GTF to BED12 -->
<g id="node11" class="node">
<title>10_Convert GTF to BED12</title>
<polygon fill="#fafad2" stroke="#000000" points="743.5,-495.5 743.5,-514.5 878.5,-514.5 878.5,-495.5 743.5,-495.5"/>
<text text-anchor="middle" x="811" y="-502.5" font-family="Helvetica,sans-Serif" font-size="10.00" fill="#000000">10_Convert GTF to BED12</text>
</g>
<!-- gencode_v43_annotation_gtf_gz&#45;&gt;10_Convert GTF to BED12 -->
<g id="edge1" class="edge">
<title>gencode_v43_annotation_gtf_gz&#45;&gt;10_Convert GTF to BED12</title>
<path fill="none" stroke="#000000" d="M886.1258,-548.279C871.4713,-539.8367 850.1172,-527.5349 833.918,-518.2028"/>
<polygon fill="#000000" stroke="#000000" points="835.0558,-516.0308 827.7672,-514.6594 832.6097,-520.2766 835.0558,-516.0308"/>
<text text-anchor="middle" x="869" y="-525.6" font-family="Helvetica,sans-Serif" font-size="8.00" fill="#000000">gtf_file</text>
</g>
<!-- gencode_v43_annotation_gtf_gz&#45;&gt;13_RNA STAR -->
<g id="edge4" class="edge">
<title>gencode_v43_annotation_gtf_gz&#45;&gt;13_RNA STAR</title>
<path fill="none" stroke="#000000" d="M925.0933,-548.4021C945.1309,-539.6972 974.7814,-526.8163 996.5781,-517.3472"/>
<polygon fill="#000000" stroke="#000000" points="997.627,-519.5628 1003.0711,-514.5265 995.6745,-515.0686 997.627,-519.5628"/>
<text text-anchor="middle" x="1065" y="-525.6" font-family="Helvetica,sans-Serif" font-size="8.00" fill="#000000">refGenomeSource|GTFconditional|sjdbGTFfile</text>
</g>
<!-- 15_StringTie -->
<g id="node16" class="node">
<title>15_StringTie</title>
<polygon fill="#fafad2" stroke="#000000" points="1265.5,-450.5 1265.5,-469.5 1336.5,-469.5 1336.5,-450.5 1265.5,-450.5"/>
<text text-anchor="middle" x="1301" y="-457.5" font-family="Helvetica,sans-Serif" font-size="10.00" fill="#000000">15_StringTie</text>
</g>
<!-- gencode_v43_annotation_gtf_gz&#45;&gt;15_StringTie -->
<g id="edge8" class="edge">
<title>gencode_v43_annotation_gtf_gz&#45;&gt;15_StringTie</title>
<path fill="none" stroke="#000000" d="M940.7837,-548.4332C954.8848,-545.2265 971.0899,-541.969 986,-540 1057.9073,-530.5039 1078.6468,-549.6428 1149,-532 1174.7966,-525.5309 1240.8436,-491.8123 1276.7973,-472.8996"/>
<polygon fill="#000000" stroke="#000000" points="1278.0966,-474.9842 1283.144,-469.5504 1275.8096,-470.6506 1278.0966,-474.9842"/>
<text text-anchor="middle" x="1280.5" y="-503.1" font-family="Helvetica,sans-Serif" font-size="8.00" fill="#000000">guide|guide_source|ref_hist</text>
</g>
<!-- 26_IsoformSwitchAnalyzeR -->
<g id="node27" class="node">
<title>26_IsoformSwitchAnalyzeR</title>
<polygon fill="#fafad2" stroke="#000000" points="438,-270.5 438,-289.5 576,-289.5 576,-270.5 438,-270.5"/>
<text text-anchor="middle" x="507" y="-277.5" font-family="Helvetica,sans-Serif" font-size="10.00" fill="#000000">26_IsoformSwitchAnalyzeR</text>
</g>
<!-- gencode_v43_annotation_gtf_gz&#45;&gt;26_IsoformSwitchAnalyzeR -->
<g id="edge32" class="edge">
<title>gencode_v43_annotation_gtf_gz&#45;&gt;26_IsoformSwitchAnalyzeR</title>
<path fill="none" stroke="#000000" d="M860.0485,-548.4179C847.4737,-545.6542 833.6948,-542.6662 821,-540 647.3592,-503.5312 514.0204,-600.3598 434,-442 432.196,-438.4299 431.35,-435.9962 434,-433 453.2837,-411.1975 477.2319,-444.3225 499,-425 510.125,-415.1249 507,-407.3756 507,-392.5 507,-392.5 507,-392.5 507,-325 507,-315.6689 507,-305.2495 507,-296.7884"/>
<polygon fill="#000000" stroke="#000000" points="509.4501,-296.6559 507,-289.656 504.5501,-296.656 509.4501,-296.6559"/>
<text text-anchor="middle" x="567" y="-413.1" font-family="Helvetica,sans-Serif" font-size="8.00" fill="#000000">functionMode|genomeAnnotation</text>
</g>
<!-- gencode_v43_lncRNA_transcripts_fa_gz -->
<g id="node8" class="node">
<title>gencode_v43_lncRNA_transcripts_fa_gz</title>
<polygon fill="#94ddf4" stroke="#000000" points="1261,-548.5 1261,-567.5 1455,-567.5 1455,-548.5 1261,-548.5"/>
<text text-anchor="middle" x="1358" y="-555.5" font-family="Helvetica,sans-Serif" font-size="10.00" fill="#000000">gencode_v43_lncRNA_transcripts_fa_gz</text>
</g>
<!-- gencode_v43_lncRNA_transcripts_fa_gz&#45;&gt;28_CPAT -->
<g id="edge38" class="edge">
<title>gencode_v43_lncRNA_transcripts_fa_gz&#45;&gt;28_CPAT</title>
<path fill="none" stroke="#000000" d="M1405.1648,-548.4684C1457.2981,-537.2615 1534,-518.4824 1534,-505 1534,-505 1534,-505 1534,-235 1534,-170.0556 1307.8276,-211.8941 1243,-208 1007.8668,-193.8759 724.5767,-190.8241 624.8709,-190.1734"/>
<polygon fill="#000000" stroke="#000000" points="624.7492,-187.7227 617.7341,-190.1289 624.7186,-192.6226 624.7492,-187.7227"/>
<text text-anchor="middle" x="1536.5" y="-368.1" font-family="Helvetica,sans-Serif" font-size="8.00" fill="#000000">n</text>
</g>
<!-- gencode_v43_pc_transcripts_fa_gz -->
<g id="node9" class="node">
<title>gencode_v43_pc_transcripts_fa_gz</title>
<polygon fill="#94ddf4" stroke="#000000" points="390,-548.5 390,-567.5 560,-567.5 560,-548.5 390,-548.5"/>
<text text-anchor="middle" x="475" y="-555.5" font-family="Helvetica,sans-Serif" font-size="10.00" fill="#000000">gencode_v43_pc_transcripts_fa_gz</text>
</g>
<!-- gencode_v43_pc_transcripts_fa_gz&#45;&gt;28_CPAT -->
<g id="edge36" class="edge">
<title>gencode_v43_pc_transcripts_fa_gz&#45;&gt;28_CPAT</title>
<path fill="none" stroke="#000000" d="M431.5916,-548.4274C413.7621,-543.7841 395.7246,-537.9347 389,-532 379.1542,-523.3107 377,-518.1318 377,-505 377,-505 377,-505 377,-370 377,-318.3966 393.1054,-298.6874 436,-270 454.4645,-257.6512 461.4687,-258.462 483,-253 506.091,-247.1423 514.8875,-256.0349 536,-245 553.6143,-235.7935 568.5664,-218.267 577.8535,-205.4654"/>
<polygon fill="#000000" stroke="#000000" points="579.9392,-206.758 581.9443,-199.6178 575.9242,-203.9491 579.9392,-206.758"/>
<text text-anchor="middle" x="379" y="-368.1" font-family="Helvetica,sans-Serif" font-size="8.00" fill="#000000">c</text>
</g>
<!-- gencode_v43_transcripts_fa_gz -->
<g id="node10" class="node">
<title>gencode_v43_transcripts_fa_gz</title>
<polygon fill="#94ddf4" stroke="#000000" points="564.5,-548.5 564.5,-567.5 719.5,-567.5 719.5,-548.5 564.5,-548.5"/>
<text text-anchor="middle" x="642" y="-555.5" font-family="Helvetica,sans-Serif" font-size="10.00" fill="#000000">gencode_v43_transcripts_fa_gz</text>
</g>
<!-- gencode_v43_transcripts_fa_gz&#45;&gt;26_IsoformSwitchAnalyzeR -->
<g id="edge34" class="edge">
<title>gencode_v43_transcripts_fa_gz&#45;&gt;26_IsoformSwitchAnalyzeR</title>
<path fill="none" stroke="#000000" d="M604.6783,-548.424C590.7478,-545.2164 574.7367,-541.9606 560,-540 550.9027,-538.7897 401.3303,-538.6447 395,-532 378.4455,-514.6234 394.4391,-501.9934 395,-478 395.8891,-439.9688 399,-430.5416 399,-392.5 399,-392.5 399,-392.5 399,-325 399,-311.2724 429.1069,-299.4962 457.5288,-291.4375"/>
<polygon fill="#000000" stroke="#000000" points="458.2153,-293.7898 464.3155,-289.572 456.9165,-289.065 458.2153,-293.7898"/>
<text text-anchor="middle" x="449" y="-413.1" font-family="Helvetica,sans-Serif" font-size="8.00" fill="#000000">functionMode|transcriptome</text>
</g>
<!-- 16_Junction Annotation -->
<g id="node17" class="node">
<title>16_Junction Annotation</title>
<polygon fill="#fafad2" stroke="#000000" points="743.5,-450.5 743.5,-469.5 862.5,-469.5 862.5,-450.5 743.5,-450.5"/>
<text text-anchor="middle" x="803" y="-457.5" font-family="Helvetica,sans-Serif" font-size="10.00" fill="#000000">16_Junction Annotation</text>
</g>
<!-- 10_Convert GTF to BED12&#45;&gt;16_Junction Annotation -->
<g id="edge11" class="edge">
<title>10_Convert GTF to BED12&#45;&gt;16_Junction Annotation</title>
<path fill="none" stroke="#000000" d="M790.3657,-495.2905C787.4084,-492.9943 784.7723,-490.2462 783,-487 780.7463,-482.8719 781.8959,-478.666 784.5287,-474.8407"/>
<polygon fill="#000000" stroke="#000000" points="786.4023,-476.4207 789.2236,-469.5619 782.7409,-473.1642 786.4023,-476.4207"/>
<text text-anchor="middle" x="797" y="-480.6" font-family="Helvetica,sans-Serif" font-size="8.00" fill="#000000">refgene</text>
</g>
<!-- 17_Infer Experiment -->
<g id="node18" class="node">
<title>17_Infer Experiment</title>
<polygon fill="#fafad2" stroke="#000000" points="474,-450.5 474,-469.5 578,-469.5 578,-450.5 474,-450.5"/>
<text text-anchor="middle" x="526" y="-457.5" font-family="Helvetica,sans-Serif" font-size="10.00" fill="#000000">17_Infer Experiment</text>
</g>
<!-- 10_Convert GTF to BED12&#45;&gt;17_Infer Experiment -->
<g id="edge13" class="edge">
<title>10_Convert GTF to BED12&#45;&gt;17_Infer Experiment</title>
<path fill="none" stroke="#000000" d="M745.7826,-495.4815C701.7152,-488.9443 642.029,-479.8865 585.0871,-470.5033"/>
<polygon fill="#000000" stroke="#000000" points="585.4637,-468.0824 578.1578,-469.3575 584.6643,-472.9167 585.4637,-468.0824"/>
<text text-anchor="middle" x="702" y="-480.6" font-family="Helvetica,sans-Serif" font-size="8.00" fill="#000000">refgene</text>
</g>
<!-- 18_Read Distribution -->
<g id="node19" class="node">
<title>18_Read Distribution</title>
<polygon fill="#fafad2" stroke="#000000" points="867,-450.5 867,-469.5 975,-469.5 975,-450.5 867,-450.5"/>
<text text-anchor="middle" x="921" y="-457.5" font-family="Helvetica,sans-Serif" font-size="10.00" fill="#000000">18_Read Distribution</text>
</g>
<!-- 10_Convert GTF to BED12&#45;&gt;18_Read Distribution -->
<g id="edge15" class="edge">
<title>10_Convert GTF to BED12&#45;&gt;18_Read Distribution</title>
<path fill="none" stroke="#000000" d="M823.9553,-495.272C834.2404,-487.5507 846.9161,-478.0396 847,-478 852.0442,-475.6188 857.4355,-473.5336 862.9225,-471.7115"/>
<polygon fill="#000000" stroke="#000000" points="863.9474,-473.9586 869.905,-469.5417 862.4933,-469.2794 863.9474,-473.9586"/>
<text text-anchor="middle" x="861" y="-480.6" font-family="Helvetica,sans-Serif" font-size="8.00" fill="#000000">refgene</text>
</g>
<!-- 19_Gene Body Coverage (BAM) -->
<g id="node20" class="node">
<title>19_Gene Body Coverage (BAM)</title>
<polygon fill="#fafad2" stroke="#000000" points="582.5,-450.5 582.5,-469.5 739.5,-469.5 739.5,-450.5 582.5,-450.5"/>
<text text-anchor="middle" x="661" y="-457.5" font-family="Helvetica,sans-Serif" font-size="10.00" fill="#000000">19_Gene Body Coverage (BAM)</text>
</g>
<!-- 10_Convert GTF to BED12&#45;&gt;19_Gene Body Coverage (BAM) -->
<g id="edge17" class="edge">
<title>10_Convert GTF to BED12&#45;&gt;19_Gene Body Coverage (BAM)</title>
<path fill="none" stroke="#000000" d="M779.1889,-495.4567C755.9209,-488.4763 724.2401,-478.972 699.5355,-471.5606"/>
<polygon fill="#000000" stroke="#000000" points="700.1741,-469.1944 692.7653,-469.5296 698.766,-473.8878 700.1741,-469.1944"/>
<text text-anchor="middle" x="763" y="-480.6" font-family="Helvetica,sans-Serif" font-size="8.00" fill="#000000">refgene</text>
</g>
<!-- 20_Junction Saturation -->
<g id="node21" class="node">
<title>20_Junction Saturation</title>
<polygon fill="#fafad2" stroke="#000000" points="979,-450.5 979,-469.5 1095,-469.5 1095,-450.5 979,-450.5"/>
<text text-anchor="middle" x="1037" y="-457.5" font-family="Helvetica,sans-Serif" font-size="10.00" fill="#000000">20_Junction Saturation</text>
</g>
<!-- 10_Convert GTF to BED12&#45;&gt;20_Junction Saturation -->
<g id="edge19" class="edge">
<title>10_Convert GTF to BED12&#45;&gt;20_Junction Saturation</title>
<path fill="none" stroke="#000000" d="M850.8408,-495.4804C858.0591,-493.1335 865.3883,-490.3189 872,-487 877.9582,-484.0092 877.7739,-480.3834 884,-478 919.8436,-464.279 933.2359,-473.8305 971.9516,-470.2552"/>
<polygon fill="#000000" stroke="#000000" points="972.2403,-472.6883 978.9344,-469.4958 971.7105,-467.817 972.2403,-472.6883"/>
<text text-anchor="middle" x="898" y="-480.6" font-family="Helvetica,sans-Serif" font-size="8.00" fill="#000000">refgene</text>
</g>
<!-- 11_fastp&#45;&gt;13_RNA STAR -->
<g id="edge6" class="edge">
<title>11_fastp&#45;&gt;13_RNA STAR</title>
<path fill="none" stroke="#000000" d="M1482.9986,-548.3424C1477.2738,-545.1259 1470.5464,-541.8854 1464,-540 1417.7485,-526.6792 1403.5884,-539.2102 1356,-532 1338.4118,-529.3352 1334.6043,-525.556 1317,-523 1314.0382,-522.57 1157.0239,-513.0081 1074.5015,-507.9999"/>
<polygon fill="#000000" stroke="#000000" points="1074.375,-505.5379 1067.2394,-507.5593 1074.0782,-510.4289 1074.375,-505.5379"/>
<text text-anchor="middle" x="1388" y="-525.6" font-family="Helvetica,sans-Serif" font-size="8.00" fill="#000000">singlePaired|input</text>
</g>
<!-- 14_FastQC -->
<g id="node15" class="node">
<title>14_FastQC</title>
<polygon fill="#fafad2" stroke="#000000" points="1367.5,-450.5 1367.5,-469.5 1434.5,-469.5 1434.5,-450.5 1367.5,-450.5"/>
<text text-anchor="middle" x="1401" y="-457.5" font-family="Helvetica,sans-Serif" font-size="10.00" fill="#000000">14_FastQC</text>
</g>
<!-- 12_Flatten collection&#45;&gt;14_FastQC -->
<g id="edge7" class="edge">
<title>12_Flatten collection&#45;&gt;14_FastQC</title>
<path fill="none" stroke="#000000" d="M1413.6068,-495.4567C1411.6128,-489.8485 1409.0395,-482.6112 1406.7383,-476.139"/>
<polygon fill="#000000" stroke="#000000" points="1409.0419,-475.3043 1404.3883,-469.5296 1404.425,-476.9459 1409.0419,-475.3043"/>
<text text-anchor="middle" x="1426" y="-480.6" font-family="Helvetica,sans-Serif" font-size="8.00" fill="#000000">input_file</text>
</g>
<!-- 13_RNA STAR&#45;&gt;15_StringTie -->
<g id="edge9" class="edge">
<title>13_RNA STAR&#45;&gt;15_StringTie</title>
<path fill="none" stroke="#000000" d="M1067.2634,-497.199C1076.9641,-494.6196 1087.0511,-491.2776 1096,-487 1102.0148,-484.1249 1101.7323,-480.2716 1108,-478 1138.3299,-467.0077 1218.0136,-474.2039 1258.3083,-470.3065"/>
<polygon fill="#000000" stroke="#000000" points="1258.7033,-472.7265 1265.3531,-469.4428 1258.1069,-467.8629 1258.7033,-472.7265"/>
<text text-anchor="middle" x="1152" y="-480.6" font-family="Helvetica,sans-Serif" font-size="8.00" fill="#000000">input_options|input_bam</text>
</g>
<!-- 13_RNA STAR&#45;&gt;16_Junction Annotation -->
<g id="edge10" class="edge">
<title>13_RNA STAR&#45;&gt;16_Junction Annotation</title>
<path fill="none" stroke="#000000" d="M1003.1415,-495.3407C998.606,-492.9096 993.9958,-490.0984 990,-487 985.7707,-483.7205 986.8031,-480.3606 982,-478 960.7156,-467.5393 902.0952,-472.0495 869.8171,-470.0898"/>
<polygon fill="#000000" stroke="#000000" points="869.7754,-467.6277 862.5947,-469.4827 869.3649,-472.5105 869.7754,-467.6277"/>
<text text-anchor="middle" x="999" y="-480.6" font-family="Helvetica,sans-Serif" font-size="8.00" fill="#000000">input</text>
</g>
<!-- 13_RNA STAR&#45;&gt;17_Infer Experiment -->
<g id="edge12" class="edge">
<title>13_RNA STAR&#45;&gt;17_Infer Experiment</title>
<path fill="none" stroke="#000000" d="M982.613,-502.1543C923.6751,-498.0808 823.3241,-490.6747 816,-487 811.2165,-484.6 812.8426,-480.2784 808,-478 786.685,-467.9713 628.6629,-472.0527 584.9699,-470.0161"/>
<polygon fill="#000000" stroke="#000000" points="584.9827,-467.5612 577.83,-469.5212 584.6438,-472.4495 584.9827,-467.5612"/>
<text text-anchor="middle" x="825" y="-480.6" font-family="Helvetica,sans-Serif" font-size="8.00" fill="#000000">input</text>
</g>
<!-- 13_RNA STAR&#45;&gt;18_Read Distribution -->
<g id="edge14" class="edge">
<title>13_RNA STAR&#45;&gt;18_Read Distribution</title>
<path fill="none" stroke="#000000" d="M1020.3272,-495.3248C1016.8587,-488.5341 1012.1956,-480.2756 1009,-478 1006.2687,-476.055 995.4397,-473.3852 982.2624,-470.6972"/>
<polygon fill="#000000" stroke="#000000" points="982.531,-468.2527 975.188,-469.2935 981.5773,-473.0591 982.531,-468.2527"/>
<text text-anchor="middle" x="1024" y="-480.6" font-family="Helvetica,sans-Serif" font-size="8.00" fill="#000000">input</text>
</g>
<!-- 13_RNA STAR&#45;&gt;19_Gene Body Coverage (BAM) -->
<g id="edge16" class="edge">
<title>13_RNA STAR&#45;&gt;19_Gene Body Coverage (BAM)</title>
<path fill="none" stroke="#000000" d="M982.9527,-500.8954C957.651,-497.8701 928.2314,-493.2037 917,-487 912.3153,-484.4124 913.8276,-480.31 909,-478 893.7365,-470.6964 781.933,-471.3715 746.1066,-469.9498"/>
<polygon fill="#000000" stroke="#000000" points="745.8663,-467.4826 738.7401,-469.5371 745.5921,-472.3749 745.8663,-467.4826"/>
<text text-anchor="middle" x="949" y="-480.6" font-family="Helvetica,sans-Serif" font-size="8.00" fill="#000000">batch_mode|input</text>
</g>
<!-- 13_RNA STAR&#45;&gt;20_Junction Saturation -->
<g id="edge18" class="edge">
<title>13_RNA STAR&#45;&gt;20_Junction Saturation</title>
<path fill="none" stroke="#000000" d="M1032.2497,-495.1525C1033.7631,-492.6149 1035.1544,-489.8052 1036,-487 1036.9705,-483.7804 1037.4759,-480.2468 1037.7006,-476.8274"/>
<polygon fill="#000000" stroke="#000000" points="1040.1524,-476.7294 1037.8156,-469.6908 1035.253,-476.6504 1040.1524,-476.7294"/>
<text text-anchor="middle" x="1046" y="-480.6" font-family="Helvetica,sans-Serif" font-size="8.00" fill="#000000">input</text>
</g>
<!-- 23_MultiQC -->
<g id="node24" class="node">
<title>23_MultiQC</title>
<polygon fill="#fafad2" stroke="#000000" points="805,-405.5 805,-424.5 873,-424.5 873,-405.5 805,-405.5"/>
<text text-anchor="middle" x="839" y="-412.5" font-family="Helvetica,sans-Serif" font-size="10.00" fill="#000000">23_MultiQC</text>
</g>
<!-- 13_RNA STAR&#45;&gt;23_MultiQC -->
<g id="edge22" class="edge">
<title>13_RNA STAR&#45;&gt;23_MultiQC</title>
<path fill="none" stroke="#000000" d="M1053.3261,-495.4298C1067.1317,-489.6977 1083.2471,-481.301 1095,-470 1102.3125,-462.9686 1097.4266,-455.4232 1106,-450 1118.5115,-442.0858 1228.8508,-452.778 1239,-442 1241.7422,-439.0879 1241.7641,-435.8913 1239,-433 1232.8576,-426.575 981.0581,-418.9231 880.1726,-416.1089"/>
<polygon fill="#000000" stroke="#000000" points="880.2404,-413.6599 873.1751,-415.9147 880.1044,-418.558 880.2404,-413.6599"/>
<text text-anchor="middle" x="1185" y="-458.1" font-family="Helvetica,sans-Serif" font-size="8.00" fill="#000000">results_0|software_cond|output_0|type|input</text>
</g>
<!-- 21_MultiQC -->
<g id="node22" class="node">
<title>21_MultiQC</title>
<polygon fill="#fafad2" stroke="#000000" points="1351,-405.5 1351,-424.5 1419,-424.5 1419,-405.5 1351,-405.5"/>
<text text-anchor="middle" x="1385" y="-412.5" font-family="Helvetica,sans-Serif" font-size="10.00" fill="#000000">21_MultiQC</text>
</g>
<!-- 14_FastQC&#45;&gt;21_MultiQC -->
<g id="edge20" class="edge">
<title>14_FastQC&#45;&gt;21_MultiQC</title>
<path fill="none" stroke="#000000" d="M1393.3141,-450.1507C1391.6564,-447.6133 1390.0796,-444.804 1389,-442 1387.7262,-438.6917 1386.8552,-435.0111 1386.2605,-431.4584"/>
<polygon fill="#000000" stroke="#000000" points="1388.6906,-431.1458 1385.3871,-424.5058 1383.8288,-431.7566 1388.6906,-431.1458"/>
<text text-anchor="middle" x="1459.5" y="-435.6" font-family="Helvetica,sans-Serif" font-size="8.00" fill="#000000">results_0|software_cond|output_0|input</text>
</g>
<!-- 22_Extract element identifiers -->
<g id="node23" class="node">
<title>22_Extract element identifiers</title>
<polygon fill="#fafad2" stroke="#000000" points="1174,-405.5 1174,-424.5 1320,-424.5 1320,-405.5 1174,-405.5"/>
<text text-anchor="middle" x="1247" y="-412.5" font-family="Helvetica,sans-Serif" font-size="10.00" fill="#000000">22_Extract element identifiers</text>
</g>
<!-- 15_StringTie&#45;&gt;22_Extract element identifiers -->
<g id="edge21" class="edge">
<title>15_StringTie&#45;&gt;22_Extract element identifiers</title>
<path fill="none" stroke="#000000" d="M1283.9118,-450.4519C1279.8606,-447.9053 1275.6571,-445.0163 1272,-442 1267.6631,-438.423 1263.3537,-434.1148 1259.5654,-430.0007"/>
<polygon fill="#000000" stroke="#000000" points="1261.2483,-428.206 1254.7688,-424.5978 1257.584,-431.4592 1261.2483,-428.206"/>
<text text-anchor="middle" x="1299.5" y="-435.6" font-family="Helvetica,sans-Serif" font-size="8.00" fill="#000000">input_collection</text>
</g>
<!-- 25_Filter collection -->
<g id="node26" class="node">
<title>25_Filter collection</title>
<polygon fill="#fafad2" stroke="#000000" points="1098,-315.5 1098,-334.5 1196,-334.5 1196,-315.5 1098,-315.5"/>
<text text-anchor="middle" x="1147" y="-322.5" font-family="Helvetica,sans-Serif" font-size="10.00" fill="#000000">25_Filter collection</text>
</g>
<!-- 15_StringTie&#45;&gt;25_Filter collection -->
<g id="edge30" class="edge">
<title>15_StringTie&#45;&gt;25_Filter collection</title>
<path fill="none" stroke="#000000" d="M1317.5503,-450.1503C1320.1591,-447.8226 1322.4898,-445.0996 1324,-442 1325.752,-438.4041 1324.2134,-436.9943 1324,-433 1323.3324,-420.5021 1325.4375,-416.7026 1321,-405 1312.2987,-382.0531 1307.3344,-376.3132 1289,-360 1277.2607,-349.5548 1272.8596,-348.1094 1258,-343 1240.6424,-337.0316 1221.0625,-333.0193 1203.2338,-330.3313"/>
<polygon fill="#000000" stroke="#000000" points="1203.5124,-327.8963 1196.2358,-329.3294 1202.8178,-332.7468 1203.5124,-327.8963"/>
<text text-anchor="middle" x="1326" y="-390.6" font-family="Helvetica,sans-Serif" font-size="8.00" fill="#000000">input</text>
</g>
<!-- 16_Junction Annotation&#45;&gt;23_MultiQC -->
<g id="edge26" class="edge">
<title>16_Junction Annotation&#45;&gt;23_MultiQC</title>
<path fill="none" stroke="#000000" d="M769.7427,-450.4523C760.4244,-446.0775 754.2278,-440.2353 760,-433 765.0278,-426.6978 781.3913,-422.4306 797.9314,-419.6395"/>
<polygon fill="#000000" stroke="#000000" points="798.462,-422.0363 804.9983,-418.532 797.7034,-417.1954 798.462,-422.0363"/>
<text text-anchor="middle" x="839" y="-435.6" font-family="Helvetica,sans-Serif" font-size="8.00" fill="#000000">results_1|software_cond|output_3|type|input</text>
</g>
<!-- 17_Infer Experiment&#45;&gt;23_MultiQC -->
<g id="edge23" class="edge">
<title>17_Infer Experiment&#45;&gt;23_MultiQC</title>
<path fill="none" stroke="#000000" d="M473.5591,-455.1973C456.7881,-452.4996 441.2027,-448.3462 436,-442 433.464,-438.9066 433.2317,-435.8873 436,-433 443.3117,-425.374 615.4455,-425.47 626,-425 685.608,-422.3459 754.589,-419.0699 797.5127,-417.0072"/>
<polygon fill="#000000" stroke="#000000" points="797.8196,-419.4453 804.6938,-416.6617 797.5841,-414.551 797.8196,-419.4453"/>
<text text-anchor="middle" x="515" y="-435.6" font-family="Helvetica,sans-Serif" font-size="8.00" fill="#000000">results_1|software_cond|output_0|type|input</text>
</g>
<!-- 18_Read Distribution&#45;&gt;23_MultiQC -->
<g id="edge24" class="edge">
<title>18_Read Distribution&#45;&gt;23_MultiQC</title>
<path fill="none" stroke="#000000" d="M921.2733,-450.3091C920.9069,-444.5504 919.4507,-437.513 915,-433 909.7983,-427.7256 895.1917,-423.6744 880.1562,-420.7632"/>
<polygon fill="#000000" stroke="#000000" points="880.5758,-418.3494 873.2501,-419.5056 879.6979,-423.1702 880.5758,-418.3494"/>
<text text-anchor="middle" x="998" y="-435.6" font-family="Helvetica,sans-Serif" font-size="8.00" fill="#000000">results_1|software_cond|output_1|type|input</text>
</g>
<!-- 19_Gene Body Coverage (BAM)&#45;&gt;23_MultiQC -->
<g id="edge27" class="edge">
<title>19_Gene Body Coverage (BAM)&#45;&gt;23_MultiQC</title>
<path fill="none" stroke="#000000" d="M606.3514,-450.4312C596.2149,-446.3911 590.7955,-440.7626 598,-433 604.678,-425.8046 730.4316,-419.5083 797.5615,-416.6431"/>
<polygon fill="#000000" stroke="#000000" points="797.7671,-419.0867 804.6575,-416.3437 797.5604,-414.1911 797.7671,-419.0867"/>
<text text-anchor="middle" x="677" y="-435.6" font-family="Helvetica,sans-Serif" font-size="8.00" fill="#000000">results_1|software_cond|output_4|type|input</text>
</g>
<!-- 20_Junction Saturation&#45;&gt;23_MultiQC -->
<g id="edge25" class="edge">
<title>20_Junction Saturation&#45;&gt;23_MultiQC</title>
<path fill="none" stroke="#000000" d="M1068.0167,-450.3782C1077.7021,-445.8253 1084.3755,-439.8737 1078,-433 1071.3793,-425.8619 946.6684,-419.5392 880.095,-416.6555"/>
<polygon fill="#000000" stroke="#000000" points="880.1563,-414.206 873.0578,-416.3541 879.9465,-419.1015 880.1563,-414.206"/>
<text text-anchor="middle" x="1159" y="-435.6" font-family="Helvetica,sans-Serif" font-size="8.00" fill="#000000">results_1|software_cond|output_2|type|input</text>
</g>
<!-- 24_Search in textfiles -->
<g id="node25" class="node">
<title>24_Search in textfiles</title>
<polygon fill="#fafad2" stroke="#000000" points="1175.5,-360.5 1175.5,-379.5 1286.5,-379.5 1286.5,-360.5 1175.5,-360.5"/>
<text text-anchor="middle" x="1231" y="-367.5" font-family="Helvetica,sans-Serif" font-size="10.00" fill="#000000">24_Search in textfiles</text>
</g>
<!-- 22_Extract element identifiers&#45;&gt;24_Search in textfiles -->
<g id="edge28" class="edge">
<title>22_Extract element identifiers&#45;&gt;24_Search in textfiles</title>
<path fill="none" stroke="#000000" d="M1243.6068,-405.4567C1241.6128,-399.8485 1239.0395,-392.6112 1236.7383,-386.139"/>
<polygon fill="#000000" stroke="#000000" points="1239.0419,-385.3043 1234.3883,-379.5296 1234.425,-386.9459 1239.0419,-385.3043"/>
<text text-anchor="middle" x="1248" y="-390.6" font-family="Helvetica,sans-Serif" font-size="8.00" fill="#000000">infile</text>
</g>
<!-- 24_Search in textfiles&#45;&gt;25_Filter collection -->
<g id="edge29" class="edge">
<title>24_Search in textfiles&#45;&gt;25_Filter collection</title>
<path fill="none" stroke="#000000" d="M1213.1858,-360.4567C1200.9353,-353.8939 1184.5205,-345.1003 1171.1031,-337.9124"/>
<polygon fill="#000000" stroke="#000000" points="1172.1159,-335.6756 1164.7886,-334.5296 1169.802,-339.9948 1172.1159,-335.6756"/>
<text text-anchor="middle" x="1226.5" y="-345.6" font-family="Helvetica,sans-Serif" font-size="8.00" fill="#000000">how|filter_source</text>
</g>
<!-- 25_Filter collection&#45;&gt;26_IsoformSwitchAnalyzeR -->
<g id="edge31" class="edge">
<title>25_Filter collection&#45;&gt;26_IsoformSwitchAnalyzeR</title>
<path fill="none" stroke="#000000" d="M1097.8869,-320.9251C1030.6719,-315.4062 906.2422,-305.3963 800,-298 726.4733,-292.8813 642.5125,-287.8014 583.3719,-284.3501"/>
<polygon fill="#000000" stroke="#000000" points="583.4157,-281.8986 576.2851,-283.9374 583.1308,-286.7903 583.4157,-281.8986"/>
<text text-anchor="middle" x="982" y="-300.6" font-family="Helvetica,sans-Serif" font-size="8.00" fill="#000000">functionMode|first_factor|trans_counts</text>
</g>
<!-- 25_Filter collection&#45;&gt;26_IsoformSwitchAnalyzeR -->
<g id="edge33" class="edge">
<title>25_Filter collection&#45;&gt;26_IsoformSwitchAnalyzeR</title>
<path fill="none" stroke="#000000" d="M1097.9721,-324.1634C990.2474,-322.172 735.6988,-316.5872 650,-307 618.308,-303.4546 583.1044,-296.8417 555.5563,-291.048"/>
<polygon fill="#000000" stroke="#000000" points="555.7191,-288.5778 548.3625,-289.5172 554.6992,-293.3705 555.7191,-288.5778"/>
<text text-anchor="middle" x="724.5" y="-300.6" font-family="Helvetica,sans-Serif" font-size="8.00" fill="#000000">functionMode|second_factor|trans_counts</text>
</g>
<!-- 27_IsoformSwitchAnalyzeR -->
<g id="node28" class="node">
<title>27_IsoformSwitchAnalyzeR</title>
<polygon fill="#fafad2" stroke="#000000" points="398,-225.5 398,-244.5 536,-244.5 536,-225.5 398,-225.5"/>
<text text-anchor="middle" x="467" y="-232.5" font-family="Helvetica,sans-Serif" font-size="10.00" fill="#000000">27_IsoformSwitchAnalyzeR</text>
</g>
<!-- 26_IsoformSwitchAnalyzeR&#45;&gt;27_IsoformSwitchAnalyzeR -->
<g id="edge35" class="edge">
<title>26_IsoformSwitchAnalyzeR&#45;&gt;27_IsoformSwitchAnalyzeR</title>
<path fill="none" stroke="#000000" d="M498.517,-270.4567C493.2138,-264.4905 486.2717,-256.6807 480.253,-249.9096"/>
<polygon fill="#000000" stroke="#000000" points="481.9525,-248.1338 475.4707,-244.5296 478.2902,-251.3892 481.9525,-248.1338"/>
<text text-anchor="middle" x="528.5" y="-255.6" font-family="Helvetica,sans-Serif" font-size="8.00" fill="#000000">functionMode|robject</text>
</g>
<!-- 27_IsoformSwitchAnalyzeR&#45;&gt;28_CPAT -->
<g id="edge37" class="edge">
<title>27_IsoformSwitchAnalyzeR&#45;&gt;28_CPAT</title>
<path fill="none" stroke="#000000" d="M491.3066,-225.43C496.9125,-222.9235 502.764,-220.058 508,-217 513.7568,-213.6379 514.0003,-210.9066 520,-208 529.7333,-203.2846 540.8704,-199.6776 551.2752,-196.9763"/>
<polygon fill="#000000" stroke="#000000" points="552.1183,-199.2923 558.3352,-195.2484 550.9534,-194.5328 552.1183,-199.2923"/>
<text text-anchor="middle" x="529.5" y="-210.6" font-family="Helvetica,sans-Serif" font-size="8.00" fill="#000000">gene</text>
</g>
<!-- 27_IsoformSwitchAnalyzeR&#45;&gt;29_PfamScan -->
<g id="edge41" class="edge">
<title>27_IsoformSwitchAnalyzeR&#45;&gt;29_PfamScan</title>
<path fill="none" stroke="#000000" d="M416.7767,-225.4236C402.9094,-222.7402 387.8647,-219.7925 374,-217 346.5413,-211.4694 315.8458,-205.0543 291.288,-199.8651"/>
<polygon fill="#000000" stroke="#000000" points="291.5595,-197.4184 284.2039,-198.3663 290.5451,-202.2123 291.5595,-197.4184"/>
<text text-anchor="middle" x="383" y="-210.6" font-family="Helvetica,sans-Serif" font-size="8.00" fill="#000000">fasta</text>
</g>
<!-- 33_IsoformSwitchAnalyzeR -->
<g id="node34" class="node">
<title>33_IsoformSwitchAnalyzeR</title>
<polygon fill="#fafad2" stroke="#000000" points="292,-.5 292,-19.5 430,-19.5 430,-.5 292,-.5"/>
<text text-anchor="middle" x="361" y="-7.5" font-family="Helvetica,sans-Serif" font-size="10.00" fill="#000000">33_IsoformSwitchAnalyzeR</text>
</g>
<!-- 27_IsoformSwitchAnalyzeR&#45;&gt;33_IsoformSwitchAnalyzeR -->
<g id="edge50" class="edge">
<title>27_IsoformSwitchAnalyzeR&#45;&gt;33_IsoformSwitchAnalyzeR</title>
<path fill="none" stroke="#000000" d="M470.5711,-225.3089C484.7561,-186.4548 535.6963,-43.3129 522,-28 516.0205,-21.3147 476.0258,-16.8226 437.3991,-13.9979"/>
<polygon fill="#000000" stroke="#000000" points="437.3664,-11.5396 430.211,-13.4897 437.0208,-16.4274 437.3664,-11.5396"/>
<text text-anchor="middle" x="544.5" y="-120.6" font-family="Helvetica,sans-Serif" font-size="8.00" fill="#000000">functionMode|robject</text>
</g>
<!-- 34_IsoformSwitchAnalyzeR -->
<g id="node35" class="node">
<title>34_IsoformSwitchAnalyzeR</title>
<polygon fill="#fafad2" stroke="#000000" points="100,-.5 100,-19.5 238,-19.5 238,-.5 100,-.5"/>
<text text-anchor="middle" x="169" y="-7.5" font-family="Helvetica,sans-Serif" font-size="10.00" fill="#000000">34_IsoformSwitchAnalyzeR</text>
</g>
<!-- 27_IsoformSwitchAnalyzeR&#45;&gt;34_IsoformSwitchAnalyzeR -->
<g id="edge53" class="edge">
<title>27_IsoformSwitchAnalyzeR&#45;&gt;34_IsoformSwitchAnalyzeR</title>
<path fill="none" stroke="#000000" d="M441.6174,-225.4581C375.1244,-200.239 199.8187,-132.2329 183,-110 164.6323,-85.7194 164.7428,-48.3595 166.7135,-26.8413"/>
<polygon fill="#000000" stroke="#000000" points="169.1707,-26.908 167.493,-19.6838 164.2995,-26.3774 169.1707,-26.908"/>
<text text-anchor="middle" x="245.5" y="-120.6" font-family="Helvetica,sans-Serif" font-size="8.00" fill="#000000">functionMode|robject</text>
</g>
<!-- 30_Remove beginning -->
<g id="node31" class="node">
<title>30_Remove beginning</title>
<polygon fill="#fafad2" stroke="#000000" points="531.5,-135.5 531.5,-154.5 644.5,-154.5 644.5,-135.5 531.5,-135.5"/>
<text text-anchor="middle" x="588" y="-142.5" font-family="Helvetica,sans-Serif" font-size="10.00" fill="#000000">30_Remove beginning</text>
</g>
<!-- 28_CPAT&#45;&gt;30_Remove beginning -->
<g id="edge44" class="edge">
<title>28_CPAT&#45;&gt;30_Remove beginning</title>
<path fill="none" stroke="#000000" d="M588,-180.4567C588,-174.9678 588,-167.9184 588,-161.5532"/>
<polygon fill="#000000" stroke="#000000" points="590.4501,-161.5296 588,-154.5296 585.5501,-161.5296 590.4501,-161.5296"/>
<text text-anchor="middle" x="597" y="-165.6" font-family="Helvetica,sans-Serif" font-size="8.00" fill="#000000">input</text>
</g>
<!-- 29_PfamScan&#45;&gt;33_IsoformSwitchAnalyzeR -->
<g id="edge49" class="edge">
<title>29_PfamScan&#45;&gt;33_IsoformSwitchAnalyzeR</title>
<path fill="none" stroke="#000000" d="M248.5597,-180.2551C253.4379,-165.0025 260.0008,-135.4349 245,-118 229.4629,-99.9417 208.1454,-127.5166 192,-110 179.6271,-96.5763 174.7732,-41.5569 187,-28 188.7472,-26.0627 238.7743,-21.0171 284.7355,-16.7592"/>
<polygon fill="#000000" stroke="#000000" points="285.029,-19.1927 291.7745,-16.1103 284.5791,-14.3134 285.029,-19.1927"/>
<text text-anchor="middle" x="273" y="-98.1" font-family="Helvetica,sans-Serif" font-size="8.00" fill="#000000">functionMode|protein_domains|analyzePFAM</text>
</g>
<!-- 29_PfamScan&#45;&gt;34_IsoformSwitchAnalyzeR -->
<g id="edge52" class="edge">
<title>29_PfamScan&#45;&gt;34_IsoformSwitchAnalyzeR</title>
<path fill="none" stroke="#000000" d="M205.9081,-186.7882C136.7379,-180.5748 0,-165.6771 0,-145 0,-145 0,-145 0,-55 0,-34.3211 47.8457,-22.908 92.6215,-16.7547"/>
<polygon fill="#000000" stroke="#000000" points="93.154,-19.1558 99.7736,-15.8117 92.5134,-14.2978 93.154,-19.1558"/>
<text text-anchor="middle" x="81" y="-98.1" font-family="Helvetica,sans-Serif" font-size="8.00" fill="#000000">functionMode|protein_domains|analyzePFAM</text>
</g>
<!-- 31_Text reformatting -->
<g id="node32" class="node">
<title>31_Text reformatting</title>
<polygon fill="#fafad2" stroke="#000000" points="525.5,-90.5 525.5,-109.5 632.5,-109.5 632.5,-90.5 525.5,-90.5"/>
<text text-anchor="middle" x="579" y="-97.5" font-family="Helvetica,sans-Serif" font-size="10.00" fill="#000000">31_Text reformatting</text>
</g>
<!-- 30_Remove beginning&#45;&gt;31_Text reformatting -->
<g id="edge45" class="edge">
<title>30_Remove beginning&#45;&gt;31_Text reformatting</title>
<path fill="none" stroke="#000000" d="M586.0913,-135.4567C584.9936,-129.9678 583.5837,-122.9184 582.3106,-116.5532"/>
<polygon fill="#000000" stroke="#000000" points="584.6812,-115.9131 580.9059,-109.5296 579.8764,-116.8742 584.6812,-115.9131"/>
<text text-anchor="middle" x="593" y="-120.6" font-family="Helvetica,sans-Serif" font-size="8.00" fill="#000000">infile</text>
</g>
<!-- 31_Text reformatting&#45;&gt;32_Concatenate datasets -->
<g id="edge47" class="edge">
<title>31_Text reformatting&#45;&gt;32_Concatenate datasets</title>
<path fill="none" stroke="#000000" d="M532.3437,-90.4567C497.3423,-83.2973 449.3612,-73.483 412.7521,-65.9947"/>
<polygon fill="#000000" stroke="#000000" points="412.9381,-63.5321 405.5891,-64.5296 411.9561,-68.3327 412.9381,-63.5321"/>
<text text-anchor="middle" x="521" y="-75.6" font-family="Helvetica,sans-Serif" font-size="8.00" fill="#000000">queries_0|inputs2</text>
</g>
<!-- 32_Concatenate datasets&#45;&gt;33_IsoformSwitchAnalyzeR -->
<g id="edge48" class="edge">
<title>32_Concatenate datasets&#45;&gt;33_IsoformSwitchAnalyzeR</title>
<path fill="none" stroke="#000000" d="M359.4241,-45.4567C359.6681,-39.9678 359.9814,-32.9184 360.2643,-26.5532"/>
<polygon fill="#000000" stroke="#000000" points="362.7131,-26.6315 360.5765,-19.5296 357.818,-26.4139 362.7131,-26.6315"/>
<text text-anchor="middle" x="441" y="-30.6" font-family="Helvetica,sans-Serif" font-size="8.00" fill="#000000">functionMode|coding_potential|analyzeCPAT</text>
</g>
<!-- 32_Concatenate datasets&#45;&gt;34_IsoformSwitchAnalyzeR -->
<g id="edge51" class="edge">
<title>32_Concatenate datasets&#45;&gt;34_IsoformSwitchAnalyzeR</title>
<path fill="none" stroke="#000000" d="M294.5928,-51.7454C257.8405,-49.1128 215.8273,-44.5635 199,-37 192.7526,-34.1919 186.9023,-29.5917 182.0565,-24.9774"/>
<polygon fill="#000000" stroke="#000000" points="183.5091,-22.9581 176.866,-19.6607 180.0029,-26.381 183.5091,-22.9581"/>
<text text-anchor="middle" x="279" y="-30.6" font-family="Helvetica,sans-Serif" font-size="8.00" fill="#000000">functionMode|coding_potential|analyzeCPAT</text>
</g>
</g>
</svg>
