<?xml version="1.0" encoding="UTF-8" standalone="no"?>
<!DOCTYPE svg PUBLIC "-//W3C//DTD SVG 1.1//EN"
 "http://www.w3.org/Graphics/SVG/1.1/DTD/svg11.dtd">
<!-- Generated by graphviz version 2.40.1 (20161225.0304)
 -->
<!-- Title: workflow Pages: 1 -->
<svg width="629pt" height="206pt"
 viewBox="0.00 0.00 628.50 206.00" xmlns="http://www.w3.org/2000/svg" xmlns:xlink="http://www.w3.org/1999/xlink">
<g id="graph0" class="graph" transform="scale(1 1) rotate(0) translate(4 202)">
<title>workflow</title>
<polygon fill="#ffffff" stroke="transparent" points="-4,4 -4,-202 624.5,-202 624.5,4 -4,4"/>
<g id="clust1" class="cluster">
<title>cluster_inputs</title>
<polygon fill="none" stroke="#000000" stroke-dasharray="5,2" points="59.5,-135 59.5,-190 395.5,-190 395.5,-135 59.5,-135"/>
<text text-anchor="middle" x="103.5" y="-178" font-family="Helvetica,sans-Serif" font-size="10.00" fill="#000000">Workflow Inputs</text>
</g>
<!-- #main/tg_ens_mean_0_1deg_reg_v20_0e_Paris_daily_csv -->
<g id="node1" class="node">
<title>#main/tg_ens_mean_0_1deg_reg_v20_0e_Paris_daily_csv</title>
<polygon fill="#94ddf4" stroke="#000000" points="67.5,-143.5 67.5,-162.5 309.5,-162.5 309.5,-143.5 67.5,-143.5"/>
<text text-anchor="middle" x="188.5" y="-150.5" font-family="Helvetica,sans-Serif" font-size="10.00" fill="#000000">tg_ens_mean_0_1deg_reg_v20_0e_Paris_daily_csv</text>
</g>
<!-- #main/4_Select -->
<g id="node10" class="node">
<title>#main/4_Select</title>
<polygon fill="#fafad2" stroke="#000000" points="0,-90.5 0,-109.5 55,-109.5 55,-90.5 0,-90.5"/>
<text text-anchor="middle" x="27.5" y="-97.5" font-family="Helvetica,sans-Serif" font-size="10.00" fill="#000000">4_Select</text>
</g>
<!-- #main/tg_ens_mean_0_1deg_reg_v20_0e_Paris_daily_csv&#45;&gt;#main/4_Select -->
<g id="edge7" class="edge">
<title>#main/tg_ens_mean_0_1deg_reg_v20_0e_Paris_daily_csv&#45;&gt;#main/4_Select</title>
<path fill="none" stroke="#000000" d="M159.3441,-143.4021C131.9117,-134.3715 90.8264,-120.8466 61.8238,-111.2991"/>
<polygon fill="#000000" stroke="#000000" points="62.5098,-108.9457 55.0947,-109.084 60.9776,-113.6 62.5098,-108.9457"/>
<text text-anchor="middle" x="117.5" y="-120.6" font-family="Helvetica,sans-Serif" font-size="8.00" fill="#000000">input</text>
</g>
<!-- #main/5_Datamash -->
<g id="node11" class="node">
<title>#main/5_Datamash</title>
<polygon fill="#fafad2" stroke="#000000" points="59.5,-90.5 59.5,-109.5 131.5,-109.5 131.5,-90.5 59.5,-90.5"/>
<text text-anchor="middle" x="95.5" y="-97.5" font-family="Helvetica,sans-Serif" font-size="10.00" fill="#000000">5_Datamash</text>
</g>
<!-- #main/tg_ens_mean_0_1deg_reg_v20_0e_Paris_daily_csv&#45;&gt;#main/5_Datamash -->
<g id="edge8" class="edge">
<title>#main/tg_ens_mean_0_1deg_reg_v20_0e_Paris_daily_csv&#45;&gt;#main/5_Datamash</title>
<path fill="none" stroke="#000000" d="M171.4424,-143.279C156.6286,-134.8367 135.0424,-122.5349 118.6671,-113.2028"/>
<polygon fill="#000000" stroke="#000000" points="119.7443,-110.9968 112.4495,-109.6594 117.3181,-115.254 119.7443,-110.9968"/>
<text text-anchor="middle" x="153" y="-120.6" font-family="Helvetica,sans-Serif" font-size="8.00" fill="#000000">in_file</text>
</g>
<!-- #main/6_Datamash -->
<g id="node12" class="node">
<title>#main/6_Datamash</title>
<polygon fill="#fafad2" stroke="#000000" points="135.5,-90.5 135.5,-109.5 207.5,-109.5 207.5,-90.5 135.5,-90.5"/>
<text text-anchor="middle" x="171.5" y="-97.5" font-family="Helvetica,sans-Serif" font-size="10.00" fill="#000000">6_Datamash</text>
</g>
<!-- #main/tg_ens_mean_0_1deg_reg_v20_0e_Paris_daily_csv&#45;&gt;#main/6_Datamash -->
<g id="edge9" class="edge">
<title>#main/tg_ens_mean_0_1deg_reg_v20_0e_Paris_daily_csv&#45;&gt;#main/6_Datamash</title>
<path fill="none" stroke="#000000" d="M185.3819,-143.279C182.9856,-135.808 179.6197,-125.3143 176.8024,-116.5311"/>
<polygon fill="#000000" stroke="#000000" points="179.0693,-115.5766 174.5983,-109.6594 174.4034,-117.0732 179.0693,-115.5766"/>
<text text-anchor="middle" x="191" y="-120.6" font-family="Helvetica,sans-Serif" font-size="8.00" fill="#000000">in_file</text>
</g>
<!-- #main/7_Datamash -->
<g id="node13" class="node">
<title>#main/7_Datamash</title>
<polygon fill="#fafad2" stroke="#000000" points="211.5,-90.5 211.5,-109.5 283.5,-109.5 283.5,-90.5 211.5,-90.5"/>
<text text-anchor="middle" x="247.5" y="-97.5" font-family="Helvetica,sans-Serif" font-size="10.00" fill="#000000">7_Datamash</text>
</g>
<!-- #main/tg_ens_mean_0_1deg_reg_v20_0e_Paris_daily_csv&#45;&gt;#main/7_Datamash -->
<g id="edge10" class="edge">
<title>#main/tg_ens_mean_0_1deg_reg_v20_0e_Paris_daily_csv&#45;&gt;#main/7_Datamash</title>
<path fill="none" stroke="#000000" d="M199.3215,-143.279C208.3036,-135.2103 221.2105,-123.616 231.4048,-114.4584"/>
<polygon fill="#000000" stroke="#000000" points="233.1769,-116.1599 236.7471,-109.6594 229.9024,-112.5147 233.1769,-116.1599"/>
<text text-anchor="middle" x="238" y="-120.6" font-family="Helvetica,sans-Serif" font-size="8.00" fill="#000000">in_file</text>
</g>
<!-- #main/8_Text reformatting -->
<g id="node14" class="node">
<title>#main/8_Text reformatting</title>
<polygon fill="#fafad2" stroke="#000000" points="288,-90.5 288,-109.5 389,-109.5 389,-90.5 288,-90.5"/>
<text text-anchor="middle" x="338.5" y="-97.5" font-family="Helvetica,sans-Serif" font-size="10.00" fill="#000000">8_Text reformatting</text>
</g>
<!-- #main/tg_ens_mean_0_1deg_reg_v20_0e_Paris_daily_csv&#45;&gt;#main/8_Text reformatting -->
<g id="edge11" class="edge">
<title>#main/tg_ens_mean_0_1deg_reg_v20_0e_Paris_daily_csv&#45;&gt;#main/8_Text reformatting</title>
<path fill="none" stroke="#000000" d="M215.6639,-143.4021C240.7251,-134.5471 278.0164,-121.3709 304.9324,-111.8605"/>
<polygon fill="#000000" stroke="#000000" points="305.7543,-114.1687 311.5382,-109.5265 304.1219,-109.5486 305.7543,-114.1687"/>
<text text-anchor="middle" x="294.5" y="-120.6" font-family="Helvetica,sans-Serif" font-size="8.00" fill="#000000">infile</text>
</g>
<!-- #main/ts_cities_csv -->
<g id="node2" class="node">
<title>#main/ts_cities_csv</title>
<polygon fill="#94ddf4" stroke="#000000" points="313.5,-143.5 313.5,-162.5 387.5,-162.5 387.5,-143.5 313.5,-143.5"/>
<text text-anchor="middle" x="350.5" y="-150.5" font-family="Helvetica,sans-Serif" font-size="10.00" fill="#000000">ts_cities_csv</text>
</g>
<!-- #main/3_climate stripes -->
<g id="node9" class="node">
<title>#main/3_climate stripes</title>
<polygon fill="#fafad2" stroke="#000000" points="393,-90.5 393,-109.5 484,-109.5 484,-90.5 393,-90.5"/>
<text text-anchor="middle" x="438.5" y="-97.5" font-family="Helvetica,sans-Serif" font-size="10.00" fill="#000000">3_climate stripes</text>
</g>
<!-- #main/ts_cities_csv&#45;&gt;#main/3_climate stripes -->
<g id="edge6" class="edge">
<title>#main/ts_cities_csv&#45;&gt;#main/3_climate stripes</title>
<path fill="none" stroke="#000000" d="M366.6406,-143.279C380.5338,-134.9114 400.7225,-122.7524 416.1659,-113.4512"/>
<polygon fill="#000000" stroke="#000000" points="417.7294,-115.3697 422.4618,-109.6594 415.2013,-111.1722 417.7294,-115.3697"/>
<text text-anchor="middle" x="423.5" y="-120.6" font-family="Helvetica,sans-Serif" font-size="8.00" fill="#000000">ifilename</text>
</g>
<!-- #main/10_Datamash -->
<g id="node3" class="node">
<title>#main/10_Datamash</title>
<polygon fill="#fafad2" stroke="#000000" points="238,-45.5 238,-64.5 315,-64.5 315,-45.5 238,-45.5"/>
<text text-anchor="middle" x="276.5" y="-52.5" font-family="Helvetica,sans-Serif" font-size="10.00" fill="#000000">10_Datamash</text>
</g>
<!-- #main/12_Datamash -->
<g id="node5" class="node">
<title>#main/12_Datamash</title>
<polygon fill="#fafad2" stroke="#000000" points="157,-.5 157,-19.5 234,-19.5 234,-.5 157,-.5"/>
<text text-anchor="middle" x="195.5" y="-7.5" font-family="Helvetica,sans-Serif" font-size="10.00" fill="#000000">12_Datamash</text>
</g>
<!-- #main/10_Datamash&#45;&gt;#main/12_Datamash -->
<g id="edge3" class="edge">
<title>#main/10_Datamash&#45;&gt;#main/12_Datamash</title>
<path fill="none" stroke="#000000" d="M259.322,-45.4567C247.6164,-38.9536 231.9679,-30.26 219.0959,-23.1088"/>
<polygon fill="#000000" stroke="#000000" points="219.9622,-20.7874 212.6533,-19.5296 217.5825,-25.0708 219.9622,-20.7874"/>
<text text-anchor="middle" x="254" y="-30.6" font-family="Helvetica,sans-Serif" font-size="8.00" fill="#000000">in_file</text>
</g>
<!-- #main/13_Datamash -->
<g id="node6" class="node">
<title>#main/13_Datamash</title>
<polygon fill="#fafad2" stroke="#000000" points="238,-.5 238,-19.5 315,-19.5 315,-.5 238,-.5"/>
<text text-anchor="middle" x="276.5" y="-7.5" font-family="Helvetica,sans-Serif" font-size="10.00" fill="#000000">13_Datamash</text>
</g>
<!-- #main/10_Datamash&#45;&gt;#main/13_Datamash -->
<g id="edge4" class="edge">
<title>#main/10_Datamash&#45;&gt;#main/13_Datamash</title>
<path fill="none" stroke="#000000" d="M276.5,-45.4567C276.5,-39.9678 276.5,-32.9184 276.5,-26.5532"/>
<polygon fill="#000000" stroke="#000000" points="278.9501,-26.5296 276.5,-19.5296 274.0501,-26.5296 278.9501,-26.5296"/>
<text text-anchor="middle" x="287" y="-30.6" font-family="Helvetica,sans-Serif" font-size="8.00" fill="#000000">in_file</text>
</g>
<!-- #main/11_Datamash -->
<g id="node4" class="node">
<title>#main/11_Datamash</title>
<polygon fill="#fafad2" stroke="#000000" points="334,-45.5 334,-64.5 411,-64.5 411,-45.5 334,-45.5"/>
<text text-anchor="middle" x="372.5" y="-52.5" font-family="Helvetica,sans-Serif" font-size="10.00" fill="#000000">11_Datamash</text>
</g>
<!-- #main/14_Scatterplot w ggplot2 -->
<g id="node7" class="node">
<title>#main/14_Scatterplot w ggplot2</title>
<polygon fill="#fafad2" stroke="#000000" points="319,-.5 319,-19.5 444,-19.5 444,-.5 319,-.5"/>
<text text-anchor="middle" x="381.5" y="-7.5" font-family="Helvetica,sans-Serif" font-size="10.00" fill="#000000">14_Scatterplot w ggplot2</text>
</g>
<!-- #main/11_Datamash&#45;&gt;#main/14_Scatterplot w ggplot2 -->
<g id="edge5" class="edge">
<title>#main/11_Datamash&#45;&gt;#main/14_Scatterplot w ggplot2</title>
<path fill="none" stroke="#000000" d="M374.4087,-45.4567C375.5064,-39.9678 376.9163,-32.9184 378.1894,-26.5532"/>
<polygon fill="#000000" stroke="#000000" points="380.6236,-26.8742 379.5941,-19.5296 375.8188,-25.9131 380.6236,-26.8742"/>
<text text-anchor="middle" x="388.5" y="-30.6" font-family="Helvetica,sans-Serif" font-size="8.00" fill="#000000">input1</text>
</g>
<!-- #main/2_Copernicus Essential Climate Variables -->
<g id="node8" class="node">
<title>#main/2_Copernicus Essential Climate Variables</title>
<polygon fill="#fafad2" stroke="#000000" points="420.5,-143.5 420.5,-162.5 620.5,-162.5 620.5,-143.5 420.5,-143.5"/>
<text text-anchor="middle" x="520.5" y="-150.5" font-family="Helvetica,sans-Serif" font-size="10.00" fill="#000000">2_Copernicus Essential Climate Variables</text>
</g>
<!-- #main/9_map plot -->
<g id="node15" class="node">
<title>#main/9_map plot</title>
<polygon fill="#fafad2" stroke="#000000" points="488,-90.5 488,-109.5 553,-109.5 553,-90.5 488,-90.5"/>
<text text-anchor="middle" x="520.5" y="-97.5" font-family="Helvetica,sans-Serif" font-size="10.00" fill="#000000">9_map plot</text>
</g>
<!-- #main/2_Copernicus Essential Climate Variables&#45;&gt;#main/9_map plot -->
<g id="edge12" class="edge">
<title>#main/2_Copernicus Essential Climate Variables&#45;&gt;#main/9_map plot</title>
<path fill="none" stroke="#000000" d="M520.5,-143.279C520.5,-135.8827 520.5,-125.5239 520.5,-116.7951"/>
<polygon fill="#000000" stroke="#000000" points="522.9501,-116.6594 520.5,-109.6594 518.0501,-116.6594 522.9501,-116.6594"/>
<text text-anchor="middle" x="536.5" y="-120.6" font-family="Helvetica,sans-Serif" font-size="8.00" fill="#000000">ifilename</text>
</g>
<!-- #main/8_Text reformatting&#45;&gt;#main/10_Datamash -->
<g id="edge1" class="edge">
<title>#main/8_Text reformatting&#45;&gt;#main/10_Datamash</title>
<path fill="none" stroke="#000000" d="M325.3514,-90.4567C316.6382,-84.1326 305.0708,-75.7369 295.3793,-68.7027"/>
<polygon fill="#000000" stroke="#000000" points="296.7339,-66.6586 289.6297,-64.5296 293.8556,-70.6242 296.7339,-66.6586"/>
<text text-anchor="middle" x="324" y="-75.6" font-family="Helvetica,sans-Serif" font-size="8.00" fill="#000000">in_file</text>
</g>
<!-- #main/8_Text reformatting&#45;&gt;#main/11_Datamash -->
<g id="edge2" class="edge">
<title>#main/8_Text reformatting&#45;&gt;#main/11_Datamash</title>
<path fill="none" stroke="#000000" d="M345.7105,-90.4567C350.1281,-84.6098 355.8836,-76.9923 360.9271,-70.3171"/>
<polygon fill="#000000" stroke="#000000" points="363.0348,-71.5916 365.2999,-64.5296 359.1252,-68.6377 363.0348,-71.5916"/>
<text text-anchor="middle" x="370" y="-75.6" font-family="Helvetica,sans-Serif" font-size="8.00" fill="#000000">in_file</text>
</g>
</g>
</svg>
