<?xml version="1.0" encoding="UTF-8" standalone="no"?>
<!DOCTYPE svg PUBLIC "-//W3C//DTD SVG 1.1//EN"
 "http://www.w3.org/Graphics/SVG/1.1/DTD/svg11.dtd">
<!-- Generated by graphviz version 2.43.0 (0)
 -->
<!-- Title: workflow Pages: 1 -->
<svg width="357pt" height="331pt"
 viewBox="0.00 0.00 356.50 331.00" xmlns="http://www.w3.org/2000/svg" xmlns:xlink="http://www.w3.org/1999/xlink">
<g id="graph0" class="graph" transform="scale(1 1) rotate(0) translate(4 327)">
<title>workflow</title>
<polygon fill="white" stroke="transparent" points="-4,4 -4,-327 352.5,-327 352.5,4 -4,4"/>
<g id="clust1" class="cluster">
<title>cluster_inputs</title>
<polygon fill="none" stroke="black" stroke-dasharray="5,2" points="82.5,-260 82.5,-315 340.5,-315 340.5,-260 82.5,-260"/>
<text text-anchor="middle" x="130" y="-303" font-family="Helvetica,sans-Serif" font-size="10.00">Workflow Inputs</text>
</g>
<g id="clust2" class="cluster">
<title>cluster_outputs</title>
<polygon fill="none" stroke="black" stroke-dasharray="5,2" points="81.5,-8 81.5,-63 201.5,-63 201.5,-8 81.5,-8"/>
<text text-anchor="middle" x="133" y="-15" font-family="Helvetica,sans-Serif" font-size="10.00">Workflow Outputs</text>
</g>
<!-- #main/community -->
<g id="node1" class="node">
<title>#main/community</title>
<polygon fill="#94ddf4" stroke="black" points="172.5,-268.5 172.5,-287.5 244.5,-287.5 244.5,-268.5 172.5,-268.5"/>
<text text-anchor="middle" x="208.5" y="-275.5" font-family="Helvetica,sans-Serif" font-size="10.00">community</text>
</g>
<!-- #main/dynamics -->
<g id="node6" class="node">
<title>#main/dynamics</title>
<polygon fill="lightgoldenrodyellow" stroke="black" points="88.5,-170.5 88.5,-189.5 152.5,-189.5 152.5,-170.5 88.5,-170.5"/>
<text text-anchor="middle" x="120.5" y="-177.5" font-family="Helvetica,sans-Serif" font-size="10.00">dynamics</text>
</g>
<!-- #main/community&#45;&gt;#main/dynamics -->
<g id="edge1" class="edge">
<title>#main/community&#45;&gt;#main/dynamics</title>
<path fill="none" stroke="black" d="M227.11,-268.33C233.5,-264.33 239.95,-258.91 243.5,-252 247.17,-244.88 252.44,-227.61 242.5,-215 232.19,-201.91 191.34,-192.41 159.71,-186.83"/>
<polygon fill="black" stroke="black" points="160.03,-184.39 152.71,-185.63 159.2,-189.22 160.03,-184.39"/>
<text text-anchor="middle" x="270.5" y="-223.1" font-family="Helvetica,sans-Serif" font-size="8.00">community</text>
</g>
<!-- #main/mkdir_models -->
<g id="node8" class="node">
<title>#main/mkdir_models</title>
<polygon fill="lightgoldenrodyellow" stroke="black" points="156.5,-215.5 156.5,-234.5 242.5,-234.5 242.5,-215.5 156.5,-215.5"/>
<text text-anchor="middle" x="199.5" y="-222.5" font-family="Helvetica,sans-Serif" font-size="10.00">mkdir_models</text>
</g>
<!-- #main/community&#45;&gt;#main/mkdir_models -->
<g id="edge5" class="edge">
<title>#main/community&#45;&gt;#main/mkdir_models</title>
<path fill="none" stroke="black" d="M205.09,-268.35C203.39,-263.6 201.48,-257.57 200.5,-252 199.92,-248.71 199.59,-245.15 199.42,-241.75"/>
<polygon fill="black" stroke="black" points="201.87,-241.67 199.25,-234.73 196.97,-241.79 201.87,-241.67"/>
<text text-anchor="middle" x="223.5" y="-245.6" font-family="Helvetica,sans-Serif" font-size="8.00">community</text>
</g>
<!-- #main/pure_culture -->
<g id="node2" class="node">
<title>#main/pure_culture</title>
<polygon fill="#94ddf4" stroke="black" points="91,-268.5 91,-287.5 168,-287.5 168,-268.5 91,-268.5"/>
<text text-anchor="middle" x="129.5" y="-275.5" font-family="Helvetica,sans-Serif" font-size="10.00">pure_culture</text>
</g>
<!-- #main/pure_culture&#45;&gt;#main/dynamics -->
<g id="edge3" class="edge">
<title>#main/pure_culture&#45;&gt;#main/dynamics</title>
<path fill="none" stroke="black" d="M121.85,-268.41C115.27,-260.41 106.26,-247.81 102.5,-235 100,-226.47 100.36,-223.63 102.5,-215 104.14,-208.38 107.34,-201.64 110.58,-195.92"/>
<polygon fill="black" stroke="black" points="112.79,-197 114.33,-189.75 108.6,-194.46 112.79,-197"/>
<text text-anchor="middle" x="128.5" y="-223.1" font-family="Helvetica,sans-Serif" font-size="8.00">pure_culture</text>
</g>
<!-- #main/pure_culture&#45;&gt;#main/mkdir_models -->
<g id="edge6" class="edge">
<title>#main/pure_culture&#45;&gt;#main/mkdir_models</title>
<path fill="none" stroke="black" d="M131.77,-268.26C134.2,-260.58 138.78,-249.62 146.5,-243 148.77,-241.05 151.26,-239.33 153.9,-237.8"/>
<polygon fill="black" stroke="black" points="155.11,-239.93 160.25,-234.59 152.9,-235.56 155.11,-239.93"/>
<text text-anchor="middle" x="172.5" y="-245.6" font-family="Helvetica,sans-Serif" font-size="8.00">pure_culture</text>
</g>
<!-- #main/optimize -->
<g id="node10" class="node">
<title>#main/optimize</title>
<polygon fill="lightgoldenrodyellow" stroke="black" points="0,-215.5 0,-234.5 59,-234.5 59,-215.5 0,-215.5"/>
<text text-anchor="middle" x="29.5" y="-222.5" font-family="Helvetica,sans-Serif" font-size="10.00">optimize</text>
</g>
<!-- #main/pure_culture&#45;&gt;#main/optimize -->
<g id="edge8" class="edge">
<title>#main/pure_culture&#45;&gt;#main/optimize</title>
<path fill="none" stroke="black" d="M90.64,-271.99C75.04,-268.44 57.68,-262.37 44.5,-252 40.93,-249.19 38.06,-245.28 35.81,-241.35"/>
<polygon fill="black" stroke="black" points="37.92,-240.09 32.63,-234.89 33.53,-242.26 37.92,-240.09"/>
<text text-anchor="middle" x="70.5" y="-245.6" font-family="Helvetica,sans-Serif" font-size="8.00">pure_culture</text>
</g>
<!-- #main/which_figures -->
<g id="node3" class="node">
<title>#main/which_figures</title>
<polygon fill="#94ddf4" stroke="black" points="249,-268.5 249,-287.5 332,-287.5 332,-268.5 249,-268.5"/>
<text text-anchor="middle" x="290.5" y="-275.5" font-family="Helvetica,sans-Serif" font-size="10.00">which_figures</text>
</g>
<!-- #main/plot_figures -->
<g id="node11" class="node">
<title>#main/plot_figures</title>
<polygon fill="lightgoldenrodyellow" stroke="black" points="162.5,-125.5 162.5,-144.5 236.5,-144.5 236.5,-125.5 162.5,-125.5"/>
<text text-anchor="middle" x="199.5" y="-132.5" font-family="Helvetica,sans-Serif" font-size="10.00">plot_figures</text>
</g>
<!-- #main/which_figures&#45;&gt;#main/plot_figures -->
<g id="edge12" class="edge">
<title>#main/which_figures&#45;&gt;#main/plot_figures</title>
<path fill="none" stroke="black" d="M293.53,-268.5C297.42,-256.09 302.74,-232.58 294.5,-215 279.93,-183.93 246.48,-160.85 223.43,-147.9"/>
<polygon fill="black" stroke="black" points="224.54,-145.72 217.23,-144.51 222.2,-150.02 224.54,-145.72"/>
<text text-anchor="middle" x="318" y="-200.6" font-family="Helvetica,sans-Serif" font-size="8.00">which_figures</text>
</g>
<!-- #main/figures -->
<g id="node4" class="node">
<title>#main/figures</title>
<polygon fill="#94ddf4" stroke="black" points="143.5,-35.5 143.5,-54.5 193.5,-54.5 193.5,-35.5 143.5,-35.5"/>
<text text-anchor="middle" x="168.5" y="-42.5" font-family="Helvetica,sans-Serif" font-size="10.00">figures</text>
</g>
<!-- #main/results -->
<g id="node5" class="node">
<title>#main/results</title>
<polygon fill="#94ddf4" stroke="black" points="89.5,-35.5 89.5,-54.5 139.5,-54.5 139.5,-35.5 89.5,-35.5"/>
<text text-anchor="middle" x="114.5" y="-42.5" font-family="Helvetica,sans-Serif" font-size="10.00">results</text>
</g>
<!-- #main/mkdir_results -->
<g id="node9" class="node">
<title>#main/mkdir_results</title>
<polygon fill="lightgoldenrodyellow" stroke="black" points="71,-80.5 71,-99.5 154,-99.5 154,-80.5 71,-80.5"/>
<text text-anchor="middle" x="112.5" y="-87.5" font-family="Helvetica,sans-Serif" font-size="10.00">mkdir_results</text>
</g>
<!-- #main/dynamics&#45;&gt;#main/mkdir_results -->
<g id="edge7" class="edge">
<title>#main/dynamics&#45;&gt;#main/mkdir_results</title>
<path fill="none" stroke="black" d="M119.7,-170.24C118.36,-155.48 115.63,-125.45 113.95,-106.9"/>
<polygon fill="black" stroke="black" points="116.37,-106.47 113.29,-99.72 111.49,-106.92 116.37,-106.47"/>
<text text-anchor="middle" x="131" y="-133.1" font-family="Helvetica,sans-Serif" font-size="8.00">file_list</text>
</g>
<!-- #main/dynamics&#45;&gt;#main/plot_figures -->
<g id="edge10" class="edge">
<title>#main/dynamics&#45;&gt;#main/plot_figures</title>
<path fill="none" stroke="black" d="M121.78,-170.08C123.05,-164.42 125.57,-157.35 130.5,-153 134.68,-149.32 144.49,-146.12 155.44,-143.52"/>
<polygon fill="black" stroke="black" points="156.06,-145.89 162.36,-141.98 155,-141.11 156.06,-145.89"/>
<text text-anchor="middle" x="144.5" y="-155.6" font-family="Helvetica,sans-Serif" font-size="8.00">results</text>
</g>
<!-- #main/dynamics&#45;&gt;#main/plot_figures -->
<g id="edge11" class="edge">
<title>#main/dynamics&#45;&gt;#main/plot_figures</title>
<path fill="none" stroke="black" d="M139.74,-170.47C144.96,-167.94 150.54,-165.03 155.5,-162 161.19,-158.53 161.87,-156.57 167.5,-153 170.13,-151.33 172.94,-149.67 175.76,-148.08"/>
<polygon fill="black" stroke="black" points="177.31,-150.02 182.28,-144.52 174.96,-145.72 177.31,-150.02"/>
<text text-anchor="middle" x="181.5" y="-155.6" font-family="Helvetica,sans-Serif" font-size="8.00">results</text>
</g>
<!-- #main/mkdir_figures -->
<g id="node7" class="node">
<title>#main/mkdir_figures</title>
<polygon fill="lightgoldenrodyellow" stroke="black" points="158,-80.5 158,-99.5 241,-99.5 241,-80.5 158,-80.5"/>
<text text-anchor="middle" x="199.5" y="-87.5" font-family="Helvetica,sans-Serif" font-size="10.00">mkdir_figures</text>
</g>
<!-- #main/mkdir_figures&#45;&gt;#main/figures -->
<g id="edge13" class="edge">
<title>#main/mkdir_figures&#45;&gt;#main/figures</title>
<path fill="none" stroke="black" d="M193.23,-80.3C189.11,-74.59 183.63,-66.98 178.87,-60.38"/>
<polygon fill="black" stroke="black" points="180.85,-58.93 174.76,-54.69 176.87,-61.8 180.85,-58.93"/>
</g>
<!-- #main/mkdir_models&#45;&gt;#main/plot_figures -->
<g id="edge9" class="edge">
<title>#main/mkdir_models&#45;&gt;#main/plot_figures</title>
<path fill="none" stroke="black" d="M199.5,-215.24C199.5,-200.48 199.5,-170.45 199.5,-151.9"/>
<polygon fill="black" stroke="black" points="201.95,-151.72 199.5,-144.72 197.05,-151.72 201.95,-151.72"/>
<text text-anchor="middle" x="215" y="-178.1" font-family="Helvetica,sans-Serif" font-size="8.00">models</text>
</g>
<!-- #main/mkdir_results&#45;&gt;#main/results -->
<g id="edge14" class="edge">
<title>#main/mkdir_results&#45;&gt;#main/results</title>
<path fill="none" stroke="black" d="M112.9,-80.3C113.15,-75.05 113.47,-68.21 113.76,-62.02"/>
<polygon fill="black" stroke="black" points="116.22,-61.8 114.1,-54.69 111.32,-61.57 116.22,-61.8"/>
</g>
<!-- #main/optimize&#45;&gt;#main/dynamics -->
<g id="edge2" class="edge">
<title>#main/optimize&#45;&gt;#main/dynamics</title>
<path fill="none" stroke="black" d="M26.91,-215.33C25.82,-209.77 25.58,-202.72 29.5,-198 36.19,-189.95 59.63,-185.69 81.05,-183.45"/>
<polygon fill="black" stroke="black" points="81.48,-185.87 88.21,-182.76 81.01,-180.99 81.48,-185.87"/>
<text text-anchor="middle" x="63" y="-200.6" font-family="Helvetica,sans-Serif" font-size="8.00">initial_res_optim</text>
</g>
<!-- #main/plot_figures&#45;&gt;#main/mkdir_figures -->
<g id="edge4" class="edge">
<title>#main/plot_figures&#45;&gt;#main/mkdir_figures</title>
<path fill="none" stroke="black" d="M199.5,-125.3C199.5,-120.05 199.5,-113.21 199.5,-107.02"/>
<polygon fill="black" stroke="black" points="201.95,-106.69 199.5,-99.69 197.05,-106.69 201.95,-106.69"/>
<text text-anchor="middle" x="214" y="-110.6" font-family="Helvetica,sans-Serif" font-size="8.00">file_list</text>
</g>
</g>
</svg>
