<?xml version="1.0" encoding="UTF-8" standalone="no"?>
<!DOCTYPE svg PUBLIC "-//W3C//DTD SVG 1.1//EN"
 "http://www.w3.org/Graphics/SVG/1.1/DTD/svg11.dtd">
<!-- Generated by graphviz version 2.43.0 (0)
 -->
<!-- Title: G Pages: 1 -->
<svg width="1133pt" height="395pt"
 viewBox="0.00 0.00 1132.64 395.00" xmlns="http://www.w3.org/2000/svg" xmlns:xlink="http://www.w3.org/1999/xlink">
<g id="graph0" class="graph" transform="scale(1 1) rotate(0) translate(4 391)">
<title>G</title>
<polygon fill="#eeeeee" stroke="transparent" points="-4,4 -4,-391 1128.64,-391 1128.64,4 -4,4"/>
<g id="clust1" class="cluster">
<title>cluster_inputs</title>
<polygon fill="#eeeeee" stroke="black" stroke-dasharray="5,2" points="126.64,-303 126.64,-379 1116.64,-379 1116.64,-303 126.64,-303"/>
<text text-anchor="middle" x="1050.14" y="-310.8" font-family="Times,serif" font-size="14.00">Workflow Inputs</text>
</g>
<g id="clust2" class="cluster">
<title>cluster_outputs</title>
<polygon fill="#eeeeee" stroke="black" stroke-dasharray="5,2" points="360.64,-8 360.64,-84 670.64,-84 670.64,-8 360.64,-8"/>
<text text-anchor="middle" x="598.14" y="-15.8" font-family="Times,serif" font-size="14.00">Workflow Outputs</text>
</g>
<!-- merge_reference -->
<g id="node1" class="node">
<title>merge_reference</title>
<polygon fill="lightgoldenrodyellow" stroke="black" points="530.64,-185.5 530.64,-221.5 832.64,-221.5 832.64,-185.5 530.64,-185.5"/>
<text text-anchor="middle" x="681.64" y="-199.8" font-family="Times,serif" font-size="14.00">custom GenBank merging python script</text>
</g>
<!-- determine_output -->
<g id="node2" class="node">
<title>determine_output</title>
<polygon fill="lightgoldenrodyellow" stroke="black" points="354.64,-112.5 354.64,-148.5 498.64,-148.5 498.64,-112.5 354.64,-112.5"/>
<text text-anchor="middle" x="426.64" y="-126.8" font-family="Times,serif" font-size="14.00">determine_output</text>
</g>
<!-- merge_reference&#45;&gt;determine_output -->
<g id="edge1" class="edge">
<title>merge_reference&#45;&gt;determine_output</title>
<path fill="none" stroke="black" d="M614.7,-185.49C576.82,-175.25 529.7,-162.16 492.08,-151.43"/>
<polygon fill="black" stroke="black" points="492.81,-148 482.23,-148.61 490.88,-154.73 492.81,-148"/>
</g>
<!-- merge_reference&#45;&gt;determine_output -->
<g id="edge4" class="edge">
<title>merge_reference&#45;&gt;determine_output</title>
<path fill="none" stroke="black" d="M626.42,-185.49C590.56,-175.21 543.38,-162.05 503.85,-151.29"/>
<polygon fill="black" stroke="black" points="504.54,-147.85 493.97,-148.61 502.71,-154.61 504.54,-147.85"/>
</g>
<!-- extract_gff3 -->
<g id="node5" class="node">
<title>extract_gff3</title>
<polygon fill="lightgoldenrodyellow" stroke="black" points="529.64,-112.5 529.64,-148.5 741.64,-148.5 741.64,-112.5 529.64,-112.5"/>
<text text-anchor="middle" x="635.64" y="-126.8" font-family="Times,serif" font-size="14.00">GFF3 extraction Perl script</text>
</g>
<!-- merge_reference&#45;&gt;extract_gff3 -->
<g id="edge6" class="edge">
<title>merge_reference&#45;&gt;extract_gff3</title>
<path fill="none" stroke="black" d="M670.5,-185.31C665.02,-176.85 658.3,-166.48 652.23,-157.11"/>
<polygon fill="black" stroke="black" points="655.05,-155.02 646.67,-148.53 649.17,-158.82 655.05,-155.02"/>
</g>
<!-- fasta_final -->
<g id="node13" class="node">
<title>fasta_final</title>
<polygon fill="#94ddf4" stroke="black" points="368.14,-39.5 368.14,-75.5 457.14,-75.5 457.14,-39.5 368.14,-39.5"/>
<text text-anchor="middle" x="412.64" y="-53.8" font-family="Times,serif" font-size="14.00">fasta_final</text>
</g>
<!-- determine_output&#45;&gt;fasta_final -->
<g id="edge25" class="edge">
<title>determine_output&#45;&gt;fasta_final</title>
<path fill="none" stroke="black" d="M423.25,-112.31C421.67,-104.29 419.75,-94.55 417.98,-85.57"/>
<polygon fill="black" stroke="black" points="421.36,-84.66 416,-75.53 414.5,-86.02 421.36,-84.66"/>
</g>
<!-- genbank_final -->
<g id="node14" class="node">
<title>genbank_final</title>
<polygon fill="#94ddf4" stroke="black" points="475.14,-39.5 475.14,-75.5 590.14,-75.5 590.14,-39.5 475.14,-39.5"/>
<text text-anchor="middle" x="532.64" y="-53.8" font-family="Times,serif" font-size="14.00">genbank_final</text>
</g>
<!-- determine_output&#45;&gt;genbank_final -->
<g id="edge26" class="edge">
<title>determine_output&#45;&gt;genbank_final</title>
<path fill="none" stroke="black" d="M452.03,-112.49C465.95,-103.17 483.41,-91.47 498.51,-81.36"/>
<polygon fill="black" stroke="black" points="500.73,-84.09 507.09,-75.61 496.83,-78.27 500.73,-84.09"/>
</g>
<!-- fetch_reference -->
<g id="node3" class="node">
<title>fetch_reference</title>
<polygon fill="lightgoldenrodyellow" stroke="black" points="324.64,-258.5 324.64,-294.5 602.64,-294.5 602.64,-258.5 324.64,-258.5"/>
<text text-anchor="middle" x="463.64" y="-272.8" font-family="Times,serif" font-size="14.00">custom GenBank downloading script</text>
</g>
<!-- fetch_reference&#45;&gt;merge_reference -->
<g id="edge9" class="edge">
<title>fetch_reference&#45;&gt;merge_reference</title>
<path fill="none" stroke="black" d="M515.85,-258.49C546.9,-248.38 586.48,-235.49 619.18,-224.84"/>
<polygon fill="black" stroke="black" points="620.67,-228.04 629.09,-221.61 618.5,-221.38 620.67,-228.04"/>
</g>
<!-- fetch_reference&#45;&gt;determine_output -->
<g id="edge2" class="edge">
<title>fetch_reference&#45;&gt;determine_output</title>
<path fill="none" stroke="black" d="M459.25,-258.42C452.91,-233.73 441.12,-187.85 433.59,-158.54"/>
<polygon fill="black" stroke="black" points="436.9,-157.38 431.02,-148.56 430.12,-159.12 436.9,-157.38"/>
</g>
<!-- extract_fasta -->
<g id="node4" class="node">
<title>extract_fasta</title>
<polygon fill="lightgoldenrodyellow" stroke="black" points="25.14,-185.5 25.14,-221.5 398.14,-221.5 398.14,-185.5 25.14,-185.5"/>
<text text-anchor="middle" x="211.64" y="-199.8" font-family="Times,serif" font-size="14.00">custom GenBank to fasta extraction python script</text>
</g>
<!-- fetch_reference&#45;&gt;extract_fasta -->
<g id="edge5" class="edge">
<title>fetch_reference&#45;&gt;extract_fasta</title>
<path fill="none" stroke="black" d="M403.28,-258.49C366.92,-248.25 320.45,-235.16 282.37,-224.43"/>
<polygon fill="black" stroke="black" points="282.95,-220.96 272.38,-221.61 281.05,-227.69 282.95,-220.96"/>
</g>
<!-- fetch_reference&#45;&gt;extract_gff3 -->
<g id="edge7" class="edge">
<title>fetch_reference&#45;&gt;extract_gff3</title>
<path fill="none" stroke="black" d="M470.96,-258.45C480.24,-238.57 497.92,-205.79 521.64,-185 537.04,-171.5 556.43,-160.71 574.83,-152.47"/>
<polygon fill="black" stroke="black" points="576.25,-155.67 584.05,-148.5 573.48,-149.24 576.25,-155.67"/>
</g>
<!-- extract_fasta&#45;&gt;determine_output -->
<g id="edge3" class="edge">
<title>extract_fasta&#45;&gt;determine_output</title>
<path fill="none" stroke="black" d="M263.14,-185.49C293.76,-175.38 332.79,-162.49 365.04,-151.84"/>
<polygon fill="black" stroke="black" points="366.42,-155.07 374.81,-148.61 364.22,-148.43 366.42,-155.07"/>
</g>
<!-- gff3 -->
<g id="node15" class="node">
<title>gff3</title>
<polygon fill="#94ddf4" stroke="black" points="608.64,-39.5 608.64,-75.5 662.64,-75.5 662.64,-39.5 608.64,-39.5"/>
<text text-anchor="middle" x="635.64" y="-53.8" font-family="Times,serif" font-size="14.00">gff3</text>
</g>
<!-- extract_gff3&#45;&gt;gff3 -->
<g id="edge27" class="edge">
<title>extract_gff3&#45;&gt;gff3</title>
<path fill="none" stroke="black" d="M635.64,-112.31C635.64,-104.29 635.64,-94.55 635.64,-85.57"/>
<polygon fill="black" stroke="black" points="639.14,-85.53 635.64,-75.53 632.14,-85.53 639.14,-85.53"/>
</g>
<!-- merge_plasmids -->
<g id="node6" class="node">
<title>merge_plasmids</title>
<polygon fill="lightgoldenrodyellow" stroke="black" points="696.64,-258.5 696.64,-294.5 998.64,-294.5 998.64,-258.5 696.64,-258.5"/>
<text text-anchor="middle" x="847.64" y="-272.8" font-family="Times,serif" font-size="14.00">custom GenBank merging python script</text>
</g>
<!-- merge_plasmids&#45;&gt;merge_reference -->
<g id="edge8" class="edge">
<title>merge_plasmids&#45;&gt;merge_reference</title>
<path fill="none" stroke="black" d="M807.88,-258.49C784.84,-248.64 755.65,-236.16 731.14,-225.67"/>
<polygon fill="black" stroke="black" points="732.22,-222.33 721.65,-221.61 729.47,-228.76 732.22,-222.33"/>
</g>
<!-- reference_file -->
<g id="node7" class="node">
<title>reference_file</title>
<polygon fill="#94ddf4" stroke="black" points="332.14,-334.5 332.14,-370.5 445.14,-370.5 445.14,-334.5 332.14,-334.5"/>
<text text-anchor="middle" x="388.64" y="-348.8" font-family="Times,serif" font-size="14.00">reference_file</text>
</g>
<!-- reference_file&#45;&gt;merge_reference -->
<g id="edge15" class="edge">
<title>reference_file&#45;&gt;merge_reference</title>
<path fill="none" stroke="black" d="M405.69,-334.28C417.9,-323.17 435.36,-309.59 453.64,-303 486.71,-291.08 580.48,-311.28 611.64,-295 638.17,-281.14 657.72,-252.23 669.32,-230.8"/>
<polygon fill="black" stroke="black" points="672.46,-232.34 673.94,-221.85 666.24,-229.13 672.46,-232.34"/>
</g>
<!-- reference_file&#45;&gt;determine_output -->
<g id="edge10" class="edge">
<title>reference_file&#45;&gt;determine_output</title>
<path fill="none" stroke="black" d="M371.22,-334.43C358.78,-323.38 341.04,-309.82 322.64,-303 278.75,-286.74 263.4,-304.82 217.64,-295 117.69,-273.55 -51.82,-261.81 15.64,-185 36.96,-160.73 230.61,-144.18 344.33,-136.47"/>
<polygon fill="black" stroke="black" points="344.66,-139.95 354.4,-135.79 344.19,-132.97 344.66,-139.95"/>
</g>
<!-- reference_file&#45;&gt;fetch_reference -->
<g id="edge14" class="edge">
<title>reference_file&#45;&gt;fetch_reference</title>
<path fill="none" stroke="black" d="M406.03,-334.34C415.88,-324.62 428.35,-312.32 439.16,-301.65"/>
<polygon fill="black" stroke="black" points="441.68,-304.08 446.34,-294.57 436.76,-299.1 441.68,-304.08"/>
</g>
<!-- reference_file&#45;&gt;extract_fasta -->
<g id="edge11" class="edge">
<title>reference_file&#45;&gt;extract_fasta</title>
<path fill="none" stroke="black" d="M363.27,-334.35C349.44,-323.4 331.81,-310.01 313.64,-303 297.38,-296.73 249.38,-305.71 235.64,-295 216.31,-279.95 208.3,-252.5 206.66,-231.76"/>
<polygon fill="black" stroke="black" points="210.16,-231.52 206.36,-221.63 203.16,-231.73 210.16,-231.52"/>
</g>
<!-- reference_file&#45;&gt;extract_fasta -->
<g id="edge12" class="edge">
<title>reference_file&#45;&gt;extract_fasta</title>
<path fill="none" stroke="black" d="M378.27,-334.11C367.18,-323.21 349.68,-309.96 331.64,-303 315.38,-296.73 267.38,-305.71 253.64,-295 234.22,-279.88 226.22,-252.24 221.22,-231.47"/>
<polygon fill="black" stroke="black" points="224.6,-230.56 218.9,-221.63 217.79,-232.16 224.6,-230.56"/>
</g>
<!-- reference_file&#45;&gt;extract_gff3 -->
<g id="edge13" class="edge">
<title>reference_file&#45;&gt;extract_gff3</title>
<path fill="none" stroke="black" d="M364.4,-334.38C344.22,-319.86 318.35,-300.54 315.64,-295 308.4,-280.24 306.39,-271.6 315.64,-258 340.09,-222.03 366.58,-238.95 406.64,-222 443.46,-206.42 451.6,-200.07 488.64,-185 517.2,-173.38 549.35,-161.54 576.28,-151.96"/>
<polygon fill="black" stroke="black" points="577.69,-155.18 585.95,-148.54 575.36,-148.58 577.69,-155.18"/>
</g>
<!-- plasmids -->
<g id="node8" class="node">
<title>plasmids</title>
<polygon fill="#94ddf4" stroke="black" points="628.64,-334.5 628.64,-370.5 708.64,-370.5 708.64,-334.5 628.64,-334.5"/>
<text text-anchor="middle" x="668.64" y="-348.8" font-family="Times,serif" font-size="14.00">plasmids</text>
</g>
<!-- plasmids&#45;&gt;merge_reference -->
<g id="edge19" class="edge">
<title>plasmids&#45;&gt;merge_reference</title>
<path fill="none" stroke="black" d="M670.15,-334.35C672.39,-309.12 676.57,-261.76 679.23,-231.74"/>
<polygon fill="black" stroke="black" points="682.74,-231.81 680.13,-221.54 675.76,-231.19 682.74,-231.81"/>
</g>
<!-- plasmids&#45;&gt;extract_fasta -->
<g id="edge16" class="edge">
<title>plasmids&#45;&gt;extract_fasta</title>
<path fill="none" stroke="black" d="M656.37,-334.21C647.35,-323.06 634.02,-309.47 618.64,-303 587.6,-289.94 347.02,-307.22 315.64,-295 281.22,-281.6 250.52,-251.48 231.55,-229.66"/>
<polygon fill="black" stroke="black" points="234,-227.14 224.87,-221.76 228.65,-231.65 234,-227.14"/>
</g>
<!-- plasmids&#45;&gt;merge_plasmids -->
<g id="edge17" class="edge">
<title>plasmids&#45;&gt;merge_plasmids</title>
<path fill="none" stroke="black" d="M674.05,-334.07C681.7,-323.44 694.46,-310.51 708.64,-303 711.73,-301.36 714.91,-299.83 718.17,-298.4"/>
<polygon fill="black" stroke="black" points="719.56,-301.61 727.51,-294.61 716.93,-295.12 719.56,-301.61"/>
</g>
<!-- plasmids&#45;&gt;merge_plasmids -->
<g id="edge18" class="edge">
<title>plasmids&#45;&gt;merge_plasmids</title>
<path fill="none" stroke="black" d="M689.47,-334.07C699.7,-323.44 712.46,-310.51 726.64,-303 729.73,-301.36 732.91,-299.83 736.16,-298.4"/>
<polygon fill="black" stroke="black" points="737.54,-301.61 745.49,-294.61 734.9,-295.13 737.54,-301.61"/>
</g>
<!-- fasta_extraction_script -->
<g id="node9" class="node">
<title>fasta_extraction_script</title>
<polygon fill="#94ddf4" stroke="black" points="135.14,-334.5 135.14,-370.5 314.14,-370.5 314.14,-334.5 135.14,-334.5"/>
<text text-anchor="middle" x="224.64" y="-348.8" font-family="Times,serif" font-size="14.00">fasta_extraction_script</text>
</g>
<!-- fasta_extraction_script&#45;&gt;extract_fasta -->
<g id="edge20" class="edge">
<title>fasta_extraction_script&#45;&gt;extract_fasta</title>
<path fill="none" stroke="black" d="M210.13,-334.46C202.09,-323.86 192.87,-309.52 188.64,-295 182.4,-273.6 189.5,-249.07 197.41,-230.95"/>
<polygon fill="black" stroke="black" points="200.72,-232.15 201.81,-221.61 194.38,-229.17 200.72,-232.15"/>
</g>
<!-- gff3_extraction_script -->
<g id="node10" class="node">
<title>gff3_extraction_script</title>
<polygon fill="#94ddf4" stroke="black" points="936.64,-334.5 936.64,-370.5 1108.64,-370.5 1108.64,-334.5 936.64,-334.5"/>
<text text-anchor="middle" x="1022.64" y="-348.8" font-family="Times,serif" font-size="14.00">gff3_extraction_script</text>
</g>
<!-- gff3_extraction_script&#45;&gt;extract_gff3 -->
<g id="edge21" class="edge">
<title>gff3_extraction_script&#45;&gt;extract_gff3</title>
<path fill="none" stroke="black" d="M1028.78,-334.31C1034.81,-314.18 1041.06,-280.71 1025.64,-258 993.1,-210.08 844.31,-171.96 740.23,-150.55"/>
<polygon fill="black" stroke="black" points="740.8,-147.1 730.3,-148.53 739.4,-153.96 740.8,-147.1"/>
</g>
<!-- accession_number -->
<g id="node11" class="node">
<title>accession_number</title>
<polygon fill="#94ddf4" stroke="black" points="463.14,-334.5 463.14,-370.5 610.14,-370.5 610.14,-334.5 463.14,-334.5"/>
<text text-anchor="middle" x="536.64" y="-348.8" font-family="Times,serif" font-size="14.00">accession_number</text>
</g>
<!-- accession_number&#45;&gt;fetch_reference -->
<g id="edge22" class="edge">
<title>accession_number&#45;&gt;fetch_reference</title>
<path fill="none" stroke="black" d="M519.71,-334.34C510.22,-324.72 498.22,-312.56 487.76,-301.96"/>
<polygon fill="black" stroke="black" points="489.99,-299.23 480.48,-294.57 485.01,-304.15 489.99,-299.23"/>
</g>
<!-- merging_genbank_script -->
<g id="node12" class="node">
<title>merging_genbank_script</title>
<polygon fill="#94ddf4" stroke="black" points="726.64,-334.5 726.64,-370.5 918.64,-370.5 918.64,-334.5 726.64,-334.5"/>
<text text-anchor="middle" x="822.64" y="-348.8" font-family="Times,serif" font-size="14.00">merging_genbank_script</text>
</g>
<!-- merging_genbank_script&#45;&gt;merge_reference -->
<g id="edge24" class="edge">
<title>merging_genbank_script&#45;&gt;merge_reference</title>
<path fill="none" stroke="black" d="M852.4,-334.49C872.89,-323.62 901.1,-310.24 927.64,-303 944.87,-298.3 995.65,-308.25 1007.64,-295 1018.67,-282.81 1018.28,-270.53 1007.64,-258 985.56,-232.01 913.66,-218.62 842.99,-211.73"/>
<polygon fill="black" stroke="black" points="843.31,-208.25 833.03,-210.81 842.66,-215.22 843.31,-208.25"/>
</g>
<!-- merging_genbank_script&#45;&gt;merge_plasmids -->
<g id="edge23" class="edge">
<title>merging_genbank_script&#45;&gt;merge_plasmids</title>
<path fill="none" stroke="black" d="M828.44,-334.34C831.46,-325.37 835.24,-314.2 838.64,-304.14"/>
<polygon fill="black" stroke="black" points="841.99,-305.16 841.87,-294.57 835.35,-302.92 841.99,-305.16"/>
</g>
</g>
</svg>
