<?xml version="1.0" encoding="UTF-8" standalone="no"?>
<!DOCTYPE svg PUBLIC "-//W3C//DTD SVG 1.1//EN"
 "http://www.w3.org/Graphics/SVG/1.1/DTD/svg11.dtd">
<!-- Generated by graphviz version 2.40.1 (20161225.0304)
 -->
<!-- Title: workflow Pages: 1 -->
<svg width="509pt" height="161pt"
 viewBox="0.00 0.00 509.00 161.00" xmlns="http://www.w3.org/2000/svg" xmlns:xlink="http://www.w3.org/1999/xlink">
<g id="graph0" class="graph" transform="scale(1 1) rotate(0) translate(4 157)">
<title>workflow</title>
<polygon fill="#ffffff" stroke="transparent" points="-4,4 -4,-157 505,-157 505,4 -4,4"/>
<g id="clust1" class="cluster">
<title>cluster_inputs</title>
<polygon fill="none" stroke="#000000" stroke-dasharray="5,2" points="73.5,-90 73.5,-145 265.5,-145 265.5,-90 73.5,-90"/>
<text text-anchor="middle" x="117.5" y="-133" font-family="Helvetica,sans-Serif" font-size="10.00" fill="#000000">Workflow Inputs</text>
</g>
<!-- #main/0_Input Dataset -->
<g id="node1" class="node">
<title>#main/0_Input Dataset</title>
<polygon fill="#94ddf4" stroke="#000000" points="171.5,-98.5 171.5,-117.5 257.5,-117.5 257.5,-98.5 171.5,-98.5"/>
<text text-anchor="middle" x="214.5" y="-105.5" font-family="Helvetica,sans-Serif" font-size="10.00" fill="#000000">0_Input Dataset</text>
</g>
<!-- #main/2_Calculate community metrics -->
<g id="node3" class="node">
<title>#main/2_Calculate community metrics</title>
<polygon fill="#fafad2" stroke="#000000" points="167,-45.5 167,-64.5 322,-64.5 322,-45.5 167,-45.5"/>
<text text-anchor="middle" x="244.5" y="-52.5" font-family="Helvetica,sans-Serif" font-size="10.00" fill="#000000">2_Calculate community metrics</text>
</g>
<!-- #main/0_Input Dataset&#45;&gt;#main/2_Calculate community metrics -->
<g id="edge1" class="edge">
<title>#main/0_Input Dataset&#45;&gt;#main/2_Calculate community metrics</title>
<path fill="none" stroke="#000000" d="M220.0025,-98.279C224.3159,-90.6585 230.4094,-79.8934 235.4399,-71.0062"/>
<polygon fill="#000000" stroke="#000000" points="237.7163,-71.9581 239.0324,-64.6594 233.4521,-69.5443 237.7163,-71.9581"/>
<text text-anchor="middle" x="242.5" y="-75.6" font-family="Helvetica,sans-Serif" font-size="8.00" fill="#000000">input</text>
</g>
<!-- #main/3_Calculate presence absence table -->
<g id="node4" class="node">
<title>#main/3_Calculate presence absence table</title>
<polygon fill="#fafad2" stroke="#000000" points="326,-45.5 326,-64.5 501,-64.5 501,-45.5 326,-45.5"/>
<text text-anchor="middle" x="413.5" y="-52.5" font-family="Helvetica,sans-Serif" font-size="10.00" fill="#000000">3_Calculate presence absence table</text>
</g>
<!-- #main/0_Input Dataset&#45;&gt;#main/3_Calculate presence absence table -->
<g id="edge2" class="edge">
<title>#main/0_Input Dataset&#45;&gt;#main/3_Calculate presence absence table</title>
<path fill="none" stroke="#000000" d="M250.5374,-98.4021C284.3488,-89.3971 334.9401,-75.923 370.7707,-66.3802"/>
<polygon fill="#000000" stroke="#000000" points="371.597,-68.6956 377.7307,-64.5265 370.3359,-63.9606 371.597,-68.6956"/>
<text text-anchor="middle" x="351.5" y="-75.6" font-family="Helvetica,sans-Serif" font-size="8.00" fill="#000000">input</text>
</g>
<!-- #main/1_Input Dataset -->
<g id="node2" class="node">
<title>#main/1_Input Dataset</title>
<polygon fill="#94ddf4" stroke="#000000" points="81.5,-98.5 81.5,-117.5 167.5,-117.5 167.5,-98.5 81.5,-98.5"/>
<text text-anchor="middle" x="124.5" y="-105.5" font-family="Helvetica,sans-Serif" font-size="10.00" fill="#000000">1_Input Dataset</text>
</g>
<!-- #main/4_Compute GLM on community data -->
<g id="node5" class="node">
<title>#main/4_Compute GLM on community data</title>
<polygon fill="#fafad2" stroke="#000000" points="0,-.5 0,-19.5 177,-19.5 177,-.5 0,-.5"/>
<text text-anchor="middle" x="88.5" y="-7.5" font-family="Helvetica,sans-Serif" font-size="10.00" fill="#000000">4_Compute GLM on community data</text>
</g>
<!-- #main/1_Input Dataset&#45;&gt;#main/4_Compute GLM on community data -->
<g id="edge4" class="edge">
<title>#main/1_Input Dataset&#45;&gt;#main/4_Compute GLM on community data</title>
<path fill="none" stroke="#000000" d="M100.2223,-98.3865C86.1585,-91.4057 69.6638,-80.4563 61.5,-65 54.4773,-51.7041 63.4428,-36.3219 72.8809,-25.2114"/>
<polygon fill="#000000" stroke="#000000" points="74.882,-26.6523 77.7773,-19.8244 71.256,-23.3565 74.882,-26.6523"/>
<text text-anchor="middle" x="85.5" y="-53.1" font-family="Helvetica,sans-Serif" font-size="8.00" fill="#000000">input_unitobs</text>
</g>
<!-- #main/5_Compute GLM on population data -->
<g id="node6" class="node">
<title>#main/5_Compute GLM on population data</title>
<polygon fill="#fafad2" stroke="#000000" points="196,-.5 196,-19.5 369,-19.5 369,-.5 196,-.5"/>
<text text-anchor="middle" x="282.5" y="-7.5" font-family="Helvetica,sans-Serif" font-size="10.00" fill="#000000">5_Compute GLM on population data</text>
</g>
<!-- #main/1_Input Dataset&#45;&gt;#main/5_Compute GLM on population data -->
<g id="edge6" class="edge">
<title>#main/1_Input Dataset&#45;&gt;#main/5_Compute GLM on population data</title>
<path fill="none" stroke="#000000" d="M119.8933,-98.2151C114.4445,-85.0747 107.3174,-61.4758 117.5,-45 126.3821,-30.6285 135.3603,-32.9943 151.5,-28 163.3426,-24.3354 176.0179,-21.4159 188.6477,-19.0902"/>
<polygon fill="#000000" stroke="#000000" points="189.184,-21.4835 195.654,-17.8582 188.3354,-16.6576 189.184,-21.4835"/>
<text text-anchor="middle" x="141.5" y="-53.1" font-family="Helvetica,sans-Serif" font-size="8.00" fill="#000000">input_unitobs</text>
</g>
<!-- #main/2_Calculate community metrics&#45;&gt;#main/4_Compute GLM on community data -->
<g id="edge3" class="edge">
<title>#main/2_Calculate community metrics&#45;&gt;#main/4_Compute GLM on community data</title>
<path fill="none" stroke="#000000" d="M211.4164,-45.4567C187.2178,-38.4763 154.2697,-28.972 128.5769,-21.5606"/>
<polygon fill="#000000" stroke="#000000" points="128.9407,-19.1158 121.5359,-19.5296 127.5826,-23.8238 128.9407,-19.1158"/>
<text text-anchor="middle" x="201.5" y="-30.6" font-family="Helvetica,sans-Serif" font-size="8.00" fill="#000000">input_metric</text>
</g>
<!-- #main/3_Calculate presence absence table&#45;&gt;#main/5_Compute GLM on population data -->
<g id="edge5" class="edge">
<title>#main/3_Calculate presence absence table&#45;&gt;#main/5_Compute GLM on population data</title>
<path fill="none" stroke="#000000" d="M385.7183,-45.4567C365.6581,-38.5658 338.4379,-29.2153 316.9871,-21.8467"/>
<polygon fill="#000000" stroke="#000000" points="317.658,-19.4867 310.2417,-19.5296 316.066,-24.1209 317.658,-19.4867"/>
<text text-anchor="middle" x="381.5" y="-30.6" font-family="Helvetica,sans-Serif" font-size="8.00" fill="#000000">input_metric</text>
</g>
</g>
</svg>
