<?xml version="1.0" encoding="UTF-8" standalone="no"?>
<!DOCTYPE svg PUBLIC "-//W3C//DTD SVG 1.1//EN"
 "http://www.w3.org/Graphics/SVG/1.1/DTD/svg11.dtd">
<!-- Generated by graphviz version 2.40.1 (20161225.0304)
 -->
<!-- Title: workflow Pages: 1 -->
<svg width="1067pt" height="331pt"
 viewBox="0.00 0.00 1067.00 331.00" xmlns="http://www.w3.org/2000/svg" xmlns:xlink="http://www.w3.org/1999/xlink">
<g id="graph0" class="graph" transform="scale(1 1) rotate(0) translate(4 327)">
<title>workflow</title>
<polygon fill="#ffffff" stroke="transparent" points="-4,4 -4,-327 1063,-327 1063,4 -4,4"/>
<g id="clust1" class="cluster">
<title>cluster_inputs</title>
<polygon fill="none" stroke="#000000" stroke-dasharray="5,2" points="8,-260 8,-315 1051,-315 1051,-260 8,-260"/>
<text text-anchor="middle" x="52" y="-303" font-family="Helvetica,sans-Serif" font-size="10.00" fill="#000000">Workflow Inputs</text>
</g>
<g id="clust2" class="cluster">
<title>cluster_outputs</title>
<polygon fill="none" stroke="#000000" stroke-dasharray="5,2" points="159,-8 159,-63 920,-63 920,-8 159,-8"/>
<text text-anchor="middle" x="206.5" y="-15" font-family="Helvetica,sans-Serif" font-size="10.00" fill="#000000">Workflow Outputs</text>
</g>
<!-- step1_fpocket_select_input_pockets_zip -->
<g id="node1" class="node">
<title>step1_fpocket_select_input_pockets_zip</title>
<polygon fill="#94ddf4" stroke="#000000" points="16,-268.5 16,-287.5 70,-287.5 70,-268.5 16,-268.5"/>
<text text-anchor="middle" x="43" y="-275.5" font-family="Helvetica,sans-Serif" font-size="10.00" fill="#000000">Input file</text>
</g>
<!-- step1_fpocket_select -->
<g id="node25" class="node">
<title>step1_fpocket_select</title>
<polygon fill="#fafad2" stroke="#000000" points="175,-215.5 175,-234.5 255,-234.5 255,-215.5 175,-215.5"/>
<text text-anchor="middle" x="215" y="-222.5" font-family="Helvetica,sans-Serif" font-size="10.00" fill="#000000">fpocket_select</text>
</g>
<!-- step1_fpocket_select_input_pockets_zip&#45;&gt;step1_fpocket_select -->
<g id="edge2" class="edge">
<title>step1_fpocket_select_input_pockets_zip&#45;&gt;step1_fpocket_select</title>
<path fill="none" stroke="#000000" d="M38.7306,-268.4604C35.9546,-260.6405 33.8712,-249.7915 40,-243 48.4593,-233.6259 119.0123,-228.8516 167.9084,-226.646"/>
<polygon fill="#000000" stroke="#000000" points="168.0687,-229.0915 174.9554,-226.339 167.8554,-224.1961 168.0687,-229.0915"/>
<text text-anchor="middle" x="72" y="-245.6" font-family="Helvetica,sans-Serif" font-size="8.00" fill="#000000">input_pockets_zip</text>
</g>
<!-- step1_fpocket_select_output_pocket_pdb -->
<g id="node2" class="node">
<title>step1_fpocket_select_output_pocket_pdb</title>
<polygon fill="#94ddf4" stroke="#000000" points="74,-268.5 74,-287.5 136,-287.5 136,-268.5 74,-268.5"/>
<text text-anchor="middle" x="105" y="-275.5" font-family="Helvetica,sans-Serif" font-size="10.00" fill="#000000">Output file</text>
</g>
<!-- step1_fpocket_select_output_pocket_pdb&#45;&gt;step1_fpocket_select -->
<g id="edge3" class="edge">
<title>step1_fpocket_select_output_pocket_pdb&#45;&gt;step1_fpocket_select</title>
<path fill="none" stroke="#000000" d="M103.8736,-268.3333C103.5293,-260.4357 104.4662,-249.5442 111,-243 119.0957,-234.8913 144.1018,-230.4094 167.5639,-227.9459"/>
<polygon fill="#000000" stroke="#000000" points="168.0454,-230.3607 174.7753,-227.2444 167.5709,-225.4838 168.0454,-230.3607"/>
<text text-anchor="middle" x="145.5" y="-245.6" font-family="Helvetica,sans-Serif" font-size="8.00" fill="#000000">output_pocket_pdb</text>
</g>
<!-- step1_fpocket_select_output_pocket_pqr -->
<g id="node3" class="node">
<title>step1_fpocket_select_output_pocket_pqr</title>
<polygon fill="#94ddf4" stroke="#000000" points="140,-268.5 140,-287.5 202,-287.5 202,-268.5 140,-268.5"/>
<text text-anchor="middle" x="171" y="-275.5" font-family="Helvetica,sans-Serif" font-size="10.00" fill="#000000">Output file</text>
</g>
<!-- step1_fpocket_select_output_pocket_pqr&#45;&gt;step1_fpocket_select -->
<g id="edge4" class="edge">
<title>step1_fpocket_select_output_pocket_pqr&#45;&gt;step1_fpocket_select</title>
<path fill="none" stroke="#000000" d="M174.1271,-268.2832C176.898,-260.7702 181.5155,-250.4312 188,-243 189.1992,-241.6257 190.5269,-240.3112 191.9314,-239.0632"/>
<polygon fill="#000000" stroke="#000000" points="193.6288,-240.8454 197.62,-234.5945 190.6019,-236.9921 193.6288,-240.8454"/>
<text text-anchor="middle" x="221.5" y="-245.6" font-family="Helvetica,sans-Serif" font-size="8.00" fill="#000000">output_pocket_pqr</text>
</g>
<!-- step1_fpocket_select_config -->
<g id="node4" class="node">
<title>step1_fpocket_select_config</title>
<polygon fill="#94ddf4" stroke="#000000" points="206.5,-268.5 206.5,-287.5 267.5,-287.5 267.5,-268.5 206.5,-268.5"/>
<text text-anchor="middle" x="237" y="-275.5" font-family="Helvetica,sans-Serif" font-size="10.00" fill="#000000">Config file</text>
</g>
<!-- step1_fpocket_select_config&#45;&gt;step1_fpocket_select -->
<g id="edge1" class="edge">
<title>step1_fpocket_select_config&#45;&gt;step1_fpocket_select</title>
<path fill="none" stroke="#000000" d="M248.1414,-268.2498C254.9355,-261.0897 261.3685,-251.2201 256,-243 255.102,-241.625 254.073,-240.3544 252.9408,-239.1803"/>
<polygon fill="#000000" stroke="#000000" points="254.3645,-237.1791 247.4013,-234.6261 251.2526,-240.9641 254.3645,-237.1791"/>
<text text-anchor="middle" x="268" y="-245.6" font-family="Helvetica,sans-Serif" font-size="8.00" fill="#000000">config</text>
</g>
<!-- step2_box_output_pdb_path -->
<g id="node5" class="node">
<title>step2_box_output_pdb_path</title>
<polygon fill="#94ddf4" stroke="#000000" points="272,-268.5 272,-287.5 334,-287.5 334,-268.5 272,-268.5"/>
<text text-anchor="middle" x="303" y="-275.5" font-family="Helvetica,sans-Serif" font-size="10.00" fill="#000000">Output file</text>
</g>
<!-- step2_box -->
<g id="node26" class="node">
<title>step2_box</title>
<polygon fill="#fafad2" stroke="#000000" points="356,-170.5 356,-189.5 388,-189.5 388,-170.5 356,-170.5"/>
<text text-anchor="middle" x="372" y="-177.5" font-family="Helvetica,sans-Serif" font-size="10.00" fill="#000000">box</text>
</g>
<!-- step2_box_output_pdb_path&#45;&gt;step2_box -->
<g id="edge7" class="edge">
<title>step2_box_output_pdb_path&#45;&gt;step2_box</title>
<path fill="none" stroke="#000000" d="M301.084,-268.1365C299.0754,-254.9071 297.5019,-231.2076 308,-215 317.3483,-200.5676 334.7844,-191.5988 349.0991,-186.358"/>
<polygon fill="#000000" stroke="#000000" points="349.9838,-188.6451 355.8264,-184.077 348.4103,-184.0045 349.9838,-188.6451"/>
<text text-anchor="middle" x="338.5" y="-223.1" font-family="Helvetica,sans-Serif" font-size="8.00" fill="#000000">output_pdb_path</text>
</g>
<!-- step2_box_config -->
<g id="node6" class="node">
<title>step2_box_config</title>
<polygon fill="#94ddf4" stroke="#000000" points="338.5,-268.5 338.5,-287.5 399.5,-287.5 399.5,-268.5 338.5,-268.5"/>
<text text-anchor="middle" x="369" y="-275.5" font-family="Helvetica,sans-Serif" font-size="10.00" fill="#000000">Config file</text>
</g>
<!-- step2_box_config&#45;&gt;step2_box -->
<g id="edge5" class="edge">
<title>step2_box_config&#45;&gt;step2_box</title>
<path fill="none" stroke="#000000" d="M369.2986,-268.2451C369.8085,-251.5884 370.8529,-217.4711 371.4833,-196.8802"/>
<polygon fill="#000000" stroke="#000000" points="373.9372,-196.7872 371.7026,-189.7154 369.0395,-196.6372 373.9372,-196.7872"/>
<text text-anchor="middle" x="381" y="-223.1" font-family="Helvetica,sans-Serif" font-size="8.00" fill="#000000">config</text>
</g>
<!-- step3_babel_convert_prep_lig_input_path -->
<g id="node7" class="node">
<title>step3_babel_convert_prep_lig_input_path</title>
<polygon fill="#94ddf4" stroke="#000000" points="469,-268.5 469,-287.5 523,-287.5 523,-268.5 469,-268.5"/>
<text text-anchor="middle" x="496" y="-275.5" font-family="Helvetica,sans-Serif" font-size="10.00" fill="#000000">Input file</text>
</g>
<!-- step3_babel_convert_prep_lig -->
<g id="node27" class="node">
<title>step3_babel_convert_prep_lig</title>
<polygon fill="#fafad2" stroke="#000000" points="459.5,-215.5 459.5,-234.5 536.5,-234.5 536.5,-215.5 459.5,-215.5"/>
<text text-anchor="middle" x="498" y="-222.5" font-family="Helvetica,sans-Serif" font-size="10.00" fill="#000000">babel_convert</text>
</g>
<!-- step3_babel_convert_prep_lig_input_path&#45;&gt;step3_babel_convert_prep_lig -->
<g id="edge9" class="edge">
<title>step3_babel_convert_prep_lig_input_path&#45;&gt;step3_babel_convert_prep_lig</title>
<path fill="none" stroke="#000000" d="M496.3668,-268.279C496.6459,-260.8827 497.0368,-250.5239 497.3662,-241.7951"/>
<polygon fill="#000000" stroke="#000000" points="499.8197,-241.7468 497.6355,-234.6594 494.9232,-241.562 499.8197,-241.7468"/>
<text text-anchor="middle" x="516" y="-245.6" font-family="Helvetica,sans-Serif" font-size="8.00" fill="#000000">input_path</text>
</g>
<!-- step3_babel_convert_prep_lig_output_path -->
<g id="node8" class="node">
<title>step3_babel_convert_prep_lig_output_path</title>
<polygon fill="#94ddf4" stroke="#000000" points="527,-268.5 527,-287.5 589,-287.5 589,-268.5 527,-268.5"/>
<text text-anchor="middle" x="558" y="-275.5" font-family="Helvetica,sans-Serif" font-size="10.00" fill="#000000">Output file</text>
</g>
<!-- step3_babel_convert_prep_lig_output_path&#45;&gt;step3_babel_convert_prep_lig -->
<g id="edge10" class="edge">
<title>step3_babel_convert_prep_lig_output_path&#45;&gt;step3_babel_convert_prep_lig</title>
<path fill="none" stroke="#000000" d="M553.7985,-268.3334C550.0554,-260.648 543.9436,-250.0519 536,-243 534.0279,-241.2493 531.8557,-239.6342 529.5791,-238.1514"/>
<polygon fill="#000000" stroke="#000000" points="530.6559,-235.9432 523.3748,-234.5328 528.1872,-240.1759 530.6559,-235.9432"/>
<text text-anchor="middle" x="564.5" y="-245.6" font-family="Helvetica,sans-Serif" font-size="8.00" fill="#000000">output_path</text>
</g>
<!-- step3_babel_convert_prep_lig_config -->
<g id="node9" class="node">
<title>step3_babel_convert_prep_lig_config</title>
<polygon fill="#94ddf4" stroke="#000000" points="403.5,-268.5 403.5,-287.5 464.5,-287.5 464.5,-268.5 403.5,-268.5"/>
<text text-anchor="middle" x="434" y="-275.5" font-family="Helvetica,sans-Serif" font-size="10.00" fill="#000000">Config file</text>
</g>
<!-- step3_babel_convert_prep_lig_config&#45;&gt;step3_babel_convert_prep_lig -->
<g id="edge8" class="edge">
<title>step3_babel_convert_prep_lig_config&#45;&gt;step3_babel_convert_prep_lig</title>
<path fill="none" stroke="#000000" d="M444.6762,-268.2683C452.6272,-261.1173 463.821,-251.251 474,-243 475.5931,-241.7086 477.264,-240.3887 478.9509,-239.0795"/>
<polygon fill="#000000" stroke="#000000" points="480.5781,-240.9197 484.6589,-234.727 477.6069,-237.0233 480.5781,-240.9197"/>
<text text-anchor="middle" x="485" y="-245.6" font-family="Helvetica,sans-Serif" font-size="8.00" fill="#000000">config</text>
</g>
<!-- step4_str_check_add_hydrogens_input_structure_path -->
<g id="node10" class="node">
<title>step4_str_check_add_hydrogens_input_structure_path</title>
<polygon fill="#94ddf4" stroke="#000000" points="791,-268.5 791,-287.5 845,-287.5 845,-268.5 791,-268.5"/>
<text text-anchor="middle" x="818" y="-275.5" font-family="Helvetica,sans-Serif" font-size="10.00" fill="#000000">Input file</text>
</g>
<!-- step4_str_check_add_hydrogens -->
<g id="node28" class="node">
<title>step4_str_check_add_hydrogens</title>
<polygon fill="#fafad2" stroke="#000000" points="721.5,-215.5 721.5,-234.5 852.5,-234.5 852.5,-215.5 721.5,-215.5"/>
<text text-anchor="middle" x="787" y="-222.5" font-family="Helvetica,sans-Serif" font-size="10.00" fill="#000000">str_check_add_hydrogens</text>
</g>
<!-- step4_str_check_add_hydrogens_input_structure_path&#45;&gt;step4_str_check_add_hydrogens -->
<g id="edge12" class="edge">
<title>step4_str_check_add_hydrogens_input_structure_path&#45;&gt;step4_str_check_add_hydrogens</title>
<path fill="none" stroke="#000000" d="M804.8697,-268.4853C799.724,-264.0589 794.278,-258.3636 791,-252 789.3766,-248.8484 788.3604,-245.233 787.7352,-241.694"/>
<polygon fill="#000000" stroke="#000000" points="790.1658,-241.3842 786.9316,-234.7101 785.2979,-241.9443 790.1658,-241.3842"/>
<text text-anchor="middle" x="828" y="-245.6" font-family="Helvetica,sans-Serif" font-size="8.00" fill="#000000">input_structure_path</text>
</g>
<!-- step4_str_check_add_hydrogens_output_structure_path -->
<g id="node11" class="node">
<title>step4_str_check_add_hydrogens_output_structure_path</title>
<polygon fill="#94ddf4" stroke="#000000" points="849,-268.5 849,-287.5 911,-287.5 911,-268.5 849,-268.5"/>
<text text-anchor="middle" x="880" y="-275.5" font-family="Helvetica,sans-Serif" font-size="10.00" fill="#000000">Output file</text>
</g>
<!-- step4_str_check_add_hydrogens_output_structure_path&#45;&gt;step4_str_check_add_hydrogens -->
<g id="edge13" class="edge">
<title>step4_str_check_add_hydrogens_output_structure_path&#45;&gt;step4_str_check_add_hydrogens</title>
<path fill="none" stroke="#000000" d="M877.4437,-268.223C874.8554,-260.2582 870.0611,-249.3298 862,-243 858.9984,-240.6431 853.6153,-238.4434 847.06,-236.4477"/>
<polygon fill="#000000" stroke="#000000" points="847.5597,-234.0436 840.1587,-234.5218 846.2425,-238.7633 847.5597,-234.0436"/>
<text text-anchor="middle" x="908.5" y="-245.6" font-family="Helvetica,sans-Serif" font-size="8.00" fill="#000000">output_structure_path</text>
</g>
<!-- step4_str_check_add_hydrogens_config -->
<g id="node12" class="node">
<title>step4_str_check_add_hydrogens_config</title>
<polygon fill="#94ddf4" stroke="#000000" points="725.5,-268.5 725.5,-287.5 786.5,-287.5 786.5,-268.5 725.5,-268.5"/>
<text text-anchor="middle" x="756" y="-275.5" font-family="Helvetica,sans-Serif" font-size="10.00" fill="#000000">Config file</text>
</g>
<!-- step4_str_check_add_hydrogens_config&#45;&gt;step4_str_check_add_hydrogens -->
<g id="edge11" class="edge">
<title>step4_str_check_add_hydrogens_config&#45;&gt;step4_str_check_add_hydrogens</title>
<path fill="none" stroke="#000000" d="M755.003,-268.388C754.6993,-260.9327 755.3458,-250.6204 760,-243 760.7488,-241.774 761.6163,-240.6136 762.5715,-239.518"/>
<polygon fill="#000000" stroke="#000000" points="764.4473,-241.121 767.9337,-234.5751 761.1262,-237.5181 764.4473,-241.121"/>
<text text-anchor="middle" x="771" y="-245.6" font-family="Helvetica,sans-Serif" font-size="8.00" fill="#000000">config</text>
</g>
<!-- step5_autodock_vina_run_output_pdbqt_path -->
<g id="node13" class="node">
<title>step5_autodock_vina_run_output_pdbqt_path</title>
<polygon fill="#94ddf4" stroke="#000000" points="593,-268.5 593,-287.5 655,-287.5 655,-268.5 593,-268.5"/>
<text text-anchor="middle" x="624" y="-275.5" font-family="Helvetica,sans-Serif" font-size="10.00" fill="#000000">Output file</text>
</g>
<!-- step5_autodock_vina_run -->
<g id="node29" class="node">
<title>step5_autodock_vina_run</title>
<polygon fill="#fafad2" stroke="#000000" points="585,-125.5 585,-144.5 683,-144.5 683,-125.5 585,-125.5"/>
<text text-anchor="middle" x="634" y="-132.5" font-family="Helvetica,sans-Serif" font-size="10.00" fill="#000000">autodock_vina_run</text>
</g>
<!-- step5_autodock_vina_run_output_pdbqt_path&#45;&gt;step5_autodock_vina_run -->
<g id="edge17" class="edge">
<title>step5_autodock_vina_run_output_pdbqt_path&#45;&gt;step5_autodock_vina_run</title>
<path fill="none" stroke="#000000" d="M621.0677,-268.3694C616.8736,-253.3162 610.0786,-223.3125 614,-198 616.526,-181.695 622.5235,-163.8322 627.2961,-151.3048"/>
<polygon fill="#000000" stroke="#000000" points="629.6518,-152.0087 629.9292,-144.5975 625.0906,-150.2181 629.6518,-152.0087"/>
<text text-anchor="middle" x="648" y="-200.6" font-family="Helvetica,sans-Serif" font-size="8.00" fill="#000000">output_pdbqt_path</text>
</g>
<!-- step5_autodock_vina_run_output_log_path -->
<g id="node14" class="node">
<title>step5_autodock_vina_run_output_log_path</title>
<polygon fill="#94ddf4" stroke="#000000" points="659,-268.5 659,-287.5 721,-287.5 721,-268.5 659,-268.5"/>
<text text-anchor="middle" x="690" y="-275.5" font-family="Helvetica,sans-Serif" font-size="10.00" fill="#000000">Output file</text>
</g>
<!-- step5_autodock_vina_run_output_log_path&#45;&gt;step5_autodock_vina_run -->
<g id="edge18" class="edge">
<title>step5_autodock_vina_run_output_log_path&#45;&gt;step5_autodock_vina_run</title>
<path fill="none" stroke="#000000" d="M690.1408,-268.2635C690.0438,-252.8116 688.531,-221.9707 679,-198 671.8301,-179.9675 658.4348,-162.2369 648.1163,-150.2029"/>
<polygon fill="#000000" stroke="#000000" points="649.8034,-148.4115 643.3388,-144.7766 646.1257,-151.6495 649.8034,-148.4115"/>
<text text-anchor="middle" x="711" y="-200.6" font-family="Helvetica,sans-Serif" font-size="8.00" fill="#000000">output_log_path</text>
</g>
<!-- step6_babel_convert_pose_pdb_output_path -->
<g id="node15" class="node">
<title>step6_babel_convert_pose_pdb_output_path</title>
<polygon fill="#94ddf4" stroke="#000000" points="915,-268.5 915,-287.5 977,-287.5 977,-268.5 915,-268.5"/>
<text text-anchor="middle" x="946" y="-275.5" font-family="Helvetica,sans-Serif" font-size="10.00" fill="#000000">Output file</text>
</g>
<!-- step6_babel_convert_pose_pdb -->
<g id="node30" class="node">
<title>step6_babel_convert_pose_pdb</title>
<polygon fill="#fafad2" stroke="#000000" points="893.5,-80.5 893.5,-99.5 970.5,-99.5 970.5,-80.5 893.5,-80.5"/>
<text text-anchor="middle" x="932" y="-87.5" font-family="Helvetica,sans-Serif" font-size="10.00" fill="#000000">babel_convert</text>
</g>
<!-- step6_babel_convert_pose_pdb_output_path&#45;&gt;step6_babel_convert_pose_pdb -->
<g id="edge21" class="edge">
<title>step6_babel_convert_pose_pdb_output_path&#45;&gt;step6_babel_convert_pose_pdb</title>
<path fill="none" stroke="#000000" d="M949.2409,-268.3563C952.4856,-257.8285 957,-240.4119 957,-225 957,-225 957,-225 957,-135 957,-124.1748 951.4034,-113.5195 945.5061,-105.2966"/>
<polygon fill="#000000" stroke="#000000" points="947.2518,-103.5497 941.0256,-99.5201 943.38,-106.5529 947.2518,-103.5497"/>
<text text-anchor="middle" x="978.5" y="-178.1" font-family="Helvetica,sans-Serif" font-size="8.00" fill="#000000">output_path</text>
</g>
<!-- step6_babel_convert_pose_pdb_config -->
<g id="node16" class="node">
<title>step6_babel_convert_pose_pdb_config</title>
<polygon fill="#94ddf4" stroke="#000000" points="981.5,-268.5 981.5,-287.5 1042.5,-287.5 1042.5,-268.5 981.5,-268.5"/>
<text text-anchor="middle" x="1012" y="-275.5" font-family="Helvetica,sans-Serif" font-size="10.00" fill="#000000">Config file</text>
</g>
<!-- step6_babel_convert_pose_pdb_config&#45;&gt;step6_babel_convert_pose_pdb -->
<g id="edge19" class="edge">
<title>step6_babel_convert_pose_pdb_config&#45;&gt;step6_babel_convert_pose_pdb</title>
<path fill="none" stroke="#000000" d="M1011.4108,-268.2358C1010.8208,-257.6051 1010,-240.101 1010,-225 1010,-225 1010,-225 1010,-135 1010,-117.1959 994.5641,-106.327 977.4258,-99.7463"/>
<polygon fill="#000000" stroke="#000000" points="977.9594,-97.3377 970.543,-97.3462 976.3459,-101.9645 977.9594,-97.3377"/>
<text text-anchor="middle" x="1021" y="-178.1" font-family="Helvetica,sans-Serif" font-size="8.00" fill="#000000">config</text>
</g>
<!-- step1_fpocket_select_out1 -->
<g id="node17" class="node">
<title>step1_fpocket_select_out1</title>
<polygon fill="#94ddf4" stroke="#000000" points="267.5,-35.5 267.5,-54.5 366.5,-54.5 366.5,-35.5 267.5,-35.5"/>
<text text-anchor="middle" x="317" y="-42.5" font-family="Helvetica,sans-Serif" font-size="10.00" fill="#000000">output_pocket_pdb</text>
</g>
<!-- step1_fpocket_select_out2 -->
<g id="node18" class="node">
<title>step1_fpocket_select_out2</title>
<polygon fill="#94ddf4" stroke="#000000" points="166.5,-35.5 166.5,-54.5 263.5,-54.5 263.5,-35.5 166.5,-35.5"/>
<text text-anchor="middle" x="215" y="-42.5" font-family="Helvetica,sans-Serif" font-size="10.00" fill="#000000">output_pocket_pqr</text>
</g>
<!-- step2_box_out1 -->
<g id="node19" class="node">
<title>step2_box_out1</title>
<polygon fill="#94ddf4" stroke="#000000" points="370.5,-35.5 370.5,-54.5 459.5,-54.5 459.5,-35.5 370.5,-35.5"/>
<text text-anchor="middle" x="415" y="-42.5" font-family="Helvetica,sans-Serif" font-size="10.00" fill="#000000">output_pdb_path</text>
</g>
<!-- step3_babel_convert_prep_lig_out1 -->
<g id="node20" class="node">
<title>step3_babel_convert_prep_lig_out1</title>
<polygon fill="#94ddf4" stroke="#000000" points="464,-35.5 464,-54.5 532,-54.5 532,-35.5 464,-35.5"/>
<text text-anchor="middle" x="498" y="-42.5" font-family="Helvetica,sans-Serif" font-size="10.00" fill="#000000">output_path</text>
</g>
<!-- step4_str_check_add_hydrogens_out1 -->
<g id="node21" class="node">
<title>step4_str_check_add_hydrogens_out1</title>
<polygon fill="#94ddf4" stroke="#000000" points="728.5,-35.5 728.5,-54.5 839.5,-54.5 839.5,-35.5 728.5,-35.5"/>
<text text-anchor="middle" x="784" y="-42.5" font-family="Helvetica,sans-Serif" font-size="10.00" fill="#000000">output_structure_path</text>
</g>
<!-- step5_autodock_vina_run_out1 -->
<g id="node22" class="node">
<title>step5_autodock_vina_run_out1</title>
<polygon fill="#94ddf4" stroke="#000000" points="536.5,-35.5 536.5,-54.5 633.5,-54.5 633.5,-35.5 536.5,-35.5"/>
<text text-anchor="middle" x="585" y="-42.5" font-family="Helvetica,sans-Serif" font-size="10.00" fill="#000000">output_pdbqt_path</text>
</g>
<!-- step5_autodock_vina_run_out2 -->
<g id="node23" class="node">
<title>step5_autodock_vina_run_out2</title>
<polygon fill="#94ddf4" stroke="#000000" points="638,-35.5 638,-54.5 724,-54.5 724,-35.5 638,-35.5"/>
<text text-anchor="middle" x="681" y="-42.5" font-family="Helvetica,sans-Serif" font-size="10.00" fill="#000000">output_log_path</text>
</g>
<!-- step6_babel_convert_pose_pdb_out1 -->
<g id="node24" class="node">
<title>step6_babel_convert_pose_pdb_out1</title>
<polygon fill="#94ddf4" stroke="#000000" points="844,-35.5 844,-54.5 912,-54.5 912,-35.5 844,-35.5"/>
<text text-anchor="middle" x="878" y="-42.5" font-family="Helvetica,sans-Serif" font-size="10.00" fill="#000000">output_path</text>
</g>
<!-- step1_fpocket_select&#45;&gt;step1_fpocket_select_out1 -->
<g id="edge22" class="edge">
<title>step1_fpocket_select&#45;&gt;step1_fpocket_select_out1</title>
<path fill="none" stroke="#000000" d="M219.197,-215.1914C222.6575,-206.2069 227,-192.4517 227,-180 227,-180 227,-180 227,-90 227,-83.2247 260.0515,-68.1353 286.096,-57.2967"/>
<polygon fill="#000000" stroke="#000000" points="287.3422,-59.4332 292.8817,-54.5019 285.4761,-54.9024 287.3422,-59.4332"/>
</g>
<!-- step1_fpocket_select&#45;&gt;step1_fpocket_select_out2 -->
<g id="edge23" class="edge">
<title>step1_fpocket_select&#45;&gt;step1_fpocket_select_out2</title>
<path fill="none" stroke="#000000" d="M215,-215.344C215,-206.2317 215,-192.1875 215,-180 215,-180 215,-180 215,-90 215,-80.6689 215,-70.2495 215,-61.7884"/>
<polygon fill="#000000" stroke="#000000" points="217.4501,-61.6559 215,-54.656 212.5501,-61.656 217.4501,-61.6559"/>
</g>
<!-- step1_fpocket_select&#45;&gt;step2_box -->
<g id="edge6" class="edge">
<title>step1_fpocket_select&#45;&gt;step2_box</title>
<path fill="none" stroke="#000000" d="M223.8782,-215.2398C230.3152,-208.4047 238.6281,-200.1277 243,-198 261.1648,-189.1597 316.814,-183.8911 348.7742,-181.5149"/>
<polygon fill="#000000" stroke="#000000" points="349.1657,-183.9433 355.9726,-180.9989 348.8153,-179.0558 349.1657,-183.9433"/>
<text text-anchor="middle" x="271" y="-200.6" font-family="Helvetica,sans-Serif" font-size="8.00" fill="#000000">input_pdb_path</text>
</g>
<!-- step2_box&#45;&gt;step2_box_out1 -->
<g id="edge24" class="edge">
<title>step2_box&#45;&gt;step2_box_out1</title>
<path fill="none" stroke="#000000" d="M375.0925,-170.2911C382.3755,-147.4259 400.6742,-89.9762 409.7406,-61.512"/>
<polygon fill="#000000" stroke="#000000" points="412.1455,-62.0343 411.9356,-54.6209 407.4766,-60.5471 412.1455,-62.0343"/>
</g>
<!-- step2_box&#45;&gt;step5_autodock_vina_run -->
<g id="edge16" class="edge">
<title>step2_box&#45;&gt;step5_autodock_vina_run</title>
<path fill="none" stroke="#000000" d="M388.2408,-173.3021C404.1912,-167.0167 429.3582,-157.8742 452,-153 493.6134,-144.0417 541.5546,-139.5296 577.7839,-137.2637"/>
<polygon fill="#000000" stroke="#000000" points="578.0271,-139.7037 584.8682,-136.8398 577.7344,-134.8124 578.0271,-139.7037"/>
<text text-anchor="middle" x="479.5" y="-155.6" font-family="Helvetica,sans-Serif" font-size="8.00" fill="#000000">input_box_path</text>
</g>
<!-- step3_babel_convert_prep_lig&#45;&gt;step3_babel_convert_prep_lig_out1 -->
<g id="edge25" class="edge">
<title>step3_babel_convert_prep_lig&#45;&gt;step3_babel_convert_prep_lig_out1</title>
<path fill="none" stroke="#000000" d="M498,-215.344C498,-206.2317 498,-192.1875 498,-180 498,-180 498,-180 498,-90 498,-80.6689 498,-70.2495 498,-61.7884"/>
<polygon fill="#000000" stroke="#000000" points="500.4501,-61.6559 498,-54.656 495.5501,-61.656 500.4501,-61.6559"/>
</g>
<!-- step3_babel_convert_prep_lig&#45;&gt;step5_autodock_vina_run -->
<g id="edge14" class="edge">
<title>step3_babel_convert_prep_lig&#45;&gt;step5_autodock_vina_run</title>
<path fill="none" stroke="#000000" d="M500.3634,-215.4625C504.0078,-201.4717 511.2825,-176.3531 518,-170 527.4699,-161.0438 554.9545,-152.5568 580.7935,-146.1836"/>
<polygon fill="#000000" stroke="#000000" points="581.436,-148.549 587.667,-144.5269 580.2878,-143.7854 581.436,-148.549"/>
<text text-anchor="middle" x="562" y="-178.1" font-family="Helvetica,sans-Serif" font-size="8.00" fill="#000000">input_ligand_pdbqt_path</text>
</g>
<!-- step4_str_check_add_hydrogens&#45;&gt;step4_str_check_add_hydrogens_out1 -->
<g id="edge26" class="edge">
<title>step4_str_check_add_hydrogens&#45;&gt;step4_str_check_add_hydrogens_out1</title>
<path fill="none" stroke="#000000" d="M824.4591,-215.4068C841.1022,-208.672 857,-197.6257 857,-180 857,-180 857,-180 857,-90 857,-74.6362 845.1379,-64.3466 830.977,-57.5369"/>
<polygon fill="#000000" stroke="#000000" points="831.7393,-55.1966 824.3433,-54.6472 829.7824,-59.6889 831.7393,-55.1966"/>
</g>
<!-- step4_str_check_add_hydrogens&#45;&gt;step5_autodock_vina_run -->
<g id="edge15" class="edge">
<title>step4_str_check_add_hydrogens&#45;&gt;step5_autodock_vina_run</title>
<path fill="none" stroke="#000000" d="M776.5811,-215.2754C759.7722,-200.0507 725.095,-170.5207 691,-153 686.721,-150.8011 682.1225,-148.8083 677.4605,-147.0191"/>
<polygon fill="#000000" stroke="#000000" points="678.0307,-144.62 670.6147,-144.543 676.364,-149.2279 678.0307,-144.62"/>
<text text-anchor="middle" x="794.5" y="-178.1" font-family="Helvetica,sans-Serif" font-size="8.00" fill="#000000">input_receptor_pdbqt_path</text>
</g>
<!-- step5_autodock_vina_run&#45;&gt;step5_autodock_vina_run_out1 -->
<g id="edge27" class="edge">
<title>step5_autodock_vina_run&#45;&gt;step5_autodock_vina_run_out1</title>
<path fill="none" stroke="#000000" d="M628.7561,-125.3684C620.3566,-109.9406 603.7995,-79.5296 593.6348,-60.8599"/>
<polygon fill="#000000" stroke="#000000" points="595.7051,-59.5387 590.2062,-54.5623 591.4016,-61.8817 595.7051,-59.5387"/>
</g>
<!-- step5_autodock_vina_run&#45;&gt;step5_autodock_vina_run_out2 -->
<g id="edge28" class="edge">
<title>step5_autodock_vina_run&#45;&gt;step5_autodock_vina_run_out2</title>
<path fill="none" stroke="#000000" d="M639.0298,-125.3684C647.0866,-109.9406 662.9679,-79.5296 672.7176,-60.8599"/>
<polygon fill="#000000" stroke="#000000" points="674.9377,-61.9013 676.0063,-54.5623 670.5943,-59.6331 674.9377,-61.9013"/>
</g>
<!-- step5_autodock_vina_run&#45;&gt;step6_babel_convert_pose_pdb -->
<g id="edge20" class="edge">
<title>step5_autodock_vina_run&#45;&gt;step6_babel_convert_pose_pdb</title>
<path fill="none" stroke="#000000" d="M683.2086,-127.5692C739.5314,-119.0641 831.0618,-105.2423 886.003,-96.9459"/>
<polygon fill="#000000" stroke="#000000" points="886.6198,-99.3306 893.1755,-95.8628 885.8881,-94.4855 886.6198,-99.3306"/>
<text text-anchor="middle" x="828" y="-110.6" font-family="Helvetica,sans-Serif" font-size="8.00" fill="#000000">input_path</text>
</g>
<!-- step6_babel_convert_pose_pdb&#45;&gt;step6_babel_convert_pose_pdb_out1 -->
<g id="edge29" class="edge">
<title>step6_babel_convert_pose_pdb&#45;&gt;step6_babel_convert_pose_pdb_out1</title>
<path fill="none" stroke="#000000" d="M920.548,-80.4567C913.1023,-74.2519 903.2635,-66.0529 894.9227,-59.1023"/>
<polygon fill="#000000" stroke="#000000" points="896.3815,-57.1288 889.4355,-54.5296 893.2446,-60.8931 896.3815,-57.1288"/>
</g>
</g>
</svg>
