<?xml version="1.0" encoding="UTF-8" standalone="no"?>
<!DOCTYPE svg PUBLIC "-//W3C//DTD SVG 1.1//EN"
 "http://www.w3.org/Graphics/SVG/1.1/DTD/svg11.dtd">
<!-- Generated by graphviz version 2.40.1 (20161225.0304)
 -->
<!-- Title: workflow Pages: 1 -->
<svg width="231pt" height="298pt"
 viewBox="0.00 0.00 230.50 298.00" xmlns="http://www.w3.org/2000/svg" xmlns:xlink="http://www.w3.org/1999/xlink">
<g id="graph0" class="graph" transform="scale(1 1) rotate(0) translate(4 294)">
<title>workflow</title>
<polygon fill="#ffffff" stroke="transparent" points="-4,4 -4,-294 226.5,-294 226.5,4 -4,4"/>
<!-- #main/0_Copernicus Essential Climate Variables -->
<g id="node1" class="node">
<title>#main/0_Copernicus Essential Climate Variables</title>
<polygon fill="#fafad2" stroke="#000000" points="22.5,-270.5 22.5,-289.5 222.5,-289.5 222.5,-270.5 22.5,-270.5"/>
<text text-anchor="middle" x="122.5" y="-277.5" font-family="Helvetica,sans-Serif" font-size="10.00" fill="#000000">0_Copernicus Essential Climate Variables</text>
</g>
<!-- #main/1_NetCDF xarray Metadata Info -->
<g id="node2" class="node">
<title>#main/1_NetCDF xarray Metadata Info</title>
<polygon fill="#fafad2" stroke="#000000" points="0,-225.5 0,-244.5 157,-244.5 157,-225.5 0,-225.5"/>
<text text-anchor="middle" x="78.5" y="-232.5" font-family="Helvetica,sans-Serif" font-size="10.00" fill="#000000">1_NetCDF xarray Metadata Info</text>
</g>
<!-- #main/0_Copernicus Essential Climate Variables&#45;&gt;#main/1_NetCDF xarray Metadata Info -->
<g id="edge1" class="edge">
<title>#main/0_Copernicus Essential Climate Variables&#45;&gt;#main/1_NetCDF xarray Metadata Info</title>
<path fill="none" stroke="#000000" d="M113.1687,-270.4567C107.3352,-264.4905 99.6989,-256.6807 93.0783,-249.9096"/>
<polygon fill="#000000" stroke="#000000" points="94.4634,-247.8218 87.8178,-244.5296 90.9599,-251.2475 94.4634,-247.8218"/>
<text text-anchor="middle" x="113.5" y="-255.6" font-family="Helvetica,sans-Serif" font-size="8.00" fill="#000000">input</text>
</g>
<!-- #main/2_NetCDF xarray Selection -->
<g id="node3" class="node">
<title>#main/2_NetCDF xarray Selection</title>
<polygon fill="#fafad2" stroke="#000000" points="54,-180.5 54,-199.5 191,-199.5 191,-180.5 54,-180.5"/>
<text text-anchor="middle" x="122.5" y="-187.5" font-family="Helvetica,sans-Serif" font-size="10.00" fill="#000000">2_NetCDF xarray Selection</text>
</g>
<!-- #main/0_Copernicus Essential Climate Variables&#45;&gt;#main/2_NetCDF xarray Selection -->
<g id="edge2" class="edge">
<title>#main/0_Copernicus Essential Climate Variables&#45;&gt;#main/2_NetCDF xarray Selection</title>
<path fill="none" stroke="#000000" d="M136.483,-270.4108C144.2662,-264.1852 153.2249,-255.3209 157.5,-245 160.9016,-236.7877 160.9016,-233.2123 157.5,-225 154.2269,-217.098 148.2083,-210.0499 142.0738,-204.3862"/>
<polygon fill="#000000" stroke="#000000" points="143.3909,-202.288 136.483,-199.5892 140.2002,-206.0068 143.3909,-202.288"/>
<text text-anchor="middle" x="169.5" y="-233.1" font-family="Helvetica,sans-Serif" font-size="8.00" fill="#000000">input</text>
</g>
<!-- #main/1_NetCDF xarray Metadata Info&#45;&gt;#main/2_NetCDF xarray Selection -->
<g id="edge3" class="edge">
<title>#main/1_NetCDF xarray Metadata Info&#45;&gt;#main/2_NetCDF xarray Selection</title>
<path fill="none" stroke="#000000" d="M87.8313,-225.4567C93.6648,-219.4905 101.3011,-211.6807 107.9217,-204.9096"/>
<polygon fill="#000000" stroke="#000000" points="110.0401,-206.2475 113.1822,-199.5296 106.5366,-202.8218 110.0401,-206.2475"/>
<text text-anchor="middle" x="118.5" y="-210.6" font-family="Helvetica,sans-Serif" font-size="8.00" fill="#000000">var_tab</text>
</g>
<!-- #main/3_Compute -->
<g id="node4" class="node">
<title>#main/3_Compute</title>
<polygon fill="#fafad2" stroke="#000000" points="89,-135.5 89,-154.5 156,-154.5 156,-135.5 89,-135.5"/>
<text text-anchor="middle" x="122.5" y="-142.5" font-family="Helvetica,sans-Serif" font-size="10.00" fill="#000000">3_Compute</text>
</g>
<!-- #main/2_NetCDF xarray Selection&#45;&gt;#main/3_Compute -->
<g id="edge4" class="edge">
<title>#main/2_NetCDF xarray Selection&#45;&gt;#main/3_Compute</title>
<path fill="none" stroke="#000000" d="M122.5,-180.4567C122.5,-174.9678 122.5,-167.9184 122.5,-161.5532"/>
<polygon fill="#000000" stroke="#000000" points="124.9501,-161.5296 122.5,-154.5296 120.0501,-161.5296 124.9501,-161.5296"/>
<text text-anchor="middle" x="131.5" y="-165.6" font-family="Helvetica,sans-Serif" font-size="8.00" fill="#000000">input</text>
</g>
<!-- #main/4_Text reformatting -->
<g id="node5" class="node">
<title>#main/4_Text reformatting</title>
<polygon fill="#fafad2" stroke="#000000" points="72,-90.5 72,-109.5 173,-109.5 173,-90.5 72,-90.5"/>
<text text-anchor="middle" x="122.5" y="-97.5" font-family="Helvetica,sans-Serif" font-size="10.00" fill="#000000">4_Text reformatting</text>
</g>
<!-- #main/3_Compute&#45;&gt;#main/4_Text reformatting -->
<g id="edge5" class="edge">
<title>#main/3_Compute&#45;&gt;#main/4_Text reformatting</title>
<path fill="none" stroke="#000000" d="M122.5,-135.4567C122.5,-129.9678 122.5,-122.9184 122.5,-116.5532"/>
<polygon fill="#000000" stroke="#000000" points="124.9501,-116.5296 122.5,-109.5296 120.0501,-116.5296 124.9501,-116.5296"/>
<text text-anchor="middle" x="130.5" y="-120.6" font-family="Helvetica,sans-Serif" font-size="8.00" fill="#000000">infile</text>
</g>
<!-- #main/5_Datamash -->
<g id="node6" class="node">
<title>#main/5_Datamash</title>
<polygon fill="#fafad2" stroke="#000000" points="86.5,-45.5 86.5,-64.5 158.5,-64.5 158.5,-45.5 86.5,-45.5"/>
<text text-anchor="middle" x="122.5" y="-52.5" font-family="Helvetica,sans-Serif" font-size="10.00" fill="#000000">5_Datamash</text>
</g>
<!-- #main/4_Text reformatting&#45;&gt;#main/5_Datamash -->
<g id="edge6" class="edge">
<title>#main/4_Text reformatting&#45;&gt;#main/5_Datamash</title>
<path fill="none" stroke="#000000" d="M122.5,-90.4567C122.5,-84.9678 122.5,-77.9184 122.5,-71.5532"/>
<polygon fill="#000000" stroke="#000000" points="124.9501,-71.5296 122.5,-64.5296 120.0501,-71.5296 124.9501,-71.5296"/>
<text text-anchor="middle" x="133" y="-75.6" font-family="Helvetica,sans-Serif" font-size="8.00" fill="#000000">in_file</text>
</g>
<!-- #main/6_Scatterplot with ggplot2 -->
<g id="node7" class="node">
<title>#main/6_Scatterplot with ggplot2</title>
<polygon fill="#fafad2" stroke="#000000" points="57.5,-.5 57.5,-19.5 187.5,-19.5 187.5,-.5 57.5,-.5"/>
<text text-anchor="middle" x="122.5" y="-7.5" font-family="Helvetica,sans-Serif" font-size="10.00" fill="#000000">6_Scatterplot with ggplot2</text>
</g>
<!-- #main/5_Datamash&#45;&gt;#main/6_Scatterplot with ggplot2 -->
<g id="edge7" class="edge">
<title>#main/5_Datamash&#45;&gt;#main/6_Scatterplot with ggplot2</title>
<path fill="none" stroke="#000000" d="M122.5,-45.4567C122.5,-39.9678 122.5,-32.9184 122.5,-26.5532"/>
<polygon fill="#000000" stroke="#000000" points="124.9501,-26.5296 122.5,-19.5296 120.0501,-26.5296 124.9501,-26.5296"/>
<text text-anchor="middle" x="133.5" y="-30.6" font-family="Helvetica,sans-Serif" font-size="8.00" fill="#000000">input1</text>
</g>
</g>
</svg>
