<?xml version="1.0" encoding="UTF-8" standalone="no"?>
<!DOCTYPE svg PUBLIC "-//W3C//DTD SVG 1.1//EN"
 "http://www.w3.org/Graphics/SVG/1.1/DTD/svg11.dtd">
<!-- Generated by graphviz version 2.40.1 (0)
 -->
<!-- Title: workflow Pages: 1 -->
<svg width="426pt" height="166pt"
 viewBox="0.00 0.00 438.00 171.00" xmlns="http://www.w3.org/2000/svg" xmlns:xlink="http://www.w3.org/1999/xlink">
<g id="graph0" class="graph" transform="scale(.9722 .9722) rotate(0) translate(4 167)">
<title>workflow</title>
<g id="clust1" class="cluster">
<title>cluster_inputs</title>
<polygon fill="transparent" stroke="#000000" stroke-dasharray="5,2" points="8,-100 8,-155 422,-155 422,-100 8,-100"/>
<text text-anchor="middle" x="50.5" y="-143" font-family="Times,serif" font-size="10.00" fill="#000000">Workflow Inputs</text>
</g>
<!-- 1_Input Dataset -->
<g id="node1" class="node">
<title>1_Input Dataset</title>
<polygon fill="#94ddf4" stroke="#000000" points="150.5,-108.5 150.5,-127.5 235.5,-127.5 235.5,-108.5 150.5,-108.5"/>
<text text-anchor="middle" x="193" y="-115.5" font-family="Helvetica,sans-Serif" font-size="10.00" fill="#000000">1_Input Dataset</text>
</g>
<!-- 4_XChem Docking -->
<g id="node6" class="node">
<title>4_XChem Docking</title>
<polygon fill="#fafad2" stroke="#000000" points="161.5,-72.5 161.5,-91.5 258.5,-91.5 258.5,-72.5 161.5,-72.5"/>
<text text-anchor="middle" x="210" y="-79.5" font-family="Helvetica,sans-Serif" font-size="10.00" fill="#000000">4_XChem Docking</text>
</g>
<!-- 1_Input Dataset&#45;&gt;4_XChem Docking -->
<g id="edge4" class="edge">
<title>1_Input Dataset&#45;&gt;4_XChem Docking</title>
<path fill="none" stroke="#000000" d="M197.6453,-108.1628C199.131,-105.0167 200.816,-101.4484 202.4533,-97.9813"/>
<polygon fill="#000000" stroke="#000000" points="204.7041,-98.9524 205.4778,-91.5764 200.2733,-96.86 204.7041,-98.9524"/>
</g>
<!-- 0_Input Dataset -->
<g id="node2" class="node">
<title>0_Input Dataset</title>
<polygon fill="#94ddf4" stroke="#000000" points="239.5,-108.5 239.5,-127.5 324.5,-127.5 324.5,-108.5 239.5,-108.5"/>
<text text-anchor="middle" x="282" y="-115.5" font-family="Helvetica,sans-Serif" font-size="10.00" fill="#000000">0_Input Dataset</text>
</g>
<!-- 0_Input Dataset&#45;&gt;4_XChem Docking -->
<g id="edge3" class="edge">
<title>0_Input Dataset&#45;&gt;4_XChem Docking</title>
<path fill="none" stroke="#000000" d="M262.7053,-108.3527C254.3926,-104.1963 244.5529,-99.2765 235.6395,-94.8198"/>
<polygon fill="#000000" stroke="#000000" points="236.7046,-92.6132 229.3479,-91.674 234.5132,-96.9959 236.7046,-92.6132"/>
</g>
<!-- 5_XChem TransFS Scoring -->
<g id="node7" class="node">
<title>5_XChem TransFS Scoring</title>
<polygon fill="#fafad2" stroke="#000000" points="215,-36.5 215,-55.5 349,-55.5 349,-36.5 215,-36.5"/>
<text text-anchor="middle" x="282" y="-43.5" font-family="Helvetica,sans-Serif" font-size="10.00" fill="#000000">5_XChem TransFS Scoring</text>
</g>
<!-- 0_Input Dataset&#45;&gt;5_XChem TransFS Scoring -->
<g id="edge6" class="edge">
<title>0_Input Dataset&#45;&gt;5_XChem TransFS Scoring</title>
<path fill="none" stroke="#000000" d="M282,-108.2898C282,-96.6304 282,-76.8817 282,-62.7454"/>
<polygon fill="#000000" stroke="#000000" points="284.4501,-62.5564 282,-55.5564 279.5501,-62.5564 284.4501,-62.5564"/>
</g>
<!-- 2_Input Dataset Collection -->
<g id="node3" class="node">
<title>2_Input Dataset Collection</title>
<polygon fill="#94ddf4" stroke="#000000" points="16,-108.5 16,-127.5 146,-127.5 146,-108.5 16,-108.5"/>
<text text-anchor="middle" x="81" y="-115.5" font-family="Helvetica,sans-Serif" font-size="10.00" fill="#000000">2_Input Dataset Collection</text>
</g>
<!-- 2_Input Dataset Collection&#45;&gt;4_XChem Docking -->
<g id="edge5" class="edge">
<title>2_Input Dataset Collection&#45;&gt;4_XChem Docking</title>
<path fill="none" stroke="#000000" d="M115.231,-108.4472C131.559,-103.8905 151.2339,-98.3998 168.4153,-93.605"/>
<polygon fill="#000000" stroke="#000000" points="169.5253,-95.839 175.6091,-91.5975 168.2081,-91.1193 169.5253,-95.839"/>
</g>
<!-- 3_Input Dataset -->
<g id="node4" class="node">
<title>3_Input Dataset</title>
<polygon fill="#94ddf4" stroke="#000000" points="328.5,-108.5 328.5,-127.5 413.5,-127.5 413.5,-108.5 328.5,-108.5"/>
<text text-anchor="middle" x="371" y="-115.5" font-family="Helvetica,sans-Serif" font-size="10.00" fill="#000000">3_Input Dataset</text>
</g>
<!-- 6_XChem SuCOS Scoring -->
<g id="node5" class="node">
<title>6_XChem SuCOS Scoring</title>
<polygon fill="#fafad2" stroke="#000000" points="254,-.5 254,-19.5 384,-19.5 384,-.5 254,-.5"/>
<text text-anchor="middle" x="319" y="-7.5" font-family="Helvetica,sans-Serif" font-size="10.00" fill="#000000">6_XChem SuCOS Scoring</text>
</g>
<!-- 3_Input Dataset&#45;&gt;6_XChem SuCOS Scoring -->
<g id="edge1" class="edge">
<title>3_Input Dataset&#45;&gt;6_XChem SuCOS Scoring</title>
<path fill="none" stroke="#000000" d="M370.6161,-108.3876C369.5662,-92.2387 365.6449,-59.1601 351,-36 348.212,-31.591 344.4182,-27.5853 340.4171,-24.1105"/>
<polygon fill="#000000" stroke="#000000" points="341.9071,-22.165 334.9076,-19.7133 338.8504,-25.9948 341.9071,-22.165"/>
</g>
<!-- 4_XChem Docking&#45;&gt;5_XChem TransFS Scoring -->
<g id="edge7" class="edge">
<title>4_XChem Docking&#45;&gt;5_XChem TransFS Scoring</title>
<path fill="none" stroke="#000000" d="M229.2947,-72.3527C237.6074,-68.1963 247.4471,-63.2765 256.3605,-58.8198"/>
<polygon fill="#000000" stroke="#000000" points="257.4868,-60.9959 262.6521,-55.674 255.2954,-56.6132 257.4868,-60.9959"/>
</g>
<!-- 5_XChem TransFS Scoring&#45;&gt;6_XChem SuCOS Scoring -->
<g id="edge2" class="edge">
<title>5_XChem TransFS Scoring&#45;&gt;6_XChem SuCOS Scoring</title>
<path fill="none" stroke="#000000" d="M292.1104,-36.1628C295.7585,-32.6133 299.9588,-28.5265 303.939,-24.6539"/>
<polygon fill="#000000" stroke="#000000" points="305.849,-26.2139 309.1576,-19.5764 302.4319,-22.702 305.849,-26.2139"/>
</g>
</g>
</svg>
