<?xml version="1.0" encoding="UTF-8" standalone="no"?>
<!DOCTYPE svg PUBLIC "-//W3C//DTD SVG 1.1//EN"
 "http://www.w3.org/Graphics/SVG/1.1/DTD/svg11.dtd">
<!-- Generated by graphviz version 2.43.0 (0)
 -->
<!-- Title: workflow Pages: 1 -->
<svg width="324pt" height="196pt"
 viewBox="0.00 0.00 324.00 196.00" xmlns="http://www.w3.org/2000/svg" xmlns:xlink="http://www.w3.org/1999/xlink">
<g id="graph0" class="graph" transform="scale(1 1) rotate(0) translate(4 192)">
<title>workflow</title>
<polygon fill="white" stroke="transparent" points="-4,4 -4,-192 320,-192 320,4 -4,4"/>
<g id="clust1" class="cluster">
<title>cluster_inputs</title>
<polygon fill="none" stroke="black" stroke-dasharray="5,2" points="8,-125 8,-180 308,-180 308,-125 8,-125"/>
<text text-anchor="middle" x="55.5" y="-168" font-family="Helvetica,sans-Serif" font-size="10.00">Workflow Inputs</text>
</g>
<g id="clust2" class="cluster">
<title>cluster_outputs</title>
<polygon fill="none" stroke="black" stroke-dasharray="5,2" points="104,-8 104,-63 207,-63 207,-8 104,-8"/>
<text text-anchor="middle" x="155.5" y="-15" font-family="Helvetica,sans-Serif" font-size="10.00">Workflow Outputs</text>
</g>
<!-- body -->
<g id="node1" class="node">
<title>body</title>
<polygon fill="#94ddf4" stroke="black" points="16.5,-133.5 16.5,-152.5 57.5,-152.5 57.5,-133.5 16.5,-133.5"/>
<text text-anchor="middle" x="37" y="-140.5" font-family="Helvetica,sans-Serif" font-size="10.00">body</text>
</g>
<!-- run_query -->
<g id="node6" class="node">
<title>run_query</title>
<polygon fill="lightgoldenrodyellow" stroke="black" points="122.5,-80.5 122.5,-99.5 187.5,-99.5 187.5,-80.5 122.5,-80.5"/>
<text text-anchor="middle" x="155" y="-87.5" font-family="Helvetica,sans-Serif" font-size="10.00">run_query</text>
</g>
<!-- body&#45;&gt;run_query -->
<g id="edge1" class="edge">
<title>body&#45;&gt;run_query</title>
<path fill="none" stroke="black" d="M48.98,-133.34C53.03,-130.55 57.64,-127.52 62,-125 76.97,-116.34 80.87,-114.23 97,-108 102.97,-105.7 109.38,-103.52 115.69,-101.55"/>
<polygon fill="black" stroke="black" points="116.48,-103.87 122.47,-99.5 115.06,-99.19 116.48,-103.87"/>
<text text-anchor="middle" x="107.5" y="-110.6" font-family="Helvetica,sans-Serif" font-size="8.00">body</text>
</g>
<!-- result_modifiers -->
<g id="node2" class="node">
<title>result_modifiers</title>
<polygon fill="#94ddf4" stroke="black" points="61.5,-133.5 61.5,-152.5 156.5,-152.5 156.5,-133.5 61.5,-133.5"/>
<text text-anchor="middle" x="109" y="-140.5" font-family="Helvetica,sans-Serif" font-size="10.00">result_modifiers</text>
</g>
<!-- result_modifiers&#45;&gt;run_query -->
<g id="edge2" class="edge">
<title>result_modifiers&#45;&gt;run_query</title>
<path fill="none" stroke="black" d="M111.74,-133.35C114.44,-125.94 119.15,-115.33 126,-108 127.42,-106.48 129.01,-105.06 130.69,-103.73"/>
<polygon fill="black" stroke="black" points="132.29,-105.6 136.64,-99.59 129.5,-101.57 132.29,-105.6"/>
<text text-anchor="middle" x="159" y="-110.6" font-family="Helvetica,sans-Serif" font-size="8.00">result_modifiers</text>
</g>
<!-- is_availability -->
<g id="node3" class="node">
<title>is_availability</title>
<polygon fill="#94ddf4" stroke="black" points="160.5,-133.5 160.5,-152.5 245.5,-152.5 245.5,-133.5 160.5,-133.5"/>
<text text-anchor="middle" x="203" y="-140.5" font-family="Helvetica,sans-Serif" font-size="10.00">is_availability</text>
</g>
<!-- is_availability&#45;&gt;run_query -->
<g id="edge3" class="edge">
<title>is_availability&#45;&gt;run_query</title>
<path fill="none" stroke="black" d="M201.22,-133.24C199.3,-125.76 195.61,-115.11 189,-108 187.43,-106.31 185.65,-104.76 183.75,-103.35"/>
<polygon fill="black" stroke="black" points="185,-101.24 177.78,-99.52 182.35,-105.36 185,-101.24"/>
<text text-anchor="middle" x="221.5" y="-110.6" font-family="Helvetica,sans-Serif" font-size="8.00">is_availability</text>
</g>
<!-- results -->
<g id="node4" class="node">
<title>results</title>
<polygon fill="#94ddf4" stroke="black" points="250,-133.5 250,-152.5 300,-152.5 300,-133.5 250,-133.5"/>
<text text-anchor="middle" x="275" y="-140.5" font-family="Helvetica,sans-Serif" font-size="10.00">results</text>
</g>
<!-- results&#45;&gt;run_query -->
<g id="edge4" class="edge">
<title>results&#45;&gt;run_query</title>
<path fill="none" stroke="black" d="M270.98,-133.25C266.86,-125.35 259.7,-114.04 250,-108 233.55,-97.76 212.58,-93.3 194.52,-91.49"/>
<polygon fill="black" stroke="black" points="194.68,-89.05 187.5,-90.9 194.27,-93.93 194.68,-89.05"/>
<text text-anchor="middle" x="273" y="-110.6" font-family="Helvetica,sans-Serif" font-size="8.00">results</text>
</g>
<!-- output_file -->
<g id="node5" class="node">
<title>output_file</title>
<polygon fill="#94ddf4" stroke="black" points="121,-35.5 121,-54.5 189,-54.5 189,-35.5 121,-35.5"/>
<text text-anchor="middle" x="155" y="-42.5" font-family="Helvetica,sans-Serif" font-size="10.00">output_file</text>
</g>
<!-- run_query&#45;&gt;output_file -->
<g id="edge5" class="edge">
<title>run_query&#45;&gt;output_file</title>
<path fill="none" stroke="black" d="M155,-80.3C155,-75.05 155,-68.21 155,-62.02"/>
<polygon fill="black" stroke="black" points="157.45,-61.69 155,-54.69 152.55,-61.69 157.45,-61.69"/>
</g>
</g>
</svg>
