<?xml version="1.0" encoding="UTF-8" standalone="no"?>
<!DOCTYPE svg PUBLIC "-//W3C//DTD SVG 1.1//EN"
 "http://www.w3.org/Graphics/SVG/1.1/DTD/svg11.dtd">
<!-- Generated by graphviz version 2.43.0 (0)
 -->
<!-- Title: workflow Pages: 1 -->
<svg width="724pt" height="196pt"
 viewBox="0.00 0.00 724.00 196.00" xmlns="http://www.w3.org/2000/svg" xmlns:xlink="http://www.w3.org/1999/xlink">
<g id="graph0" class="graph" transform="scale(1 1) rotate(0) translate(4 192)">
<title>workflow</title>
<polygon fill="white" stroke="transparent" points="-4,4 -4,-192 720,-192 720,4 -4,4"/>
<g id="clust1" class="cluster">
<title>cluster_inputs</title>
<polygon fill="none" stroke="black" stroke-dasharray="5,2" points="8,-125 8,-180 708,-180 708,-125 8,-125"/>
<text text-anchor="middle" x="55.5" y="-168" font-family="Helvetica,sans-Serif" font-size="10.00">Workflow Inputs</text>
</g>
<g id="clust2" class="cluster">
<title>cluster_outputs</title>
<polygon fill="none" stroke="black" stroke-dasharray="5,2" points="279,-8 279,-63 433,-63 433,-8 279,-8"/>
<text text-anchor="middle" x="330.5" y="-15" font-family="Helvetica,sans-Serif" font-size="10.00">Workflow Outputs</text>
</g>
<!-- python_script -->
<g id="node1" class="node">
<title>python_script</title>
<polygon fill="#94ddf4" stroke="black" points="16.5,-133.5 16.5,-152.5 99.5,-152.5 99.5,-133.5 16.5,-133.5"/>
<text text-anchor="middle" x="58" y="-140.5" font-family="Helvetica,sans-Serif" font-size="10.00">python_script</text>
</g>
<!-- analysis -->
<g id="node13" class="node">
<title>analysis</title>
<polygon fill="lightgoldenrodyellow" stroke="black" points="338.5,-80.5 338.5,-99.5 395.5,-99.5 395.5,-80.5 338.5,-80.5"/>
<text text-anchor="middle" x="367" y="-87.5" font-family="Helvetica,sans-Serif" font-size="10.00">analysis</text>
</g>
<!-- python_script&#45;&gt;analysis -->
<g id="edge1" class="edge">
<title>python_script&#45;&gt;analysis</title>
<path fill="none" stroke="black" d="M70.34,-133.27C82.56,-125.13 102.14,-113.46 121,-108 159.35,-96.89 272.41,-92.95 330.95,-91.62"/>
<polygon fill="black" stroke="black" points="331.21,-94.07 338.15,-91.47 331.1,-89.17 331.21,-94.07"/>
<text text-anchor="middle" x="148.5" y="-110.6" font-family="Helvetica,sans-Serif" font-size="8.00">python_script</text>
</g>
<!-- r_script -->
<g id="node2" class="node">
<title>r_script</title>
<polygon fill="#94ddf4" stroke="black" points="103.5,-133.5 103.5,-152.5 156.5,-152.5 156.5,-133.5 103.5,-133.5"/>
<text text-anchor="middle" x="130" y="-140.5" font-family="Helvetica,sans-Serif" font-size="10.00">r_script</text>
</g>
<!-- r_script&#45;&gt;analysis -->
<g id="edge2" class="edge">
<title>r_script&#45;&gt;analysis</title>
<path fill="none" stroke="black" d="M144.21,-133.37C158.49,-125.18 181.43,-113.37 203,-108 246.26,-97.23 297.57,-93.28 331.13,-91.83"/>
<polygon fill="black" stroke="black" points="331.54,-94.26 338.43,-91.54 331.34,-89.37 331.54,-94.26"/>
<text text-anchor="middle" x="218" y="-110.6" font-family="Helvetica,sans-Serif" font-size="8.00">r_script</text>
</g>
<!-- mzml_files -->
<g id="node3" class="node">
<title>mzml_files</title>
<polygon fill="#94ddf4" stroke="black" points="161,-133.5 161,-152.5 231,-152.5 231,-133.5 161,-133.5"/>
<text text-anchor="middle" x="196" y="-140.5" font-family="Helvetica,sans-Serif" font-size="10.00">mzml_files</text>
</g>
<!-- mzml_files&#45;&gt;analysis -->
<g id="edge3" class="edge">
<title>mzml_files&#45;&gt;analysis</title>
<path fill="none" stroke="black" d="M207.55,-133.26C218.61,-125.35 236.07,-114.04 253,-108 278.17,-99.01 308.1,-94.78 330.98,-92.78"/>
<polygon fill="black" stroke="black" points="331.36,-95.21 338.14,-92.21 330.97,-90.32 331.36,-95.21"/>
<text text-anchor="middle" x="272.5" y="-110.6" font-family="Helvetica,sans-Serif" font-size="8.00">mzml_file</text>
</g>
<!-- gnps_file -->
<g id="node4" class="node">
<title>gnps_file</title>
<polygon fill="#94ddf4" stroke="black" points="235,-133.5 235,-152.5 295,-152.5 295,-133.5 235,-133.5"/>
<text text-anchor="middle" x="265" y="-140.5" font-family="Helvetica,sans-Serif" font-size="10.00">gnps_file</text>
</g>
<!-- gnps_file&#45;&gt;analysis -->
<g id="edge4" class="edge">
<title>gnps_file&#45;&gt;analysis</title>
<path fill="none" stroke="black" d="M273.58,-133.28C281.58,-125.6 294.17,-114.65 307,-108 314.58,-104.07 323.19,-100.94 331.48,-98.51"/>
<polygon fill="black" stroke="black" points="332.23,-100.84 338.33,-96.61 330.93,-96.12 332.23,-100.84"/>
<text text-anchor="middle" x="325.5" y="-110.6" font-family="Helvetica,sans-Serif" font-size="8.00">gnps_file</text>
</g>
<!-- hmdb_file -->
<g id="node5" class="node">
<title>hmdb_file</title>
<polygon fill="#94ddf4" stroke="black" points="299.5,-133.5 299.5,-152.5 364.5,-152.5 364.5,-133.5 299.5,-133.5"/>
<text text-anchor="middle" x="332" y="-140.5" font-family="Helvetica,sans-Serif" font-size="10.00">hmdb_file</text>
</g>
<!-- hmdb_file&#45;&gt;analysis -->
<g id="edge5" class="edge">
<title>hmdb_file&#45;&gt;analysis</title>
<path fill="none" stroke="black" d="M336.5,-133.33C340.3,-126.29 346.05,-116.21 352,-108 352.7,-107.04 353.44,-106.06 354.21,-105.1"/>
<polygon fill="black" stroke="black" points="356.09,-106.66 358.73,-99.73 352.34,-103.51 356.09,-106.66"/>
<text text-anchor="middle" x="372" y="-110.6" font-family="Helvetica,sans-Serif" font-size="8.00">hmdb_file</text>
</g>
<!-- mbank_file -->
<g id="node6" class="node">
<title>mbank_file</title>
<polygon fill="#94ddf4" stroke="black" points="368.5,-133.5 368.5,-152.5 439.5,-152.5 439.5,-133.5 368.5,-133.5"/>
<text text-anchor="middle" x="404" y="-140.5" font-family="Helvetica,sans-Serif" font-size="10.00">mbank_file</text>
</g>
<!-- mbank_file&#45;&gt;analysis -->
<g id="edge6" class="edge">
<title>mbank_file&#45;&gt;analysis</title>
<path fill="none" stroke="black" d="M401.48,-133.26C399.09,-125.98 394.97,-115.62 389,-108 388.03,-106.76 386.96,-105.57 385.82,-104.42"/>
<polygon fill="black" stroke="black" points="387.39,-102.55 380.52,-99.75 384.15,-106.22 387.39,-102.55"/>
<text text-anchor="middle" x="416.5" y="-110.6" font-family="Helvetica,sans-Serif" font-size="8.00">mbank_file</text>
</g>
<!-- ppmx -->
<g id="node7" class="node">
<title>ppmx</title>
<polygon fill="#94ddf4" stroke="black" points="444,-133.5 444,-152.5 488,-152.5 488,-133.5 444,-133.5"/>
<text text-anchor="middle" x="466" y="-140.5" font-family="Helvetica,sans-Serif" font-size="10.00">ppmx</text>
</g>
<!-- ppmx&#45;&gt;analysis -->
<g id="edge7" class="edge">
<title>ppmx&#45;&gt;analysis</title>
<path fill="none" stroke="black" d="M461.66,-133.37C457.26,-125.54 449.74,-114.29 440,-108 429.03,-100.92 415.45,-96.78 402.99,-94.36"/>
<polygon fill="black" stroke="black" points="403.12,-91.9 395.81,-93.12 402.29,-96.72 403.12,-91.9"/>
<text text-anchor="middle" x="460.5" y="-110.6" font-family="Helvetica,sans-Serif" font-size="8.00">ppmx</text>
</g>
<!-- collision_info -->
<g id="node8" class="node">
<title>collision_info</title>
<polygon fill="#94ddf4" stroke="black" points="492.5,-133.5 492.5,-152.5 573.5,-152.5 573.5,-133.5 492.5,-133.5"/>
<text text-anchor="middle" x="533" y="-140.5" font-family="Helvetica,sans-Serif" font-size="10.00">collision_info</text>
</g>
<!-- collision_info&#45;&gt;analysis -->
<g id="edge8" class="edge">
<title>collision_info&#45;&gt;analysis</title>
<path fill="none" stroke="black" d="M520.75,-133.32C509.05,-125.45 490.63,-114.18 473,-108 450.34,-100.06 423.65,-95.8 402.72,-93.54"/>
<polygon fill="black" stroke="black" points="402.78,-91.08 395.57,-92.81 402.29,-95.96 402.78,-91.08"/>
<text text-anchor="middle" x="519" y="-110.6" font-family="Helvetica,sans-Serif" font-size="8.00">collision_info</text>
</g>
<!-- db_name -->
<g id="node9" class="node">
<title>db_name</title>
<polygon fill="#94ddf4" stroke="black" points="578,-133.5 578,-152.5 640,-152.5 640,-133.5 578,-133.5"/>
<text text-anchor="middle" x="609" y="-140.5" font-family="Helvetica,sans-Serif" font-size="10.00">db_name</text>
</g>
<!-- db_name&#45;&gt;analysis -->
<g id="edge9" class="edge">
<title>db_name&#45;&gt;analysis</title>
<path fill="none" stroke="black" d="M596.85,-133.37C584.81,-125.31 565.54,-113.69 547,-108 498.61,-93.14 439.77,-90.26 402.84,-90.16"/>
<polygon fill="black" stroke="black" points="402.75,-87.71 395.75,-90.17 402.76,-92.61 402.75,-87.71"/>
<text text-anchor="middle" x="587" y="-110.6" font-family="Helvetica,sans-Serif" font-size="8.00">db_name</text>
</g>
<!-- db_path -->
<g id="node10" class="node">
<title>db_path</title>
<polygon fill="#94ddf4" stroke="black" points="644,-133.5 644,-152.5 700,-152.5 700,-133.5 644,-133.5"/>
<text text-anchor="middle" x="672" y="-140.5" font-family="Helvetica,sans-Serif" font-size="10.00">db_path</text>
</g>
<!-- db_path&#45;&gt;analysis -->
<g id="edge10" class="edge">
<title>db_path&#45;&gt;analysis</title>
<path fill="none" stroke="black" d="M659.23,-133.25C646.59,-125.11 626.38,-113.43 607,-108 569.59,-97.52 459.8,-93.29 402.59,-91.77"/>
<polygon fill="black" stroke="black" points="402.61,-89.32 395.55,-91.58 402.48,-94.21 402.61,-89.32"/>
<text text-anchor="middle" x="646" y="-110.6" font-family="Helvetica,sans-Serif" font-size="8.00">db_path</text>
</g>
<!-- candidate_files -->
<g id="node11" class="node">
<title>candidate_files</title>
<polygon fill="#94ddf4" stroke="black" points="287,-35.5 287,-54.5 377,-54.5 377,-35.5 287,-35.5"/>
<text text-anchor="middle" x="332" y="-42.5" font-family="Helvetica,sans-Serif" font-size="10.00">candidate_files</text>
</g>
<!-- result -->
<g id="node12" class="node">
<title>result</title>
<polygon fill="#94ddf4" stroke="black" points="381,-35.5 381,-54.5 425,-54.5 425,-35.5 381,-35.5"/>
<text text-anchor="middle" x="403" y="-42.5" font-family="Helvetica,sans-Serif" font-size="10.00">result</text>
</g>
<!-- analysis&#45;&gt;candidate_files -->
<g id="edge11" class="edge">
<title>analysis&#45;&gt;candidate_files</title>
<path fill="none" stroke="black" d="M359.92,-80.3C355.27,-74.59 349.08,-66.98 343.71,-60.38"/>
<polygon fill="black" stroke="black" points="345.39,-58.57 339.07,-54.69 341.59,-61.66 345.39,-58.57"/>
</g>
<!-- analysis&#45;&gt;result -->
<g id="edge12" class="edge">
<title>analysis&#45;&gt;result</title>
<path fill="none" stroke="black" d="M374.29,-80.3C379.07,-74.59 385.44,-66.98 390.96,-60.38"/>
<polygon fill="black" stroke="black" points="393.11,-61.63 395.73,-54.69 389.35,-58.48 393.11,-61.63"/>
</g>
</g>
</svg>
