<?xml version="1.0" encoding="UTF-8" standalone="no"?>
<!DOCTYPE svg PUBLIC "-//W3C//DTD SVG 1.1//EN"
 "http://www.w3.org/Graphics/SVG/1.1/DTD/svg11.dtd">
<!-- Generated by graphviz version 2.43.0 (0)
 -->
<!-- Title: workflow Pages: 1 -->
<svg width="852pt" height="331pt"
 viewBox="0.00 0.00 851.50 331.00" xmlns="http://www.w3.org/2000/svg" xmlns:xlink="http://www.w3.org/1999/xlink">
<g id="graph0" class="graph" transform="scale(1 1) rotate(0) translate(4 327)">
<title>workflow</title>
<polygon fill="white" stroke="transparent" points="-4,4 -4,-327 847.5,-327 847.5,4 -4,4"/>
<g id="clust1" class="cluster">
<title>cluster_inputs</title>
<polygon fill="none" stroke="black" stroke-dasharray="5,2" points="258,-260 258,-315 603,-315 603,-260 258,-260"/>
<text text-anchor="middle" x="305.5" y="-303" font-family="Helvetica,sans-Serif" font-size="10.00">Workflow Inputs</text>
</g>
<g id="clust2" class="cluster">
<title>cluster_outputs</title>
<polygon fill="none" stroke="black" stroke-dasharray="5,2" points="8,-8 8,-63 828,-63 828,-8 8,-8"/>
<text text-anchor="middle" x="59.5" y="-15" font-family="Helvetica,sans-Serif" font-size="10.00">Workflow Outputs</text>
</g>
<!-- raw_counts -->
<g id="node1" class="node">
<title>raw_counts</title>
<polygon fill="#94ddf4" stroke="black" points="266,-268.5 266,-287.5 360,-287.5 360,-268.5 266,-268.5"/>
<text text-anchor="middle" x="313" y="-275.5" font-family="Helvetica,sans-Serif" font-size="10.00">Microarray data</text>
</g>
<!-- pre_processing -->
<g id="node10" class="node">
<title>pre_processing</title>
<polygon fill="lightgoldenrodyellow" stroke="black" points="381.5,-215.5 381.5,-234.5 496.5,-234.5 496.5,-215.5 381.5,-215.5"/>
<text text-anchor="middle" x="439" y="-222.5" font-family="Helvetica,sans-Serif" font-size="10.00">Data pre&#45;processing</text>
</g>
<!-- raw_counts&#45;&gt;pre_processing -->
<g id="edge1" class="edge">
<title>raw_counts&#45;&gt;pre_processing</title>
<path fill="none" stroke="black" d="M331.76,-268.38C347.46,-261.27 370.52,-251.08 391,-243 396.09,-240.99 401.52,-238.96 406.83,-237.04"/>
<polygon fill="black" stroke="black" points="407.7,-239.33 413.47,-234.67 406.05,-234.72 407.7,-239.33"/>
<text text-anchor="middle" x="414.5" y="-245.6" font-family="Helvetica,sans-Serif" font-size="8.00">raw_counts</text>
</g>
<!-- bgxfile -->
<g id="node2" class="node">
<title>bgxfile</title>
<polygon fill="#94ddf4" stroke="black" points="364,-268.5 364,-287.5 514,-287.5 514,-268.5 364,-268.5"/>
<text text-anchor="middle" x="439" y="-275.5" font-family="Helvetica,sans-Serif" font-size="10.00">Illumina beadchip array file</text>
</g>
<!-- bgxfile&#45;&gt;pre_processing -->
<g id="edge2" class="edge">
<title>bgxfile&#45;&gt;pre_processing</title>
<path fill="none" stroke="black" d="M439,-268.12C439,-260.88 439,-250.47 439,-241.82"/>
<polygon fill="black" stroke="black" points="441.45,-241.78 439,-234.78 436.55,-241.78 441.45,-241.78"/>
<text text-anchor="middle" x="453" y="-245.6" font-family="Helvetica,sans-Serif" font-size="8.00">bgxfile</text>
</g>
<!-- clinical_data -->
<g id="node3" class="node">
<title>clinical_data</title>
<polygon fill="#94ddf4" stroke="black" points="517.5,-268.5 517.5,-287.5 594.5,-287.5 594.5,-268.5 517.5,-268.5"/>
<text text-anchor="middle" x="556" y="-275.5" font-family="Helvetica,sans-Serif" font-size="10.00">Clinical data</text>
</g>
<!-- quality_control -->
<g id="node11" class="node">
<title>quality_control</title>
<polygon fill="lightgoldenrodyellow" stroke="black" points="452.5,-170.5 452.5,-189.5 541.5,-189.5 541.5,-170.5 452.5,-170.5"/>
<text text-anchor="middle" x="497" y="-177.5" font-family="Helvetica,sans-Serif" font-size="10.00">Quality control</text>
</g>
<!-- clinical_data&#45;&gt;quality_control -->
<g id="edge4" class="edge">
<title>clinical_data&#45;&gt;quality_control</title>
<path fill="none" stroke="black" d="M554.15,-268.28C550.49,-252.71 541.06,-219.71 523,-198 521.82,-196.58 520.5,-195.25 519.09,-193.99"/>
<polygon fill="black" stroke="black" points="520.37,-191.88 513.33,-189.54 517.37,-195.76 520.37,-191.88"/>
<text text-anchor="middle" x="569" y="-223.1" font-family="Helvetica,sans-Serif" font-size="8.00">clinical_data</text>
</g>
<!-- gsea_node_table -->
<g id="node4" class="node">
<title>gsea_node_table</title>
<polygon fill="#94ddf4" stroke="black" points="16,-35.5 16,-54.5 114,-54.5 114,-35.5 16,-35.5"/>
<text text-anchor="middle" x="65" y="-42.5" font-family="Helvetica,sans-Serif" font-size="10.00">GSEA node table</text>
</g>
<!-- gsea_edge_table -->
<g id="node5" class="node">
<title>gsea_edge_table</title>
<polygon fill="#94ddf4" stroke="black" points="118,-35.5 118,-54.5 216,-54.5 216,-35.5 118,-35.5"/>
<text text-anchor="middle" x="167" y="-42.5" font-family="Helvetica,sans-Serif" font-size="10.00">GSEA edge table</text>
</g>
<!-- net_data_table -->
<g id="node6" class="node">
<title>net_data_table</title>
<polygon fill="#94ddf4" stroke="black" points="220,-35.5 220,-54.5 330,-54.5 330,-35.5 220,-35.5"/>
<text text-anchor="middle" x="275" y="-42.5" font-family="Helvetica,sans-Serif" font-size="10.00">Network data table</text>
</g>
<!-- add_net_data_table -->
<g id="node7" class="node">
<title>add_net_data_table</title>
<polygon fill="#94ddf4" stroke="black" points="334.5,-35.5 334.5,-54.5 495.5,-54.5 495.5,-35.5 334.5,-35.5"/>
<text text-anchor="middle" x="415" y="-42.5" font-family="Helvetica,sans-Serif" font-size="10.00">Additional network data table</text>
</g>
<!-- module_eigengene_net_nodetable -->
<g id="node8" class="node">
<title>module_eigengene_net_nodetable</title>
<polygon fill="#94ddf4" stroke="black" points="500,-35.5 500,-54.5 658,-54.5 658,-35.5 500,-35.5"/>
<text text-anchor="middle" x="579" y="-42.5" font-family="Helvetica,sans-Serif" font-size="10.00">Module eigengene node data</text>
</g>
<!-- module_eigengene_net_edgetable -->
<g id="node9" class="node">
<title>module_eigengene_net_edgetable</title>
<polygon fill="#94ddf4" stroke="black" points="662,-35.5 662,-54.5 820,-54.5 820,-35.5 662,-35.5"/>
<text text-anchor="middle" x="741" y="-42.5" font-family="Helvetica,sans-Serif" font-size="10.00">Module eigengene edge data</text>
</g>
<!-- pre_processing&#45;&gt;quality_control -->
<g id="edge3" class="edge">
<title>pre_processing&#45;&gt;quality_control</title>
<path fill="none" stroke="black" d="M449.95,-215.47C456.57,-210.34 465.22,-203.73 473,-198 474.89,-196.61 476.88,-195.17 478.86,-193.74"/>
<polygon fill="black" stroke="black" points="480.45,-195.62 484.73,-189.56 477.61,-191.63 480.45,-195.62"/>
<text text-anchor="middle" x="499.5" y="-200.6" font-family="Helvetica,sans-Serif" font-size="8.00">norm_counts</text>
</g>
<!-- DEG -->
<g id="node12" class="node">
<title>DEG</title>
<polygon fill="lightgoldenrodyellow" stroke="black" points="278,-125.5 278,-144.5 476,-144.5 476,-125.5 278,-125.5"/>
<text text-anchor="middle" x="377" y="-132.5" font-family="Helvetica,sans-Serif" font-size="10.00">Differential gene expression analysis</text>
</g>
<!-- quality_control&#45;&gt;DEG -->
<g id="edge5" class="edge">
<title>quality_control&#45;&gt;DEG</title>
<path fill="none" stroke="black" d="M452.28,-178.08C434.4,-176.05 414.24,-171.53 398,-162 393.18,-159.17 389.02,-154.8 385.7,-150.44"/>
<polygon fill="black" stroke="black" points="387.7,-149.02 381.71,-144.64 383.66,-151.8 387.7,-149.02"/>
<text text-anchor="middle" x="431.5" y="-155.6" font-family="Helvetica,sans-Serif" font-size="8.00">qc_norm_counts</text>
</g>
<!-- quality_control&#45;&gt;DEG -->
<g id="edge6" class="edge">
<title>quality_control&#45;&gt;DEG</title>
<path fill="none" stroke="black" d="M483.53,-170.33C479.72,-167.75 475.63,-164.85 472,-162 467.29,-158.31 467.34,-155.68 462,-153 457.18,-150.58 452.04,-148.5 446.76,-146.72"/>
<polygon fill="black" stroke="black" points="447.44,-144.37 440.03,-144.62 445.98,-149.05 447.44,-144.37"/>
<text text-anchor="middle" x="493.5" y="-155.6" font-family="Helvetica,sans-Serif" font-size="8.00">qc_clinical</text>
</g>
<!-- wgcna -->
<g id="node13" class="node">
<title>wgcna</title>
<polygon fill="lightgoldenrodyellow" stroke="black" points="480.5,-125.5 480.5,-144.5 727.5,-144.5 727.5,-125.5 480.5,-125.5"/>
<text text-anchor="middle" x="604" y="-132.5" font-family="Helvetica,sans-Serif" font-size="10.00">Weighted gene co&#45;expression network analysis</text>
</g>
<!-- quality_control&#45;&gt;wgcna -->
<g id="edge7" class="edge">
<title>quality_control&#45;&gt;wgcna</title>
<path fill="none" stroke="black" d="M505.78,-170.29C512.04,-164.56 520.92,-157.35 530,-153 535.21,-150.5 540.81,-148.36 546.51,-146.53"/>
<polygon fill="black" stroke="black" points="547.22,-148.88 553.23,-144.52 545.82,-144.18 547.22,-148.88"/>
<text text-anchor="middle" x="563.5" y="-155.6" font-family="Helvetica,sans-Serif" font-size="8.00">qc_norm_counts</text>
</g>
<!-- quality_control&#45;&gt;wgcna -->
<g id="edge8" class="edge">
<title>quality_control&#45;&gt;wgcna</title>
<path fill="none" stroke="black" d="M541.51,-175.44C562.99,-172.9 585.85,-168.71 594,-162 597.27,-159.31 599.47,-155.42 600.95,-151.47"/>
<polygon fill="black" stroke="black" points="603.37,-151.93 602.92,-144.53 598.65,-150.59 603.37,-151.93"/>
<text text-anchor="middle" x="621.5" y="-155.6" font-family="Helvetica,sans-Serif" font-size="8.00">qc_clinical</text>
</g>
<!-- gsea_analysis -->
<g id="node14" class="node">
<title>gsea_analysis</title>
<polygon fill="lightgoldenrodyellow" stroke="black" points="151,-80.5 151,-99.5 399,-99.5 399,-80.5 151,-80.5"/>
<text text-anchor="middle" x="275" y="-87.5" font-family="Helvetica,sans-Serif" font-size="10.00">Gene set enrichment analysis and visualisation</text>
</g>
<!-- DEG&#45;&gt;gsea_analysis -->
<g id="edge9" class="edge">
<title>DEG&#45;&gt;gsea_analysis</title>
<path fill="none" stroke="black" d="M356.36,-125.3C340.63,-118.67 318.85,-109.49 301.79,-102.29"/>
<polygon fill="black" stroke="black" points="302.66,-100 295.26,-99.54 300.76,-104.52 302.66,-100"/>
<text text-anchor="middle" x="354.5" y="-110.6" font-family="Helvetica,sans-Serif" font-size="8.00">deg_data</text>
</g>
<!-- ME_network -->
<g id="node15" class="node">
<title>ME_network</title>
<polygon fill="lightgoldenrodyellow" stroke="black" points="473.5,-80.5 473.5,-99.5 684.5,-99.5 684.5,-80.5 473.5,-80.5"/>
<text text-anchor="middle" x="579" y="-87.5" font-family="Helvetica,sans-Serif" font-size="10.00">Module eigenegene correlation network</text>
</g>
<!-- wgcna&#45;&gt;ME_network -->
<g id="edge10" class="edge">
<title>wgcna&#45;&gt;ME_network</title>
<path fill="none" stroke="black" d="M548.47,-125.46C544.87,-123.2 541.64,-120.42 539,-117 534.79,-111.54 537.54,-106.88 543.18,-103.08"/>
<polygon fill="black" stroke="black" points="544.66,-105.07 549.63,-99.57 542.31,-100.77 544.66,-105.07"/>
<text text-anchor="middle" x="578.5" y="-110.6" font-family="Helvetica,sans-Serif" font-size="8.00">module_eigengene</text>
</g>
<!-- wgcna&#45;&gt;ME_network -->
<g id="edge11" class="edge">
<title>wgcna&#45;&gt;ME_network</title>
<path fill="none" stroke="black" d="M611.68,-125.46C615.43,-120.21 618.46,-113.46 615,-108 614.13,-106.62 613.11,-105.36 611.99,-104.19"/>
<polygon fill="black" stroke="black" points="613.42,-102.2 606.44,-99.7 610.34,-106.01 613.42,-102.2"/>
<text text-anchor="middle" x="646.5" y="-110.6" font-family="Helvetica,sans-Serif" font-size="8.00">module_trait_p</text>
</g>
<!-- module_ora -->
<g id="node16" class="node">
<title>module_ora</title>
<polygon fill="lightgoldenrodyellow" stroke="black" points="688.5,-80.5 688.5,-99.5 843.5,-99.5 843.5,-80.5 688.5,-80.5"/>
<text text-anchor="middle" x="766" y="-87.5" font-family="Helvetica,sans-Serif" font-size="10.00">Module enrichment analysis</text>
</g>
<!-- wgcna&#45;&gt;module_ora -->
<g id="edge12" class="edge">
<title>wgcna&#45;&gt;module_ora</title>
<path fill="none" stroke="black" d="M643.28,-125.45C654.53,-122.87 666.78,-119.94 678,-117 695.93,-112.3 715.75,-106.5 732.03,-101.57"/>
<polygon fill="black" stroke="black" points="732.79,-103.9 738.77,-99.52 731.36,-99.21 732.79,-103.9"/>
<text text-anchor="middle" x="735" y="-110.6" font-family="Helvetica,sans-Serif" font-size="8.00">module_trait</text>
</g>
<!-- gsea_analysis&#45;&gt;gsea_node_table -->
<g id="edge13" class="edge">
<title>gsea_analysis&#45;&gt;gsea_node_table</title>
<path fill="none" stroke="black" d="M210.41,-80.48C181.89,-76.16 148.08,-70.27 118,-63 110.81,-61.26 103.19,-59.05 96.03,-56.79"/>
<polygon fill="black" stroke="black" points="96.48,-54.36 89.06,-54.54 94.97,-59.02 96.48,-54.36"/>
</g>
<!-- gsea_analysis&#45;&gt;gsea_edge_table -->
<g id="edge14" class="edge">
<title>gsea_analysis&#45;&gt;gsea_edge_table</title>
<path fill="none" stroke="black" d="M253.4,-80.4C236.78,-73.78 213.64,-64.57 195.49,-57.34"/>
<polygon fill="black" stroke="black" points="195.97,-54.9 188.56,-54.58 194.16,-59.45 195.97,-54.9"/>
</g>
<!-- gsea_analysis&#45;&gt;net_data_table -->
<g id="edge15" class="edge">
<title>gsea_analysis&#45;&gt;net_data_table</title>
<path fill="none" stroke="black" d="M275,-80.3C275,-75.05 275,-68.21 275,-62.02"/>
<polygon fill="black" stroke="black" points="277.45,-61.69 275,-54.69 272.55,-61.69 277.45,-61.69"/>
</g>
<!-- gsea_analysis&#45;&gt;add_net_data_table -->
<g id="edge16" class="edge">
<title>gsea_analysis&#45;&gt;add_net_data_table</title>
<path fill="none" stroke="black" d="M302.99,-80.4C325.22,-73.58 356.41,-64 380.23,-56.68"/>
<polygon fill="black" stroke="black" points="381.08,-58.98 387.05,-54.58 379.64,-54.3 381.08,-58.98"/>
</g>
<!-- ME_network&#45;&gt;module_eigengene_net_nodetable -->
<g id="edge17" class="edge">
<title>ME_network&#45;&gt;module_eigengene_net_nodetable</title>
<path fill="none" stroke="black" d="M579,-80.3C579,-75.05 579,-68.21 579,-62.02"/>
<polygon fill="black" stroke="black" points="581.45,-61.69 579,-54.69 576.55,-61.69 581.45,-61.69"/>
</g>
<!-- ME_network&#45;&gt;module_eigengene_net_edgetable -->
<g id="edge18" class="edge">
<title>ME_network&#45;&gt;module_eigengene_net_edgetable</title>
<path fill="none" stroke="black" d="M611.39,-80.4C637.53,-73.47 674.37,-63.69 702.1,-56.33"/>
<polygon fill="black" stroke="black" points="702.8,-58.67 708.94,-54.51 701.54,-53.94 702.8,-58.67"/>
</g>
</g>
</svg>
