<?xml version="1.0" encoding="UTF-8" standalone="no"?>
<!DOCTYPE svg PUBLIC "-//W3C//DTD SVG 1.1//EN"
 "http://www.w3.org/Graphics/SVG/1.1/DTD/svg11.dtd">
<!-- Generated by graphviz version 2.40.1 (0)
 -->
<!-- Title: workflow Pages: 1 -->
<svg width="312pt" height="131pt"
 viewBox="0.00 0.00 321.00 135.00" xmlns="http://www.w3.org/2000/svg" xmlns:xlink="http://www.w3.org/1999/xlink">
<g id="graph0" class="graph" transform="scale(.9722 .9722) rotate(0) translate(4 131)">
<title>workflow</title>
<g id="clust1" class="cluster">
<title>cluster_inputs</title>
<polygon fill="transparent" stroke="#000000" stroke-dasharray="5,2" points="8,-64 8,-119 305,-119 305,-64 8,-64"/>
<text text-anchor="middle" x="50.5" y="-107" font-family="Times,serif" font-size="10.00" fill="#000000">Workflow Inputs</text>
</g>
<!-- hits_frankenstein_17_sdf -->
<g id="node1" class="node">
<title>hits_frankenstein_17_sdf</title>
<polygon fill="#94ddf4" stroke="#000000" points="16.5,-72.5 16.5,-91.5 141.5,-91.5 141.5,-72.5 16.5,-72.5"/>
<text text-anchor="middle" x="79" y="-79.5" font-family="Helvetica,sans-Serif" font-size="10.00" fill="#000000">hits_frankenstein_17_sdf</text>
</g>
<!-- 3_rDock cavity definition -->
<g id="node4" class="node">
<title>3_rDock cavity definition</title>
<polygon fill="#fafad2" stroke="#000000" points="88.5,-.5 88.5,-19.5 209.5,-19.5 209.5,-.5 88.5,-.5"/>
<text text-anchor="middle" x="149" y="-7.5" font-family="Helvetica,sans-Serif" font-size="10.00" fill="#000000">3_rDock cavity definition</text>
</g>
<!-- hits_frankenstein_17_sdf&#45;&gt;3_rDock cavity definition -->
<g id="edge3" class="edge">
<title>hits_frankenstein_17_sdf&#45;&gt;3_rDock cavity definition</title>
<path fill="none" stroke="#000000" d="M88.4405,-72.2898C100.3008,-60.0907 120.7708,-39.0358 134.5921,-24.8195"/>
<polygon fill="#000000" stroke="#000000" points="136.5861,-26.2832 139.7091,-19.5564 133.0728,-22.8675 136.5861,-26.2832"/>
</g>
<!-- Mpro&#45;x0195_0_apo&#45;desolv_pdb -->
<g id="node2" class="node">
<title>Mpro&#45;x0195_0_apo&#45;desolv_pdb</title>
<polygon fill="#94ddf4" stroke="#000000" points="145.5,-72.5 145.5,-91.5 296.5,-91.5 296.5,-72.5 145.5,-72.5"/>
<text text-anchor="middle" x="221" y="-79.5" font-family="Helvetica,sans-Serif" font-size="10.00" fill="#000000">Mpro&#45;x0195_0_apo&#45;desolv_pdb</text>
</g>
<!-- 2_Compound conversion -->
<g id="node3" class="node">
<title>2_Compound conversion</title>
<polygon fill="#fafad2" stroke="#000000" points="140.5,-36.5 140.5,-55.5 263.5,-55.5 263.5,-36.5 140.5,-36.5"/>
<text text-anchor="middle" x="202" y="-43.5" font-family="Helvetica,sans-Serif" font-size="10.00" fill="#000000">2_Compound conversion</text>
</g>
<!-- Mpro&#45;x0195_0_apo&#45;desolv_pdb&#45;&gt;2_Compound conversion -->
<g id="edge1" class="edge">
<title>Mpro&#45;x0195_0_apo&#45;desolv_pdb&#45;&gt;2_Compound conversion</title>
<path fill="none" stroke="#000000" d="M215.8082,-72.1628C214.1477,-69.0167 212.2644,-65.4484 210.4346,-61.9813"/>
<polygon fill="#000000" stroke="#000000" points="212.4883,-60.6236 207.0542,-55.5764 208.1548,-62.9107 212.4883,-60.6236"/>
</g>
<!-- 2_Compound conversion&#45;&gt;3_rDock cavity definition -->
<g id="edge2" class="edge">
<title>2_Compound conversion&#45;&gt;3_rDock cavity definition</title>
<path fill="none" stroke="#000000" d="M187.797,-36.3527C182.0937,-32.4788 175.4141,-27.9416 169.2201,-23.7344"/>
<polygon fill="#000000" stroke="#000000" points="170.4094,-21.5805 163.2422,-19.674 167.6561,-25.6339 170.4094,-21.5805"/>
</g>
</g>
</svg>
