<?xml version="1.0" encoding="UTF-8" standalone="no"?>
<!DOCTYPE svg PUBLIC "-//W3C//DTD SVG 1.1//EN"
 "http://www.w3.org/Graphics/SVG/1.1/DTD/svg11.dtd">
<!-- Generated by graphviz version 2.40.1 (0)
 -->
<!-- Title: workflow Pages: 1 -->
<svg width="253pt" height="236pt"
 viewBox="0.00 0.00 260.00 243.00" xmlns="http://www.w3.org/2000/svg" xmlns:xlink="http://www.w3.org/1999/xlink">
<g id="graph0" class="graph" transform="scale(.9722 .9722) rotate(0) translate(4 239)">
<title>workflow</title>
<g id="clust1" class="cluster">
<title>cluster_inputs</title>
<polygon fill="transparent" stroke="#000000" stroke-dasharray="5,2" points="8,-172 8,-227 244,-227 244,-172 8,-172"/>
<text text-anchor="middle" x="50.5" y="-215" font-family="Times,serif" font-size="10.00" fill="#000000">Workflow Inputs</text>
</g>
<!-- 1_Input Dataset -->
<g id="node1" class="node">
<title>1_Input Dataset</title>
<polygon fill="#94ddf4" stroke="#000000" points="16.5,-180.5 16.5,-199.5 101.5,-199.5 101.5,-180.5 16.5,-180.5"/>
<text text-anchor="middle" x="59" y="-187.5" font-family="Helvetica,sans-Serif" font-size="10.00" fill="#000000">1_Input Dataset</text>
</g>
<!-- 5_Max SuCOS score -->
<g id="node6" class="node">
<title>5_Max SuCOS score</title>
<polygon fill="#fafad2" stroke="#000000" points="49.5,-36.5 49.5,-55.5 156.5,-55.5 156.5,-36.5 49.5,-36.5"/>
<text text-anchor="middle" x="103" y="-43.5" font-family="Helvetica,sans-Serif" font-size="10.00" fill="#000000">5_Max SuCOS score</text>
</g>
<!-- 1_Input Dataset&#45;&gt;5_Max SuCOS score -->
<g id="edge5" class="edge">
<title>1_Input Dataset&#45;&gt;5_Max SuCOS score</title>
<path fill="none" stroke="#000000" d="M62.0243,-180.1023C69.4702,-155.7338 88.7507,-92.6342 97.9595,-62.4961"/>
<polygon fill="#000000" stroke="#000000" points="100.3679,-62.9982 100.0704,-55.5877 95.6818,-61.5662 100.3679,-62.9982"/>
</g>
<!-- 0_Input Dataset Collection -->
<g id="node2" class="node">
<title>0_Input Dataset Collection</title>
<polygon fill="#94ddf4" stroke="#000000" points="106,-180.5 106,-199.5 236,-199.5 236,-180.5 106,-180.5"/>
<text text-anchor="middle" x="171" y="-187.5" font-family="Helvetica,sans-Serif" font-size="10.00" fill="#000000">0_Input Dataset Collection</text>
</g>
<!-- 2_Collapse Collection -->
<g id="node3" class="node">
<title>2_Collapse Collection</title>
<polygon fill="#fafad2" stroke="#000000" points="103,-144.5 103,-163.5 213,-163.5 213,-144.5 103,-144.5"/>
<text text-anchor="middle" x="158" y="-151.5" font-family="Helvetica,sans-Serif" font-size="10.00" fill="#000000">2_Collapse Collection</text>
</g>
<!-- 0_Input Dataset Collection&#45;&gt;2_Collapse Collection -->
<g id="edge1" class="edge">
<title>0_Input Dataset Collection&#45;&gt;2_Collapse Collection</title>
<path fill="none" stroke="#000000" d="M167.4477,-180.1628C166.3407,-177.0974 165.089,-173.6311 163.8674,-170.2482"/>
<polygon fill="#000000" stroke="#000000" points="166.1401,-169.3282 161.4582,-163.5764 161.5314,-170.9925 166.1401,-169.3282"/>
</g>
<!-- 3_SDF sort and filter -->
<g id="node5" class="node">
<title>3_SDF sort and filter</title>
<polygon fill="#fafad2" stroke="#000000" points="98,-108.5 98,-127.5 202,-127.5 202,-108.5 98,-108.5"/>
<text text-anchor="middle" x="150" y="-115.5" font-family="Helvetica,sans-Serif" font-size="10.00" fill="#000000">3_SDF sort and filter</text>
</g>
<!-- 2_Collapse Collection&#45;&gt;3_SDF sort and filter -->
<g id="edge3" class="edge">
<title>2_Collapse Collection&#45;&gt;3_SDF sort and filter</title>
<path fill="none" stroke="#000000" d="M155.814,-144.1628C155.1507,-141.178 154.403,-137.8133 153.6701,-134.5155"/>
<polygon fill="#000000" stroke="#000000" points="156.0383,-133.8782 152.1281,-127.5764 151.255,-134.9412 156.0383,-133.8782"/>
</g>
<!-- 6_Collapse Collection -->
<g id="node4" class="node">
<title>6_Collapse Collection</title>
<polygon fill="#fafad2" stroke="#000000" points="48,-.5 48,-19.5 158,-19.5 158,-.5 48,-.5"/>
<text text-anchor="middle" x="103" y="-7.5" font-family="Helvetica,sans-Serif" font-size="10.00" fill="#000000">6_Collapse Collection</text>
</g>
<!-- 4_Split file -->
<g id="node7" class="node">
<title>4_Split file</title>
<polygon fill="#fafad2" stroke="#000000" points="105.5,-72.5 105.5,-91.5 166.5,-91.5 166.5,-72.5 105.5,-72.5"/>
<text text-anchor="middle" x="136" y="-79.5" font-family="Helvetica,sans-Serif" font-size="10.00" fill="#000000">4_Split file</text>
</g>
<!-- 3_SDF sort and filter&#45;&gt;4_Split file -->
<g id="edge6" class="edge">
<title>3_SDF sort and filter&#45;&gt;4_Split file</title>
<path fill="none" stroke="#000000" d="M146.1744,-108.1628C144.9823,-105.0974 143.6343,-101.6311 142.3188,-98.2482"/>
<polygon fill="#000000" stroke="#000000" points="144.5448,-97.2125 139.7242,-91.5764 139.9779,-98.9885 144.5448,-97.2125"/>
</g>
<!-- 5_Max SuCOS score&#45;&gt;6_Collapse Collection -->
<g id="edge2" class="edge">
<title>5_Max SuCOS score&#45;&gt;6_Collapse Collection</title>
<path fill="none" stroke="#000000" d="M103,-36.1628C103,-33.2587 103,-29.9949 103,-26.783"/>
<polygon fill="#000000" stroke="#000000" points="105.4501,-26.5764 103,-19.5764 100.5501,-26.5765 105.4501,-26.5764"/>
</g>
<!-- 4_Split file&#45;&gt;5_Max SuCOS score -->
<g id="edge4" class="edge">
<title>4_Split file&#45;&gt;5_Max SuCOS score</title>
<path fill="none" stroke="#000000" d="M126.9826,-72.1628C123.8028,-68.694 120.1527,-64.712 116.6751,-60.9183"/>
<polygon fill="#000000" stroke="#000000" points="118.3145,-59.081 111.7784,-55.5764 114.7025,-62.3921 118.3145,-59.081"/>
</g>
</g>
</svg>
