<?xml version="1.0" encoding="UTF-8" standalone="no"?>
<!DOCTYPE svg PUBLIC "-//W3C//DTD SVG 1.1//EN"
 "http://www.w3.org/Graphics/SVG/1.1/DTD/svg11.dtd">
<!-- Generated by graphviz version 2.40.1 (20161225.0304)
 -->
<!-- Title: workflow Pages: 1 -->
<svg width="671pt" height="601pt"
 viewBox="0.00 0.00 671.00 601.00" xmlns="http://www.w3.org/2000/svg" xmlns:xlink="http://www.w3.org/1999/xlink">
<g id="graph0" class="graph" transform="scale(1 1) rotate(0) translate(4 597)">
<title>workflow</title>
<polygon fill="#ffffff" stroke="transparent" points="-4,4 -4,-597 667,-597 667,4 -4,4"/>
<g id="clust1" class="cluster">
<title>cluster_inputs</title>
<polygon fill="none" stroke="#000000" stroke-dasharray="5,2" points="8,-530 8,-585 655,-585 655,-530 8,-530"/>
<text text-anchor="middle" x="52" y="-573" font-family="Helvetica,sans-Serif" font-size="10.00" fill="#000000">Workflow Inputs</text>
</g>
<g id="clust2" class="cluster">
<title>cluster_outputs</title>
<polygon fill="none" stroke="#000000" stroke-dasharray="5,2" points="259,-8 259,-63 364,-63 364,-8 259,-8"/>
<text text-anchor="middle" x="306.5" y="-15" font-family="Helvetica,sans-Serif" font-size="10.00" fill="#000000">Workflow Outputs</text>
</g>
<!-- fastq_files -->
<g id="node1" class="node">
<title>fastq_files</title>
<polygon fill="#94ddf4" stroke="#000000" points="414,-538.5 414,-557.5 476,-557.5 476,-538.5 414,-538.5"/>
<text text-anchor="middle" x="445" y="-545.5" font-family="Helvetica,sans-Serif" font-size="10.00" fill="#000000">fastq_files</text>
</g>
<!-- cutadapt2 -->
<g id="node15" class="node">
<title>cutadapt2</title>
<polygon fill="#fafad2" stroke="#000000" points="399.5,-485.5 399.5,-504.5 458.5,-504.5 458.5,-485.5 399.5,-485.5"/>
<text text-anchor="middle" x="429" y="-492.5" font-family="Helvetica,sans-Serif" font-size="10.00" fill="#000000">cutadapt2</text>
</g>
<!-- fastq_files&#45;&gt;cutadapt2 -->
<g id="edge5" class="edge">
<title>fastq_files&#45;&gt;cutadapt2</title>
<path fill="none" stroke="#000000" d="M442.0654,-538.279C439.81,-530.808 436.6421,-520.3143 433.9905,-511.5311"/>
<polygon fill="#000000" stroke="#000000" points="436.2846,-510.6526 431.916,-504.6594 431.5937,-512.0688 436.2846,-510.6526"/>
<text text-anchor="middle" x="465.5" y="-515.6" font-family="Helvetica,sans-Serif" font-size="8.00" fill="#000000">raw_sequences</text>
</g>
<!-- reference_genome -->
<g id="node2" class="node">
<title>reference_genome</title>
<polygon fill="#94ddf4" stroke="#000000" points="52.5,-538.5 52.5,-557.5 149.5,-557.5 149.5,-538.5 52.5,-538.5"/>
<text text-anchor="middle" x="101" y="-545.5" font-family="Helvetica,sans-Serif" font-size="10.00" fill="#000000">reference_genome</text>
</g>
<!-- gunzip -->
<g id="node13" class="node">
<title>gunzip</title>
<polygon fill="#fafad2" stroke="#000000" points="133.5,-485.5 133.5,-504.5 178.5,-504.5 178.5,-485.5 133.5,-485.5"/>
<text text-anchor="middle" x="156" y="-492.5" font-family="Helvetica,sans-Serif" font-size="10.00" fill="#000000">gunzip</text>
</g>
<!-- reference_genome&#45;&gt;gunzip -->
<g id="edge3" class="edge">
<title>reference_genome&#45;&gt;gunzip</title>
<path fill="none" stroke="#000000" d="M111.0878,-538.279C119.3835,-530.285 131.2703,-518.8304 140.7314,-509.7134"/>
<polygon fill="#000000" stroke="#000000" points="142.6356,-511.2809 145.9761,-504.6594 139.2355,-507.7525 142.6356,-511.2809"/>
<text text-anchor="middle" x="160.5" y="-515.6" font-family="Helvetica,sans-Serif" font-size="8.00" fill="#000000">reference_file</text>
</g>
<!-- known_indels_file -->
<g id="node3" class="node">
<title>known_indels_file</title>
<polygon fill="#94ddf4" stroke="#000000" points="154,-538.5 154,-557.5 248,-557.5 248,-538.5 154,-538.5"/>
<text text-anchor="middle" x="201" y="-545.5" font-family="Helvetica,sans-Serif" font-size="10.00" fill="#000000">known_indels_file</text>
</g>
<!-- unzipped_known_indels -->
<g id="node12" class="node">
<title>unzipped_known_indels</title>
<polygon fill="#fafad2" stroke="#000000" points="237,-305.5 237,-324.5 357,-324.5 357,-305.5 237,-305.5"/>
<text text-anchor="middle" x="297" y="-312.5" font-family="Helvetica,sans-Serif" font-size="10.00" fill="#000000">unzipped_known_indels</text>
</g>
<!-- known_indels_file&#45;&gt;unzipped_known_indels -->
<g id="edge2" class="edge">
<title>known_indels_file&#45;&gt;unzipped_known_indels</title>
<path fill="none" stroke="#000000" d="M227.321,-538.3879C254.1967,-527.7406 292,-510.0833 292,-495 292,-495 292,-495 292,-360 292,-350.6115 293.0884,-340.1883 294.2495,-331.7394"/>
<polygon fill="#000000" stroke="#000000" points="296.7016,-331.9057 295.3072,-324.6216 291.8548,-331.1854 296.7016,-331.9057"/>
<text text-anchor="middle" x="301" y="-425.6" font-family="Helvetica,sans-Serif" font-size="8.00" fill="#000000">input</text>
</g>
<!-- known_sites_file -->
<g id="node4" class="node">
<title>known_sites_file</title>
<polygon fill="#94ddf4" stroke="#000000" points="480.5,-538.5 480.5,-557.5 569.5,-557.5 569.5,-538.5 480.5,-538.5"/>
<text text-anchor="middle" x="525" y="-545.5" font-family="Helvetica,sans-Serif" font-size="10.00" fill="#000000">known_sites_file</text>
</g>
<!-- unzipped_known_sites -->
<g id="node11" class="node">
<title>unzipped_known_sites</title>
<polygon fill="#fafad2" stroke="#000000" points="465,-485.5 465,-504.5 581,-504.5 581,-485.5 465,-485.5"/>
<text text-anchor="middle" x="523" y="-492.5" font-family="Helvetica,sans-Serif" font-size="10.00" fill="#000000">unzipped_known_sites</text>
</g>
<!-- known_sites_file&#45;&gt;unzipped_known_sites -->
<g id="edge1" class="edge">
<title>known_sites_file&#45;&gt;unzipped_known_sites</title>
<path fill="none" stroke="#000000" d="M524.6332,-538.279C524.3541,-530.8827 523.9632,-520.5239 523.6338,-511.7951"/>
<polygon fill="#000000" stroke="#000000" points="526.0768,-511.562 523.3645,-504.6594 521.1803,-511.7468 526.0768,-511.562"/>
<text text-anchor="middle" x="533" y="-515.6" font-family="Helvetica,sans-Serif" font-size="8.00" fill="#000000">input</text>
</g>
<!-- chromosome -->
<g id="node5" class="node">
<title>chromosome</title>
<polygon fill="#94ddf4" stroke="#000000" points="573.5,-538.5 573.5,-557.5 646.5,-557.5 646.5,-538.5 573.5,-538.5"/>
<text text-anchor="middle" x="610" y="-545.5" font-family="Helvetica,sans-Serif" font-size="10.00" fill="#000000">chromosome</text>
</g>
<!-- gatk_haplotype_caller -->
<g id="node25" class="node">
<title>gatk_haplotype_caller</title>
<polygon fill="#fafad2" stroke="#000000" points="61.5,-80.5 61.5,-99.5 170.5,-99.5 170.5,-80.5 61.5,-80.5"/>
<text text-anchor="middle" x="116" y="-87.5" font-family="Helvetica,sans-Serif" font-size="10.00" fill="#000000">gatk&#45;haplotype_caller</text>
</g>
<!-- chromosome&#45;&gt;gatk_haplotype_caller -->
<g id="edge34" class="edge">
<title>chromosome&#45;&gt;gatk_haplotype_caller</title>
<path fill="none" stroke="#000000" d="M607.3484,-538.3154C604.6936,-527.7526 601,-510.3063 601,-495 601,-495 601,-495 601,-135 601,-113.9921 308.6897,-98.4811 177.9327,-92.5936"/>
<polygon fill="#000000" stroke="#000000" points="177.7953,-90.1351 170.6929,-92.27 177.5765,-95.0302 177.7953,-90.1351"/>
<text text-anchor="middle" x="624.5" y="-313.1" font-family="Helvetica,sans-Serif" font-size="8.00" fill="#000000">chromosome</text>
</g>
<!-- readgroup_str -->
<g id="node6" class="node">
<title>readgroup_str</title>
<polygon fill="#94ddf4" stroke="#000000" points="252,-538.5 252,-557.5 328,-557.5 328,-538.5 252,-538.5"/>
<text text-anchor="middle" x="290" y="-545.5" font-family="Helvetica,sans-Serif" font-size="10.00" fill="#000000">readgroup_str</text>
</g>
<!-- bwa_mem -->
<g id="node18" class="node">
<title>bwa_mem</title>
<polygon fill="#fafad2" stroke="#000000" points="339,-395.5 339,-414.5 401,-414.5 401,-395.5 339,-395.5"/>
<text text-anchor="middle" x="370" y="-402.5" font-family="Helvetica,sans-Serif" font-size="10.00" fill="#000000">bwa_mem</text>
</g>
<!-- readgroup_str&#45;&gt;bwa_mem -->
<g id="edge10" class="edge">
<title>readgroup_str&#45;&gt;bwa_mem</title>
<path fill="none" stroke="#000000" d="M293.4804,-538.3317C299.1727,-522.9732 311.2288,-492.2579 325,-468 334.6945,-450.9232 347.9794,-432.8197 357.5996,-420.4227"/>
<polygon fill="#000000" stroke="#000000" points="359.5992,-421.8433 361.996,-414.8249 355.7456,-418.8168 359.5992,-421.8433"/>
<text text-anchor="middle" x="346.5" y="-470.6" font-family="Helvetica,sans-Serif" font-size="8.00" fill="#000000">read_group</text>
</g>
<!-- sample_name -->
<g id="node7" class="node">
<title>sample_name</title>
<polygon fill="#94ddf4" stroke="#000000" points="332.5,-538.5 332.5,-557.5 409.5,-557.5 409.5,-538.5 332.5,-538.5"/>
<text text-anchor="middle" x="371" y="-545.5" font-family="Helvetica,sans-Serif" font-size="10.00" fill="#000000">sample_name</text>
</g>
<!-- sample_name&#45;&gt;bwa_mem -->
<g id="edge8" class="edge">
<title>sample_name&#45;&gt;bwa_mem</title>
<path fill="none" stroke="#000000" d="M370.8211,-538.3539C370.5776,-524.6969 370.1545,-498.9426 370,-477 369.8678,-458.227 369.8907,-436.7001 369.9322,-422.1118"/>
<polygon fill="#000000" stroke="#000000" points="372.3832,-421.7906 369.9564,-414.7826 367.4832,-421.7745 372.3832,-421.7906"/>
<text text-anchor="middle" x="395.5" y="-470.6" font-family="Helvetica,sans-Serif" font-size="8.00" fill="#000000">sample_name</text>
</g>
<!-- gqb -->
<g id="node8" class="node">
<title>gqb</title>
<polygon fill="#94ddf4" stroke="#000000" points="16,-538.5 16,-557.5 48,-557.5 48,-538.5 16,-538.5"/>
<text text-anchor="middle" x="32" y="-545.5" font-family="Helvetica,sans-Serif" font-size="10.00" fill="#000000">gqb</text>
</g>
<!-- gqb&#45;&gt;gatk_haplotype_caller -->
<g id="edge35" class="edge">
<title>gqb&#45;&gt;gatk_haplotype_caller</title>
<path fill="none" stroke="#000000" d="M32.5892,-538.2358C33.1792,-527.6051 34,-510.101 34,-495 34,-495 34,-495 34,-135 34,-119.3688 45.5933,-109.1303 60.0615,-102.4391"/>
<polygon fill="#000000" stroke="#000000" points="61.3548,-104.555 66.8801,-99.6078 59.4757,-100.0296 61.3548,-104.555"/>
<text text-anchor="middle" x="41" y="-313.1" font-family="Helvetica,sans-Serif" font-size="8.00" fill="#000000">gqb</text>
</g>
<!-- metrics -->
<g id="node9" class="node">
<title>metrics</title>
<polygon fill="#94ddf4" stroke="#000000" points="306.5,-35.5 306.5,-54.5 355.5,-54.5 355.5,-35.5 306.5,-35.5"/>
<text text-anchor="middle" x="331" y="-42.5" font-family="Helvetica,sans-Serif" font-size="10.00" fill="#000000">metrics</text>
</g>
<!-- gvcf -->
<g id="node10" class="node">
<title>gvcf</title>
<polygon fill="#94ddf4" stroke="#000000" points="267.5,-35.5 267.5,-54.5 302.5,-54.5 302.5,-35.5 267.5,-35.5"/>
<text text-anchor="middle" x="285" y="-42.5" font-family="Helvetica,sans-Serif" font-size="10.00" fill="#000000">gvcf</text>
</g>
<!-- gatk&#45;base_recalibration -->
<g id="node23" class="node">
<title>gatk&#45;base_recalibration</title>
<polygon fill="#fafad2" stroke="#000000" points="244.5,-170.5 244.5,-189.5 361.5,-189.5 361.5,-170.5 244.5,-170.5"/>
<text text-anchor="middle" x="303" y="-177.5" font-family="Helvetica,sans-Serif" font-size="10.00" fill="#000000">gatk&#45;base_recalibration</text>
</g>
<!-- unzipped_known_sites&#45;&gt;gatk&#45;base_recalibration -->
<g id="edge25" class="edge">
<title>unzipped_known_sites&#45;&gt;gatk&#45;base_recalibration</title>
<path fill="none" stroke="#000000" d="M509.1671,-485.2187C499.384,-477.0546 488,-464.4501 488,-450 488,-450 488,-450 488,-225 488,-199.6926 421.8113,-188.5602 368.6147,-183.6998"/>
<polygon fill="#000000" stroke="#000000" points="368.7216,-181.2499 361.5352,-183.0824 368.2958,-186.1314 368.7216,-181.2499"/>
<text text-anchor="middle" x="535.5" y="-335.6" font-family="Helvetica,sans-Serif" font-size="8.00" fill="#000000">unzipped_known_sites_file</text>
</g>
<!-- gatk3&#45;rtc -->
<g id="node21" class="node">
<title>gatk3&#45;rtc</title>
<polygon fill="#fafad2" stroke="#000000" points="264.5,-260.5 264.5,-279.5 319.5,-279.5 319.5,-260.5 264.5,-260.5"/>
<text text-anchor="middle" x="292" y="-267.5" font-family="Helvetica,sans-Serif" font-size="10.00" fill="#000000">gatk3&#45;rtc</text>
</g>
<!-- unzipped_known_indels&#45;&gt;gatk3&#45;rtc -->
<g id="edge17" class="edge">
<title>unzipped_known_indels&#45;&gt;gatk3&#45;rtc</title>
<path fill="none" stroke="#000000" d="M289.0178,-305.2525C287.3691,-302.7119 285.8707,-299.8757 285,-297 283.9668,-293.5877 284.1069,-289.9049 284.8309,-286.3894"/>
<polygon fill="#000000" stroke="#000000" points="287.2188,-286.9602 286.9481,-279.5487 282.5379,-285.5114 287.2188,-286.9602"/>
<text text-anchor="middle" x="309.5" y="-290.6" font-family="Helvetica,sans-Serif" font-size="8.00" fill="#000000">known_indels</text>
</g>
<!-- unzipped_known_indels&#45;&gt;gatk&#45;base_recalibration -->
<g id="edge26" class="edge">
<title>unzipped_known_indels&#45;&gt;gatk&#45;base_recalibration</title>
<path fill="none" stroke="#000000" d="M349.4853,-305.4548C358.2121,-303.0321 365.5494,-300.1954 369,-297 384.4682,-282.6759 380.6231,-272.8096 384,-252 388.5096,-224.2109 360.0758,-204.3095 335.6681,-192.5687"/>
<polygon fill="#000000" stroke="#000000" points="336.6311,-190.315 329.2476,-189.6169 334.5843,-194.767 336.6311,-190.315"/>
<text text-anchor="middle" x="415.5" y="-245.6" font-family="Helvetica,sans-Serif" font-size="8.00" fill="#000000">known_indels_file</text>
</g>
<!-- picard_dictionary -->
<g id="node14" class="node">
<title>picard_dictionary</title>
<polygon fill="#fafad2" stroke="#000000" points="53,-305.5 53,-324.5 143,-324.5 143,-305.5 53,-305.5"/>
<text text-anchor="middle" x="98" y="-312.5" font-family="Helvetica,sans-Serif" font-size="10.00" fill="#000000">picard_dictionary</text>
</g>
<!-- gunzip&#45;&gt;picard_dictionary -->
<g id="edge4" class="edge">
<title>gunzip&#45;&gt;picard_dictionary</title>
<path fill="none" stroke="#000000" d="M133.4096,-487.6622C117.1242,-480.7916 98,-468.7348 98,-450 98,-450 98,-450 98,-360 98,-350.6689 98,-340.2495 98,-331.7884"/>
<polygon fill="#000000" stroke="#000000" points="100.4501,-331.6559 98,-324.656 95.5501,-331.656 100.4501,-331.6559"/>
<text text-anchor="middle" x="132.5" y="-403.1" font-family="Helvetica,sans-Serif" font-size="8.00" fill="#000000">reference_genome</text>
</g>
<!-- bwa_index -->
<g id="node16" class="node">
<title>bwa_index</title>
<polygon fill="#fafad2" stroke="#000000" points="182.5,-440.5 182.5,-459.5 245.5,-459.5 245.5,-440.5 182.5,-440.5"/>
<text text-anchor="middle" x="214" y="-447.5" font-family="Helvetica,sans-Serif" font-size="10.00" fill="#000000">bwa_index</text>
</g>
<!-- gunzip&#45;&gt;bwa_index -->
<g id="edge6" class="edge">
<title>gunzip&#45;&gt;bwa_index</title>
<path fill="none" stroke="#000000" d="M168.3003,-485.4567C176.3745,-479.1922 187.0686,-470.8951 196.0817,-463.9021"/>
<polygon fill="#000000" stroke="#000000" points="197.6887,-465.7563 201.7174,-459.5296 194.6849,-461.8849 197.6887,-465.7563"/>
<text text-anchor="middle" x="224.5" y="-470.6" font-family="Helvetica,sans-Serif" font-size="8.00" fill="#000000">reference_genome</text>
</g>
<!-- samtools_index -->
<g id="node17" class="node">
<title>samtools_index</title>
<polygon fill="#fafad2" stroke="#000000" points="147.5,-305.5 147.5,-324.5 232.5,-324.5 232.5,-305.5 147.5,-305.5"/>
<text text-anchor="middle" x="190" y="-312.5" font-family="Helvetica,sans-Serif" font-size="10.00" fill="#000000">samtools_index</text>
</g>
<!-- gunzip&#45;&gt;samtools_index -->
<g id="edge7" class="edge">
<title>gunzip&#45;&gt;samtools_index</title>
<path fill="none" stroke="#000000" d="M162.6453,-485.481C168.1243,-476.6914 175,-463.0597 175,-450 175,-450 175,-450 175,-360 175,-350.0921 178.3131,-339.5578 181.8252,-331.1743"/>
<polygon fill="#000000" stroke="#000000" points="184.1014,-332.0866 184.7537,-324.6989 179.6368,-330.0673 184.1014,-332.0866"/>
<text text-anchor="middle" x="184" y="-403.1" font-family="Helvetica,sans-Serif" font-size="8.00" fill="#000000">input</text>
</g>
<!-- picard_dictionary&#45;&gt;gatk3&#45;rtc -->
<g id="edge16" class="edge">
<title>picard_dictionary&#45;&gt;gatk3&#45;rtc</title>
<path fill="none" stroke="#000000" d="M125.5562,-305.4309C143.4376,-299.5697 167.3559,-292.3772 189,-288 218.3391,-282.0666 228.1476,-286.0889 257.3758,-280.631"/>
<polygon fill="#000000" stroke="#000000" points="257.9807,-283.0083 264.3575,-279.2215 257.011,-278.2052 257.9807,-283.0083"/>
<text text-anchor="middle" x="195.5" y="-290.6" font-family="Helvetica,sans-Serif" font-size="8.00" fill="#000000">dict</text>
</g>
<!-- gatk&#45;ir -->
<g id="node22" class="node">
<title>gatk&#45;ir</title>
<polygon fill="#fafad2" stroke="#000000" points="240,-215.5 240,-234.5 284,-234.5 284,-215.5 240,-215.5"/>
<text text-anchor="middle" x="262" y="-222.5" font-family="Helvetica,sans-Serif" font-size="10.00" fill="#000000">gatk&#45;ir</text>
</g>
<!-- picard_dictionary&#45;&gt;gatk&#45;ir -->
<g id="edge21" class="edge">
<title>picard_dictionary&#45;&gt;gatk&#45;ir</title>
<path fill="none" stroke="#000000" d="M120.5646,-305.4461C125.492,-302.9751 130.5577,-300.1209 135,-297 154.2882,-283.4494 154.2507,-274.287 173,-260 184.8833,-250.9448 188.1292,-248.5507 202,-243 214.4984,-237.9985 219.7327,-239.0956 233.1489,-235.6557"/>
<polygon fill="#000000" stroke="#000000" points="233.8847,-237.9936 239.9444,-233.7177 232.5408,-233.2815 233.8847,-237.9936"/>
<text text-anchor="middle" x="179.5" y="-268.1" font-family="Helvetica,sans-Serif" font-size="8.00" fill="#000000">dict</text>
</g>
<!-- picard_dictionary&#45;&gt;gatk&#45;base_recalibration -->
<g id="edge23" class="edge">
<title>picard_dictionary&#45;&gt;gatk&#45;base_recalibration</title>
<path fill="none" stroke="#000000" d="M101.3742,-305.2857C108.8934,-285.1295 129.0082,-238.6727 162,-215 174.7646,-205.841 208.4963,-197.3077 239.7658,-190.9601"/>
<polygon fill="#000000" stroke="#000000" points="240.4213,-193.3278 246.8081,-189.5581 239.4645,-188.5221 240.4213,-193.3278"/>
<text text-anchor="middle" x="140.5" y="-245.6" font-family="Helvetica,sans-Serif" font-size="8.00" fill="#000000">dict</text>
</g>
<!-- gatk&#45;base_recalibration_print_reads -->
<g id="node24" class="node">
<title>gatk&#45;base_recalibration_print_reads</title>
<polygon fill="#fafad2" stroke="#000000" points="97,-125.5 97,-144.5 267,-144.5 267,-125.5 97,-125.5"/>
<text text-anchor="middle" x="182" y="-132.5" font-family="Helvetica,sans-Serif" font-size="10.00" fill="#000000">gatk&#45;base_recalibration_print_reads</text>
</g>
<!-- picard_dictionary&#45;&gt;gatk&#45;base_recalibration_print_reads -->
<g id="edge28" class="edge">
<title>picard_dictionary&#45;&gt;gatk&#45;base_recalibration_print_reads</title>
<path fill="none" stroke="#000000" d="M90.7795,-305.188C85.0508,-296.4227 78,-282.995 78,-270 78,-270 78,-270 78,-180 78,-166.6245 107.3414,-154.7622 134.8544,-146.5792"/>
<polygon fill="#000000" stroke="#000000" points="135.7436,-148.8727 141.7909,-144.5794 134.3861,-144.1645 135.7436,-148.8727"/>
<text text-anchor="middle" x="84.5" y="-223.1" font-family="Helvetica,sans-Serif" font-size="8.00" fill="#000000">dict</text>
</g>
<!-- picard_dictionary&#45;&gt;gatk_haplotype_caller -->
<g id="edge32" class="edge">
<title>picard_dictionary&#45;&gt;gatk_haplotype_caller</title>
<path fill="none" stroke="#000000" d="M81.3237,-305.4359C69.9727,-297.5551 57,-285.2192 57,-270 57,-270 57,-270 57,-135 57,-120.4973 68.4099,-110.0475 81.1944,-102.8907"/>
<polygon fill="#000000" stroke="#000000" points="82.4259,-105.0126 87.5369,-99.6385 80.1901,-100.6524 82.4259,-105.0126"/>
<text text-anchor="middle" x="63.5" y="-200.6" font-family="Helvetica,sans-Serif" font-size="8.00" fill="#000000">dict</text>
</g>
<!-- cutadapt2&#45;&gt;bwa_mem -->
<g id="edge9" class="edge">
<title>cutadapt2&#45;&gt;bwa_mem</title>
<path fill="none" stroke="#000000" d="M427.5635,-485.3881C426.5125,-480.0604 424.7734,-473.4348 422,-468 412.6086,-449.5963 397.0653,-431.7359 385.4137,-419.7607"/>
<polygon fill="#000000" stroke="#000000" points="387.0443,-417.9259 380.3702,-414.6919 383.5708,-421.3821 387.0443,-417.9259"/>
<text text-anchor="middle" x="443" y="-448.1" font-family="Helvetica,sans-Serif" font-size="8.00" fill="#000000">trimmed_fastq</text>
</g>
<!-- bwa_index&#45;&gt;bwa_mem -->
<g id="edge11" class="edge">
<title>bwa_index&#45;&gt;bwa_mem</title>
<path fill="none" stroke="#000000" d="M212.7559,-440.4627C212.5625,-434.6142 213.4449,-427.4239 218,-423 226.0414,-415.1901 289.5197,-409.8555 331.8605,-407.1262"/>
<polygon fill="#000000" stroke="#000000" points="332.1493,-409.5629 338.9818,-406.6787 331.8419,-404.6726 332.1493,-409.5629"/>
<text text-anchor="middle" x="252.5" y="-425.6" font-family="Helvetica,sans-Serif" font-size="8.00" fill="#000000">reference_genome</text>
</g>
<!-- samtools_index&#45;&gt;gatk3&#45;rtc -->
<g id="edge15" class="edge">
<title>samtools_index&#45;&gt;gatk3&#45;rtc</title>
<path fill="none" stroke="#000000" d="M195.9596,-305.4909C200.2337,-299.4984 206.5409,-292.1369 214,-288 230.5035,-278.847 238.5665,-283.6525 257.0307,-280.6429"/>
<polygon fill="#000000" stroke="#000000" points="257.9757,-282.9499 264.3388,-279.1401 256.9887,-278.1503 257.9757,-282.9499"/>
<text text-anchor="middle" x="248.5" y="-290.6" font-family="Helvetica,sans-Serif" font-size="8.00" fill="#000000">reference_genome</text>
</g>
<!-- samtools_index&#45;&gt;gatk&#45;ir -->
<g id="edge20" class="edge">
<title>samtools_index&#45;&gt;gatk&#45;ir</title>
<path fill="none" stroke="#000000" d="M188.0127,-305.1463C186.2066,-293.3765 185.0259,-273.5778 194,-260 198.8365,-252.6824 216.794,-243.5952 233.0403,-236.5142"/>
<polygon fill="#000000" stroke="#000000" points="234.3739,-238.6093 239.855,-233.6133 232.4547,-234.1008 234.3739,-238.6093"/>
<text text-anchor="middle" x="228.5" y="-268.1" font-family="Helvetica,sans-Serif" font-size="8.00" fill="#000000">reference_genome</text>
</g>
<!-- samtools_index&#45;&gt;gatk&#45;base_recalibration -->
<g id="edge22" class="edge">
<title>samtools_index&#45;&gt;gatk&#45;base_recalibration</title>
<path fill="none" stroke="#000000" d="M232.7326,-305.6359C234.1698,-305.4079 235.5952,-305.1949 237,-305 250.346,-303.1488 348.7922,-306.8367 358,-297 360.7335,-294.0798 359.7129,-291.6147 358,-288 355.295,-282.2918 317.1295,-257.487 314,-252 311.3176,-247.297 307.301,-216.6617 304.936,-196.8967"/>
<polygon fill="#000000" stroke="#000000" points="307.339,-196.3525 304.0884,-189.6864 302.4725,-196.9246 307.339,-196.3525"/>
<text text-anchor="middle" x="348.5" y="-245.6" font-family="Helvetica,sans-Serif" font-size="8.00" fill="#000000">reference_genome</text>
</g>
<!-- samtools_index&#45;&gt;gatk&#45;base_recalibration_print_reads -->
<g id="edge27" class="edge">
<title>samtools_index&#45;&gt;gatk&#45;base_recalibration_print_reads</title>
<path fill="none" stroke="#000000" d="M172.0372,-305.3723C169.1991,-303.0242 166.658,-300.2369 165,-297 163.1764,-293.4399 164.9013,-291.9988 165,-288 165.4446,-269.9835 167,-265.5219 167,-247.5 167,-247.5 167,-247.5 167,-180 167,-170.0921 170.3131,-159.5578 173.8252,-151.1743"/>
<polygon fill="#000000" stroke="#000000" points="176.1014,-152.0866 176.7537,-144.6989 171.6368,-150.0673 176.1014,-152.0866"/>
<text text-anchor="middle" x="201.5" y="-223.1" font-family="Helvetica,sans-Serif" font-size="8.00" fill="#000000">reference_genome</text>
</g>
<!-- samtools_index&#45;&gt;gatk_haplotype_caller -->
<g id="edge31" class="edge">
<title>samtools_index&#45;&gt;gatk_haplotype_caller</title>
<path fill="none" stroke="#000000" d="M173.9728,-305.4935C170.2046,-302.9457 166.3221,-300.0457 163,-297 125.8481,-262.9385 109.6815,-254.9013 94,-207 91.4661,-199.2597 78.5116,-192.0098 97,-125 98.824,-118.3892 102.0868,-111.647 105.3997,-105.8676"/>
<polygon fill="#000000" stroke="#000000" points="107.6747,-106.8427 109.2285,-99.5909 103.4915,-104.2909 107.6747,-106.8427"/>
<text text-anchor="middle" x="128.5" y="-200.6" font-family="Helvetica,sans-Serif" font-size="8.00" fill="#000000">reference_genome</text>
</g>
<!-- samtools_sort -->
<g id="node19" class="node">
<title>samtools_sort</title>
<polygon fill="#fafad2" stroke="#000000" points="367,-350.5 367,-369.5 445,-369.5 445,-350.5 367,-350.5"/>
<text text-anchor="middle" x="406" y="-357.5" font-family="Helvetica,sans-Serif" font-size="10.00" fill="#000000">samtools_sort</text>
</g>
<!-- bwa_mem&#45;&gt;samtools_sort -->
<g id="edge12" class="edge">
<title>bwa_mem&#45;&gt;samtools_sort</title>
<path fill="none" stroke="#000000" d="M377.6347,-395.4567C382.3121,-389.6098 388.4061,-381.9923 393.7463,-375.3171"/>
<polygon fill="#000000" stroke="#000000" points="395.9166,-376.5262 398.3763,-369.5296 392.0903,-373.4652 395.9166,-376.5262"/>
<text text-anchor="middle" x="400" y="-380.6" font-family="Helvetica,sans-Serif" font-size="8.00" fill="#000000">input</text>
</g>
<!-- picard_markduplicates -->
<g id="node20" class="node">
<title>picard_markduplicates</title>
<polygon fill="#fafad2" stroke="#000000" points="397,-305.5 397,-324.5 459,-324.5 459,-305.5 397,-305.5"/>
<text text-anchor="middle" x="428" y="-312.5" font-family="Helvetica,sans-Serif" font-size="10.00" fill="#000000">picard&#45;MD</text>
</g>
<!-- samtools_sort&#45;&gt;picard_markduplicates -->
<g id="edge13" class="edge">
<title>samtools_sort&#45;&gt;picard_markduplicates</title>
<path fill="none" stroke="#000000" d="M410.6656,-350.4567C413.4074,-344.8485 416.9456,-337.6112 420.1098,-331.139"/>
<polygon fill="#000000" stroke="#000000" points="422.4676,-331.8944 423.3411,-324.5296 418.0655,-329.7422 422.4676,-331.8944"/>
<text text-anchor="middle" x="427" y="-335.6" font-family="Helvetica,sans-Serif" font-size="8.00" fill="#000000">input</text>
</g>
<!-- picard_markduplicates&#45;&gt;metrics -->
<g id="edge36" class="edge">
<title>picard_markduplicates&#45;&gt;metrics</title>
<path fill="none" stroke="#000000" d="M459.3483,-307.9679C478.3682,-301.6424 499,-290.1393 499,-270 499,-270 499,-270 499,-90 499,-62.1411 411.7127,-51.0636 362.9733,-47.0497"/>
<polygon fill="#000000" stroke="#000000" points="362.9592,-44.5912 355.789,-46.4861 362.5759,-49.4762 362.9592,-44.5912"/>
</g>
<!-- picard_markduplicates&#45;&gt;gatk3&#45;rtc -->
<g id="edge14" class="edge">
<title>picard_markduplicates&#45;&gt;gatk3&#45;rtc</title>
<path fill="none" stroke="#000000" d="M399.1579,-305.4567C377.9593,-298.4424 349.0589,-288.8798 326.6133,-281.4529"/>
<polygon fill="#000000" stroke="#000000" points="327.2857,-279.0948 319.8704,-279.2218 325.7464,-283.7468 327.2857,-279.0948"/>
<text text-anchor="middle" x="381" y="-290.6" font-family="Helvetica,sans-Serif" font-size="8.00" fill="#000000">input</text>
</g>
<!-- picard_markduplicates&#45;&gt;gatk&#45;ir -->
<g id="edge18" class="edge">
<title>picard_markduplicates&#45;&gt;gatk&#45;ir</title>
<path fill="none" stroke="#000000" d="M437.3437,-305.4457C450.8864,-290.4543 472.6244,-261.2382 456,-243 445.1408,-231.0867 342.8862,-226.9349 291.3686,-225.5913"/>
<polygon fill="#000000" stroke="#000000" points="291.2111,-223.1367 284.1527,-225.4128 291.0899,-228.0352 291.2111,-223.1367"/>
<text text-anchor="middle" x="470" y="-268.1" font-family="Helvetica,sans-Serif" font-size="8.00" fill="#000000">input</text>
</g>
<!-- gatk3&#45;rtc&#45;&gt;gatk&#45;ir -->
<g id="edge19" class="edge">
<title>gatk3&#45;rtc&#45;&gt;gatk&#45;ir</title>
<path fill="none" stroke="#000000" d="M273.9819,-260.4704C270.8922,-258.0886 268.0289,-255.2638 266,-252 264.0987,-248.9414 262.9738,-245.3192 262.3318,-241.7376"/>
<polygon fill="#000000" stroke="#000000" points="264.7547,-241.3477 261.5984,-234.6365 259.8806,-241.8512 264.7547,-241.3477"/>
<text text-anchor="middle" x="287.5" y="-245.6" font-family="Helvetica,sans-Serif" font-size="8.00" fill="#000000">rtc_intervals</text>
</g>
<!-- gatk&#45;ir&#45;&gt;gatk&#45;base_recalibration -->
<g id="edge24" class="edge">
<title>gatk&#45;ir&#45;&gt;gatk&#45;base_recalibration</title>
<path fill="none" stroke="#000000" d="M270.695,-215.4567C276.1309,-209.4905 283.2465,-201.6807 289.4157,-194.9096"/>
<polygon fill="#000000" stroke="#000000" points="291.4141,-196.354 294.3175,-189.5296 287.792,-193.0539 291.4141,-196.354"/>
<text text-anchor="middle" x="295" y="-200.6" font-family="Helvetica,sans-Serif" font-size="8.00" fill="#000000">input</text>
</g>
<!-- gatk&#45;ir&#45;&gt;gatk&#45;base_recalibration_print_reads -->
<g id="edge29" class="edge">
<title>gatk&#45;ir&#45;&gt;gatk&#45;base_recalibration_print_reads</title>
<path fill="none" stroke="#000000" d="M250.8985,-215.2987C243.3232,-208.49 233.2131,-199.0245 225,-190 213.436,-177.2936 201.4946,-161.7957 193.1392,-150.4935"/>
<polygon fill="#000000" stroke="#000000" points="195.0031,-148.8918 188.8914,-144.6905 191.0492,-151.7861 195.0031,-148.8918"/>
<text text-anchor="middle" x="234" y="-178.1" font-family="Helvetica,sans-Serif" font-size="8.00" fill="#000000">input</text>
</g>
<!-- gatk&#45;base_recalibration&#45;&gt;gatk&#45;base_recalibration_print_reads -->
<g id="edge30" class="edge">
<title>gatk&#45;base_recalibration&#45;&gt;gatk&#45;base_recalibration_print_reads</title>
<path fill="none" stroke="#000000" d="M277.339,-170.4567C258.9706,-163.6254 234.1027,-154.3771 214.3703,-147.0386"/>
<polygon fill="#000000" stroke="#000000" points="215.039,-144.6733 207.624,-144.5296 213.3309,-149.266 215.039,-144.6733"/>
<text text-anchor="middle" x="270" y="-155.6" font-family="Helvetica,sans-Serif" font-size="8.00" fill="#000000">br_model</text>
</g>
<!-- gatk&#45;base_recalibration_print_reads&#45;&gt;gatk_haplotype_caller -->
<g id="edge33" class="edge">
<title>gatk&#45;base_recalibration_print_reads&#45;&gt;gatk_haplotype_caller</title>
<path fill="none" stroke="#000000" d="M168.0031,-125.4567C158.6402,-119.0729 146.1814,-110.5783 135.8058,-103.504"/>
<polygon fill="#000000" stroke="#000000" points="137.1405,-101.4487 129.9767,-99.5296 134.3801,-105.4973 137.1405,-101.4487"/>
<text text-anchor="middle" x="163" y="-110.6" font-family="Helvetica,sans-Serif" font-size="8.00" fill="#000000">input</text>
</g>
<!-- gatk_haplotype_caller&#45;&gt;gvcf -->
<g id="edge37" class="edge">
<title>gatk_haplotype_caller&#45;&gt;gvcf</title>
<path fill="none" stroke="#000000" d="M151.8406,-80.4567C184.5323,-71.7517 231.9646,-59.1219 260.5122,-51.5204"/>
<polygon fill="#000000" stroke="#000000" points="261.2088,-53.8704 267.3427,-49.7016 259.948,-49.1354 261.2088,-53.8704"/>
</g>
</g>
</svg>
