<?xml version="1.0" encoding="UTF-8" standalone="no"?>
<!DOCTYPE svg PUBLIC "-//W3C//DTD SVG 1.1//EN"
 "http://www.w3.org/Graphics/SVG/1.1/DTD/svg11.dtd">
<!-- Generated by graphviz version 2.40.1 (0)
 -->
<!-- Title: workflow Pages: 1 -->
<svg width="411pt" height="411pt"
 viewBox="0.00 0.00 423.00 423.00" xmlns="http://www.w3.org/2000/svg" xmlns:xlink="http://www.w3.org/1999/xlink">
<g id="graph0" class="graph" transform="scale(.9722 .9722) rotate(0) translate(4 419)">
<title>workflow</title>
<g id="clust1" class="cluster">
<title>cluster_inputs</title>
<polygon fill="transparent" stroke="#000000" stroke-dasharray="5,2" points="8,-352 8,-407 344,-407 344,-352 8,-352"/>
<text text-anchor="middle" x="50.5" y="-395" font-family="Times,serif" font-size="10.00" fill="#000000">Workflow Inputs</text>
</g>
<!-- 1_Input Parameter -->
<g id="node1" class="node">
<title>1_Input Parameter</title>
<polygon fill="#94ddf4" stroke="#000000" points="16,-360.5 16,-379.5 112,-379.5 112,-360.5 16,-360.5"/>
<text text-anchor="middle" x="64" y="-367.5" font-family="Helvetica,sans-Serif" font-size="10.00" fill="#000000">1_Input Parameter</text>
</g>
<!-- 14_Select first -->
<g id="node5" class="node">
<title>14_Select first</title>
<polygon fill="#fafad2" stroke="#000000" points="154,-36.5 154,-55.5 232,-55.5 232,-36.5 154,-36.5"/>
<text text-anchor="middle" x="193" y="-43.5" font-family="Helvetica,sans-Serif" font-size="10.00" fill="#000000">14_Select first</text>
</g>
<!-- 1_Input Parameter&#45;&gt;14_Select first -->
<g id="edge2" class="edge">
<title>1_Input Parameter&#45;&gt;14_Select first</title>
<path fill="none" stroke="#000000" d="M65.7755,-360.2557C68.1323,-346.4511 72,-320.3869 72,-298 72,-298 72,-298 72,-118 72,-81.8281 112.4278,-63.4166 146.5467,-54.3191"/>
<polygon fill="#000000" stroke="#000000" points="147.5239,-56.5997 153.7148,-52.5161 146.3286,-51.8477 147.5239,-56.5997"/>
</g>
<!-- 0_Input Dataset Collection -->
<g id="node2" class="node">
<title>0_Input Dataset Collection</title>
<polygon fill="#94ddf4" stroke="#000000" points="206,-360.5 206,-379.5 336,-379.5 336,-360.5 206,-360.5"/>
<text text-anchor="middle" x="271" y="-367.5" font-family="Helvetica,sans-Serif" font-size="10.00" fill="#000000">0_Input Dataset Collection</text>
</g>
<!-- 3_Change title -->
<g id="node12" class="node">
<title>3_Change title</title>
<polygon fill="#fafad2" stroke="#000000" points="232,-324.5 232,-343.5 310,-343.5 310,-324.5 232,-324.5"/>
<text text-anchor="middle" x="271" y="-331.5" font-family="Helvetica,sans-Serif" font-size="10.00" fill="#000000">3_Change title</text>
</g>
<!-- 0_Input Dataset Collection&#45;&gt;3_Change title -->
<g id="edge11" class="edge">
<title>0_Input Dataset Collection&#45;&gt;3_Change title</title>
<path fill="none" stroke="#000000" d="M271,-360.1628C271,-357.2587 271,-353.9949 271,-350.783"/>
<polygon fill="#000000" stroke="#000000" points="273.4501,-350.5764 271,-343.5764 268.5501,-350.5765 273.4501,-350.5764"/>
</g>
<!-- 2_Input Dataset -->
<g id="node3" class="node">
<title>2_Input Dataset</title>
<polygon fill="#94ddf4" stroke="#000000" points="116.5,-360.5 116.5,-379.5 201.5,-379.5 201.5,-360.5 116.5,-360.5"/>
<text text-anchor="middle" x="159" y="-367.5" font-family="Helvetica,sans-Serif" font-size="10.00" fill="#000000">2_Input Dataset</text>
</g>
<!-- 4_JQ -->
<g id="node8" class="node">
<title>4_JQ</title>
<polygon fill="#fafad2" stroke="#000000" points="107,-324.5 107,-343.5 147,-343.5 147,-324.5 107,-324.5"/>
<text text-anchor="middle" x="127" y="-331.5" font-family="Helvetica,sans-Serif" font-size="10.00" fill="#000000">4_JQ</text>
</g>
<!-- 2_Input Dataset&#45;&gt;4_JQ -->
<g id="edge7" class="edge">
<title>2_Input Dataset&#45;&gt;4_JQ</title>
<path fill="none" stroke="#000000" d="M150.2559,-360.1628C147.1724,-356.694 143.6329,-352.712 140.2607,-348.9183"/>
<polygon fill="#000000" stroke="#000000" points="141.9941,-347.1806 135.5124,-343.5764 138.3318,-350.436 141.9941,-347.1806"/>
</g>
<!-- 8_Collapse Collection -->
<g id="node4" class="node">
<title>8_Collapse Collection</title>
<polygon fill="#fafad2" stroke="#000000" points="158,-252.5 158,-271.5 268,-271.5 268,-252.5 158,-252.5"/>
<text text-anchor="middle" x="213" y="-259.5" font-family="Helvetica,sans-Serif" font-size="10.00" fill="#000000">8_Collapse Collection</text>
</g>
<!-- 9_Datamash -->
<g id="node16" class="node">
<title>9_Datamash</title>
<polygon fill="#fafad2" stroke="#000000" points="157.5,-216.5 157.5,-235.5 228.5,-235.5 228.5,-216.5 157.5,-216.5"/>
<text text-anchor="middle" x="193" y="-223.5" font-family="Helvetica,sans-Serif" font-size="10.00" fill="#000000">9_Datamash</text>
</g>
<!-- 8_Collapse Collection&#45;&gt;9_Datamash -->
<g id="edge16" class="edge">
<title>8_Collapse Collection&#45;&gt;9_Datamash</title>
<path fill="none" stroke="#000000" d="M207.5349,-252.1628C205.7422,-248.936 203.7029,-245.2652 201.7305,-241.7148"/>
<polygon fill="#000000" stroke="#000000" points="203.8615,-240.5057 198.3202,-235.5764 199.5781,-242.8854 203.8615,-240.5057"/>
</g>
<!-- 15_Filter -->
<g id="node6" class="node">
<title>15_Filter</title>
<polygon fill="#fafad2" stroke="#000000" points="207,-.5 207,-19.5 261,-19.5 261,-.5 207,-.5"/>
<text text-anchor="middle" x="234" y="-7.5" font-family="Helvetica,sans-Serif" font-size="10.00" fill="#000000">15_Filter</text>
</g>
<!-- 14_Select first&#45;&gt;15_Filter -->
<g id="edge4" class="edge">
<title>14_Select first&#45;&gt;15_Filter</title>
<path fill="none" stroke="#000000" d="M204.2034,-36.1628C208.3378,-32.5327 213.1122,-28.3405 217.6111,-24.3902"/>
<polygon fill="#000000" stroke="#000000" points="219.4499,-26.0361 223.0935,-19.5764 216.2169,-22.354 219.4499,-26.0361"/>
</g>
<!-- 5_Collapse Collection -->
<g id="node7" class="node">
<title>5_Collapse Collection</title>
<polygon fill="#fafad2" stroke="#000000" points="305,-288.5 305,-307.5 415,-307.5 415,-288.5 305,-288.5"/>
<text text-anchor="middle" x="360" y="-295.5" font-family="Helvetica,sans-Serif" font-size="10.00" fill="#000000">5_Collapse Collection</text>
</g>
<!-- 5_Collapse Collection&#45;&gt;15_Filter -->
<g id="edge5" class="edge">
<title>5_Collapse Collection&#45;&gt;15_Filter</title>
<path fill="none" stroke="#000000" d="M333.5714,-288.477C308.6195,-277.5869 275,-257.1366 275,-226 275,-226 275,-226 275,-82 275,-60.0994 260.4983,-38.7822 248.744,-25.1007"/>
<polygon fill="#000000" stroke="#000000" points="250.4219,-23.3019 243.925,-19.7252 246.7734,-26.5728 250.4219,-23.3019"/>
</g>
<!-- 7_Filter -->
<g id="node15" class="node">
<title>7_Filter</title>
<polygon fill="#fafad2" stroke="#000000" points="94.5,-288.5 94.5,-307.5 143.5,-307.5 143.5,-288.5 94.5,-288.5"/>
<text text-anchor="middle" x="119" y="-295.5" font-family="Helvetica,sans-Serif" font-size="10.00" fill="#000000">7_Filter</text>
</g>
<!-- 4_JQ&#45;&gt;7_Filter -->
<g id="edge15" class="edge">
<title>4_JQ&#45;&gt;7_Filter</title>
<path fill="none" stroke="#000000" d="M124.814,-324.1628C124.1507,-321.178 123.403,-317.8133 122.6701,-314.5155"/>
<polygon fill="#000000" stroke="#000000" points="125.0383,-313.8782 121.1281,-307.5764 120.255,-314.9412 125.0383,-313.8782"/>
</g>
<!-- 11_Sort -->
<g id="node9" class="node">
<title>11_Sort</title>
<polygon fill="#fafad2" stroke="#000000" points="168,-144.5 168,-163.5 218,-163.5 218,-144.5 168,-144.5"/>
<text text-anchor="middle" x="193" y="-151.5" font-family="Helvetica,sans-Serif" font-size="10.00" fill="#000000">11_Sort</text>
</g>
<!-- 12_Cut -->
<g id="node10" class="node">
<title>12_Cut</title>
<polygon fill="#fafad2" stroke="#000000" points="169.5,-108.5 169.5,-127.5 216.5,-127.5 216.5,-108.5 169.5,-108.5"/>
<text text-anchor="middle" x="193" y="-115.5" font-family="Helvetica,sans-Serif" font-size="10.00" fill="#000000">12_Cut</text>
</g>
<!-- 11_Sort&#45;&gt;12_Cut -->
<g id="edge9" class="edge">
<title>11_Sort&#45;&gt;12_Cut</title>
<path fill="none" stroke="#000000" d="M193,-144.1628C193,-141.2587 193,-137.9949 193,-134.783"/>
<polygon fill="#000000" stroke="#000000" points="195.4501,-134.5764 193,-127.5764 190.5501,-134.5765 195.4501,-134.5764"/>
</g>
<!-- 13_Remove beginning -->
<g id="node14" class="node">
<title>13_Remove beginning</title>
<polygon fill="#fafad2" stroke="#000000" points="137,-72.5 137,-91.5 249,-91.5 249,-72.5 137,-72.5"/>
<text text-anchor="middle" x="193" y="-79.5" font-family="Helvetica,sans-Serif" font-size="10.00" fill="#000000">13_Remove beginning</text>
</g>
<!-- 12_Cut&#45;&gt;13_Remove beginning -->
<g id="edge14" class="edge">
<title>12_Cut&#45;&gt;13_Remove beginning</title>
<path fill="none" stroke="#000000" d="M193,-108.1628C193,-105.2587 193,-101.9949 193,-98.783"/>
<polygon fill="#000000" stroke="#000000" points="195.4501,-98.5764 193,-91.5764 190.5501,-98.5765 195.4501,-98.5764"/>
</g>
<!-- 6_Extract values from an SD&#45;file -->
<g id="node11" class="node">
<title>6_Extract values from an SD&#45;file</title>
<polygon fill="#fafad2" stroke="#000000" points="147.5,-288.5 147.5,-307.5 300.5,-307.5 300.5,-288.5 147.5,-288.5"/>
<text text-anchor="middle" x="224" y="-295.5" font-family="Helvetica,sans-Serif" font-size="10.00" fill="#000000">6_Extract values from an SD&#45;file</text>
</g>
<!-- 6_Extract values from an SD&#45;file&#45;&gt;8_Collapse Collection -->
<g id="edge1" class="edge">
<title>6_Extract values from an SD&#45;file&#45;&gt;8_Collapse Collection</title>
<path fill="none" stroke="#000000" d="M220.9942,-288.1628C220.0822,-285.178 219.0541,-281.8133 218.0464,-278.5155"/>
<polygon fill="#000000" stroke="#000000" points="220.3148,-277.5549 215.9261,-271.5764 215.6287,-278.9869 220.3148,-277.5549"/>
</g>
<!-- 3_Change title&#45;&gt;5_Collapse Collection -->
<g id="edge6" class="edge">
<title>3_Change title&#45;&gt;5_Collapse Collection</title>
<path fill="none" stroke="#000000" d="M294.8504,-324.3527C305.611,-320.0001 318.4415,-314.8102 329.8593,-310.1917"/>
<polygon fill="#000000" stroke="#000000" points="330.8219,-312.4453 336.3924,-307.5491 328.9844,-307.9028 330.8219,-312.4453"/>
</g>
<!-- 3_Change title&#45;&gt;6_Extract values from an SD&#45;file -->
<g id="edge10" class="edge">
<title>3_Change title&#45;&gt;6_Extract values from an SD&#45;file</title>
<path fill="none" stroke="#000000" d="M258.157,-324.1628C253.207,-320.3713 247.4566,-315.9668 242.1016,-311.865"/>
<polygon fill="#000000" stroke="#000000" points="243.5495,-309.888 236.5026,-307.5764 240.5699,-313.778 243.5495,-309.888"/>
</g>
<!-- 10_Join -->
<g id="node13" class="node">
<title>10_Join</title>
<polygon fill="#fafad2" stroke="#000000" points="168,-180.5 168,-199.5 218,-199.5 218,-180.5 168,-180.5"/>
<text text-anchor="middle" x="193" y="-187.5" font-family="Helvetica,sans-Serif" font-size="10.00" fill="#000000">10_Join</text>
</g>
<!-- 10_Join&#45;&gt;11_Sort -->
<g id="edge8" class="edge">
<title>10_Join&#45;&gt;11_Sort</title>
<path fill="none" stroke="#000000" d="M193,-180.1628C193,-177.2587 193,-173.9949 193,-170.783"/>
<polygon fill="#000000" stroke="#000000" points="195.4501,-170.5764 193,-163.5764 190.5501,-170.5765 195.4501,-170.5764"/>
</g>
<!-- 13_Remove beginning&#45;&gt;14_Select first -->
<g id="edge3" class="edge">
<title>13_Remove beginning&#45;&gt;14_Select first</title>
<path fill="none" stroke="#000000" d="M193,-72.1628C193,-69.2587 193,-65.9949 193,-62.783"/>
<polygon fill="#000000" stroke="#000000" points="195.4501,-62.5764 193,-55.5764 190.5501,-62.5765 195.4501,-62.5764"/>
</g>
<!-- 7_Filter&#45;&gt;10_Join -->
<g id="edge13" class="edge">
<title>7_Filter&#45;&gt;10_Join</title>
<path fill="none" stroke="#000000" d="M121.5579,-288.2449C126.2229,-271.8857 137.3853,-238.5053 156,-216 159.7295,-211.4911 164.4235,-207.4038 169.2044,-203.8748"/>
<polygon fill="#000000" stroke="#000000" points="170.8678,-205.7039 175.2405,-199.7137 168.0867,-201.6696 170.8678,-205.7039"/>
</g>
<!-- 9_Datamash&#45;&gt;10_Join -->
<g id="edge12" class="edge">
<title>9_Datamash&#45;&gt;10_Join</title>
<path fill="none" stroke="#000000" d="M193,-216.1628C193,-213.2587 193,-209.9949 193,-206.783"/>
<polygon fill="#000000" stroke="#000000" points="195.4501,-206.5764 193,-199.5764 190.5501,-206.5765 195.4501,-206.5764"/>
</g>
</g>
</svg>
