<?xml version="1.0" encoding="UTF-8" standalone="no"?>
<!DOCTYPE svg PUBLIC "-//W3C//DTD SVG 1.1//EN"
 "http://www.w3.org/Graphics/SVG/1.1/DTD/svg11.dtd">
<!-- Generated by graphviz version 2.40.1 (20161225.0304)
 -->
<!-- Title: workflow Pages: 1 -->
<svg width="708pt" height="386pt"
 viewBox="0.00 0.00 707.61 386.00" xmlns="http://www.w3.org/2000/svg" xmlns:xlink="http://www.w3.org/1999/xlink">
<g id="graph0" class="graph" transform="scale(1 1) rotate(0) translate(4 382)">
<title>workflow</title>
<polygon fill="#ffffff" stroke="transparent" points="-4,4 -4,-382 703.6081,-382 703.6081,4 -4,4"/>
<g id="clust1" class="cluster">
<title>cluster_inputs</title>
<polygon fill="none" stroke="#000000" stroke-dasharray="5,2" points="18.6081,-315 18.6081,-370 239.6081,-370 239.6081,-315 18.6081,-315"/>
<text text-anchor="middle" x="62.6081" y="-358" font-family="Helvetica,sans-Serif" font-size="10.00" fill="#000000">Workflow Inputs</text>
</g>
<!-- Genome annotation -->
<g id="node1" class="node">
<title>Genome annotation</title>
<polygon fill="#94ddf4" stroke="#000000" points="130.1081,-323.5 130.1081,-342.5 231.1081,-342.5 231.1081,-323.5 130.1081,-323.5"/>
<text text-anchor="middle" x="180.6081" y="-330.5" font-family="Helvetica,sans-Serif" font-size="10.00" fill="#000000">Genome annotation</text>
</g>
<!-- 10_IsoformSwitchAnalyzeR -->
<g id="node3" class="node">
<title>10_IsoformSwitchAnalyzeR</title>
<polygon fill="#fafad2" stroke="#000000" points="118.6081,-.5 118.6081,-19.5 256.6081,-19.5 256.6081,-.5 118.6081,-.5"/>
<text text-anchor="middle" x="187.6081" y="-7.5" font-family="Helvetica,sans-Serif" font-size="10.00" fill="#000000">10_IsoformSwitchAnalyzeR</text>
</g>
<!-- Genome annotation&#45;&gt;10_IsoformSwitchAnalyzeR -->
<g id="edge2" class="edge">
<title>Genome annotation&#45;&gt;10_IsoformSwitchAnalyzeR</title>
<path fill="none" stroke="#000000" d="M163.1946,-323.4761C149.1105,-314.3594 131.6081,-299.1729 131.6081,-280 131.6081,-280 131.6081,-280 131.6081,-55 131.6081,-40.768 142.7344,-30.2828 155.0681,-23.0318"/>
<polygon fill="#000000" stroke="#000000" points="156.5709,-25.0055 161.5754,-19.5321 154.2499,-20.69 156.5709,-25.0055"/>
<text text-anchor="middle" x="190.6081" y="-165.6" font-family="Helvetica,sans-Serif" font-size="8.00" fill="#000000">functionMode|genomeAnnotation</text>
</g>
<!-- 3_StringTie -->
<g id="node5" class="node">
<title>3_StringTie</title>
<polygon fill="#fafad2" stroke="#000000" points="287.6081,-270.5 287.6081,-289.5 353.6081,-289.5 353.6081,-270.5 287.6081,-270.5"/>
<text text-anchor="middle" x="320.6081" y="-277.5" font-family="Helvetica,sans-Serif" font-size="10.00" fill="#000000">3_StringTie</text>
</g>
<!-- Genome annotation&#45;&gt;3_StringTie -->
<g id="edge6" class="edge">
<title>Genome annotation&#45;&gt;3_StringTie</title>
<path fill="none" stroke="#000000" d="M204.3186,-323.4118C222.1988,-316.2456 247.3623,-306.2969 269.6081,-298 274.9278,-296.0159 280.5799,-293.9649 286.1105,-291.9892"/>
<polygon fill="#000000" stroke="#000000" points="287.2397,-294.1882 293.0169,-289.5376 285.6005,-289.5705 287.2397,-294.1882"/>
<text text-anchor="middle" x="319.1081" y="-300.6" font-family="Helvetica,sans-Serif" font-size="8.00" fill="#000000">guide|guide_source|ref_hist</text>
</g>
<!-- 4_StringTie merge -->
<g id="node6" class="node">
<title>4_StringTie merge</title>
<polygon fill="#fafad2" stroke="#000000" points="272.6081,-225.5 272.6081,-244.5 368.6081,-244.5 368.6081,-225.5 272.6081,-225.5"/>
<text text-anchor="middle" x="320.6081" y="-232.5" font-family="Helvetica,sans-Serif" font-size="10.00" fill="#000000">4_StringTie merge</text>
</g>
<!-- Genome annotation&#45;&gt;4_StringTie merge -->
<g id="edge8" class="edge">
<title>Genome annotation&#45;&gt;4_StringTie merge</title>
<path fill="none" stroke="#000000" d="M190.0509,-323.1692C203.0639,-309.9768 227.6311,-286.3191 251.6081,-270 264.1845,-261.4403 279.1383,-253.6039 291.9043,-247.5262"/>
<polygon fill="#000000" stroke="#000000" points="293.0503,-249.6951 298.3566,-244.5138 290.9773,-245.2552 293.0503,-249.6951"/>
<text text-anchor="middle" x="268.6081" y="-278.1" font-family="Helvetica,sans-Serif" font-size="8.00" fill="#000000">guide_gff</text>
</g>
<!-- Reference genome -->
<g id="node2" class="node">
<title>Reference genome</title>
<polygon fill="#94ddf4" stroke="#000000" points="27.1081,-323.5 27.1081,-342.5 126.1081,-342.5 126.1081,-323.5 27.1081,-323.5"/>
<text text-anchor="middle" x="76.6081" y="-330.5" font-family="Helvetica,sans-Serif" font-size="10.00" fill="#000000">Reference genome</text>
</g>
<!-- 5_gffread -->
<g id="node7" class="node">
<title>5_gffread</title>
<polygon fill="#fafad2" stroke="#000000" points="229.1081,-180.5 229.1081,-199.5 286.1081,-199.5 286.1081,-180.5 229.1081,-180.5"/>
<text text-anchor="middle" x="257.6081" y="-187.5" font-family="Helvetica,sans-Serif" font-size="10.00" fill="#000000">5_gffread</text>
</g>
<!-- Reference genome&#45;&gt;5_gffread -->
<g id="edge11" class="edge">
<title>Reference genome&#45;&gt;5_gffread</title>
<path fill="none" stroke="#000000" d="M57.0264,-323.4885C29.4692,-308.8353 -15.1911,-279.6391 5.6081,-253 32.0639,-219.116 158.8816,-200.7595 221.9018,-193.5958"/>
<polygon fill="#000000" stroke="#000000" points="222.2086,-196.0269 228.8945,-192.8172 221.6663,-191.157 222.2086,-196.0269"/>
<text text-anchor="middle" x="66.6081" y="-255.6" font-family="Helvetica,sans-Serif" font-size="8.00" fill="#000000">reference_genome|genome_fasta</text>
</g>
<!-- 1_RNA STAR -->
<g id="node4" class="node">
<title>1_RNA STAR</title>
<polygon fill="#fafad2" stroke="#000000" points="408.1081,-323.5 408.1081,-342.5 487.1081,-342.5 487.1081,-323.5 408.1081,-323.5"/>
<text text-anchor="middle" x="447.6081" y="-330.5" font-family="Helvetica,sans-Serif" font-size="10.00" fill="#000000">1_RNA STAR</text>
</g>
<!-- 1_RNA STAR&#45;&gt;3_StringTie -->
<g id="edge7" class="edge">
<title>1_RNA STAR&#45;&gt;3_StringTie</title>
<path fill="none" stroke="#000000" d="M427.2481,-323.3951C411.6068,-316.1309 389.4013,-306.0648 369.6081,-298 364.7612,-296.0251 359.6076,-294.0253 354.5322,-292.1122"/>
<polygon fill="#000000" stroke="#000000" points="355.1109,-289.7134 347.6959,-289.5677 353.4016,-294.3056 355.1109,-289.7134"/>
<text text-anchor="middle" x="432.6081" y="-300.6" font-family="Helvetica,sans-Serif" font-size="8.00" fill="#000000">input_options|input_bam</text>
</g>
<!-- 6_StringTie -->
<g id="node8" class="node">
<title>6_StringTie</title>
<polygon fill="#fafad2" stroke="#000000" points="364.6081,-180.5 364.6081,-199.5 430.6081,-199.5 430.6081,-180.5 364.6081,-180.5"/>
<text text-anchor="middle" x="397.6081" y="-187.5" font-family="Helvetica,sans-Serif" font-size="10.00" fill="#000000">6_StringTie</text>
</g>
<!-- 1_RNA STAR&#45;&gt;6_StringTie -->
<g id="edge13" class="edge">
<title>1_RNA STAR&#45;&gt;6_StringTie</title>
<path fill="none" stroke="#000000" d="M463.6285,-323.2825C469.1213,-319.0338 474.6308,-313.5202 477.6081,-307 490.2178,-279.3853 576.2923,-333.6169 465.6081,-208 461.5209,-203.3614 450.0297,-199.5763 437.6306,-196.6952"/>
<polygon fill="#000000" stroke="#000000" points="438.0506,-194.2794 430.69,-195.1879 437.0106,-199.0678 438.0506,-194.2794"/>
<text text-anchor="middle" x="551.6081" y="-255.6" font-family="Helvetica,sans-Serif" font-size="8.00" fill="#000000">input_options|input_bam</text>
</g>
<!-- 3_StringTie&#45;&gt;4_StringTie merge -->
<g id="edge9" class="edge">
<title>3_StringTie&#45;&gt;4_StringTie merge</title>
<path fill="none" stroke="#000000" d="M320.6081,-270.4567C320.6081,-264.9678 320.6081,-257.9184 320.6081,-251.5532"/>
<polygon fill="#000000" stroke="#000000" points="323.0582,-251.5296 320.6081,-244.5296 318.1582,-251.5296 323.0582,-251.5296"/>
<text text-anchor="middle" x="336.1081" y="-255.6" font-family="Helvetica,sans-Serif" font-size="8.00" fill="#000000">input_gtf</text>
</g>
<!-- 4_StringTie merge&#45;&gt;10_IsoformSwitchAnalyzeR -->
<g id="edge4" class="edge">
<title>4_StringTie merge&#45;&gt;10_IsoformSwitchAnalyzeR</title>
<path fill="none" stroke="#000000" d="M368.8363,-232.6572C404.3588,-230.2572 449.2158,-225.614 465.6081,-217 479.8207,-209.5314 489.6081,-206.0555 489.6081,-190 489.6081,-190 489.6081,-190 489.6081,-55 489.6081,-42.2034 489.8811,-35.63 479.6081,-28 471.0279,-21.6273 347.4636,-15.8522 263.8506,-12.6445"/>
<polygon fill="#000000" stroke="#000000" points="263.7335,-10.1883 256.6454,-12.3706 263.5473,-15.0848 263.7335,-10.1883"/>
<text text-anchor="middle" x="594.6081" y="-120.6" font-family="Helvetica,sans-Serif" font-size="8.00" fill="#000000">functionMode|tool_source|novoisoforms|stringtieAnnotation</text>
</g>
<!-- 4_StringTie merge&#45;&gt;5_gffread -->
<g id="edge10" class="edge">
<title>4_StringTie merge&#45;&gt;5_gffread</title>
<path fill="none" stroke="#000000" d="M307.2474,-225.4567C298.3937,-219.1326 286.6397,-210.7369 276.7919,-203.7027"/>
<polygon fill="#000000" stroke="#000000" points="278.0697,-201.6046 270.9495,-199.5296 275.2216,-205.5919 278.0697,-201.6046"/>
<text text-anchor="middle" x="303.6081" y="-210.6" font-family="Helvetica,sans-Serif" font-size="8.00" fill="#000000">input</text>
</g>
<!-- 4_StringTie merge&#45;&gt;6_StringTie -->
<g id="edge12" class="edge">
<title>4_StringTie merge&#45;&gt;6_StringTie</title>
<path fill="none" stroke="#000000" d="M336.9378,-225.4567C348.0653,-218.9536 362.941,-210.26 375.1775,-203.1088"/>
<polygon fill="#000000" stroke="#000000" points="376.4945,-205.1769 381.3019,-199.5296 374.0221,-200.9463 376.4945,-205.1769"/>
<text text-anchor="middle" x="415.1081" y="-210.6" font-family="Helvetica,sans-Serif" font-size="8.00" fill="#000000">guide|guide_source|ref_hist</text>
</g>
<!-- 5_gffread&#45;&gt;10_IsoformSwitchAnalyzeR -->
<g id="edge5" class="edge">
<title>5_gffread&#45;&gt;10_IsoformSwitchAnalyzeR</title>
<path fill="none" stroke="#000000" d="M256.5874,-180.4324C255.6639,-174.9932 253.9139,-168.2432 250.6081,-163 231.0933,-132.0479 204.1758,-142.6248 187.6081,-110 172.8832,-81.0042 183.7199,-69.5014 182.6081,-37 182.4713,-33.0023 182.0679,-31.9634 182.6081,-28 182.6656,-27.5782 182.7303,-27.1524 182.8014,-26.724"/>
<polygon fill="#000000" stroke="#000000" points="185.2123,-27.1703 184.3681,-19.8021 180.4332,-26.0886 185.2123,-27.1703"/>
<text text-anchor="middle" x="237.6081" y="-98.1" font-family="Helvetica,sans-Serif" font-size="8.00" fill="#000000">functionMode|transcriptome</text>
</g>
<!-- 7_Extract element identifiers -->
<g id="node9" class="node">
<title>7_Extract element identifiers</title>
<polygon fill="#fafad2" stroke="#000000" points="265.1081,-135.5 265.1081,-154.5 406.1081,-154.5 406.1081,-135.5 265.1081,-135.5"/>
<text text-anchor="middle" x="335.6081" y="-142.5" font-family="Helvetica,sans-Serif" font-size="10.00" fill="#000000">7_Extract element identifiers</text>
</g>
<!-- 6_StringTie&#45;&gt;7_Extract element identifiers -->
<g id="edge14" class="edge">
<title>6_StringTie&#45;&gt;7_Extract element identifiers</title>
<path fill="none" stroke="#000000" d="M368.1395,-180.2881C363.3513,-177.9922 358.6452,-175.2448 354.6081,-172 350.6459,-168.8154 347.1486,-164.5969 344.2697,-160.443"/>
<polygon fill="#000000" stroke="#000000" points="346.3348,-159.1246 340.5121,-154.5312 342.1995,-161.7531 346.3348,-159.1246"/>
<text text-anchor="middle" x="382.1081" y="-165.6" font-family="Helvetica,sans-Serif" font-size="8.00" fill="#000000">input_collection</text>
</g>
<!-- 9_Filter collection -->
<g id="node11" class="node">
<title>9_Filter collection</title>
<polygon fill="#fafad2" stroke="#000000" points="297.1081,-45.5 297.1081,-64.5 390.1081,-64.5 390.1081,-45.5 297.1081,-45.5"/>
<text text-anchor="middle" x="343.6081" y="-52.5" font-family="Helvetica,sans-Serif" font-size="10.00" fill="#000000">9_Filter collection</text>
</g>
<!-- 6_StringTie&#45;&gt;9_Filter collection -->
<g id="edge17" class="edge">
<title>6_StringTie&#45;&gt;9_Filter collection</title>
<path fill="none" stroke="#000000" d="M403.4239,-180.4103C404.733,-177.7762 405.9338,-174.8563 406.6081,-172 410.2717,-156.4806 407.5535,-76.8104 404.6081,-73 402.9521,-70.8576 399.6915,-68.8754 395.502,-67.0707"/>
<polygon fill="#000000" stroke="#000000" points="396.1926,-64.7133 388.7779,-64.5556 394.4759,-69.3028 396.1926,-64.7133"/>
<text text-anchor="middle" x="416.6081" y="-120.6" font-family="Helvetica,sans-Serif" font-size="8.00" fill="#000000">input</text>
</g>
<!-- 8_Search in textfiles -->
<g id="node10" class="node">
<title>8_Search in textfiles</title>
<polygon fill="#fafad2" stroke="#000000" points="289.6081,-90.5 289.6081,-109.5 395.6081,-109.5 395.6081,-90.5 289.6081,-90.5"/>
<text text-anchor="middle" x="342.6081" y="-97.5" font-family="Helvetica,sans-Serif" font-size="10.00" fill="#000000">8_Search in textfiles</text>
</g>
<!-- 7_Extract element identifiers&#45;&gt;8_Search in textfiles -->
<g id="edge15" class="edge">
<title>7_Extract element identifiers&#45;&gt;8_Search in textfiles</title>
<path fill="none" stroke="#000000" d="M337.0926,-135.4567C337.9464,-129.9678 339.043,-122.9184 340.0332,-116.5532"/>
<polygon fill="#000000" stroke="#000000" points="342.4706,-116.823 341.1257,-109.5296 337.6288,-116.0698 342.4706,-116.823"/>
<text text-anchor="middle" x="347.6081" y="-120.6" font-family="Helvetica,sans-Serif" font-size="8.00" fill="#000000">infile</text>
</g>
<!-- 8_Search in textfiles&#45;&gt;9_Filter collection -->
<g id="edge16" class="edge">
<title>8_Search in textfiles&#45;&gt;9_Filter collection</title>
<path fill="none" stroke="#000000" d="M342.8202,-90.4567C342.9421,-84.9678 343.0988,-77.9184 343.2402,-71.5532"/>
<polygon fill="#000000" stroke="#000000" points="345.6901,-71.5823 343.3963,-64.5296 340.7913,-71.4734 345.6901,-71.5823"/>
<text text-anchor="middle" x="373.1081" y="-75.6" font-family="Helvetica,sans-Serif" font-size="8.00" fill="#000000">how|filter_source</text>
</g>
<!-- 9_Filter collection&#45;&gt;10_IsoformSwitchAnalyzeR -->
<g id="edge1" class="edge">
<title>9_Filter collection&#45;&gt;10_IsoformSwitchAnalyzeR</title>
<path fill="none" stroke="#000000" d="M344.0688,-45.3909C343.7984,-39.5138 342.378,-32.3186 337.6081,-28 331.7313,-22.6793 297.9499,-18.3695 263.9315,-15.3025"/>
<polygon fill="#000000" stroke="#000000" points="263.8659,-12.8375 256.6787,-14.667 263.4381,-17.7188 263.8659,-12.8375"/>
<text text-anchor="middle" x="410.6081" y="-30.6" font-family="Helvetica,sans-Serif" font-size="8.00" fill="#000000">functionMode|first_factor|trans_counts</text>
</g>
<!-- 9_Filter collection&#45;&gt;10_IsoformSwitchAnalyzeR -->
<g id="edge3" class="edge">
<title>9_Filter collection&#45;&gt;10_IsoformSwitchAnalyzeR</title>
<path fill="none" stroke="#000000" d="M296.9031,-52.7148C253.6184,-50.1058 194.8412,-45.1157 187.6081,-37 185.0994,-34.1852 184.1672,-30.4736 184.0685,-26.7067"/>
<polygon fill="#000000" stroke="#000000" points="186.5192,-26.8086 184.7104,-19.6162 181.6392,-26.3667 186.5192,-26.8086"/>
<text text-anchor="middle" x="262.1081" y="-30.6" font-family="Helvetica,sans-Serif" font-size="8.00" fill="#000000">functionMode|second_factor|trans_counts</text>
</g>
</g>
</svg>
