<?xml version="1.0" encoding="UTF-8" standalone="no"?>
<!DOCTYPE svg PUBLIC "-//W3C//DTD SVG 1.1//EN"
 "http://www.w3.org/Graphics/SVG/1.1/DTD/svg11.dtd">
<!-- Generated by graphviz version 2.40.1 (20161225.0304)
 -->
<!-- Title: workflow Pages: 1 -->
<svg width="4186pt" height="331pt"
 viewBox="0.00 0.00 4186.00 331.00" xmlns="http://www.w3.org/2000/svg" xmlns:xlink="http://www.w3.org/1999/xlink">
<g id="graph0" class="graph" transform="scale(1 1) rotate(0) translate(4 327)">
<title>workflow</title>
<polygon fill="#ffffff" stroke="transparent" points="-4,4 -4,-327 4182,-327 4182,4 -4,4"/>
<g id="clust1" class="cluster">
<title>cluster_inputs</title>
<polygon fill="none" stroke="#000000" stroke-dasharray="5,2" points="8,-260 8,-315 4170,-315 4170,-260 8,-260"/>
<text text-anchor="middle" x="52" y="-303" font-family="Helvetica,sans-Serif" font-size="10.00" fill="#000000">Workflow Inputs</text>
</g>
<g id="clust2" class="cluster">
<title>cluster_outputs</title>
<polygon fill="none" stroke="#000000" stroke-dasharray="5,2" points="3048,-8 3048,-63 3199,-63 3199,-8 3048,-8"/>
<text text-anchor="middle" x="3095.5" y="-15" font-family="Helvetica,sans-Serif" font-size="10.00" fill="#000000">Workflow Outputs</text>
</g>
<!-- start_year -->
<g id="node1" class="node">
<title>start_year</title>
<polygon fill="#94ddf4" stroke="#000000" points="16,-268.5 16,-287.5 124,-287.5 124,-268.5 16,-268.5"/>
<text text-anchor="middle" x="70" y="-275.5" font-family="Helvetica,sans-Serif" font-size="10.00" fill="#000000">Year for starting date</text>
</g>
<!-- step1_era5_workflow -->
<g id="node36" class="node">
<title>step1_era5_workflow</title>
<polygon fill="#fafad2" stroke="#000000" points="707.5,-215.5 707.5,-234.5 816.5,-234.5 816.5,-215.5 707.5,-215.5"/>
<text text-anchor="middle" x="762" y="-222.5" font-family="Helvetica,sans-Serif" font-size="10.00" fill="#000000">step1_era5_workflow</text>
</g>
<!-- start_year&#45;&gt;step1_era5_workflow -->
<g id="edge1" class="edge">
<title>start_year&#45;&gt;step1_era5_workflow</title>
<path fill="none" stroke="#000000" d="M97.4895,-268.4868C107.0577,-265.4386 117.9199,-262.269 128,-260 180.1217,-248.2675 193.7828,-247.7176 247,-243 333.1962,-235.3589 583.2005,-228.9875 700.2251,-226.3302"/>
<polygon fill="#000000" stroke="#000000" points="700.4552,-228.7757 707.398,-226.1682 700.3445,-223.8769 700.4552,-228.7757"/>
<text text-anchor="middle" x="265.5" y="-245.6" font-family="Helvetica,sans-Serif" font-size="8.00" fill="#000000">start_year</text>
</g>
<!-- start_month -->
<g id="node2" class="node">
<title>start_month</title>
<polygon fill="#94ddf4" stroke="#000000" points="128.5,-268.5 128.5,-287.5 243.5,-287.5 243.5,-268.5 128.5,-268.5"/>
<text text-anchor="middle" x="186" y="-275.5" font-family="Helvetica,sans-Serif" font-size="10.00" fill="#000000">Month for starting date</text>
</g>
<!-- start_month&#45;&gt;step1_era5_workflow -->
<g id="edge2" class="edge">
<title>start_month&#45;&gt;step1_era5_workflow</title>
<path fill="none" stroke="#000000" d="M216.0858,-268.4847C226.1645,-265.5066 237.5066,-262.3803 248,-260 293.2476,-249.7361 304.852,-247.8014 351,-243 416.7529,-236.1588 602.3219,-229.7994 700.0435,-226.8023"/>
<polygon fill="#000000" stroke="#000000" points="700.2897,-229.246 707.2117,-226.5836 700.1402,-224.3483 700.2897,-229.246"/>
<text text-anchor="middle" x="372.5" y="-245.6" font-family="Helvetica,sans-Serif" font-size="8.00" fill="#000000">start_month</text>
</g>
<!-- start_day -->
<g id="node3" class="node">
<title>start_day</title>
<polygon fill="#94ddf4" stroke="#000000" points="247,-268.5 247,-287.5 353,-287.5 353,-268.5 247,-268.5"/>
<text text-anchor="middle" x="300" y="-275.5" font-family="Helvetica,sans-Serif" font-size="10.00" fill="#000000">Day for starting date</text>
</g>
<!-- start_day&#45;&gt;step1_era5_workflow -->
<g id="edge3" class="edge">
<title>start_day&#45;&gt;step1_era5_workflow</title>
<path fill="none" stroke="#000000" d="M327.3022,-268.423C336.6349,-265.4057 347.1934,-262.2713 357,-260 406.4776,-248.5403 419.4947,-248.3453 470,-243 549.2343,-234.6141 641.0091,-229.7466 700.2022,-227.2344"/>
<polygon fill="#000000" stroke="#000000" points="700.3647,-229.6799 707.2563,-226.9396 700.1601,-224.7841 700.3647,-229.6799"/>
<text text-anchor="middle" x="487" y="-245.6" font-family="Helvetica,sans-Serif" font-size="8.00" fill="#000000">start_day</text>
</g>
<!-- end_year -->
<g id="node4" class="node">
<title>end_year</title>
<polygon fill="#94ddf4" stroke="#000000" points="357,-268.5 357,-287.5 449,-287.5 449,-268.5 357,-268.5"/>
<text text-anchor="middle" x="403" y="-275.5" font-family="Helvetica,sans-Serif" font-size="10.00" fill="#000000">Year for end date</text>
</g>
<!-- end_year&#45;&gt;step1_era5_workflow -->
<g id="edge4" class="edge">
<title>end_year&#45;&gt;step1_era5_workflow</title>
<path fill="none" stroke="#000000" d="M426.6149,-268.4411C434.8567,-265.3893 444.2377,-262.229 453,-260 475.6613,-254.2353 481.9116,-255.6999 505,-252 529.0245,-248.1501 534.8643,-246.0768 559,-243 606.1809,-236.9855 659.787,-232.3242 700.0607,-229.2534"/>
<polygon fill="#000000" stroke="#000000" points="700.3706,-231.6871 707.1665,-228.7175 700.002,-226.801 700.3706,-231.6871"/>
<text text-anchor="middle" x="576" y="-245.6" font-family="Helvetica,sans-Serif" font-size="8.00" fill="#000000">end_year</text>
</g>
<!-- end_month -->
<g id="node5" class="node">
<title>end_month</title>
<polygon fill="#94ddf4" stroke="#000000" points="453,-268.5 453,-287.5 551,-287.5 551,-268.5 453,-268.5"/>
<text text-anchor="middle" x="502" y="-275.5" font-family="Helvetica,sans-Serif" font-size="10.00" fill="#000000">Month for end date</text>
</g>
<!-- end_month&#45;&gt;step1_era5_workflow -->
<g id="edge5" class="edge">
<title>end_month&#45;&gt;step1_era5_workflow</title>
<path fill="none" stroke="#000000" d="M527.9489,-268.4641C536.4945,-265.5185 546.0902,-262.4166 555,-260 572.0772,-255.3681 576.7464,-255.9244 594,-252 610.0817,-248.3421 613.8052,-246.1188 630,-243 652.7478,-238.6192 677.9016,-234.911 700.0965,-232.0196"/>
<polygon fill="#000000" stroke="#000000" points="700.5604,-234.4303 707.1919,-231.1098 699.9371,-229.5701 700.5604,-234.4303"/>
<text text-anchor="middle" x="650.5" y="-245.6" font-family="Helvetica,sans-Serif" font-size="8.00" fill="#000000">end_month</text>
</g>
<!-- end_day -->
<g id="node6" class="node">
<title>end_day</title>
<polygon fill="#94ddf4" stroke="#000000" points="554.5,-268.5 554.5,-287.5 643.5,-287.5 643.5,-268.5 554.5,-268.5"/>
<text text-anchor="middle" x="599" y="-275.5" font-family="Helvetica,sans-Serif" font-size="10.00" fill="#000000">Day for end date</text>
</g>
<!-- end_day&#45;&gt;step1_era5_workflow -->
<g id="edge6" class="edge">
<title>end_day&#45;&gt;step1_era5_workflow</title>
<path fill="none" stroke="#000000" d="M624.087,-268.4879C631.7338,-265.6687 640.1845,-262.6331 648,-260 672.4313,-251.7689 700.0678,-243.2642 722.0107,-236.6996"/>
<polygon fill="#000000" stroke="#000000" points="722.9151,-238.9866 728.9237,-234.6392 721.5155,-234.2907 722.9151,-238.9866"/>
<text text-anchor="middle" x="715.5" y="-245.6" font-family="Helvetica,sans-Serif" font-size="8.00" fill="#000000">end_day</text>
</g>
<!-- north_latitude -->
<g id="node7" class="node">
<title>north_latitude</title>
<polygon fill="#94ddf4" stroke="#000000" points="648,-268.5 648,-287.5 776,-287.5 776,-268.5 648,-268.5"/>
<text text-anchor="middle" x="712" y="-275.5" font-family="Helvetica,sans-Serif" font-size="10.00" fill="#000000">Latitude for top of domain</text>
</g>
<!-- north_latitude&#45;&gt;step1_era5_workflow -->
<g id="edge7" class="edge">
<title>north_latitude&#45;&gt;step1_era5_workflow</title>
<path fill="none" stroke="#000000" d="M721.1708,-268.279C728.6418,-260.3597 739.3168,-249.0442 747.8777,-239.9696"/>
<polygon fill="#000000" stroke="#000000" points="749.8659,-241.4324 752.8874,-234.6594 746.3017,-238.0699 749.8659,-241.4324"/>
<text text-anchor="middle" x="768.5" y="-245.6" font-family="Helvetica,sans-Serif" font-size="8.00" fill="#000000">north_latitude</text>
</g>
<!-- south_latitude -->
<g id="node8" class="node">
<title>south_latitude</title>
<polygon fill="#94ddf4" stroke="#000000" points="780,-268.5 780,-287.5 924,-287.5 924,-268.5 780,-268.5"/>
<text text-anchor="middle" x="852" y="-275.5" font-family="Helvetica,sans-Serif" font-size="10.00" fill="#000000">Latitude for bottom of domain</text>
</g>
<!-- south_latitude&#45;&gt;step1_era5_workflow -->
<g id="edge8" class="edge">
<title>south_latitude&#45;&gt;step1_era5_workflow</title>
<path fill="none" stroke="#000000" d="M836.3227,-268.3622C824.696,-261.258 808.4288,-251.409 794,-243 791.3359,-241.4474 788.536,-239.8388 785.7468,-238.2509"/>
<polygon fill="#000000" stroke="#000000" points="786.6258,-235.9333 779.3267,-234.6192 784.2132,-240.1982 786.6258,-235.9333"/>
<text text-anchor="middle" x="833" y="-245.6" font-family="Helvetica,sans-Serif" font-size="8.00" fill="#000000">south_latitude</text>
</g>
<!-- west_longitude -->
<g id="node9" class="node">
<title>west_longitude</title>
<polygon fill="#94ddf4" stroke="#000000" points="928.5,-268.5 928.5,-287.5 1087.5,-287.5 1087.5,-268.5 928.5,-268.5"/>
<text text-anchor="middle" x="1008" y="-275.5" font-family="Helvetica,sans-Serif" font-size="10.00" fill="#000000">Longitude for left&#45;edge of domain</text>
</g>
<!-- west_longitude&#45;&gt;step1_era5_workflow -->
<g id="edge9" class="edge">
<title>west_longitude&#45;&gt;step1_era5_workflow</title>
<path fill="none" stroke="#000000" d="M969.5213,-268.4342C939.5,-261.0989 896.7063,-250.9225 859,-243 847.3702,-240.5565 834.9192,-238.1152 822.9464,-235.8546"/>
<polygon fill="#000000" stroke="#000000" points="823.2936,-233.4271 815.9621,-234.5458 822.391,-238.2433 823.2936,-233.4271"/>
<text text-anchor="middle" x="922" y="-245.6" font-family="Helvetica,sans-Serif" font-size="8.00" fill="#000000">west_longitude</text>
</g>
<!-- east_longitude -->
<g id="node10" class="node">
<title>east_longitude</title>
<polygon fill="#94ddf4" stroke="#000000" points="1092,-268.5 1092,-287.5 1256,-287.5 1256,-268.5 1092,-268.5"/>
<text text-anchor="middle" x="1174" y="-275.5" font-family="Helvetica,sans-Serif" font-size="10.00" fill="#000000">Longitude for right&#45;edge of domain</text>
</g>
<!-- east_longitude&#45;&gt;step1_era5_workflow -->
<g id="edge10" class="edge">
<title>east_longitude&#45;&gt;step1_era5_workflow</title>
<path fill="none" stroke="#000000" d="M1131.7026,-268.4116C1117.8246,-265.4628 1102.2959,-262.3723 1088,-260 996.5707,-244.8277 889.5725,-234.7971 823.7926,-229.5052"/>
<polygon fill="#000000" stroke="#000000" points="823.9416,-227.0594 816.7691,-228.9456 823.5523,-231.9439 823.9416,-227.0594"/>
<text text-anchor="middle" x="1060" y="-245.6" font-family="Helvetica,sans-Serif" font-size="8.00" fill="#000000">east_longitude</text>
</g>
<!-- cdskey -->
<g id="node11" class="node">
<title>cdskey</title>
<polygon fill="#94ddf4" stroke="#000000" points="1260.5,-268.5 1260.5,-287.5 1385.5,-287.5 1385.5,-268.5 1260.5,-268.5"/>
<text text-anchor="middle" x="1323" y="-275.5" font-family="Helvetica,sans-Serif" font-size="10.00" fill="#000000">API key for CDS service</text>
</g>
<!-- cdskey&#45;&gt;step1_era5_workflow -->
<g id="edge11" class="edge">
<title>cdskey&#45;&gt;step1_era5_workflow</title>
<path fill="none" stroke="#000000" d="M1292.0227,-268.4076C1281.0517,-265.3159 1268.5618,-262.1393 1257,-260 1175.6602,-244.9497 937.8163,-232.7844 824.0353,-227.6446"/>
<polygon fill="#000000" stroke="#000000" points="823.826,-225.1828 816.7231,-227.3163 823.6062,-230.0779 823.826,-225.1828"/>
<text text-anchor="middle" x="1208.5" y="-245.6" font-family="Helvetica,sans-Serif" font-size="8.00" fill="#000000">cdskey</text>
</g>
<!-- https_proxy -->
<g id="node12" class="node">
<title>https_proxy</title>
<polygon fill="#94ddf4" stroke="#000000" points="1389.5,-268.5 1389.5,-287.5 1562.5,-287.5 1562.5,-268.5 1389.5,-268.5"/>
<text text-anchor="middle" x="1476" y="-275.5" font-family="Helvetica,sans-Serif" font-size="10.00" fill="#000000">HTTPS proxy information, if needed</text>
</g>
<!-- https_proxy&#45;&gt;step1_era5_workflow -->
<g id="edge12" class="edge">
<title>https_proxy&#45;&gt;step1_era5_workflow</title>
<path fill="none" stroke="#000000" d="M1432.6575,-268.4735C1417.9045,-265.4599 1401.2821,-262.315 1386,-260 1313.5472,-249.0244 1295.0938,-248.2131 1222,-243 1079.7143,-232.8521 912.2325,-228.1049 823.8506,-226.1604"/>
<polygon fill="#000000" stroke="#000000" points="823.638,-223.7053 816.5865,-226.003 823.5318,-228.6041 823.638,-223.7053"/>
<text text-anchor="middle" x="1347" y="-245.6" font-family="Helvetica,sans-Serif" font-size="8.00" fill="#000000">https_proxy</text>
</g>
<!-- geodir -->
<g id="node13" class="node">
<title>geodir</title>
<polygon fill="#94ddf4" stroke="#000000" points="1567,-268.5 1567,-287.5 1711,-287.5 1711,-268.5 1567,-268.5"/>
<text text-anchor="middle" x="1639" y="-275.5" font-family="Helvetica,sans-Serif" font-size="10.00" fill="#000000">Geographic inputs for geogrid</text>
</g>
<!-- step2_geogrid_workflow -->
<g id="node37" class="node">
<title>step2_geogrid_workflow</title>
<polygon fill="#fafad2" stroke="#000000" points="1740,-215.5 1740,-234.5 1862,-234.5 1862,-215.5 1740,-215.5"/>
<text text-anchor="middle" x="1801" y="-222.5" font-family="Helvetica,sans-Serif" font-size="10.00" fill="#000000">step2_geogrid_workflow</text>
</g>
<!-- geodir&#45;&gt;step2_geogrid_workflow -->
<g id="edge13" class="edge">
<title>geodir&#45;&gt;step2_geogrid_workflow</title>
<path fill="none" stroke="#000000" d="M1668.337,-268.4021C1695.5178,-259.5096 1736.0192,-246.2591 1765.116,-236.7398"/>
<polygon fill="#000000" stroke="#000000" points="1765.9901,-239.0317 1771.8813,-234.5265 1764.4664,-234.3746 1765.9901,-239.0317"/>
<text text-anchor="middle" x="1754.5" y="-245.6" font-family="Helvetica,sans-Serif" font-size="8.00" fill="#000000">geodir</text>
</g>
<!-- namelist_geogrid -->
<g id="node14" class="node">
<title>namelist_geogrid</title>
<polygon fill="#94ddf4" stroke="#000000" points="1715,-268.5 1715,-287.5 1805,-287.5 1805,-268.5 1715,-268.5"/>
<text text-anchor="middle" x="1760" y="-275.5" font-family="Helvetica,sans-Serif" font-size="10.00" fill="#000000">Geogrid namelist</text>
</g>
<!-- namelist_geogrid&#45;&gt;step2_geogrid_workflow -->
<g id="edge14" class="edge">
<title>namelist_geogrid&#45;&gt;step2_geogrid_workflow</title>
<path fill="none" stroke="#000000" d="M1767.52,-268.279C1773.5885,-260.4344 1782.2348,-249.2574 1789.2206,-240.2271"/>
<polygon fill="#000000" stroke="#000000" points="1791.1823,-241.6952 1793.5276,-234.6594 1787.3066,-238.697 1791.1823,-241.6952"/>
<text text-anchor="middle" x="1801" y="-245.6" font-family="Helvetica,sans-Serif" font-size="8.00" fill="#000000">namelist</text>
</g>
<!-- geotable -->
<g id="node15" class="node">
<title>geotable</title>
<polygon fill="#94ddf4" stroke="#000000" points="1809,-268.5 1809,-287.5 1905,-287.5 1905,-268.5 1809,-268.5"/>
<text text-anchor="middle" x="1857" y="-275.5" font-family="Helvetica,sans-Serif" font-size="10.00" fill="#000000">Geogrid data table</text>
</g>
<!-- geotable&#45;&gt;step2_geogrid_workflow -->
<g id="edge15" class="edge">
<title>geotable&#45;&gt;step2_geogrid_workflow</title>
<path fill="none" stroke="#000000" d="M1846.7287,-268.279C1838.2823,-260.285 1826.1793,-248.8304 1816.5462,-239.7134"/>
<polygon fill="#000000" stroke="#000000" points="1817.9743,-237.6917 1811.2061,-234.6594 1814.6061,-241.2505 1817.9743,-237.6917"/>
<text text-anchor="middle" x="1844.5" y="-245.6" font-family="Helvetica,sans-Serif" font-size="8.00" fill="#000000">geotable</text>
</g>
<!-- namelist_ungrib_atm -->
<g id="node16" class="node">
<title>namelist_ungrib_atm</title>
<polygon fill="#94ddf4" stroke="#000000" points="1909.5,-268.5 1909.5,-287.5 2002.5,-287.5 2002.5,-268.5 1909.5,-268.5"/>
<text text-anchor="middle" x="1956" y="-275.5" font-family="Helvetica,sans-Serif" font-size="10.00" fill="#000000">Configuration File</text>
</g>
<!-- step3_wps_workflow -->
<g id="node38" class="node">
<title>step3_wps_workflow</title>
<polygon fill="#fafad2" stroke="#000000" points="2140,-170.5 2140,-189.5 2248,-189.5 2248,-170.5 2140,-170.5"/>
<text text-anchor="middle" x="2194" y="-177.5" font-family="Helvetica,sans-Serif" font-size="10.00" fill="#000000">step3_wps_workflow</text>
</g>
<!-- namelist_ungrib_atm&#45;&gt;step3_wps_workflow -->
<g id="edge16" class="edge">
<title>namelist_ungrib_atm&#45;&gt;step3_wps_workflow</title>
<path fill="none" stroke="#000000" d="M1961.2158,-268.0711C1969.2404,-253.8528 1986.0183,-227.9794 2008,-215 2028.79,-202.7242 2087.0037,-193.0087 2132.8243,-186.9592"/>
<polygon fill="#000000" stroke="#000000" points="2133.1498,-189.3875 2139.7761,-186.0566 2132.5189,-184.5283 2133.1498,-189.3875"/>
<text text-anchor="middle" x="2045.5" y="-223.1" font-family="Helvetica,sans-Serif" font-size="8.00" fill="#000000">namelist_ungrib_atm</text>
</g>
<!-- vtable_atm -->
<g id="node17" class="node">
<title>vtable_atm</title>
<polygon fill="#94ddf4" stroke="#000000" points="2006.5,-268.5 2006.5,-287.5 2099.5,-287.5 2099.5,-268.5 2006.5,-268.5"/>
<text text-anchor="middle" x="2053" y="-275.5" font-family="Helvetica,sans-Serif" font-size="10.00" fill="#000000">grib variable table</text>
</g>
<!-- vtable_atm&#45;&gt;step3_wps_workflow -->
<g id="edge17" class="edge">
<title>vtable_atm&#45;&gt;step3_wps_workflow</title>
<path fill="none" stroke="#000000" d="M2059.0161,-268.1639C2067.8035,-254.5287 2085.3672,-229.8853 2106,-215 2119.7601,-205.073 2136.7261,-197.4619 2152.0776,-191.9128"/>
<polygon fill="#000000" stroke="#000000" points="2153.192,-194.1193 2159,-189.5073 2151.5836,-189.4908 2153.192,-194.1193"/>
<text text-anchor="middle" x="2126" y="-223.1" font-family="Helvetica,sans-Serif" font-size="8.00" fill="#000000">vtable_atm</text>
</g>
<!-- outname_atm -->
<g id="node18" class="node">
<title>outname_atm</title>
<polygon fill="#94ddf4" stroke="#000000" points="2104,-268.5 2104,-287.5 2180,-287.5 2180,-268.5 2104,-268.5"/>
<text text-anchor="middle" x="2142" y="-275.5" font-family="Helvetica,sans-Serif" font-size="10.00" fill="#000000">outname_atm</text>
</g>
<!-- outname_atm&#45;&gt;step3_wps_workflow -->
<g id="edge19" class="edge">
<title>outname_atm&#45;&gt;step3_wps_workflow</title>
<path fill="none" stroke="#000000" d="M2142.3636,-268.3944C2143.2314,-255.4572 2146.1578,-232.0878 2156,-215 2160.5465,-207.1064 2167.4665,-199.9673 2174.1612,-194.2264"/>
<polygon fill="#000000" stroke="#000000" points="2175.7866,-196.0626 2179.6746,-189.747 2172.6968,-192.2595 2175.7866,-196.0626"/>
<text text-anchor="middle" x="2181" y="-223.1" font-family="Helvetica,sans-Serif" font-size="8.00" fill="#000000">outname_atm</text>
</g>
<!-- namelist_ungrib_sfc -->
<g id="node19" class="node">
<title>namelist_ungrib_sfc</title>
<polygon fill="#94ddf4" stroke="#000000" points="2184.5,-268.5 2184.5,-287.5 2277.5,-287.5 2277.5,-268.5 2184.5,-268.5"/>
<text text-anchor="middle" x="2231" y="-275.5" font-family="Helvetica,sans-Serif" font-size="10.00" fill="#000000">Configuration File</text>
</g>
<!-- namelist_ungrib_sfc&#45;&gt;step3_wps_workflow -->
<g id="edge20" class="edge">
<title>namelist_ungrib_sfc&#45;&gt;step3_wps_workflow</title>
<path fill="none" stroke="#000000" d="M2227.317,-268.2451C2220.9729,-251.4417 2207.9198,-216.8686 2200.1689,-196.3391"/>
<polygon fill="#000000" stroke="#000000" points="2202.4327,-195.3988 2197.6681,-189.7154 2197.8486,-197.1296 2202.4327,-195.3988"/>
<text text-anchor="middle" x="2249.5" y="-223.1" font-family="Helvetica,sans-Serif" font-size="8.00" fill="#000000">namelist_ungrib_sfc</text>
</g>
<!-- vtable_sfc -->
<g id="node20" class="node">
<title>vtable_sfc</title>
<polygon fill="#94ddf4" stroke="#000000" points="2281.5,-268.5 2281.5,-287.5 2374.5,-287.5 2374.5,-268.5 2281.5,-268.5"/>
<text text-anchor="middle" x="2328" y="-275.5" font-family="Helvetica,sans-Serif" font-size="10.00" fill="#000000">grib variable table</text>
</g>
<!-- vtable_sfc&#45;&gt;step3_wps_workflow -->
<g id="edge21" class="edge">
<title>vtable_sfc&#45;&gt;step3_wps_workflow</title>
<path fill="none" stroke="#000000" d="M2323.7739,-268.0811C2317.4534,-254.3475 2304.2943,-229.588 2286,-215 2273.1389,-204.7444 2256.9424,-197.2528 2241.7372,-191.8966"/>
<polygon fill="#000000" stroke="#000000" points="2242.252,-189.4853 2234.8362,-189.5836 2240.6948,-194.1312 2242.252,-189.4853"/>
<text text-anchor="middle" x="2322" y="-223.1" font-family="Helvetica,sans-Serif" font-size="8.00" fill="#000000">vtable_sfc</text>
</g>
<!-- outname_sfc -->
<g id="node21" class="node">
<title>outname_sfc</title>
<polygon fill="#94ddf4" stroke="#000000" points="2378.5,-268.5 2378.5,-287.5 2451.5,-287.5 2451.5,-268.5 2378.5,-268.5"/>
<text text-anchor="middle" x="2415" y="-275.5" font-family="Helvetica,sans-Serif" font-size="10.00" fill="#000000">outname_sfc</text>
</g>
<!-- outname_sfc&#45;&gt;step3_wps_workflow -->
<g id="edge23" class="edge">
<title>outname_sfc&#45;&gt;step3_wps_workflow</title>
<path fill="none" stroke="#000000" d="M2406.4676,-268.2725C2393.6656,-254.305 2368.084,-228.7411 2341,-215 2314.4768,-201.5434 2282.6163,-193.1413 2255.3472,-187.9559"/>
<polygon fill="#000000" stroke="#000000" points="2255.4803,-185.4897 2248.1539,-186.6416 2254.5995,-190.3099 2255.4803,-185.4897"/>
<text text-anchor="middle" x="2393" y="-223.1" font-family="Helvetica,sans-Serif" font-size="8.00" fill="#000000">outname_sfc</text>
</g>
<!-- namelist_metgrid -->
<g id="node22" class="node">
<title>namelist_metgrid</title>
<polygon fill="#94ddf4" stroke="#000000" points="2455.5,-268.5 2455.5,-287.5 2562.5,-287.5 2562.5,-268.5 2455.5,-268.5"/>
<text text-anchor="middle" x="2509" y="-275.5" font-family="Helvetica,sans-Serif" font-size="10.00" fill="#000000">metgrid configuration</text>
</g>
<!-- namelist_metgrid&#45;&gt;step3_wps_workflow -->
<g id="edge24" class="edge">
<title>namelist_metgrid&#45;&gt;step3_wps_workflow</title>
<path fill="none" stroke="#000000" d="M2498.3093,-268.3097C2482.0406,-254.1466 2449.5128,-228.0617 2417,-215 2388.4042,-203.5119 2310.7782,-192.9293 2255.1582,-186.4756"/>
<polygon fill="#000000" stroke="#000000" points="2255.3818,-184.0352 2248.1479,-185.6704 2254.8226,-188.9032 2255.3818,-184.0352"/>
<text text-anchor="middle" x="2484.5" y="-223.1" font-family="Helvetica,sans-Serif" font-size="8.00" fill="#000000">namelist_metgrid</text>
</g>
<!-- generate_metdir -->
<g id="node23" class="node">
<title>generate_metdir</title>
<polygon fill="#94ddf4" stroke="#000000" points="2567,-268.5 2567,-287.5 2653,-287.5 2653,-268.5 2567,-268.5"/>
<text text-anchor="middle" x="2610" y="-275.5" font-family="Helvetica,sans-Serif" font-size="10.00" fill="#000000">generate_metdir</text>
</g>
<!-- generate_metdir&#45;&gt;step3_wps_workflow -->
<g id="edge26" class="edge">
<title>generate_metdir&#45;&gt;step3_wps_workflow</title>
<path fill="none" stroke="#000000" d="M2599.3897,-268.3446C2582.9112,-253.977 2549.5578,-227.3412 2516,-215 2469.5727,-197.9259 2334.8697,-187.789 2255.1579,-183.1186"/>
<polygon fill="#000000" stroke="#000000" points="2255.2244,-180.6684 2248.0947,-182.7106 2254.9417,-185.5603 2255.2244,-180.6684"/>
<text text-anchor="middle" x="2584" y="-223.1" font-family="Helvetica,sans-Serif" font-size="8.00" fill="#000000">generate_metdir</text>
</g>
<!-- namelist_real -->
<g id="node24" class="node">
<title>namelist_real</title>
<polygon fill="#94ddf4" stroke="#000000" points="2657,-268.5 2657,-287.5 2833,-287.5 2833,-268.5 2657,-268.5"/>
<text text-anchor="middle" x="2745" y="-275.5" font-family="Helvetica,sans-Serif" font-size="10.00" fill="#000000">Real preprocessor Configuration File</text>
</g>
<!-- step4_wrf_workflow -->
<g id="node39" class="node">
<title>step4_wrf_workflow</title>
<polygon fill="#fafad2" stroke="#000000" points="2968,-125.5 2968,-144.5 3072,-144.5 3072,-125.5 2968,-125.5"/>
<text text-anchor="middle" x="3020" y="-132.5" font-family="Helvetica,sans-Serif" font-size="10.00" fill="#000000">step4_wrf_workflow</text>
</g>
<!-- namelist_real&#45;&gt;step4_wrf_workflow -->
<g id="edge27" class="edge">
<title>namelist_real&#45;&gt;step4_wrf_workflow</title>
<path fill="none" stroke="#000000" d="M2762.0776,-268.4099C2789.3563,-253.1585 2844.5275,-222.5873 2892,-198 2926.7253,-180.0149 2967.3066,-160.25 2993.3111,-147.7421"/>
<polygon fill="#000000" stroke="#000000" points="2994.669,-149.808 2999.9187,-144.5693 2992.5479,-145.3908 2994.669,-149.808"/>
<text text-anchor="middle" x="2916" y="-200.6" font-family="Helvetica,sans-Serif" font-size="8.00" fill="#000000">namelist_real</text>
</g>
<!-- namelist_wrf -->
<g id="node25" class="node">
<title>namelist_wrf</title>
<polygon fill="#94ddf4" stroke="#000000" points="2837.5,-268.5 2837.5,-287.5 2956.5,-287.5 2956.5,-268.5 2837.5,-268.5"/>
<text text-anchor="middle" x="2897" y="-275.5" font-family="Helvetica,sans-Serif" font-size="10.00" fill="#000000">WRF Configuration File</text>
</g>
<!-- namelist_wrf&#45;&gt;step4_wrf_workflow -->
<g id="edge28" class="edge">
<title>namelist_wrf&#45;&gt;step4_wrf_workflow</title>
<path fill="none" stroke="#000000" d="M2902.1467,-268.0305C2910.5443,-252.2591 2928.2507,-220.9885 2948,-198 2964.1483,-179.2032 2985.929,-160.9179 3001.2924,-148.9321"/>
<polygon fill="#000000" stroke="#000000" points="3002.9905,-150.7168 3007.0431,-144.5056 3000.0016,-146.8339 3002.9905,-150.7168"/>
<text text-anchor="middle" x="2971" y="-200.6" font-family="Helvetica,sans-Serif" font-size="8.00" fill="#000000">namelist_wrf</text>
</g>
<!-- realcores -->
<g id="node26" class="node">
<title>realcores</title>
<polygon fill="#94ddf4" stroke="#000000" points="2961,-268.5 2961,-287.5 3017,-287.5 3017,-268.5 2961,-268.5"/>
<text text-anchor="middle" x="2989" y="-275.5" font-family="Helvetica,sans-Serif" font-size="10.00" fill="#000000">realcores</text>
</g>
<!-- realcores&#45;&gt;step4_wrf_workflow -->
<g id="edge30" class="edge">
<title>realcores&#45;&gt;step4_wrf_workflow</title>
<path fill="none" stroke="#000000" d="M2989.1912,-268.2688C2989.6639,-253.0811 2991.3047,-222.9004 2997,-198 3000.7328,-181.6801 3007.5278,-163.8191 3012.7678,-151.2962"/>
<polygon fill="#000000" stroke="#000000" points="3015.1354,-151.991 3015.6384,-144.5917 3010.6309,-150.0623 3015.1354,-151.991"/>
<text text-anchor="middle" x="3014" y="-200.6" font-family="Helvetica,sans-Serif" font-size="8.00" fill="#000000">realcores</text>
</g>
<!-- wrfcores -->
<g id="node27" class="node">
<title>wrfcores</title>
<polygon fill="#94ddf4" stroke="#000000" points="3021,-268.5 3021,-287.5 3075,-287.5 3075,-268.5 3021,-268.5"/>
<text text-anchor="middle" x="3048" y="-275.5" font-family="Helvetica,sans-Serif" font-size="10.00" fill="#000000">wrfcores</text>
</g>
<!-- wrfcores&#45;&gt;step4_wrf_workflow -->
<g id="edge31" class="edge">
<title>wrfcores&#45;&gt;step4_wrf_workflow</title>
<path fill="none" stroke="#000000" d="M3046.0754,-268.171C3041.3572,-244.0743 3029.1716,-181.8407 3023.2824,-151.7638"/>
<polygon fill="#000000" stroke="#000000" points="3025.6138,-150.9199 3021.8643,-144.5211 3020.8051,-151.8615 3025.6138,-150.9199"/>
<text text-anchor="middle" x="3049.5" y="-200.6" font-family="Helvetica,sans-Serif" font-size="8.00" fill="#000000">wrfcores</text>
</g>
<!-- generate_rundir -->
<g id="node28" class="node">
<title>generate_rundir</title>
<polygon fill="#94ddf4" stroke="#000000" points="3079.5,-268.5 3079.5,-287.5 3162.5,-287.5 3162.5,-268.5 3079.5,-268.5"/>
<text text-anchor="middle" x="3121" y="-275.5" font-family="Helvetica,sans-Serif" font-size="10.00" fill="#000000">generate_rundir</text>
</g>
<!-- generate_rundir&#45;&gt;step4_wrf_workflow -->
<g id="edge32" class="edge">
<title>generate_rundir&#45;&gt;step4_wrf_workflow</title>
<path fill="none" stroke="#000000" d="M3114.484,-268.3336C3104.2755,-253.2326 3083.833,-223.166 3066,-198 3054.4262,-181.6671 3040.8821,-163.1921 3031.5014,-150.4938"/>
<polygon fill="#000000" stroke="#000000" points="3033.391,-148.9284 3027.2577,-144.7588 3029.4521,-151.8431 3033.391,-148.9284"/>
<text text-anchor="middle" x="3100" y="-200.6" font-family="Helvetica,sans-Serif" font-size="8.00" fill="#000000">generate_rundir</text>
</g>
<!-- namelist_emep -->
<g id="node29" class="node">
<title>namelist_emep</title>
<polygon fill="#94ddf4" stroke="#000000" points="3166.5,-268.5 3166.5,-287.5 3285.5,-287.5 3285.5,-268.5 3166.5,-268.5"/>
<text text-anchor="middle" x="3226" y="-275.5" font-family="Helvetica,sans-Serif" font-size="10.00" fill="#000000">EMEP configuration file</text>
</g>
<!-- step5_emep_workflow -->
<g id="node40" class="node">
<title>step5_emep_workflow</title>
<polygon fill="#fafad2" stroke="#000000" points="3280,-80.5 3280,-99.5 3394,-99.5 3394,-80.5 3280,-80.5"/>
<text text-anchor="middle" x="3337" y="-87.5" font-family="Helvetica,sans-Serif" font-size="10.00" fill="#000000">step5_emep_workflow</text>
</g>
<!-- namelist_emep&#45;&gt;step5_emep_workflow -->
<g id="edge33" class="edge">
<title>namelist_emep&#45;&gt;step5_emep_workflow</title>
<path fill="none" stroke="#000000" d="M3237.4603,-268.3052C3247.6678,-258.5276 3261,-242.4222 3261,-225 3261,-225 3261,-225 3261,-135 3261,-119.4421 3272.938,-109.1478 3287.3512,-102.3887"/>
<polygon fill="#000000" stroke="#000000" points="3288.6227,-104.511 3294.1136,-99.5257 3286.7123,-99.9987 3288.6227,-104.511"/>
<text text-anchor="middle" x="3288.5" y="-178.1" font-family="Helvetica,sans-Serif" font-size="8.00" fill="#000000">namelist_emep</text>
</g>
<!-- inputdir_emep -->
<g id="node30" class="node">
<title>inputdir_emep</title>
<polygon fill="#94ddf4" stroke="#000000" points="3290,-268.5 3290,-287.5 3384,-287.5 3384,-268.5 3290,-268.5"/>
<text text-anchor="middle" x="3337" y="-275.5" font-family="Helvetica,sans-Serif" font-size="10.00" fill="#000000">EMEP Input Files</text>
</g>
<!-- inputdir_emep&#45;&gt;step5_emep_workflow -->
<g id="edge36" class="edge">
<title>inputdir_emep&#45;&gt;step5_emep_workflow</title>
<path fill="none" stroke="#000000" d="M3337,-268.2317C3337,-257.5974 3337,-240.0903 3337,-225 3337,-225 3337,-225 3337,-135 3337,-125.6689 3337,-115.2495 3337,-106.7884"/>
<polygon fill="#000000" stroke="#000000" points="3339.4501,-106.6559 3337,-99.656 3334.5501,-106.656 3339.4501,-106.6559"/>
<text text-anchor="middle" x="3363" y="-178.1" font-family="Helvetica,sans-Serif" font-size="8.00" fill="#000000">inputdir_emep</text>
</g>
<!-- runlabel_emep -->
<g id="node31" class="node">
<title>runlabel_emep</title>
<polygon fill="#94ddf4" stroke="#000000" points="3388,-268.5 3388,-287.5 3702,-287.5 3702,-268.5 3388,-268.5"/>
<text text-anchor="middle" x="3545" y="-275.5" font-family="Helvetica,sans-Serif" font-size="10.00" fill="#000000">EMEP run label, for output files, should match &#39;runlabel1&#39; in namelist</text>
</g>
<!-- runlabel_emep&#45;&gt;step5_emep_workflow -->
<g id="edge37" class="edge">
<title>runlabel_emep&#45;&gt;step5_emep_workflow</title>
<path fill="none" stroke="#000000" d="M3512.3271,-268.4989C3492.5035,-260.5048 3471,-246.8073 3471,-225 3471,-225 3471,-225 3471,-135 3471,-118.8377 3435.5252,-107.3941 3401.081,-100.0921"/>
<polygon fill="#000000" stroke="#000000" points="3401.5659,-97.6906 3394.2167,-98.6868 3400.5831,-102.4911 3401.5659,-97.6906"/>
<text text-anchor="middle" x="3498" y="-178.1" font-family="Helvetica,sans-Serif" font-size="8.00" fill="#000000">runlabel_emep</text>
</g>
<!-- metdir_name -->
<g id="node32" class="node">
<title>metdir_name</title>
<polygon fill="#94ddf4" stroke="#000000" points="3706,-268.5 3706,-287.5 4092,-287.5 4092,-268.5 3706,-268.5"/>
<text text-anchor="middle" x="3899" y="-275.5" font-family="Helvetica,sans-Serif" font-size="10.00" fill="#000000">Directory name for WRF input Files, should match &#39;meteo&#39; base&#45;directory in namelist</text>
</g>
<!-- metdir_name&#45;&gt;step5_emep_workflow -->
<g id="edge35" class="edge">
<title>metdir_name&#45;&gt;step5_emep_workflow</title>
<path fill="none" stroke="#000000" d="M3813.9289,-268.4611C3766.1396,-260.6437 3716,-247.1612 3716,-225 3716,-225 3716,-225 3716,-135 3716,-103.7068 3509.6205,-94.0937 3401.4477,-91.2043"/>
<polygon fill="#000000" stroke="#000000" points="3401.2115,-88.7474 3394.1505,-91.0156 3401.0848,-93.6458 3401.2115,-88.7474"/>
<text text-anchor="middle" x="3740" y="-178.1" font-family="Helvetica,sans-Serif" font-size="8.00" fill="#000000">metdir_name</text>
</g>
<!-- emepcores -->
<g id="node33" class="node">
<title>emepcores</title>
<polygon fill="#94ddf4" stroke="#000000" points="4096.5,-268.5 4096.5,-287.5 4161.5,-287.5 4161.5,-268.5 4096.5,-268.5"/>
<text text-anchor="middle" x="4129" y="-275.5" font-family="Helvetica,sans-Serif" font-size="10.00" fill="#000000">emepcores</text>
</g>
<!-- emepcores&#45;&gt;step5_emep_workflow -->
<g id="edge38" class="edge">
<title>emepcores&#45;&gt;step5_emep_workflow</title>
<path fill="none" stroke="#000000" d="M4111.7702,-268.4045C4105.9341,-265.421 4099.2973,-262.3118 4093,-260 4031.5768,-237.4505 3950,-290.4315 3950,-225 3950,-225 3950,-225 3950,-135 3950,-107.7217 3558.8136,-95.3088 3401.4341,-91.4187"/>
<polygon fill="#000000" stroke="#000000" points="3401.1769,-88.9618 3394.1191,-91.2399 3401.0571,-93.8603 3401.1769,-88.9618"/>
<text text-anchor="middle" x="3970" y="-178.1" font-family="Helvetica,sans-Serif" font-size="8.00" fill="#000000">emepcores</text>
</g>
<!-- wrfout -->
<g id="node34" class="node">
<title>wrfout</title>
<polygon fill="#94ddf4" stroke="#000000" points="3056.5,-35.5 3056.5,-54.5 3121.5,-54.5 3121.5,-35.5 3056.5,-35.5"/>
<text text-anchor="middle" x="3089" y="-42.5" font-family="Helvetica,sans-Serif" font-size="10.00" fill="#000000">output files</text>
</g>
<!-- emepout -->
<g id="node35" class="node">
<title>emepout</title>
<polygon fill="#94ddf4" stroke="#000000" points="3125.5,-35.5 3125.5,-54.5 3190.5,-54.5 3190.5,-35.5 3125.5,-35.5"/>
<text text-anchor="middle" x="3158" y="-42.5" font-family="Helvetica,sans-Serif" font-size="10.00" fill="#000000">output files</text>
</g>
<!-- step1_era5_workflow&#45;&gt;step3_wps_workflow -->
<g id="edge18" class="edge">
<title>step1_era5_workflow&#45;&gt;step3_wps_workflow</title>
<path fill="none" stroke="#000000" d="M816.7577,-222.5664C933.1298,-217.4565 1213.6751,-205.4667 1449,-198 1702.8272,-189.9462 2005.4027,-183.6606 2132.7425,-181.1665"/>
<polygon fill="#000000" stroke="#000000" points="2132.8246,-183.6155 2139.7753,-181.0291 2132.7288,-178.7164 2132.8246,-183.6155"/>
<text text-anchor="middle" x="1474" y="-200.6" font-family="Helvetica,sans-Serif" font-size="8.00" fill="#000000">grib_files_atm</text>
</g>
<!-- step1_era5_workflow&#45;&gt;step3_wps_workflow -->
<g id="edge22" class="edge">
<title>step1_era5_workflow&#45;&gt;step3_wps_workflow</title>
<path fill="none" stroke="#000000" d="M816.7937,-223.9212C938.8066,-221.4607 1242.145,-215.0221 1496,-207 1731.3097,-199.564 2011.1303,-187.8791 2132.6351,-182.6657"/>
<polygon fill="#000000" stroke="#000000" points="2132.8179,-185.1102 2139.7063,-182.3619 2132.6075,-180.2147 2132.8179,-185.1102"/>
<text text-anchor="middle" x="1768" y="-200.6" font-family="Helvetica,sans-Serif" font-size="8.00" fill="#000000">grib_files_sfc</text>
</g>
<!-- step2_geogrid_workflow&#45;&gt;step3_wps_workflow -->
<g id="edge25" class="edge">
<title>step2_geogrid_workflow&#45;&gt;step3_wps_workflow</title>
<path fill="none" stroke="#000000" d="M1843.673,-215.4698C1871.5282,-209.5859 1908.7613,-202.3541 1942,-198 2006.7966,-189.512 2081.5285,-184.807 2132.6828,-182.3567"/>
<polygon fill="#000000" stroke="#000000" points="2132.8634,-184.801 2139.7409,-182.0257 2132.6338,-179.9064 2132.8634,-184.801"/>
<text text-anchor="middle" x="1958" y="-200.6" font-family="Helvetica,sans-Serif" font-size="8.00" fill="#000000">geo_files</text>
</g>
<!-- step3_wps_workflow&#45;&gt;step4_wrf_workflow -->
<g id="edge29" class="edge">
<title>step3_wps_workflow&#45;&gt;step4_wrf_workflow</title>
<path fill="none" stroke="#000000" d="M2248.1962,-177.0474C2396.2304,-168.9826 2806.6199,-146.6248 2960.6058,-138.2358"/>
<polygon fill="#000000" stroke="#000000" points="2960.8863,-140.6742 2967.7426,-137.847 2960.6197,-135.7815 2960.8863,-140.6742"/>
<text text-anchor="middle" x="2694" y="-155.6" font-family="Helvetica,sans-Serif" font-size="8.00" fill="#000000">metfiles</text>
</g>
<!-- step4_wrf_workflow&#45;&gt;wrfout -->
<g id="edge39" class="edge">
<title>step4_wrf_workflow&#45;&gt;wrfout</title>
<path fill="none" stroke="#000000" d="M3027.3842,-125.3684C3039.316,-109.8053 3062.9372,-78.995 3077.2153,-60.3713"/>
<polygon fill="#000000" stroke="#000000" points="3079.3542,-61.6083 3081.6689,-54.5623 3075.4655,-58.6269 3079.3542,-61.6083"/>
</g>
<!-- step4_wrf_workflow&#45;&gt;step5_emep_workflow -->
<g id="edge34" class="edge">
<title>step4_wrf_workflow&#45;&gt;step5_emep_workflow</title>
<path fill="none" stroke="#000000" d="M3072.2123,-127.2463C3109.2594,-121.7773 3160.1651,-114.3285 3205,-108 3227.0161,-104.8924 3251.1112,-101.5805 3272.6192,-98.6559"/>
<polygon fill="#000000" stroke="#000000" points="3273.2007,-101.0495 3279.8074,-97.6798 3272.5413,-96.194 3273.2007,-101.0495"/>
<text text-anchor="middle" x="3231" y="-110.6" font-family="Helvetica,sans-Serif" font-size="8.00" fill="#000000">metfiles_emep</text>
</g>
<!-- step5_emep_workflow&#45;&gt;emepout -->
<g id="edge40" class="edge">
<title>step5_emep_workflow&#45;&gt;emepout</title>
<path fill="none" stroke="#000000" d="M3299.0387,-80.4567C3269.2062,-72.9569 3227.7846,-62.5436 3197.5504,-54.9428"/>
<polygon fill="#000000" stroke="#000000" points="3197.8925,-52.5027 3190.5063,-53.172 3196.6978,-57.2548 3197.8925,-52.5027"/>
</g>
</g>
</svg>
