<?xml version="1.0" encoding="UTF-8" standalone="no"?>
<!DOCTYPE svg PUBLIC "-//W3C//DTD SVG 1.1//EN"
 "http://www.w3.org/Graphics/SVG/1.1/DTD/svg11.dtd">
<!-- Generated by graphviz version 2.43.0 (0)
 -->
<!-- Title: workflow Pages: 1 -->
<svg width="500pt" height="511pt"
 viewBox="0.00 0.00 500.00 511.00" xmlns="http://www.w3.org/2000/svg" xmlns:xlink="http://www.w3.org/1999/xlink">
<g id="graph0" class="graph" transform="scale(1 1) rotate(0) translate(4 507)">
<title>workflow</title>
<polygon fill="white" stroke="transparent" points="-4,4 -4,-507 496,-507 496,4 -4,4"/>
<g id="clust1" class="cluster">
<title>cluster_inputs</title>
<polygon fill="none" stroke="black" stroke-dasharray="5,2" points="75,-440 75,-495 377,-495 377,-440 75,-440"/>
<text text-anchor="middle" x="122.5" y="-483" font-family="Helvetica,sans-Serif" font-size="10.00">Workflow Inputs</text>
</g>
<g id="clust2" class="cluster">
<title>cluster_outputs</title>
<polygon fill="none" stroke="black" stroke-dasharray="5,2" points="8,-8 8,-63 484,-63 484,-8 8,-8"/>
<text text-anchor="middle" x="59.5" y="-15" font-family="Helvetica,sans-Serif" font-size="10.00">Workflow Outputs</text>
</g>
<!-- DT6102 -->
<g id="node1" class="node">
<title>DT6102</title>
<polygon fill="#94ddf4" stroke="black" points="257,-448.5 257,-467.5 311,-467.5 311,-448.5 257,-448.5"/>
<text text-anchor="middle" x="284" y="-455.5" font-family="Helvetica,sans-Serif" font-size="10.00">DT6102</text>
</g>
<!-- ST610105 -->
<g id="node18" class="node">
<title>ST610105</title>
<polygon fill="lightgoldenrodyellow" stroke="black" points="349.5,-260.5 349.5,-279.5 414.5,-279.5 414.5,-260.5 349.5,-260.5"/>
<text text-anchor="middle" x="382" y="-267.5" font-family="Helvetica,sans-Serif" font-size="10.00">ST610105</text>
</g>
<!-- DT6102&#45;&gt;ST610105 -->
<g id="edge7" class="edge">
<title>DT6102&#45;&gt;ST610105</title>
<path fill="none" stroke="black" d="M297.82,-448.4C303.06,-445.42 309.16,-442.26 315,-440 357.21,-423.64 411,-451.26 411,-406 411,-406 411,-406 411,-314 411,-302.03 410.64,-297.96 404,-288 403.13,-286.69 402.13,-285.45 401.04,-284.26"/>
<polygon fill="black" stroke="black" points="402.67,-282.44 395.86,-279.5 399.35,-286.04 402.67,-282.44"/>
<text text-anchor="middle" x="427.5" y="-358.1" font-family="Helvetica,sans-Serif" font-size="8.00">DT6102</text>
</g>
<!-- ST610106 -->
<g id="node19" class="node">
<title>ST610106</title>
<polygon fill="lightgoldenrodyellow" stroke="black" points="105.5,-215.5 105.5,-234.5 170.5,-234.5 170.5,-215.5 105.5,-215.5"/>
<text text-anchor="middle" x="138" y="-222.5" font-family="Helvetica,sans-Serif" font-size="10.00">ST610106</text>
</g>
<!-- DT6102&#45;&gt;ST610106 -->
<g id="edge9" class="edge">
<title>DT6102&#45;&gt;ST610106</title>
<path fill="none" stroke="black" d="M270.58,-448.33C265.29,-445.26 259.04,-442.07 253,-440 202.58,-422.72 138,-459.3 138,-406 138,-406 138,-406 138,-269 138,-260.04 138,-250.03 138,-241.93"/>
<polygon fill="black" stroke="black" points="140.45,-241.57 138,-234.57 135.55,-241.57 140.45,-241.57"/>
<text text-anchor="middle" x="154.5" y="-335.6" font-family="Helvetica,sans-Serif" font-size="8.00">DT6102</text>
</g>
<!-- DT6103 -->
<g id="node2" class="node">
<title>DT6103</title>
<polygon fill="#94ddf4" stroke="black" points="199,-448.5 199,-467.5 253,-467.5 253,-448.5 199,-448.5"/>
<text text-anchor="middle" x="226" y="-455.5" font-family="Helvetica,sans-Serif" font-size="10.00">DT6103</text>
</g>
<!-- ST610101 -->
<g id="node14" class="node">
<title>ST610101</title>
<polygon fill="lightgoldenrodyellow" stroke="black" points="253.5,-395.5 253.5,-414.5 318.5,-414.5 318.5,-395.5 253.5,-395.5"/>
<text text-anchor="middle" x="286" y="-402.5" font-family="Helvetica,sans-Serif" font-size="10.00">ST610101</text>
</g>
<!-- DT6103&#45;&gt;ST610101 -->
<g id="edge1" class="edge">
<title>DT6103&#45;&gt;ST610101</title>
<path fill="none" stroke="black" d="M236.18,-448.35C245.54,-440.39 259.57,-428.46 270.36,-419.29"/>
<polygon fill="black" stroke="black" points="272.23,-420.92 275.97,-414.52 269.05,-417.19 272.23,-420.92"/>
<text text-anchor="middle" x="280.5" y="-425.6" font-family="Helvetica,sans-Serif" font-size="8.00">DT6103</text>
</g>
<!-- DT6104 -->
<g id="node3" class="node">
<title>DT6104</title>
<polygon fill="#94ddf4" stroke="black" points="315,-448.5 315,-467.5 369,-467.5 369,-448.5 315,-448.5"/>
<text text-anchor="middle" x="342" y="-455.5" font-family="Helvetica,sans-Serif" font-size="10.00">DT6104</text>
</g>
<!-- DT6104&#45;&gt;ST610101 -->
<g id="edge2" class="edge">
<title>DT6104&#45;&gt;ST610101</title>
<path fill="none" stroke="black" d="M332.5,-448.35C323.76,-440.39 310.66,-428.46 300.59,-419.29"/>
<polygon fill="black" stroke="black" points="302.18,-417.43 295.36,-414.52 298.89,-421.05 302.18,-417.43"/>
<text text-anchor="middle" x="330.5" y="-425.6" font-family="Helvetica,sans-Serif" font-size="8.00">DT6104</text>
</g>
<!-- DT6105 -->
<g id="node4" class="node">
<title>DT6105</title>
<polygon fill="#94ddf4" stroke="black" points="141,-448.5 141,-467.5 195,-467.5 195,-448.5 141,-448.5"/>
<text text-anchor="middle" x="168" y="-455.5" font-family="Helvetica,sans-Serif" font-size="10.00">DT6105</text>
</g>
<!-- DT6105&#45;&gt;ST610101 -->
<g id="edge3" class="edge">
<title>DT6105&#45;&gt;ST610101</title>
<path fill="none" stroke="black" d="M179.44,-448.35C189.99,-440.73 206.36,-429.81 222,-423 229.74,-419.63 238.31,-416.79 246.59,-414.46"/>
<polygon fill="black" stroke="black" points="247.33,-416.8 253.45,-412.62 246.06,-412.07 247.33,-416.8"/>
<text text-anchor="middle" x="238.5" y="-425.6" font-family="Helvetica,sans-Serif" font-size="8.00">DT6105</text>
</g>
<!-- DT6109 -->
<g id="node5" class="node">
<title>DT6109</title>
<polygon fill="#94ddf4" stroke="black" points="83,-448.5 83,-467.5 137,-467.5 137,-448.5 83,-448.5"/>
<text text-anchor="middle" x="110" y="-455.5" font-family="Helvetica,sans-Serif" font-size="10.00">DT6109</text>
</g>
<!-- DT6109&#45;&gt;ST610106 -->
<g id="edge12" class="edge">
<title>DT6109&#45;&gt;ST610106</title>
<path fill="none" stroke="black" d="M106.03,-448.17C101.89,-438.16 96,-421.24 96,-406 96,-406 96,-406 96,-269 96,-256.26 105.55,-245.9 115.54,-238.54"/>
<polygon fill="black" stroke="black" points="116.99,-240.51 121.4,-234.56 114.23,-236.46 116.99,-240.51"/>
<text text-anchor="middle" x="112.5" y="-335.6" font-family="Helvetica,sans-Serif" font-size="8.00">DT6109</text>
</g>
<!-- DT6101 -->
<g id="node6" class="node">
<title>DT6101</title>
<polygon fill="#94ddf4" stroke="black" points="422,-35.5 422,-54.5 476,-54.5 476,-35.5 422,-35.5"/>
<text text-anchor="middle" x="449" y="-42.5" font-family="Helvetica,sans-Serif" font-size="10.00">DT6101</text>
</g>
<!-- DT6106 -->
<g id="node7" class="node">
<title>DT6106</title>
<polygon fill="#94ddf4" stroke="black" points="306,-35.5 306,-54.5 360,-54.5 360,-35.5 306,-35.5"/>
<text text-anchor="middle" x="333" y="-42.5" font-family="Helvetica,sans-Serif" font-size="10.00">DT6106</text>
</g>
<!-- DT6107 -->
<g id="node8" class="node">
<title>DT6107</title>
<polygon fill="#94ddf4" stroke="black" points="364,-35.5 364,-54.5 418,-54.5 418,-35.5 364,-35.5"/>
<text text-anchor="middle" x="391" y="-42.5" font-family="Helvetica,sans-Serif" font-size="10.00">DT6107</text>
</g>
<!-- DT6108 -->
<g id="node9" class="node">
<title>DT6108</title>
<polygon fill="#94ddf4" stroke="black" points="16,-35.5 16,-54.5 70,-54.5 70,-35.5 16,-35.5"/>
<text text-anchor="middle" x="43" y="-42.5" font-family="Helvetica,sans-Serif" font-size="10.00">DT6108</text>
</g>
<!-- DT6110 -->
<g id="node10" class="node">
<title>DT6110</title>
<polygon fill="#94ddf4" stroke="black" points="74,-35.5 74,-54.5 128,-54.5 128,-35.5 74,-35.5"/>
<text text-anchor="middle" x="101" y="-42.5" font-family="Helvetica,sans-Serif" font-size="10.00">DT6110</text>
</g>
<!-- DT6111 -->
<g id="node11" class="node">
<title>DT6111</title>
<polygon fill="#94ddf4" stroke="black" points="132,-35.5 132,-54.5 186,-54.5 186,-35.5 132,-35.5"/>
<text text-anchor="middle" x="159" y="-42.5" font-family="Helvetica,sans-Serif" font-size="10.00">DT6111</text>
</g>
<!-- DT6112 -->
<g id="node12" class="node">
<title>DT6112</title>
<polygon fill="#94ddf4" stroke="black" points="190,-35.5 190,-54.5 244,-54.5 244,-35.5 190,-35.5"/>
<text text-anchor="middle" x="217" y="-42.5" font-family="Helvetica,sans-Serif" font-size="10.00">DT6112</text>
</g>
<!-- DT6113 -->
<g id="node13" class="node">
<title>DT6113</title>
<polygon fill="#94ddf4" stroke="black" points="248,-35.5 248,-54.5 302,-54.5 302,-35.5 248,-35.5"/>
<text text-anchor="middle" x="275" y="-42.5" font-family="Helvetica,sans-Serif" font-size="10.00">DT6113</text>
</g>
<!-- ST610101&#45;&gt;DT6101 -->
<g id="edge23" class="edge">
<title>ST610101&#45;&gt;DT6101</title>
<path fill="none" stroke="black" d="M318.78,-398.27C337.75,-393.49 360.97,-384.96 377,-370 412.34,-337.02 422,-319.33 422,-271 422,-271 422,-271 422,-89 422,-78.18 428.2,-67.85 434.66,-60.03"/>
<polygon fill="black" stroke="black" points="436.71,-61.42 439.56,-54.57 433.06,-58.15 436.71,-61.42"/>
</g>
<!-- ST610102 -->
<g id="node15" class="node">
<title>ST610102</title>
<polygon fill="lightgoldenrodyellow" stroke="black" points="322.5,-305.5 322.5,-324.5 387.5,-324.5 387.5,-305.5 322.5,-305.5"/>
<text text-anchor="middle" x="355" y="-312.5" font-family="Helvetica,sans-Serif" font-size="10.00">ST610102</text>
</g>
<!-- ST610101&#45;&gt;ST610102 -->
<g id="edge4" class="edge">
<title>ST610101&#45;&gt;ST610102</title>
<path fill="none" stroke="black" d="M308.25,-395.5C312.49,-393.19 316.65,-390.37 320,-387 335.49,-371.42 345.28,-347.62 350.45,-331.93"/>
<polygon fill="black" stroke="black" points="352.88,-332.37 352.62,-324.96 348.2,-330.91 352.88,-332.37"/>
<text text-anchor="middle" x="359.5" y="-358.1" font-family="Helvetica,sans-Serif" font-size="8.00">DT6101</text>
</g>
<!-- ST610103 -->
<g id="node16" class="node">
<title>ST610103</title>
<polygon fill="lightgoldenrodyellow" stroke="black" points="253.5,-350.5 253.5,-369.5 318.5,-369.5 318.5,-350.5 253.5,-350.5"/>
<text text-anchor="middle" x="286" y="-357.5" font-family="Helvetica,sans-Serif" font-size="10.00">ST610103</text>
</g>
<!-- ST610101&#45;&gt;ST610103 -->
<g id="edge5" class="edge">
<title>ST610101&#45;&gt;ST610103</title>
<path fill="none" stroke="black" d="M286,-395.3C286,-390.05 286,-383.21 286,-377.02"/>
<polygon fill="black" stroke="black" points="288.45,-376.69 286,-369.69 283.55,-376.69 288.45,-376.69"/>
<text text-anchor="middle" x="302.5" y="-380.6" font-family="Helvetica,sans-Serif" font-size="8.00">DT6101</text>
</g>
<!-- ST610104 -->
<g id="node17" class="node">
<title>ST610104</title>
<polygon fill="lightgoldenrodyellow" stroke="black" points="184.5,-350.5 184.5,-369.5 249.5,-369.5 249.5,-350.5 184.5,-350.5"/>
<text text-anchor="middle" x="217" y="-357.5" font-family="Helvetica,sans-Serif" font-size="10.00">ST610104</text>
</g>
<!-- ST610101&#45;&gt;ST610104 -->
<g id="edge6" class="edge">
<title>ST610101&#45;&gt;ST610104</title>
<path fill="none" stroke="black" d="M267.33,-395.4C262.26,-392.87 256.83,-389.97 252,-387 245.75,-383.16 239.21,-378.5 233.51,-374.19"/>
<polygon fill="black" stroke="black" points="234.73,-372.04 227.69,-369.71 231.74,-375.92 234.73,-372.04"/>
<text text-anchor="middle" x="268.5" y="-380.6" font-family="Helvetica,sans-Serif" font-size="8.00">DT6101</text>
</g>
<!-- ST610102&#45;&gt;ST610105 -->
<g id="edge8" class="edge">
<title>ST610102&#45;&gt;ST610105</title>
<path fill="none" stroke="black" d="M358.2,-305.48C360.34,-300.24 363.42,-293.5 367,-288 367.65,-287 368.36,-286 369.1,-285.02"/>
<polygon fill="black" stroke="black" points="370.99,-286.57 373.54,-279.61 367.21,-283.46 370.99,-286.57"/>
<text text-anchor="middle" x="387" y="-290.6" font-family="Helvetica,sans-Serif" font-size="8.00">event_file</text>
</g>
<!-- ST610107 -->
<g id="node20" class="node">
<title>ST610107</title>
<polygon fill="lightgoldenrodyellow" stroke="black" points="197.5,-170.5 197.5,-189.5 262.5,-189.5 262.5,-170.5 197.5,-170.5"/>
<text text-anchor="middle" x="230" y="-177.5" font-family="Helvetica,sans-Serif" font-size="10.00">ST610107</text>
</g>
<!-- ST610103&#45;&gt;ST610107 -->
<g id="edge16" class="edge">
<title>ST610103&#45;&gt;ST610107</title>
<path fill="none" stroke="black" d="M285.37,-350.44C284.78,-341.76 284,-327.96 284,-316 284,-316 284,-316 284,-224 284,-210.02 272.79,-199.85 260.58,-192.92"/>
<polygon fill="black" stroke="black" points="261.5,-190.64 254.16,-189.59 259.24,-194.99 261.5,-190.64"/>
<text text-anchor="middle" x="314.5" y="-268.1" font-family="Helvetica,sans-Serif" font-size="8.00">sea_level_data</text>
</g>
<!-- ST610104&#45;&gt;ST610107 -->
<g id="edge15" class="edge">
<title>ST610104&#45;&gt;ST610107</title>
<path fill="none" stroke="black" d="M222.24,-350.45C226.91,-342.02 233,-328.59 233,-316 233,-316 233,-316 233,-224 233,-215.02 232.34,-205.01 231.64,-196.91"/>
<polygon fill="black" stroke="black" points="234.04,-196.29 230.95,-189.55 229.16,-196.75 234.04,-196.29"/>
<text text-anchor="middle" x="254.5" y="-268.1" font-family="Helvetica,sans-Serif" font-size="8.00">gnss_data</text>
</g>
<!-- ST610111 -->
<g id="node24" class="node">
<title>ST610111</title>
<polygon fill="lightgoldenrodyellow" stroke="black" points="146.5,-305.5 146.5,-324.5 211.5,-324.5 211.5,-305.5 146.5,-305.5"/>
<text text-anchor="middle" x="179" y="-312.5" font-family="Helvetica,sans-Serif" font-size="10.00">ST610111</text>
</g>
<!-- ST610104&#45;&gt;ST610111 -->
<g id="edge22" class="edge">
<title>ST610104&#45;&gt;ST610111</title>
<path fill="none" stroke="black" d="M195.89,-350.47C192.18,-348.18 188.65,-345.38 186,-342 183.74,-339.12 182.2,-335.57 181.16,-332.02"/>
<polygon fill="black" stroke="black" points="183.52,-331.31 179.65,-324.98 178.73,-332.33 183.52,-331.31"/>
<text text-anchor="middle" x="207.5" y="-335.6" font-family="Helvetica,sans-Serif" font-size="8.00">gnss_data</text>
</g>
<!-- ST610105&#45;&gt;DT6106 -->
<g id="edge24" class="edge">
<title>ST610105&#45;&gt;DT6106</title>
<path fill="none" stroke="black" d="M377.42,-260.37C373.33,-251.88 368,-238.4 368,-226 368,-226 368,-226 368,-89 368,-77.27 360.07,-66.96 351.76,-59.38"/>
<polygon fill="black" stroke="black" points="352.97,-57.2 346.03,-54.59 349.82,-60.96 352.97,-57.2"/>
</g>
<!-- ST610105&#45;&gt;DT6107 -->
<g id="edge25" class="edge">
<title>ST610105&#45;&gt;DT6107</title>
<path fill="none" stroke="black" d="M384.21,-260.5C386.27,-251.87 389,-238.1 389,-226 389,-226 389,-226 389,-89 389,-80.03 389.44,-70.02 389.91,-61.92"/>
<polygon fill="black" stroke="black" points="392.37,-61.7 390.37,-54.56 387.48,-61.39 392.37,-61.7"/>
</g>
<!-- ST610105&#45;&gt;ST610106 -->
<g id="edge10" class="edge">
<title>ST610105&#45;&gt;ST610106</title>
<path fill="none" stroke="black" d="M349.47,-260.65C348.3,-260.42 347.14,-260.2 346,-260 311.68,-253.98 302.46,-257.2 268,-252 237.52,-247.4 203.36,-240.5 177.71,-234.96"/>
<polygon fill="black" stroke="black" points="178.07,-232.53 170.71,-233.44 177.03,-237.32 178.07,-232.53"/>
<text text-anchor="middle" x="284.5" y="-245.6" font-family="Helvetica,sans-Serif" font-size="8.00">DT6106</text>
</g>
<!-- ST610108 -->
<g id="node21" class="node">
<title>ST610108</title>
<polygon fill="lightgoldenrodyellow" stroke="black" points="197.5,-125.5 197.5,-144.5 262.5,-144.5 262.5,-125.5 197.5,-125.5"/>
<text text-anchor="middle" x="230" y="-132.5" font-family="Helvetica,sans-Serif" font-size="10.00">ST610108</text>
</g>
<!-- ST610105&#45;&gt;ST610108 -->
<g id="edge17" class="edge">
<title>ST610105&#45;&gt;ST610108</title>
<path fill="none" stroke="black" d="M372.23,-260.24C369.49,-257.66 366.56,-254.78 364,-252 344.94,-231.29 308.25,-168.86 285,-153 280.3,-149.79 274.97,-147.17 269.52,-145.03"/>
<polygon fill="black" stroke="black" points="270.01,-142.61 262.59,-142.58 268.37,-147.23 270.01,-142.61"/>
<text text-anchor="middle" x="346.5" y="-200.6" font-family="Helvetica,sans-Serif" font-size="8.00">DT6107</text>
</g>
<!-- ST610106&#45;&gt;DT6110 -->
<g id="edge27" class="edge">
<title>ST610106&#45;&gt;DT6110</title>
<path fill="none" stroke="black" d="M127.17,-215.33C118.58,-207.4 108,-194.84 108,-181 108,-181 108,-181 108,-89 108,-79.92 106.46,-69.91 104.83,-61.83"/>
<polygon fill="black" stroke="black" points="107.11,-60.81 103.21,-54.5 102.33,-61.86 107.11,-60.81"/>
</g>
<!-- ST610106&#45;&gt;DT6111 -->
<g id="edge28" class="edge">
<title>ST610106&#45;&gt;DT6111</title>
<path fill="none" stroke="black" d="M134.4,-215.27C131.19,-206.7 127,-193.17 127,-181 127,-181 127,-181 127,-89 127,-77.51 134.45,-67.1 142.16,-59.4"/>
<polygon fill="black" stroke="black" points="143.96,-61.07 147.45,-54.52 140.64,-57.46 143.96,-61.07"/>
</g>
<!-- ST610106&#45;&gt;ST610107 -->
<g id="edge13" class="edge">
<title>ST610106&#45;&gt;ST610107</title>
<path fill="none" stroke="black" d="M141.16,-215.48C143.74,-209.68 147.96,-202.31 154,-198 160.11,-193.64 175.21,-189.87 190.35,-186.99"/>
<polygon fill="black" stroke="black" points="190.83,-189.39 197.28,-185.73 189.96,-184.57 190.83,-189.39"/>
<text text-anchor="middle" x="170.5" y="-200.6" font-family="Helvetica,sans-Serif" font-size="8.00">DT6110</text>
</g>
<!-- ST610106&#45;&gt;ST610107 -->
<g id="edge14" class="edge">
<title>ST610106&#45;&gt;ST610107</title>
<path fill="none" stroke="black" d="M165.33,-215.38C171.62,-213 178.17,-210.18 184,-207 189.85,-203.81 190.33,-201.5 196,-198 198.87,-196.23 201.94,-194.49 205.03,-192.83"/>
<polygon fill="black" stroke="black" points="206.22,-194.97 211.32,-189.59 203.98,-190.62 206.22,-194.97"/>
<text text-anchor="middle" x="212.5" y="-200.6" font-family="Helvetica,sans-Serif" font-size="8.00">DT6111</text>
</g>
<!-- ST610106&#45;&gt;ST610108 -->
<g id="edge18" class="edge">
<title>ST610106&#45;&gt;ST610108</title>
<path fill="none" stroke="black" d="M139.79,-215.5C142.69,-203.72 149.51,-182.5 163,-170 173.25,-160.5 186.66,-153 198.79,-147.48"/>
<polygon fill="black" stroke="black" points="199.92,-149.66 205.36,-144.62 197.97,-145.17 199.92,-149.66"/>
<text text-anchor="middle" x="179.5" y="-178.1" font-family="Helvetica,sans-Serif" font-size="8.00">DT6110</text>
</g>
<!-- ST610107&#45;&gt;ST610108 -->
<g id="edge19" class="edge">
<title>ST610107&#45;&gt;ST610108</title>
<path fill="none" stroke="black" d="M230,-170.3C230,-165.05 230,-158.21 230,-152.02"/>
<polygon fill="black" stroke="black" points="232.45,-151.69 230,-144.69 227.55,-151.69 232.45,-151.69"/>
<text text-anchor="middle" x="257" y="-155.6" font-family="Helvetica,sans-Serif" font-size="8.00">misfit_output</text>
</g>
<!-- ST610108&#45;&gt;DT6112 -->
<g id="edge29" class="edge">
<title>ST610108&#45;&gt;DT6112</title>
<path fill="none" stroke="black" d="M228.71,-125.24C226.53,-110.48 222.09,-80.45 219.35,-61.9"/>
<polygon fill="black" stroke="black" points="221.74,-61.29 218.29,-54.72 216.89,-62.01 221.74,-61.29"/>
</g>
<!-- ST610109 -->
<g id="node22" class="node">
<title>ST610109</title>
<polygon fill="lightgoldenrodyellow" stroke="black" points="231.5,-80.5 231.5,-99.5 296.5,-99.5 296.5,-80.5 231.5,-80.5"/>
<text text-anchor="middle" x="264" y="-87.5" font-family="Helvetica,sans-Serif" font-size="10.00">ST610109</text>
</g>
<!-- ST610108&#45;&gt;ST610109 -->
<g id="edge20" class="edge">
<title>ST610108&#45;&gt;ST610109</title>
<path fill="none" stroke="black" d="M236.88,-125.3C241.4,-119.59 247.41,-111.98 252.63,-105.38"/>
<polygon fill="black" stroke="black" points="254.71,-106.7 257.13,-99.69 250.87,-103.66 254.71,-106.7"/>
<text text-anchor="middle" x="266.5" y="-110.6" font-family="Helvetica,sans-Serif" font-size="8.00">DT6112</text>
</g>
<!-- ST610109&#45;&gt;DT6113 -->
<g id="edge30" class="edge">
<title>ST610109&#45;&gt;DT6113</title>
<path fill="none" stroke="black" d="M266.23,-80.3C267.6,-74.94 269.4,-67.9 271.01,-61.6"/>
<polygon fill="black" stroke="black" points="273.42,-62.08 272.78,-54.69 268.67,-60.86 273.42,-62.08"/>
</g>
<!-- ST610110 -->
<g id="node23" class="node">
<title>ST610110</title>
<polygon fill="lightgoldenrodyellow" stroke="black" points="145.5,-260.5 145.5,-279.5 210.5,-279.5 210.5,-260.5 145.5,-260.5"/>
<text text-anchor="middle" x="178" y="-267.5" font-family="Helvetica,sans-Serif" font-size="10.00">ST610110</text>
</g>
<!-- ST610110&#45;&gt;DT6108 -->
<g id="edge26" class="edge">
<title>ST610110&#45;&gt;DT6108</title>
<path fill="none" stroke="black" d="M145.3,-269.58C112.25,-268.25 66,-260.26 66,-226 66,-226 66,-226 66,-89 66,-78.68 60.79,-68.44 55.32,-60.55"/>
<polygon fill="black" stroke="black" points="56.95,-58.63 50.79,-54.51 53.04,-61.58 56.95,-58.63"/>
</g>
<!-- ST610110&#45;&gt;ST610106 -->
<g id="edge11" class="edge">
<title>ST610110&#45;&gt;ST610106</title>
<path fill="none" stroke="black" d="M163.53,-260.17C160.18,-257.76 156.79,-254.98 154,-252 150.93,-248.73 148.15,-244.78 145.79,-240.96"/>
<polygon fill="black" stroke="black" points="147.86,-239.65 142.26,-234.8 143.61,-242.09 147.86,-239.65"/>
<text text-anchor="middle" x="170.5" y="-245.6" font-family="Helvetica,sans-Serif" font-size="8.00">DT6108</text>
</g>
<!-- ST610111&#45;&gt;ST610110 -->
<g id="edge21" class="edge">
<title>ST610111&#45;&gt;ST610110</title>
<path fill="none" stroke="black" d="M178.8,-305.3C178.68,-300.05 178.52,-293.21 178.37,-287.02"/>
<polygon fill="black" stroke="black" points="180.81,-286.63 178.2,-279.69 175.92,-286.74 180.81,-286.63"/>
<text text-anchor="middle" x="202" y="-290.6" font-family="Helvetica,sans-Serif" font-size="8.00">shakemaps</text>
</g>
</g>
</svg>
