<?xml version="1.0" encoding="UTF-8" standalone="no"?>
<!DOCTYPE svg PUBLIC "-//W3C//DTD SVG 1.1//EN"
 "http://www.w3.org/Graphics/SVG/1.1/DTD/svg11.dtd">
<!-- Generated by graphviz version 2.43.0 (0)
 -->
<!-- Title: workflow Pages: 1 -->
<svg width="138pt" height="196pt"
 viewBox="0.00 0.00 138.00 196.00" xmlns="http://www.w3.org/2000/svg" xmlns:xlink="http://www.w3.org/1999/xlink">
<g id="graph0" class="graph" transform="scale(1 1) rotate(0) translate(4 192)">
<title>workflow</title>
<polygon fill="white" stroke="transparent" points="-4,4 -4,-192 134,-192 134,4 -4,4"/>
<g id="clust1" class="cluster">
<title>cluster_inputs</title>
<polygon fill="none" stroke="black" stroke-dasharray="5,2" points="27,-125 27,-180 122,-180 122,-125 27,-125"/>
<text text-anchor="middle" x="74.5" y="-168" font-family="Helvetica,sans-Serif" font-size="10.00">Workflow Inputs</text>
</g>
<g id="clust2" class="cluster">
<title>cluster_outputs</title>
<polygon fill="none" stroke="black" stroke-dasharray="5,2" points="8,-8 8,-63 111,-63 111,-8 8,-8"/>
<text text-anchor="middle" x="59.5" y="-15" font-family="Helvetica,sans-Serif" font-size="10.00">Workflow Outputs</text>
</g>
<!-- filters -->
<g id="node1" class="node">
<title>filters</title>
<polygon fill="#94ddf4" stroke="black" points="37,-133.5 37,-152.5 81,-152.5 81,-133.5 37,-133.5"/>
<text text-anchor="middle" x="59" y="-140.5" font-family="Helvetica,sans-Serif" font-size="10.00">filters</text>
</g>
<!-- beacon&#45;oneshot -->
<g id="node3" class="node">
<title>beacon&#45;oneshot</title>
<polygon fill="lightgoldenrodyellow" stroke="black" points="11.5,-80.5 11.5,-99.5 106.5,-99.5 106.5,-80.5 11.5,-80.5"/>
<text text-anchor="middle" x="59" y="-87.5" font-family="Helvetica,sans-Serif" font-size="10.00">beacon&#45;oneshot</text>
</g>
<!-- filters&#45;&gt;beacon&#45;oneshot -->
<g id="edge1" class="edge">
<title>filters&#45;&gt;beacon&#45;oneshot</title>
<path fill="none" stroke="black" d="M59,-133.12C59,-125.88 59,-115.47 59,-106.82"/>
<polygon fill="black" stroke="black" points="61.45,-106.78 59,-99.78 56.55,-106.78 61.45,-106.78"/>
<text text-anchor="middle" x="71" y="-110.6" font-family="Helvetica,sans-Serif" font-size="8.00">filters</text>
</g>
<!-- output_file -->
<g id="node2" class="node">
<title>output_file</title>
<polygon fill="#94ddf4" stroke="black" points="25,-35.5 25,-54.5 93,-54.5 93,-35.5 25,-35.5"/>
<text text-anchor="middle" x="59" y="-42.5" font-family="Helvetica,sans-Serif" font-size="10.00">output_file</text>
</g>
<!-- beacon&#45;oneshot&#45;&gt;output_file -->
<g id="edge2" class="edge">
<title>beacon&#45;oneshot&#45;&gt;output_file</title>
<path fill="none" stroke="black" d="M59,-80.3C59,-75.05 59,-68.21 59,-62.02"/>
<polygon fill="black" stroke="black" points="61.45,-61.69 59,-54.69 56.55,-61.69 61.45,-61.69"/>
</g>
</g>
</svg>
