<?xml version="1.0" encoding="UTF-8" standalone="no"?>
<!DOCTYPE svg PUBLIC "-//W3C//DTD SVG 1.1//EN"
 "http://www.w3.org/Graphics/SVG/1.1/DTD/svg11.dtd">
<!-- Generated by graphviz version 2.40.1 (20161225.0304)
 -->
<!-- Title: workflow Pages: 1 -->
<svg width="418pt" height="376pt"
 viewBox="0.00 0.00 417.55 376.00" xmlns="http://www.w3.org/2000/svg" xmlns:xlink="http://www.w3.org/1999/xlink">
<g id="graph0" class="graph" transform="scale(1 1) rotate(0) translate(4 372)">
<title>workflow</title>
<polygon fill="#ffffff" stroke="transparent" points="-4,4 -4,-372 413.5491,-372 413.5491,4 -4,4"/>
<g id="clust1" class="cluster">
<title>cluster_inputs</title>
<polygon fill="none" stroke="#000000" stroke-dasharray="5,2" points="90.5491,-305 90.5491,-360 401.5491,-360 401.5491,-305 90.5491,-305"/>
<text text-anchor="middle" x="134.5491" y="-348" font-family="Helvetica,sans-Serif" font-size="10.00" fill="#000000">Workflow Inputs</text>
</g>
<g id="clust2" class="cluster">
<title>cluster_outputs</title>
<polygon fill="none" stroke="#000000" stroke-dasharray="5,2" points="224.5491,-8 224.5491,-63 319.5491,-63 319.5491,-8 224.5491,-8"/>
<text text-anchor="middle" x="272.0491" y="-15" font-family="Helvetica,sans-Serif" font-size="10.00" fill="#000000">Workflow Outputs</text>
</g>
<!-- fastq_files -->
<g id="node1" class="node">
<title>fastq_files</title>
<polygon fill="#94ddf4" stroke="#000000" points="98.5491,-313.5 98.5491,-332.5 160.5491,-332.5 160.5491,-313.5 98.5491,-313.5"/>
<text text-anchor="middle" x="129.5491" y="-320.5" font-family="Helvetica,sans-Serif" font-size="10.00" fill="#000000">fastq_files</text>
</g>
<!-- cutadapt -->
<g id="node8" class="node">
<title>cutadapt</title>
<polygon fill="#fafad2" stroke="#000000" points="43.5491,-260.5 43.5491,-279.5 97.5491,-279.5 97.5491,-260.5 43.5491,-260.5"/>
<text text-anchor="middle" x="70.5491" y="-267.5" font-family="Helvetica,sans-Serif" font-size="10.00" fill="#000000">cutadapt</text>
</g>
<!-- fastq_files&#45;&gt;cutadapt -->
<g id="edge3" class="edge">
<title>fastq_files&#45;&gt;cutadapt</title>
<path fill="none" stroke="#000000" d="M118.7276,-313.279C109.7454,-305.2103 96.8386,-293.616 86.6443,-284.4584"/>
<polygon fill="#000000" stroke="#000000" points="88.1467,-282.5147 81.302,-279.6594 84.8722,-286.1599 88.1467,-282.5147"/>
<text text-anchor="middle" x="129.0491" y="-290.6" font-family="Helvetica,sans-Serif" font-size="8.00" fill="#000000">raw_sequences</text>
</g>
<!-- reference_fasta -->
<g id="node2" class="node">
<title>reference_fasta</title>
<polygon fill="#94ddf4" stroke="#000000" points="164.5491,-313.5 164.5491,-332.5 248.5491,-332.5 248.5491,-313.5 164.5491,-313.5"/>
<text text-anchor="middle" x="206.5491" y="-320.5" font-family="Helvetica,sans-Serif" font-size="10.00" fill="#000000">reference_fasta</text>
</g>
<!-- gunzip -->
<g id="node6" class="node">
<title>gunzip</title>
<polygon fill="#fafad2" stroke="#000000" points="165.0491,-260.5 165.0491,-279.5 210.0491,-279.5 210.0491,-260.5 165.0491,-260.5"/>
<text text-anchor="middle" x="187.5491" y="-267.5" font-family="Helvetica,sans-Serif" font-size="10.00" fill="#000000">gunzip</text>
</g>
<!-- reference_fasta&#45;&gt;gunzip -->
<g id="edge1" class="edge">
<title>reference_fasta&#45;&gt;gunzip</title>
<path fill="none" stroke="#000000" d="M203.0642,-313.279C200.3591,-305.7333 196.5487,-295.1042 193.381,-286.2681"/>
<polygon fill="#000000" stroke="#000000" points="195.6805,-285.422 191.0119,-279.6594 191.0679,-287.0756 195.6805,-285.422"/>
<text text-anchor="middle" x="231.0491" y="-290.6" font-family="Helvetica,sans-Serif" font-size="8.00" fill="#000000">reference_genome</text>
</g>
<!-- readgroup -->
<g id="node3" class="node">
<title>readgroup</title>
<polygon fill="#94ddf4" stroke="#000000" points="253.0491,-313.5 253.0491,-332.5 312.0491,-332.5 312.0491,-313.5 253.0491,-313.5"/>
<text text-anchor="middle" x="282.5491" y="-320.5" font-family="Helvetica,sans-Serif" font-size="10.00" fill="#000000">readgroup</text>
</g>
<!-- bwa_mem -->
<g id="node11" class="node">
<title>bwa_mem</title>
<polygon fill="#fafad2" stroke="#000000" points="240.5491,-170.5 240.5491,-189.5 302.5491,-189.5 302.5491,-170.5 240.5491,-170.5"/>
<text text-anchor="middle" x="271.5491" y="-177.5" font-family="Helvetica,sans-Serif" font-size="10.00" fill="#000000">bwa_mem</text>
</g>
<!-- readgroup&#45;&gt;bwa_mem -->
<g id="edge8" class="edge">
<title>readgroup&#45;&gt;bwa_mem</title>
<path fill="none" stroke="#000000" d="M288.1326,-313.457C300.1981,-291.4646 325.8789,-236.1807 303.5491,-198 302.825,-196.762 301.9811,-195.6026 301.0439,-194.5175"/>
<polygon fill="#000000" stroke="#000000" points="302.5403,-192.5676 295.7042,-189.6916 299.2548,-196.2029 302.5403,-192.5676"/>
<text text-anchor="middle" x="333.0491" y="-245.6" font-family="Helvetica,sans-Serif" font-size="8.00" fill="#000000">read_group</text>
</g>
<!-- sample_name -->
<g id="node4" class="node">
<title>sample_name</title>
<polygon fill="#94ddf4" stroke="#000000" points="316.0491,-313.5 316.0491,-332.5 393.0491,-332.5 393.0491,-313.5 316.0491,-313.5"/>
<text text-anchor="middle" x="354.5491" y="-320.5" font-family="Helvetica,sans-Serif" font-size="10.00" fill="#000000">sample_name</text>
</g>
<!-- sample_name&#45;&gt;bwa_mem -->
<g id="edge6" class="edge">
<title>sample_name&#45;&gt;bwa_mem</title>
<path fill="none" stroke="#000000" d="M356.9006,-313.1652C360.123,-297.5785 364.4583,-266.5562 354.5491,-243 344.7806,-219.7784 321.0792,-203.1785 301.4939,-192.8677"/>
<polygon fill="#000000" stroke="#000000" points="302.3893,-190.5754 295.0358,-189.6116 300.1833,-194.9507 302.3893,-190.5754"/>
<text text-anchor="middle" x="382.0491" y="-245.6" font-family="Helvetica,sans-Serif" font-size="8.00" fill="#000000">sample_name</text>
</g>
<!-- sorted_bam -->
<g id="node5" class="node">
<title>sorted_bam</title>
<polygon fill="#94ddf4" stroke="#000000" points="237.5491,-35.5 237.5491,-54.5 305.5491,-54.5 305.5491,-35.5 237.5491,-35.5"/>
<text text-anchor="middle" x="271.5491" y="-42.5" font-family="Helvetica,sans-Serif" font-size="10.00" fill="#000000">sorted_bam</text>
</g>
<!-- picard_dictionary -->
<g id="node7" class="node">
<title>picard_dictionary</title>
<polygon fill="#fafad2" stroke="#000000" points="58.5491,-215.5 58.5491,-234.5 148.5491,-234.5 148.5491,-215.5 58.5491,-215.5"/>
<text text-anchor="middle" x="103.5491" y="-222.5" font-family="Helvetica,sans-Serif" font-size="10.00" fill="#000000">picard_dictionary</text>
</g>
<!-- gunzip&#45;&gt;picard_dictionary -->
<g id="edge2" class="edge">
<title>gunzip&#45;&gt;picard_dictionary</title>
<path fill="none" stroke="#000000" d="M164.9067,-266.5579C146.7087,-263.3958 122.9971,-258.2578 115.5491,-252 112.1777,-249.1673 109.718,-245.1984 107.9376,-241.1738"/>
<polygon fill="#000000" stroke="#000000" points="110.2236,-240.2907 105.5418,-234.5388 105.6149,-241.9548 110.2236,-240.2907"/>
<text text-anchor="middle" x="150.0491" y="-245.6" font-family="Helvetica,sans-Serif" font-size="8.00" fill="#000000">reference_genome</text>
</g>
<!-- bwa_index -->
<g id="node9" class="node">
<title>bwa_index</title>
<polygon fill="#fafad2" stroke="#000000" points="153.0491,-215.5 153.0491,-234.5 216.0491,-234.5 216.0491,-215.5 153.0491,-215.5"/>
<text text-anchor="middle" x="184.5491" y="-222.5" font-family="Helvetica,sans-Serif" font-size="10.00" fill="#000000">bwa_index</text>
</g>
<!-- gunzip&#45;&gt;bwa_index -->
<g id="edge4" class="edge">
<title>gunzip&#45;&gt;bwa_index</title>
<path fill="none" stroke="#000000" d="M186.9129,-260.4567C186.5469,-254.9678 186.077,-247.9184 185.6526,-241.5532"/>
<polygon fill="#000000" stroke="#000000" points="188.0947,-241.3511 185.1844,-234.5296 183.2055,-241.6771 188.0947,-241.3511"/>
<text text-anchor="middle" x="220.0491" y="-245.6" font-family="Helvetica,sans-Serif" font-size="8.00" fill="#000000">reference_genome</text>
</g>
<!-- samtools_faidx -->
<g id="node10" class="node">
<title>samtools_faidx</title>
<polygon fill="#fafad2" stroke="#000000" points="220.0491,-215.5 220.0491,-234.5 303.0491,-234.5 303.0491,-215.5 220.0491,-215.5"/>
<text text-anchor="middle" x="261.5491" y="-222.5" font-family="Helvetica,sans-Serif" font-size="10.00" fill="#000000">samtools_faidx</text>
</g>
<!-- gunzip&#45;&gt;samtools_faidx -->
<g id="edge5" class="edge">
<title>gunzip&#45;&gt;samtools_faidx</title>
<path fill="none" stroke="#000000" d="M210.2015,-266.2444C226.7565,-263.0654 247.3519,-258.0635 253.5491,-252 256.3599,-249.2498 258.1942,-245.5622 259.3881,-241.7978"/>
<polygon fill="#000000" stroke="#000000" points="261.8408,-242.0574 260.9832,-234.6907 257.0597,-240.9843 261.8408,-242.0574"/>
<text text-anchor="middle" x="278.0491" y="-245.6" font-family="Helvetica,sans-Serif" font-size="8.00" fill="#000000">sequences</text>
</g>
<!-- cutadapt&#45;&gt;bwa_mem -->
<g id="edge7" class="edge">
<title>cutadapt&#45;&gt;bwa_mem</title>
<path fill="none" stroke="#000000" d="M43.4847,-260.3562C18.8985,-250.1503 -11.2894,-233.0501 4.5491,-215 19.3872,-198.0898 162.8611,-186.8218 233.1395,-182.2715"/>
<polygon fill="#000000" stroke="#000000" points="233.6906,-184.6914 240.5205,-181.8009 233.3788,-179.8013 233.6906,-184.6914"/>
<text text-anchor="middle" x="30.5491" y="-223.1" font-family="Helvetica,sans-Serif" font-size="8.00" fill="#000000">trimmed_fastq</text>
</g>
<!-- bwa_index&#45;&gt;bwa_mem -->
<g id="edge9" class="edge">
<title>bwa_index&#45;&gt;bwa_mem</title>
<path fill="none" stroke="#000000" d="M202.9995,-215.4567C215.6875,-208.8939 232.6886,-200.1003 246.5851,-192.9124"/>
<polygon fill="#000000" stroke="#000000" points="248.0333,-194.9217 253.1252,-189.5296 245.7821,-190.5695 248.0333,-194.9217"/>
<text text-anchor="middle" x="270.0491" y="-200.6" font-family="Helvetica,sans-Serif" font-size="8.00" fill="#000000">reference_genome</text>
</g>
<!-- samtools_sort -->
<g id="node12" class="node">
<title>samtools_sort</title>
<polygon fill="#fafad2" stroke="#000000" points="232.5491,-125.5 232.5491,-144.5 310.5491,-144.5 310.5491,-125.5 232.5491,-125.5"/>
<text text-anchor="middle" x="271.5491" y="-132.5" font-family="Helvetica,sans-Serif" font-size="10.00" fill="#000000">samtools_sort</text>
</g>
<!-- bwa_mem&#45;&gt;samtools_sort -->
<g id="edge10" class="edge">
<title>bwa_mem&#45;&gt;samtools_sort</title>
<path fill="none" stroke="#000000" d="M271.5491,-170.4567C271.5491,-164.9678 271.5491,-157.9184 271.5491,-151.5532"/>
<polygon fill="#000000" stroke="#000000" points="273.9992,-151.5296 271.5491,-144.5296 269.0992,-151.5296 273.9992,-151.5296"/>
<text text-anchor="middle" x="297.5491" y="-155.6" font-family="Helvetica,sans-Serif" font-size="8.00" fill="#000000">bam_unsorted</text>
</g>
<!-- picard_markduplicates -->
<g id="node13" class="node">
<title>picard_markduplicates</title>
<polygon fill="#fafad2" stroke="#000000" points="214.5491,-80.5 214.5491,-99.5 328.5491,-99.5 328.5491,-80.5 214.5491,-80.5"/>
<text text-anchor="middle" x="271.5491" y="-87.5" font-family="Helvetica,sans-Serif" font-size="10.00" fill="#000000">picard_markduplicates</text>
</g>
<!-- samtools_sort&#45;&gt;picard_markduplicates -->
<g id="edge11" class="edge">
<title>samtools_sort&#45;&gt;picard_markduplicates</title>
<path fill="none" stroke="#000000" d="M271.5491,-125.4567C271.5491,-119.9678 271.5491,-112.9184 271.5491,-106.5532"/>
<polygon fill="#000000" stroke="#000000" points="273.9992,-106.5296 271.5491,-99.5296 269.0992,-106.5296 273.9992,-106.5296"/>
<text text-anchor="middle" x="291.0491" y="-110.6" font-family="Helvetica,sans-Serif" font-size="8.00" fill="#000000">alignments</text>
</g>
<!-- picard_markduplicates&#45;&gt;sorted_bam -->
<g id="edge12" class="edge">
<title>picard_markduplicates&#45;&gt;sorted_bam</title>
<path fill="none" stroke="#000000" d="M271.5491,-80.4567C271.5491,-74.9678 271.5491,-67.9184 271.5491,-61.5532"/>
<polygon fill="#000000" stroke="#000000" points="273.9992,-61.5296 271.5491,-54.5296 269.0992,-61.5296 273.9992,-61.5296"/>
</g>
</g>
</svg>
