<?xml version="1.0" encoding="UTF-8" standalone="no"?>
<!DOCTYPE svg PUBLIC "-//W3C//DTD SVG 1.1//EN"
 "http://www.w3.org/Graphics/SVG/1.1/DTD/svg11.dtd">
<!-- Generated by graphviz version 2.40.1 (20161225.0304)
 -->
<!-- Title: workflow Pages: 1 -->
<svg width="919pt" height="611pt"
 viewBox="0.00 0.00 919.00 611.00" xmlns="http://www.w3.org/2000/svg" xmlns:xlink="http://www.w3.org/1999/xlink">
<g id="graph0" class="graph" transform="scale(1 1) rotate(0) translate(4 607)">
<title>workflow</title>
<polygon fill="#ffffff" stroke="transparent" points="-4,4 -4,-607 915,-607 915,4 -4,4"/>
<g id="clust1" class="cluster">
<title>cluster_inputs</title>
<polygon fill="none" stroke="#000000" stroke-dasharray="5,2" points="239,-540 239,-595 871,-595 871,-540 239,-540"/>
<text text-anchor="middle" x="283" y="-583" font-family="Helvetica,sans-Serif" font-size="10.00" fill="#000000">Workflow Inputs</text>
</g>
<!-- #main/Genomescope model parameters -->
<g id="node1" class="node">
<title>#main/Genomescope model parameters</title>
<polygon fill="#94ddf4" stroke="#000000" points="247.5,-548.5 247.5,-567.5 408.5,-567.5 408.5,-548.5 247.5,-548.5"/>
<text text-anchor="middle" x="328" y="-555.5" font-family="Helvetica,sans-Serif" font-size="10.00" fill="#000000">Genomescope model parameters</text>
</g>
<!-- #main/6_Compute -->
<g id="node20" class="node">
<title>#main/6_Compute</title>
<polygon fill="#fafad2" stroke="#000000" points="294.5,-495.5 294.5,-514.5 361.5,-514.5 361.5,-495.5 294.5,-495.5"/>
<text text-anchor="middle" x="328" y="-502.5" font-family="Helvetica,sans-Serif" font-size="10.00" fill="#000000">6_Compute</text>
</g>
<!-- #main/Genomescope model parameters&#45;&gt;#main/6_Compute -->
<g id="edge30" class="edge">
<title>#main/Genomescope model parameters&#45;&gt;#main/6_Compute</title>
<path fill="none" stroke="#000000" d="M328,-548.279C328,-540.8827 328,-530.5239 328,-521.7951"/>
<polygon fill="#000000" stroke="#000000" points="330.4501,-521.6594 328,-514.6594 325.5501,-521.6594 330.4501,-521.6594"/>
<text text-anchor="middle" x="337" y="-525.6" font-family="Helvetica,sans-Serif" font-size="8.00" fill="#000000">input</text>
</g>
<!-- #main/Hifiasm Alternate assembly -->
<g id="node2" class="node">
<title>#main/Hifiasm Alternate assembly</title>
<polygon fill="#94ddf4" stroke="#000000" points="725.5,-548.5 725.5,-567.5 862.5,-567.5 862.5,-548.5 725.5,-548.5"/>
<text text-anchor="middle" x="794" y="-555.5" font-family="Helvetica,sans-Serif" font-size="10.00" fill="#000000">Hifiasm Alternate assembly</text>
</g>
<!-- #main/16_Concatenate datasets -->
<g id="node11" class="node">
<title>#main/16_Concatenate datasets</title>
<polygon fill="#fafad2" stroke="#000000" points="469,-180.5 469,-199.5 597,-199.5 597,-180.5 469,-180.5"/>
<text text-anchor="middle" x="533" y="-187.5" font-family="Helvetica,sans-Serif" font-size="10.00" fill="#000000">16_Concatenate datasets</text>
</g>
<!-- #main/Hifiasm Alternate assembly&#45;&gt;#main/16_Concatenate datasets -->
<g id="edge13" class="edge">
<title>#main/Hifiasm Alternate assembly&#45;&gt;#main/16_Concatenate datasets</title>
<path fill="none" stroke="#000000" d="M815.8747,-548.3385C831.949,-539.5881 851,-524.9988 851,-505 851,-505 851,-505 851,-235 851,-210.2741 698.3309,-198.2086 604.5574,-193.1297"/>
<polygon fill="#000000" stroke="#000000" points="604.4722,-190.6718 597.352,-192.7469 604.2122,-195.5649 604.4722,-190.6718"/>
<text text-anchor="middle" x="881" y="-368.1" font-family="Helvetica,sans-Serif" font-size="8.00" fill="#000000">queries_0|input2</text>
</g>
<!-- #main/Hifiasm Primary assembly -->
<g id="node3" class="node">
<title>#main/Hifiasm Primary assembly</title>
<polygon fill="#94ddf4" stroke="#000000" points="589,-548.5 589,-567.5 721,-567.5 721,-548.5 589,-548.5"/>
<text text-anchor="middle" x="655" y="-555.5" font-family="Helvetica,sans-Serif" font-size="10.00" fill="#000000">Hifiasm Primary assembly</text>
</g>
<!-- #main/15_Purge overlaps -->
<g id="node10" class="node">
<title>#main/15_Purge overlaps</title>
<polygon fill="#fafad2" stroke="#000000" points="485,-225.5 485,-244.5 583,-244.5 583,-225.5 485,-225.5"/>
<text text-anchor="middle" x="534" y="-232.5" font-family="Helvetica,sans-Serif" font-size="10.00" fill="#000000">15_Purge overlaps</text>
</g>
<!-- #main/Hifiasm Primary assembly&#45;&gt;#main/15_Purge overlaps -->
<g id="edge11" class="edge">
<title>#main/Hifiasm Primary assembly&#45;&gt;#main/15_Purge overlaps</title>
<path fill="none" stroke="#000000" d="M705.3023,-548.4251C727.6515,-540.9647 749,-527.8564 749,-505 749,-505 749,-505 749,-280 749,-263.7743 653.9764,-249.2339 590.2742,-241.3093"/>
<polygon fill="#000000" stroke="#000000" points="590.3023,-238.8444 583.0559,-240.4228 589.705,-243.7079 590.3023,-238.8444"/>
<text text-anchor="middle" x="796" y="-390.6" font-family="Helvetica,sans-Serif" font-size="8.00" fill="#000000">function_select|fasta_input</text>
</g>
<!-- #main/4_Map with minimap2 -->
<g id="node18" class="node">
<title>#main/4_Map with minimap2</title>
<polygon fill="#fafad2" stroke="#000000" points="489,-495.5 489,-514.5 601,-514.5 601,-495.5 489,-495.5"/>
<text text-anchor="middle" x="545" y="-502.5" font-family="Helvetica,sans-Serif" font-size="10.00" fill="#000000">4_Map with minimap2</text>
</g>
<!-- #main/Hifiasm Primary assembly&#45;&gt;#main/4_Map with minimap2 -->
<g id="edge28" class="edge">
<title>#main/Hifiasm Primary assembly&#45;&gt;#main/4_Map with minimap2</title>
<path fill="none" stroke="#000000" d="M617.2643,-548.4823C594.326,-542.4773 568.5869,-535.2604 564,-532 559.7939,-529.0103 556.1963,-524.784 553.2994,-520.5607"/>
<polygon fill="#000000" stroke="#000000" points="555.3307,-519.1871 549.5672,-514.5196 551.162,-521.7625 555.3307,-519.1871"/>
<text text-anchor="middle" x="609" y="-525.6" font-family="Helvetica,sans-Serif" font-size="8.00" fill="#000000">reference_source|ref_file</text>
</g>
<!-- #main/5_Purge overlaps -->
<g id="node19" class="node">
<title>#main/5_Purge overlaps</title>
<polygon fill="#fafad2" stroke="#000000" points="610,-495.5 610,-514.5 702,-514.5 702,-495.5 610,-495.5"/>
<text text-anchor="middle" x="656" y="-502.5" font-family="Helvetica,sans-Serif" font-size="10.00" fill="#000000">5_Purge overlaps</text>
</g>
<!-- #main/Hifiasm Primary assembly&#45;&gt;#main/5_Purge overlaps -->
<g id="edge29" class="edge">
<title>#main/Hifiasm Primary assembly&#45;&gt;#main/5_Purge overlaps</title>
<path fill="none" stroke="#000000" d="M655.1834,-548.279C655.323,-540.8827 655.5184,-530.5239 655.6831,-521.7951"/>
<polygon fill="#000000" stroke="#000000" points="658.1352,-521.7044 655.8177,-514.6594 653.236,-521.6119 658.1352,-521.7044"/>
<text text-anchor="middle" x="691.5" y="-525.6" font-family="Helvetica,sans-Serif" font-size="8.00" fill="#000000">function_select|input</text>
</g>
<!-- #main/Pacbio Reads Collection &#45; Trimmed -->
<g id="node4" class="node">
<title>#main/Pacbio Reads Collection &#45; Trimmed</title>
<polygon fill="#94ddf4" stroke="#000000" points="413,-548.5 413,-567.5 585,-567.5 585,-548.5 413,-548.5"/>
<text text-anchor="middle" x="499" y="-555.5" font-family="Helvetica,sans-Serif" font-size="10.00" fill="#000000">Pacbio Reads Collection &#45; Trimmed</text>
</g>
<!-- #main/17_Map with minimap2 -->
<g id="node12" class="node">
<title>#main/17_Map with minimap2</title>
<polygon fill="#fafad2" stroke="#000000" points="251.5,-135.5 251.5,-154.5 368.5,-154.5 368.5,-135.5 251.5,-135.5"/>
<text text-anchor="middle" x="310" y="-142.5" font-family="Helvetica,sans-Serif" font-size="10.00" fill="#000000">17_Map with minimap2</text>
</g>
<!-- #main/Pacbio Reads Collection &#45; Trimmed&#45;&gt;#main/17_Map with minimap2 -->
<g id="edge14" class="edge">
<title>#main/Pacbio Reads Collection &#45; Trimmed&#45;&gt;#main/17_Map with minimap2</title>
<path fill="none" stroke="#000000" d="M456.1364,-548.4084C441.2724,-545.354 424.4599,-542.2004 409,-540 363.8446,-533.573 0,-550.6105 0,-505 0,-505 0,-505 0,-190 0,-165.5439 153.0527,-153.2387 244.0729,-148.0831"/>
<polygon fill="#000000" stroke="#000000" points="244.4737,-150.5147 251.3269,-147.6799 244.2017,-145.6223 244.4737,-150.5147"/>
<text text-anchor="middle" x="42.5" y="-345.6" font-family="Helvetica,sans-Serif" font-size="8.00" fill="#000000">fastq_input|fastq_input1</text>
</g>
<!-- #main/Pacbio Reads Collection &#45; Trimmed&#45;&gt;#main/4_Map with minimap2 -->
<g id="edge27" class="edge">
<title>#main/Pacbio Reads Collection &#45; Trimmed&#45;&gt;#main/4_Map with minimap2</title>
<path fill="none" stroke="#000000" d="M481.8222,-548.367C471.6737,-541.4319 462.05,-531.7883 469,-523 471.2545,-520.1492 475.8976,-517.703 481.8301,-515.6169"/>
<polygon fill="#000000" stroke="#000000" points="482.7538,-517.896 488.7214,-513.4927 481.3103,-513.2135 482.7538,-517.896"/>
<text text-anchor="middle" x="511.5" y="-525.6" font-family="Helvetica,sans-Serif" font-size="8.00" fill="#000000">fastq_input|fastq_input1</text>
</g>
<!-- #main/10_Cut -->
<g id="node5" class="node">
<title>#main/10_Cut</title>
<polygon fill="#fafad2" stroke="#000000" points="274,-405.5 274,-424.5 322,-424.5 322,-405.5 274,-405.5"/>
<text text-anchor="middle" x="298" y="-412.5" font-family="Helvetica,sans-Serif" font-size="10.00" fill="#000000">10_Cut</text>
</g>
<!-- #main/12_Parse parameter value -->
<g id="node7" class="node">
<title>#main/12_Parse parameter value</title>
<polygon fill="#fafad2" stroke="#000000" points="158.5,-360.5 158.5,-379.5 289.5,-379.5 289.5,-360.5 158.5,-360.5"/>
<text text-anchor="middle" x="224" y="-367.5" font-family="Helvetica,sans-Serif" font-size="10.00" fill="#000000">12_Parse parameter value</text>
</g>
<!-- #main/10_Cut&#45;&gt;#main/12_Parse parameter value -->
<g id="edge3" class="edge">
<title>#main/10_Cut&#45;&gt;#main/12_Parse parameter value</title>
<path fill="none" stroke="#000000" d="M282.3065,-405.4567C271.7106,-399.0132 257.5784,-390.4193 245.881,-383.306"/>
<polygon fill="#000000" stroke="#000000" points="246.9248,-381.0734 239.6709,-379.5296 244.3789,-385.26 246.9248,-381.0734"/>
<text text-anchor="middle" x="279" y="-390.6" font-family="Helvetica,sans-Serif" font-size="8.00" fill="#000000">input1</text>
</g>
<!-- #main/11_Parse parameter value -->
<g id="node6" class="node">
<title>#main/11_Parse parameter value</title>
<polygon fill="#fafad2" stroke="#000000" points="293.5,-360.5 293.5,-379.5 424.5,-379.5 424.5,-360.5 293.5,-360.5"/>
<text text-anchor="middle" x="359" y="-367.5" font-family="Helvetica,sans-Serif" font-size="10.00" fill="#000000">11_Parse parameter value</text>
</g>
<!-- #main/13_Purge overlaps -->
<g id="node8" class="node">
<title>#main/13_Purge overlaps</title>
<polygon fill="#fafad2" stroke="#000000" points="388,-315.5 388,-334.5 486,-334.5 486,-315.5 388,-315.5"/>
<text text-anchor="middle" x="437" y="-322.5" font-family="Helvetica,sans-Serif" font-size="10.00" fill="#000000">13_Purge overlaps</text>
</g>
<!-- #main/11_Parse parameter value&#45;&gt;#main/13_Purge overlaps -->
<g id="edge6" class="edge">
<title>#main/11_Parse parameter value&#45;&gt;#main/13_Purge overlaps</title>
<path fill="none" stroke="#000000" d="M365.9354,-360.3635C370.5006,-354.6253 376.9263,-347.5903 384,-343 387.2097,-340.9171 390.6859,-339.0492 394.2706,-337.3793"/>
<polygon fill="#000000" stroke="#000000" points="395.3338,-339.5893 400.8063,-334.5837 393.4068,-335.0841 395.3338,-339.5893"/>
<text text-anchor="middle" x="462.5" y="-345.6" font-family="Helvetica,sans-Serif" font-size="8.00" fill="#000000">function_select|section_calcuts|upper_depth</text>
</g>
<!-- #main/19_Purge overlaps -->
<g id="node14" class="node">
<title>#main/19_Purge overlaps</title>
<polygon fill="#fafad2" stroke="#000000" points="199,-90.5 199,-109.5 297,-109.5 297,-90.5 199,-90.5"/>
<text text-anchor="middle" x="248" y="-97.5" font-family="Helvetica,sans-Serif" font-size="10.00" fill="#000000">19_Purge overlaps</text>
</g>
<!-- #main/11_Parse parameter value&#45;&gt;#main/19_Purge overlaps -->
<g id="edge19" class="edge">
<title>#main/11_Parse parameter value&#45;&gt;#main/19_Purge overlaps</title>
<path fill="none" stroke="#000000" d="M293.4268,-360.593C291.9375,-360.3921 290.4603,-360.1942 289,-360 274.5735,-358.0819 233.6418,-362.9013 224,-352 221.35,-349.0038 223.6961,-346.9884 224,-343 228.4573,-284.4924 244,-271.1772 244,-212.5 244,-212.5 244,-212.5 244,-145 244,-135.6322 244.8707,-125.2103 245.7996,-116.757"/>
<polygon fill="#000000" stroke="#000000" points="248.2528,-116.8741 246.6458,-109.634 243.3871,-116.296 248.2528,-116.8741"/>
<text text-anchor="middle" x="322.5" y="-233.1" font-family="Helvetica,sans-Serif" font-size="8.00" fill="#000000">function_select|section_calcuts|upper_depth</text>
</g>
<!-- #main/12_Parse parameter value&#45;&gt;#main/13_Purge overlaps -->
<g id="edge5" class="edge">
<title>#main/12_Parse parameter value&#45;&gt;#main/13_Purge overlaps</title>
<path fill="none" stroke="#000000" d="M223.1015,-360.3737C223.1215,-354.4896 224.2697,-347.2932 229,-343 240.0516,-332.9694 322.9818,-328.3949 380.7252,-326.4079"/>
<polygon fill="#000000" stroke="#000000" points="381.0736,-328.8477 387.9884,-326.1669 380.911,-323.9504 381.0736,-328.8477"/>
<text text-anchor="middle" x="300.5" y="-345.6" font-family="Helvetica,sans-Serif" font-size="8.00" fill="#000000">function_select|section_calcuts|transition</text>
</g>
<!-- #main/12_Parse parameter value&#45;&gt;#main/19_Purge overlaps -->
<g id="edge18" class="edge">
<title>#main/12_Parse parameter value&#45;&gt;#main/19_Purge overlaps</title>
<path fill="none" stroke="#000000" d="M165.0148,-360.4667C130.244,-353.1163 93,-341.4124 93,-325 93,-325 93,-325 93,-145 93,-123.7217 147.5537,-111.8524 191.9319,-105.7172"/>
<polygon fill="#000000" stroke="#000000" points="192.3419,-108.1343 198.957,-104.7812 191.6948,-103.2773 192.3419,-108.1343"/>
<text text-anchor="middle" x="164.5" y="-233.1" font-family="Helvetica,sans-Serif" font-size="8.00" fill="#000000">function_select|section_calcuts|transition</text>
</g>
<!-- #main/14_Purge overlaps -->
<g id="node9" class="node">
<title>#main/14_Purge overlaps</title>
<polygon fill="#fafad2" stroke="#000000" points="485,-270.5 485,-289.5 583,-289.5 583,-270.5 485,-270.5"/>
<text text-anchor="middle" x="534" y="-277.5" font-family="Helvetica,sans-Serif" font-size="10.00" fill="#000000">14_Purge overlaps</text>
</g>
<!-- #main/13_Purge overlaps&#45;&gt;#main/14_Purge overlaps -->
<g id="edge7" class="edge">
<title>#main/13_Purge overlaps&#45;&gt;#main/14_Purge overlaps</title>
<path fill="none" stroke="#000000" d="M435.8625,-315.3136C435.7473,-309.5567 436.6756,-302.5194 441,-298 446.571,-292.1777 461.5055,-288.1752 477.818,-285.4526"/>
<polygon fill="#000000" stroke="#000000" points="478.3267,-287.8532 484.8702,-284.3625 477.5781,-283.0107 478.3267,-287.8532"/>
<text text-anchor="middle" x="485" y="-300.6" font-family="Helvetica,sans-Serif" font-size="8.00" fill="#000000">function_select|coverage</text>
</g>
<!-- #main/13_Purge overlaps&#45;&gt;#main/14_Purge overlaps -->
<g id="edge8" class="edge">
<title>#main/13_Purge overlaps&#45;&gt;#main/14_Purge overlaps</title>
<path fill="none" stroke="#000000" d="M486.03,-319.5917C503.2095,-316.7727 519.7784,-312.694 526,-307 529.0205,-304.2357 530.9209,-300.3903 532.1108,-296.4671"/>
<polygon fill="#000000" stroke="#000000" points="534.5248,-296.8931 533.5738,-289.538 529.7305,-295.8808 534.5248,-296.8931"/>
<text text-anchor="middle" x="570.5" y="-300.6" font-family="Helvetica,sans-Serif" font-size="8.00" fill="#000000">function_select|cutoffs</text>
</g>
<!-- #main/14_Purge overlaps&#45;&gt;#main/15_Purge overlaps -->
<g id="edge10" class="edge">
<title>#main/14_Purge overlaps&#45;&gt;#main/15_Purge overlaps</title>
<path fill="none" stroke="#000000" d="M534,-270.4567C534,-264.9678 534,-257.9184 534,-251.5532"/>
<polygon fill="#000000" stroke="#000000" points="536.4501,-251.5296 534,-244.5296 531.5501,-251.5296 536.4501,-251.5296"/>
<text text-anchor="middle" x="579.5" y="-255.6" font-family="Helvetica,sans-Serif" font-size="8.00" fill="#000000">function_select|bed_input</text>
</g>
<!-- #main/15_Purge overlaps&#45;&gt;#main/16_Concatenate datasets -->
<g id="edge12" class="edge">
<title>#main/15_Purge overlaps&#45;&gt;#main/16_Concatenate datasets</title>
<path fill="none" stroke="#000000" d="M533.7879,-225.4567C533.666,-219.9678 533.5093,-212.9184 533.3678,-206.5532"/>
<polygon fill="#000000" stroke="#000000" points="535.8168,-206.4734 533.2118,-199.5296 530.918,-206.5823 535.8168,-206.4734"/>
<text text-anchor="middle" x="544" y="-210.6" font-family="Helvetica,sans-Serif" font-size="8.00" fill="#000000">input1</text>
</g>
<!-- #main/16_Concatenate datasets&#45;&gt;#main/17_Map with minimap2 -->
<g id="edge15" class="edge">
<title>#main/16_Concatenate datasets&#45;&gt;#main/17_Map with minimap2</title>
<path fill="none" stroke="#000000" d="M468.5989,-186.2272C427.0994,-183.2561 377.2453,-178.5226 357,-172 347.2929,-168.8726 337.3815,-163.5543 329.1783,-158.4605"/>
<polygon fill="#000000" stroke="#000000" points="330.4804,-156.3849 323.27,-154.649 327.8241,-160.5025 330.4804,-156.3849"/>
<text text-anchor="middle" x="402" y="-165.6" font-family="Helvetica,sans-Serif" font-size="8.00" fill="#000000">reference_source|ref_file</text>
</g>
<!-- #main/18_Purge overlaps -->
<g id="node13" class="node">
<title>#main/18_Purge overlaps</title>
<polygon fill="#fafad2" stroke="#000000" points="391,-135.5 391,-154.5 489,-154.5 489,-135.5 391,-135.5"/>
<text text-anchor="middle" x="440" y="-142.5" font-family="Helvetica,sans-Serif" font-size="10.00" fill="#000000">18_Purge overlaps</text>
</g>
<!-- #main/16_Concatenate datasets&#45;&gt;#main/18_Purge overlaps -->
<g id="edge16" class="edge">
<title>#main/16_Concatenate datasets&#45;&gt;#main/18_Purge overlaps</title>
<path fill="none" stroke="#000000" d="M478.9594,-180.4901C468.9266,-177.9994 460.2622,-175.1256 456,-172 452.1361,-169.1665 449.0388,-165.0938 446.6374,-160.9675"/>
<polygon fill="#000000" stroke="#000000" points="448.769,-159.7535 443.4263,-154.6097 444.3952,-161.9625 448.769,-159.7535"/>
<text text-anchor="middle" x="492.5" y="-165.6" font-family="Helvetica,sans-Serif" font-size="8.00" fill="#000000">function_select|input</text>
</g>
<!-- #main/22_Purge overlaps -->
<g id="node17" class="node">
<title>#main/22_Purge overlaps</title>
<polygon fill="#fafad2" stroke="#000000" points="433,-.5 433,-19.5 531,-19.5 531,-.5 433,-.5"/>
<text text-anchor="middle" x="482" y="-7.5" font-family="Helvetica,sans-Serif" font-size="10.00" fill="#000000">22_Purge overlaps</text>
</g>
<!-- #main/16_Concatenate datasets&#45;&gt;#main/22_Purge overlaps -->
<g id="edge26" class="edge">
<title>#main/16_Concatenate datasets&#45;&gt;#main/22_Purge overlaps</title>
<path fill="none" stroke="#000000" d="M533,-180.344C533,-171.2317 533,-157.1875 533,-145 533,-145 533,-145 533,-55 533,-42.6033 534.1563,-37.3356 526,-28 524.6255,-26.4267 523.0926,-24.9886 521.4461,-23.6743"/>
<polygon fill="#000000" stroke="#000000" points="522.6529,-21.5336 515.4755,-19.666 519.9218,-25.6019 522.6529,-21.5336"/>
<text text-anchor="middle" x="580" y="-98.1" font-family="Helvetica,sans-Serif" font-size="8.00" fill="#000000">function_select|fasta_input</text>
</g>
<!-- #main/17_Map with minimap2&#45;&gt;#main/19_Purge overlaps -->
<g id="edge17" class="edge">
<title>#main/17_Map with minimap2&#45;&gt;#main/19_Purge overlaps</title>
<path fill="none" stroke="#000000" d="M282.8891,-135.3908C278.0182,-133.0409 273.1705,-130.2482 269,-127 264.9079,-123.8128 261.1636,-119.6575 258.0061,-115.5656"/>
<polygon fill="#000000" stroke="#000000" points="259.897,-113.9983 253.8277,-109.7361 255.9144,-116.8529 259.897,-113.9983"/>
<text text-anchor="middle" x="305.5" y="-120.6" font-family="Helvetica,sans-Serif" font-size="8.00" fill="#000000">function_select|input</text>
</g>
<!-- #main/20_Map with minimap2 -->
<g id="node15" class="node">
<title>#main/20_Map with minimap2</title>
<polygon fill="#fafad2" stroke="#000000" points="374.5,-90.5 374.5,-109.5 491.5,-109.5 491.5,-90.5 374.5,-90.5"/>
<text text-anchor="middle" x="433" y="-97.5" font-family="Helvetica,sans-Serif" font-size="10.00" fill="#000000">20_Map with minimap2</text>
</g>
<!-- #main/18_Purge overlaps&#45;&gt;#main/20_Map with minimap2 -->
<g id="edge20" class="edge">
<title>#main/18_Purge overlaps&#45;&gt;#main/20_Map with minimap2</title>
<path fill="none" stroke="#000000" d="M438.5155,-135.4567C437.6617,-129.9678 436.5651,-122.9184 435.5749,-116.5532"/>
<polygon fill="#000000" stroke="#000000" points="437.9793,-116.0698 434.4824,-109.5296 433.1375,-116.823 437.9793,-116.0698"/>
<text text-anchor="middle" x="479.5" y="-120.6" font-family="Helvetica,sans-Serif" font-size="8.00" fill="#000000">fastq_input|fastq_input1</text>
</g>
<!-- #main/18_Purge overlaps&#45;&gt;#main/20_Map with minimap2 -->
<g id="edge21" class="edge">
<title>#main/18_Purge overlaps&#45;&gt;#main/20_Map with minimap2</title>
<path fill="none" stroke="#000000" d="M390.8133,-137.1445C368.0727,-133.2744 345.6718,-129.0144 344,-127 341.4455,-123.922 341.4674,-121.0961 344,-118 347.6782,-113.5034 356.6155,-110.104 367.4788,-107.5427"/>
<polygon fill="#000000" stroke="#000000" points="368.1266,-109.9097 374.4619,-106.0539 367.1049,-105.1174 368.1266,-109.9097"/>
<text text-anchor="middle" x="389" y="-120.6" font-family="Helvetica,sans-Serif" font-size="8.00" fill="#000000">reference_source|ref_file</text>
</g>
<!-- #main/21_Purge overlaps -->
<g id="node16" class="node">
<title>#main/21_Purge overlaps</title>
<polygon fill="#fafad2" stroke="#000000" points="336,-45.5 336,-64.5 434,-64.5 434,-45.5 336,-45.5"/>
<text text-anchor="middle" x="385" y="-52.5" font-family="Helvetica,sans-Serif" font-size="10.00" fill="#000000">21_Purge overlaps</text>
</g>
<!-- #main/19_Purge overlaps&#45;&gt;#main/21_Purge overlaps -->
<g id="edge22" class="edge">
<title>#main/19_Purge overlaps&#45;&gt;#main/21_Purge overlaps</title>
<path fill="none" stroke="#000000" d="M297.0619,-91.4897C310.1804,-88.657 322.2976,-85.3621 328,-82 332.6102,-79.2819 331.5772,-76.0135 336,-73 338.9666,-70.9787 342.1882,-69.152 345.5149,-67.5081"/>
<polygon fill="#000000" stroke="#000000" points="346.6374,-69.6893 352.0024,-64.5688 344.6152,-65.226 346.6374,-69.6893"/>
<text text-anchor="middle" x="380" y="-75.6" font-family="Helvetica,sans-Serif" font-size="8.00" fill="#000000">function_select|coverage</text>
</g>
<!-- #main/19_Purge overlaps&#45;&gt;#main/21_Purge overlaps -->
<g id="edge23" class="edge">
<title>#main/19_Purge overlaps&#45;&gt;#main/21_Purge overlaps</title>
<path fill="none" stroke="#000000" d="M245.128,-90.4066C244.0472,-84.6846 243.9197,-77.6515 248,-73 253.5059,-66.7233 293.5402,-61.9501 328.9199,-58.9013"/>
<polygon fill="#000000" stroke="#000000" points="329.1512,-61.3406 335.9222,-58.3147 328.742,-56.4577 329.1512,-61.3406"/>
<text text-anchor="middle" x="287.5" y="-75.6" font-family="Helvetica,sans-Serif" font-size="8.00" fill="#000000">function_select|cutoffs</text>
</g>
<!-- #main/20_Map with minimap2&#45;&gt;#main/21_Purge overlaps -->
<g id="edge24" class="edge">
<title>#main/20_Map with minimap2&#45;&gt;#main/21_Purge overlaps</title>
<path fill="none" stroke="#000000" d="M432.1324,-90.295C431.1789,-84.6744 429.1812,-77.7866 425,-73 423.6379,-71.4408 422.114,-70.0097 420.478,-68.6971"/>
<polygon fill="#000000" stroke="#000000" points="421.7238,-66.5816 414.556,-64.6772 418.9717,-70.6358 421.7238,-66.5816"/>
<text text-anchor="middle" x="465.5" y="-75.6" font-family="Helvetica,sans-Serif" font-size="8.00" fill="#000000">function_select|input</text>
</g>
<!-- #main/21_Purge overlaps&#45;&gt;#main/22_Purge overlaps -->
<g id="edge25" class="edge">
<title>#main/21_Purge overlaps&#45;&gt;#main/22_Purge overlaps</title>
<path fill="none" stroke="#000000" d="M402.9704,-45.3775C413.1476,-40.0465 426.1716,-33.4211 438,-28 442.136,-26.1044 446.5309,-24.1906 450.8816,-22.3543"/>
<polygon fill="#000000" stroke="#000000" points="452.1145,-24.4951 457.6381,-19.5461 450.2339,-19.9703 452.1145,-24.4951"/>
<text text-anchor="middle" x="483.5" y="-30.6" font-family="Helvetica,sans-Serif" font-size="8.00" fill="#000000">function_select|bed_input</text>
</g>
<!-- #main/4_Map with minimap2&#45;&gt;#main/13_Purge overlaps -->
<g id="edge4" class="edge">
<title>#main/4_Map with minimap2&#45;&gt;#main/13_Purge overlaps</title>
<path fill="none" stroke="#000000" d="M545,-495.344C545,-486.2317 545,-472.1875 545,-460 545,-460 545,-460 545,-370 545,-357.6033 547.098,-351.4205 538,-343 531.0731,-336.5889 512.5706,-332.4011 493.2643,-329.6945"/>
<polygon fill="#000000" stroke="#000000" points="493.3935,-327.2406 486.1351,-328.7629 492.7586,-332.0993 493.3935,-327.2406"/>
<text text-anchor="middle" x="581.5" y="-413.1" font-family="Helvetica,sans-Serif" font-size="8.00" fill="#000000">function_select|input</text>
</g>
<!-- #main/7_Map with minimap2 -->
<g id="node21" class="node">
<title>#main/7_Map with minimap2</title>
<polygon fill="#fafad2" stroke="#000000" points="569,-450.5 569,-469.5 681,-469.5 681,-450.5 569,-450.5"/>
<text text-anchor="middle" x="625" y="-457.5" font-family="Helvetica,sans-Serif" font-size="10.00" fill="#000000">7_Map with minimap2</text>
</g>
<!-- #main/5_Purge overlaps&#45;&gt;#main/7_Map with minimap2 -->
<g id="edge31" class="edge">
<title>#main/5_Purge overlaps&#45;&gt;#main/7_Map with minimap2</title>
<path fill="none" stroke="#000000" d="M654.64,-495.3805C653.52,-489.924 651.52,-483.174 648,-478 647.2299,-476.8681 646.3664,-475.7747 645.4378,-474.7243"/>
<polygon fill="#000000" stroke="#000000" points="647.1229,-472.9457 640.3828,-469.8514 643.7221,-476.4735 647.1229,-472.9457"/>
<text text-anchor="middle" x="694.5" y="-480.6" font-family="Helvetica,sans-Serif" font-size="8.00" fill="#000000">fastq_input|fastq_input1</text>
</g>
<!-- #main/5_Purge overlaps&#45;&gt;#main/7_Map with minimap2 -->
<g id="edge32" class="edge">
<title>#main/5_Purge overlaps&#45;&gt;#main/7_Map with minimap2</title>
<path fill="none" stroke="#000000" d="M609.7584,-496.2349C607.4737,-495.8145 605.2113,-495.4009 603,-495 592.7907,-493.1492 563.6786,-494.9404 557,-487 550.8104,-479.641 554.2279,-474.2733 562.112,-470.3627"/>
<polygon fill="#000000" stroke="#000000" points="563.3305,-472.5145 568.9264,-467.6473 561.5167,-467.9626 563.3305,-472.5145"/>
<text text-anchor="middle" x="602" y="-480.6" font-family="Helvetica,sans-Serif" font-size="8.00" fill="#000000">reference_source|ref_file</text>
</g>
<!-- #main/8_Compute -->
<g id="node22" class="node">
<title>#main/8_Compute</title>
<polygon fill="#fafad2" stroke="#000000" points="294.5,-450.5 294.5,-469.5 361.5,-469.5 361.5,-450.5 294.5,-450.5"/>
<text text-anchor="middle" x="328" y="-457.5" font-family="Helvetica,sans-Serif" font-size="10.00" fill="#000000">8_Compute</text>
</g>
<!-- #main/6_Compute&#45;&gt;#main/8_Compute -->
<g id="edge33" class="edge">
<title>#main/6_Compute&#45;&gt;#main/8_Compute</title>
<path fill="none" stroke="#000000" d="M328,-495.4567C328,-489.9678 328,-482.9184 328,-476.5532"/>
<polygon fill="#000000" stroke="#000000" points="330.4501,-476.5296 328,-469.5296 325.5501,-476.5296 330.4501,-476.5296"/>
<text text-anchor="middle" x="337" y="-480.6" font-family="Helvetica,sans-Serif" font-size="8.00" fill="#000000">input</text>
</g>
<!-- #main/7_Map with minimap2&#45;&gt;#main/14_Purge overlaps -->
<g id="edge9" class="edge">
<title>#main/7_Map with minimap2&#45;&gt;#main/14_Purge overlaps</title>
<path fill="none" stroke="#000000" d="M625,-450.344C625,-441.2317 625,-427.1875 625,-415 625,-415 625,-415 625,-325 625,-311.4827 621.6699,-306.2988 611,-298 607.1196,-294.9819 599.3841,-292.2437 590.2541,-289.865"/>
<polygon fill="#000000" stroke="#000000" points="590.7755,-287.4705 583.3948,-288.1977 589.618,-292.2319 590.7755,-287.4705"/>
<text text-anchor="middle" x="661.5" y="-368.1" font-family="Helvetica,sans-Serif" font-size="8.00" fill="#000000">function_select|input</text>
</g>
<!-- #main/8_Compute&#45;&gt;#main/10_Cut -->
<g id="edge1" class="edge">
<title>#main/8_Compute&#45;&gt;#main/10_Cut</title>
<path fill="none" stroke="#000000" d="M321.6378,-450.4567C317.8194,-444.7292 312.8683,-437.3025 308.4846,-430.727"/>
<polygon fill="#000000" stroke="#000000" points="310.2745,-428.9949 304.3531,-424.5296 306.1975,-431.713 310.2745,-428.9949"/>
<text text-anchor="middle" x="325" y="-435.6" font-family="Helvetica,sans-Serif" font-size="8.00" fill="#000000">input</text>
</g>
<!-- #main/9_Cut -->
<g id="node23" class="node">
<title>#main/9_Cut</title>
<polygon fill="#fafad2" stroke="#000000" points="331.5,-405.5 331.5,-424.5 374.5,-424.5 374.5,-405.5 331.5,-405.5"/>
<text text-anchor="middle" x="353" y="-412.5" font-family="Helvetica,sans-Serif" font-size="10.00" fill="#000000">9_Cut</text>
</g>
<!-- #main/8_Compute&#45;&gt;#main/9_Cut -->
<g id="edge34" class="edge">
<title>#main/8_Compute&#45;&gt;#main/9_Cut</title>
<path fill="none" stroke="#000000" d="M333.3019,-450.4567C336.4838,-444.7292 340.6097,-437.3025 344.2628,-430.727"/>
<polygon fill="#000000" stroke="#000000" points="346.4479,-431.8385 347.7058,-424.5296 342.1645,-429.4589 346.4479,-431.8385"/>
<text text-anchor="middle" x="352" y="-435.6" font-family="Helvetica,sans-Serif" font-size="8.00" fill="#000000">input</text>
</g>
<!-- #main/9_Cut&#45;&gt;#main/11_Parse parameter value -->
<g id="edge2" class="edge">
<title>#main/9_Cut&#45;&gt;#main/11_Parse parameter value</title>
<path fill="none" stroke="#000000" d="M354.2724,-405.4567C355.0043,-399.9678 355.9442,-392.9184 356.7929,-386.5532"/>
<polygon fill="#000000" stroke="#000000" points="359.2327,-386.792 357.7294,-379.5296 354.3756,-386.1444 359.2327,-386.792"/>
<text text-anchor="middle" x="367" y="-390.6" font-family="Helvetica,sans-Serif" font-size="8.00" fill="#000000">input1</text>
</g>
</g>
</svg>
