<?xml version="1.0" encoding="UTF-8" standalone="no"?>
<!DOCTYPE svg PUBLIC "-//W3C//DTD SVG 1.1//EN"
 "http://www.w3.org/Graphics/SVG/1.1/DTD/svg11.dtd">
<!-- Generated by graphviz version 2.40.1 (20161225.0304)
 -->
<!-- Title: workflow Pages: 1 -->
<svg width="377pt" height="251pt"
 viewBox="0.00 0.00 377.00 251.00" xmlns="http://www.w3.org/2000/svg" xmlns:xlink="http://www.w3.org/1999/xlink">
<g id="graph0" class="graph" transform="scale(1 1) rotate(0) translate(4 247)">
<title>workflow</title>
<polygon fill="#ffffff" stroke="transparent" points="-4,4 -4,-247 373,-247 373,4 -4,4"/>
<g id="clust1" class="cluster">
<title>cluster_inputs</title>
<polygon fill="none" stroke="#000000" stroke-dasharray="5,2" points="8,-180 8,-235 320,-235 320,-180 8,-180"/>
<text text-anchor="middle" x="52" y="-223" font-family="Helvetica,sans-Serif" font-size="10.00" fill="#000000">Workflow Inputs</text>
</g>
<!-- #main/inputdata_cesm_2_1_3_B1850_f19_g17_tar -->
<g id="node1" class="node">
<title>#main/inputdata_cesm_2_1_3_B1850_f19_g17_tar</title>
<polygon fill="#94ddf4" stroke="#000000" points="16,-188.5 16,-207.5 222,-207.5 222,-188.5 16,-188.5"/>
<text text-anchor="middle" x="119" y="-195.5" font-family="Helvetica,sans-Serif" font-size="10.00" fill="#000000">inputdata_cesm_2_1_3_B1850_f19_g17_tar</text>
</g>
<!-- #main/2_CESM -->
<g id="node3" class="node">
<title>#main/2_CESM</title>
<polygon fill="#fafad2" stroke="#000000" points="166,-135.5 166,-154.5 222,-154.5 222,-135.5 166,-135.5"/>
<text text-anchor="middle" x="194" y="-142.5" font-family="Helvetica,sans-Serif" font-size="10.00" fill="#000000">2_CESM</text>
</g>
<!-- #main/inputdata_cesm_2_1_3_B1850_f19_g17_tar&#45;&gt;#main/2_CESM -->
<g id="edge2" class="edge">
<title>#main/inputdata_cesm_2_1_3_B1850_f19_g17_tar&#45;&gt;#main/2_CESM</title>
<path fill="none" stroke="#000000" d="M126.5488,-188.3855C132.946,-180.7303 142.7005,-170.1494 153,-163 155.73,-161.1049 158.6916,-159.3408 161.7313,-157.7168"/>
<polygon fill="#000000" stroke="#000000" points="162.855,-159.8943 168.0312,-154.5829 160.6726,-155.5071 162.855,-159.8943"/>
<text text-anchor="middle" x="189.5" y="-165.6" font-family="Helvetica,sans-Serif" font-size="8.00" fill="#000000">input_type|inputdata</text>
</g>
<!-- #main/user_nl_cam_rs -->
<g id="node2" class="node">
<title>#main/user_nl_cam_rs</title>
<polygon fill="#94ddf4" stroke="#000000" points="226,-188.5 226,-207.5 312,-207.5 312,-188.5 226,-188.5"/>
<text text-anchor="middle" x="269" y="-195.5" font-family="Helvetica,sans-Serif" font-size="10.00" fill="#000000">user_nl_cam_rs</text>
</g>
<!-- #main/user_nl_cam_rs&#45;&gt;#main/2_CESM -->
<g id="edge1" class="edge">
<title>#main/user_nl_cam_rs&#45;&gt;#main/2_CESM</title>
<path fill="none" stroke="#000000" d="M258.7483,-188.4824C250.5095,-181.0792 238.4604,-170.7908 227,-163 224.5713,-161.349 221.9768,-159.7222 219.3498,-158.1622"/>
<polygon fill="#000000" stroke="#000000" points="220.5175,-156.0077 213.2239,-154.6633 218.0872,-160.2625 220.5175,-156.0077"/>
<text text-anchor="middle" x="304" y="-165.6" font-family="Helvetica,sans-Serif" font-size="8.00" fill="#000000">adv_atm|user_nl_atm_customization</text>
</g>
<!-- #main/3_Extract dataset -->
<g id="node4" class="node">
<title>#main/3_Extract dataset</title>
<polygon fill="#fafad2" stroke="#000000" points="147,-90.5 147,-109.5 241,-109.5 241,-90.5 147,-90.5"/>
<text text-anchor="middle" x="194" y="-97.5" font-family="Helvetica,sans-Serif" font-size="10.00" fill="#000000">3_Extract dataset</text>
</g>
<!-- #main/2_CESM&#45;&gt;#main/3_Extract dataset -->
<g id="edge3" class="edge">
<title>#main/2_CESM&#45;&gt;#main/3_Extract dataset</title>
<path fill="none" stroke="#000000" d="M194,-135.4567C194,-129.9678 194,-122.9184 194,-116.5532"/>
<polygon fill="#000000" stroke="#000000" points="196.4501,-116.5296 194,-109.5296 191.5501,-116.5296 196.4501,-116.5296"/>
<text text-anchor="middle" x="203" y="-120.6" font-family="Helvetica,sans-Serif" font-size="8.00" fill="#000000">input</text>
</g>
<!-- #main/4_NetCDF xarray Metadata Info -->
<g id="node5" class="node">
<title>#main/4_NetCDF xarray Metadata Info</title>
<polygon fill="#fafad2" stroke="#000000" points="71.5,-45.5 71.5,-64.5 228.5,-64.5 228.5,-45.5 71.5,-45.5"/>
<text text-anchor="middle" x="150" y="-52.5" font-family="Helvetica,sans-Serif" font-size="10.00" fill="#000000">4_NetCDF xarray Metadata Info</text>
</g>
<!-- #main/3_Extract dataset&#45;&gt;#main/4_NetCDF xarray Metadata Info -->
<g id="edge4" class="edge">
<title>#main/3_Extract dataset&#45;&gt;#main/4_NetCDF xarray Metadata Info</title>
<path fill="none" stroke="#000000" d="M184.6687,-90.4567C178.8352,-84.4905 171.1989,-76.6807 164.5783,-69.9096"/>
<polygon fill="#000000" stroke="#000000" points="165.9634,-67.8218 159.3178,-64.5296 162.4599,-71.2475 165.9634,-67.8218"/>
<text text-anchor="middle" x="184" y="-75.6" font-family="Helvetica,sans-Serif" font-size="8.00" fill="#000000">input</text>
</g>
<!-- #main/5_NetCDF xarray map plotting -->
<g id="node6" class="node">
<title>#main/5_NetCDF xarray map plotting</title>
<polygon fill="#fafad2" stroke="#000000" points="119,-.5 119,-19.5 269,-19.5 269,-.5 119,-.5"/>
<text text-anchor="middle" x="194" y="-7.5" font-family="Helvetica,sans-Serif" font-size="10.00" fill="#000000">5_NetCDF xarray map plotting</text>
</g>
<!-- #main/3_Extract dataset&#45;&gt;#main/5_NetCDF xarray map plotting -->
<g id="edge5" class="edge">
<title>#main/3_Extract dataset&#45;&gt;#main/5_NetCDF xarray map plotting</title>
<path fill="none" stroke="#000000" d="M207.983,-90.4108C215.7662,-84.1852 224.7249,-75.3209 229,-65 232.4016,-56.7877 232.4016,-53.2123 229,-45 225.7269,-37.098 219.7083,-30.0499 213.5738,-24.3862"/>
<polygon fill="#000000" stroke="#000000" points="214.8909,-22.288 207.983,-19.5892 211.7002,-26.0068 214.8909,-22.288"/>
<text text-anchor="middle" x="240" y="-53.1" font-family="Helvetica,sans-Serif" font-size="8.00" fill="#000000">input</text>
</g>
<!-- #main/4_NetCDF xarray Metadata Info&#45;&gt;#main/5_NetCDF xarray map plotting -->
<g id="edge6" class="edge">
<title>#main/4_NetCDF xarray Metadata Info&#45;&gt;#main/5_NetCDF xarray map plotting</title>
<path fill="none" stroke="#000000" d="M159.3313,-45.4567C165.1648,-39.4905 172.8011,-31.6807 179.4217,-24.9096"/>
<polygon fill="#000000" stroke="#000000" points="181.5401,-26.2475 184.6822,-19.5296 178.0366,-22.8218 181.5401,-26.2475"/>
<text text-anchor="middle" x="189" y="-30.6" font-family="Helvetica,sans-Serif" font-size="8.00" fill="#000000">var_tab</text>
</g>
</g>
</svg>
