<?xml version="1.0" encoding="UTF-8" standalone="no"?>
<!DOCTYPE svg PUBLIC "-//W3C//DTD SVG 1.1//EN"
 "http://www.w3.org/Graphics/SVG/1.1/DTD/svg11.dtd">
<!-- Generated by graphviz version 2.40.1 (20161225.0304)
 -->
<!-- Title: workflow Pages: 1 -->
<svg width="490pt" height="241pt"
 viewBox="0.00 0.00 490.00 241.00" xmlns="http://www.w3.org/2000/svg" xmlns:xlink="http://www.w3.org/1999/xlink">
<g id="graph0" class="graph" transform="scale(1 1) rotate(0) translate(4 237)">
<title>workflow</title>
<polygon fill="#ffffff" stroke="transparent" points="-4,4 -4,-237 486,-237 486,4 -4,4"/>
<g id="clust1" class="cluster">
<title>cluster_inputs</title>
<polygon fill="none" stroke="#000000" stroke-dasharray="5,2" points="8,-170 8,-225 474,-225 474,-170 8,-170"/>
<text text-anchor="middle" x="52" y="-213" font-family="Helvetica,sans-Serif" font-size="10.00" fill="#000000">Workflow Inputs</text>
</g>
<g id="clust2" class="cluster">
<title>cluster_outputs</title>
<polygon fill="none" stroke="#000000" stroke-dasharray="5,2" points="92,-8 92,-63 444,-63 444,-8 92,-8"/>
<text text-anchor="middle" x="139.5" y="-15" font-family="Helvetica,sans-Serif" font-size="10.00" fill="#000000">Workflow Outputs</text>
</g>
<!-- step2_babel_minimize_input_path -->
<g id="node1" class="node">
<title>step2_babel_minimize_input_path</title>
<polygon fill="#94ddf4" stroke="#000000" points="16,-178.5 16,-197.5 70,-197.5 70,-178.5 16,-178.5"/>
<text text-anchor="middle" x="43" y="-185.5" font-family="Helvetica,sans-Serif" font-size="10.00" fill="#000000">Input file</text>
</g>
<!-- step2_babel_minimize -->
<g id="node12" class="node">
<title>step2_babel_minimize</title>
<polygon fill="#fafad2" stroke="#000000" points="92,-125.5 92,-144.5 176,-144.5 176,-125.5 92,-125.5"/>
<text text-anchor="middle" x="134" y="-132.5" font-family="Helvetica,sans-Serif" font-size="10.00" fill="#000000">babel_minimize</text>
</g>
<!-- step2_babel_minimize_input_path&#45;&gt;step2_babel_minimize -->
<g id="edge2" class="edge">
<title>step2_babel_minimize_input_path&#45;&gt;step2_babel_minimize</title>
<path fill="none" stroke="#000000" d="M49.5444,-178.3583C55.3656,-170.476 64.5571,-159.5928 75,-153 78.4227,-150.8392 82.1209,-148.9241 85.9385,-147.2292"/>
<polygon fill="#000000" stroke="#000000" points="86.8882,-149.4879 92.4486,-144.5802 85.0414,-144.9492 86.8882,-149.4879"/>
<text text-anchor="middle" x="94" y="-155.6" font-family="Helvetica,sans-Serif" font-size="8.00" fill="#000000">input_path</text>
</g>
<!-- step2_babel_minimize_output_path -->
<g id="node2" class="node">
<title>step2_babel_minimize_output_path</title>
<polygon fill="#94ddf4" stroke="#000000" points="74,-178.5 74,-197.5 136,-197.5 136,-178.5 74,-178.5"/>
<text text-anchor="middle" x="105" y="-185.5" font-family="Helvetica,sans-Serif" font-size="10.00" fill="#000000">Output file</text>
</g>
<!-- step2_babel_minimize_output_path&#45;&gt;step2_babel_minimize -->
<g id="edge3" class="edge">
<title>step2_babel_minimize_output_path&#45;&gt;step2_babel_minimize</title>
<path fill="none" stroke="#000000" d="M107.9232,-178.4122C110.3476,-171.157 114.174,-161.0946 119,-153 119.4687,-152.2139 119.9709,-151.4269 120.497,-150.6452"/>
<polygon fill="#000000" stroke="#000000" points="122.5963,-151.9299 124.842,-144.8617 118.6786,-148.9867 122.5963,-151.9299"/>
<text text-anchor="middle" x="140.5" y="-155.6" font-family="Helvetica,sans-Serif" font-size="8.00" fill="#000000">output_path</text>
</g>
<!-- step2_babel_minimize_config -->
<g id="node3" class="node">
<title>step2_babel_minimize_config</title>
<polygon fill="#94ddf4" stroke="#000000" points="140.5,-178.5 140.5,-197.5 201.5,-197.5 201.5,-178.5 140.5,-178.5"/>
<text text-anchor="middle" x="171" y="-185.5" font-family="Helvetica,sans-Serif" font-size="10.00" fill="#000000">Config file</text>
</g>
<!-- step2_babel_minimize_config&#45;&gt;step2_babel_minimize -->
<g id="edge1" class="edge">
<title>step2_babel_minimize_config&#45;&gt;step2_babel_minimize</title>
<path fill="none" stroke="#000000" d="M169.3534,-178.3382C167.7068,-170.8556 164.5898,-160.5306 159,-153 158.0417,-151.709 156.9637,-150.4729 155.8074,-149.2968"/>
<polygon fill="#000000" stroke="#000000" points="157.2469,-147.3011 150.3641,-144.5388 154.0221,-150.9903 157.2469,-147.3011"/>
<text text-anchor="middle" x="175" y="-155.6" font-family="Helvetica,sans-Serif" font-size="8.00" fill="#000000">config</text>
</g>
<!-- step3_acpype_params_gmx_output_path_gro -->
<g id="node4" class="node">
<title>step3_acpype_params_gmx_output_path_gro</title>
<polygon fill="#94ddf4" stroke="#000000" points="206,-178.5 206,-197.5 268,-197.5 268,-178.5 206,-178.5"/>
<text text-anchor="middle" x="237" y="-185.5" font-family="Helvetica,sans-Serif" font-size="10.00" fill="#000000">Output file</text>
</g>
<!-- step3_acpype_params_gmx -->
<g id="node13" class="node">
<title>step3_acpype_params_gmx</title>
<polygon fill="#fafad2" stroke="#000000" points="249,-80.5 249,-99.5 359,-99.5 359,-80.5 249,-80.5"/>
<text text-anchor="middle" x="304" y="-87.5" font-family="Helvetica,sans-Serif" font-size="10.00" fill="#000000">acpype_params_gmx</text>
</g>
<!-- step3_acpype_params_gmx_output_path_gro&#45;&gt;step3_acpype_params_gmx -->
<g id="edge6" class="edge">
<title>step3_acpype_params_gmx_output_path_gro&#45;&gt;step3_acpype_params_gmx</title>
<path fill="none" stroke="#000000" d="M235.1161,-178.1571C233.1438,-164.9511 231.6113,-141.278 242,-125 248.2227,-115.2497 258.1805,-107.9509 268.3113,-102.6143"/>
<polygon fill="#000000" stroke="#000000" points="269.3932,-104.8125 274.6096,-99.5407 267.2442,-100.4089 269.3932,-104.8125"/>
<text text-anchor="middle" x="272" y="-133.1" font-family="Helvetica,sans-Serif" font-size="8.00" fill="#000000">output_path_gro</text>
</g>
<!-- step3_acpype_params_gmx_output_path_itp -->
<g id="node5" class="node">
<title>step3_acpype_params_gmx_output_path_itp</title>
<polygon fill="#94ddf4" stroke="#000000" points="272,-178.5 272,-197.5 334,-197.5 334,-178.5 272,-178.5"/>
<text text-anchor="middle" x="303" y="-185.5" font-family="Helvetica,sans-Serif" font-size="10.00" fill="#000000">Output file</text>
</g>
<!-- step3_acpype_params_gmx_output_path_itp&#45;&gt;step3_acpype_params_gmx -->
<g id="edge7" class="edge">
<title>step3_acpype_params_gmx_output_path_itp&#45;&gt;step3_acpype_params_gmx</title>
<path fill="none" stroke="#000000" d="M303.0995,-178.2451C303.2695,-161.5884 303.6176,-127.4711 303.8278,-106.8802"/>
<polygon fill="#000000" stroke="#000000" points="306.2792,-106.7401 303.9009,-99.7154 301.3795,-106.69 306.2792,-106.7401"/>
<text text-anchor="middle" x="331" y="-133.1" font-family="Helvetica,sans-Serif" font-size="8.00" fill="#000000">output_path_itp</text>
</g>
<!-- step3_acpype_params_gmx_output_path_top -->
<g id="node6" class="node">
<title>step3_acpype_params_gmx_output_path_top</title>
<polygon fill="#94ddf4" stroke="#000000" points="338,-178.5 338,-197.5 400,-197.5 400,-178.5 338,-178.5"/>
<text text-anchor="middle" x="369" y="-185.5" font-family="Helvetica,sans-Serif" font-size="10.00" fill="#000000">Output file</text>
</g>
<!-- step3_acpype_params_gmx_output_path_top&#45;&gt;step3_acpype_params_gmx -->
<g id="edge8" class="edge">
<title>step3_acpype_params_gmx_output_path_top&#45;&gt;step3_acpype_params_gmx</title>
<path fill="none" stroke="#000000" d="M370.0206,-178.1626C370.8842,-164.9628 370.6085,-141.2968 360,-125 353.8943,-115.6205 344.3025,-108.305 334.771,-102.8433"/>
<polygon fill="#000000" stroke="#000000" points="335.8816,-100.6589 328.5533,-99.5188 333.5711,-104.98 335.8816,-100.6589"/>
<text text-anchor="middle" x="396.5" y="-133.1" font-family="Helvetica,sans-Serif" font-size="8.00" fill="#000000">output_path_top</text>
</g>
<!-- step3_acpype_params_gmx_config -->
<g id="node7" class="node">
<title>step3_acpype_params_gmx_config</title>
<polygon fill="#94ddf4" stroke="#000000" points="404.5,-178.5 404.5,-197.5 465.5,-197.5 465.5,-178.5 404.5,-178.5"/>
<text text-anchor="middle" x="435" y="-185.5" font-family="Helvetica,sans-Serif" font-size="10.00" fill="#000000">Config file</text>
</g>
<!-- step3_acpype_params_gmx_config&#45;&gt;step3_acpype_params_gmx -->
<g id="edge4" class="edge">
<title>step3_acpype_params_gmx_config&#45;&gt;step3_acpype_params_gmx</title>
<path fill="none" stroke="#000000" d="M436.787,-178.1634C438.6624,-164.5277 439.7914,-139.8837 427,-125 418.5648,-115.185 392.3036,-107.0509 366.2017,-101.1023"/>
<polygon fill="#000000" stroke="#000000" points="366.5845,-98.6778 359.2208,-99.5602 365.5276,-103.4625 366.5845,-98.6778"/>
<text text-anchor="middle" x="447" y="-133.1" font-family="Helvetica,sans-Serif" font-size="8.00" fill="#000000">config</text>
</g>
<!-- step2_babel_minimize_out1 -->
<g id="node8" class="node">
<title>step2_babel_minimize_out1</title>
<polygon fill="#94ddf4" stroke="#000000" points="100,-35.5 100,-54.5 168,-54.5 168,-35.5 100,-35.5"/>
<text text-anchor="middle" x="134" y="-42.5" font-family="Helvetica,sans-Serif" font-size="10.00" fill="#000000">output_path</text>
</g>
<!-- step3_acpype_params_gmx_out1 -->
<g id="node9" class="node">
<title>step3_acpype_params_gmx_out1</title>
<polygon fill="#94ddf4" stroke="#000000" points="172,-35.5 172,-54.5 258,-54.5 258,-35.5 172,-35.5"/>
<text text-anchor="middle" x="215" y="-42.5" font-family="Helvetica,sans-Serif" font-size="10.00" fill="#000000">output_path_gro</text>
</g>
<!-- step3_acpype_params_gmx_out2 -->
<g id="node10" class="node">
<title>step3_acpype_params_gmx_out2</title>
<polygon fill="#94ddf4" stroke="#000000" points="262.5,-35.5 262.5,-54.5 345.5,-54.5 345.5,-35.5 262.5,-35.5"/>
<text text-anchor="middle" x="304" y="-42.5" font-family="Helvetica,sans-Serif" font-size="10.00" fill="#000000">output_path_itp</text>
</g>
<!-- step3_acpype_params_gmx_out3 -->
<g id="node11" class="node">
<title>step3_acpype_params_gmx_out3</title>
<polygon fill="#94ddf4" stroke="#000000" points="350,-35.5 350,-54.5 436,-54.5 436,-35.5 350,-35.5"/>
<text text-anchor="middle" x="393" y="-42.5" font-family="Helvetica,sans-Serif" font-size="10.00" fill="#000000">output_path_top</text>
</g>
<!-- step2_babel_minimize&#45;&gt;step2_babel_minimize_out1 -->
<g id="edge9" class="edge">
<title>step2_babel_minimize&#45;&gt;step2_babel_minimize_out1</title>
<path fill="none" stroke="#000000" d="M134,-125.3684C134,-110.2113 134,-80.5921 134,-61.8532"/>
<polygon fill="#000000" stroke="#000000" points="136.4501,-61.5623 134,-54.5623 131.5501,-61.5624 136.4501,-61.5623"/>
</g>
<!-- step2_babel_minimize&#45;&gt;step3_acpype_params_gmx -->
<g id="edge5" class="edge">
<title>step2_babel_minimize&#45;&gt;step3_acpype_params_gmx</title>
<path fill="none" stroke="#000000" d="M151.9063,-125.4559C163.5915,-119.6047 179.3437,-112.414 194,-108 209.1845,-103.4269 225.9195,-99.9372 241.6563,-97.3058"/>
<polygon fill="#000000" stroke="#000000" points="242.2849,-99.6862 248.8073,-96.1563 241.5072,-94.8483 242.2849,-99.6862"/>
<text text-anchor="middle" x="213" y="-110.6" font-family="Helvetica,sans-Serif" font-size="8.00" fill="#000000">input_path</text>
</g>
<!-- step3_acpype_params_gmx&#45;&gt;step3_acpype_params_gmx_out1 -->
<g id="edge10" class="edge">
<title>step3_acpype_params_gmx&#45;&gt;step3_acpype_params_gmx_out1</title>
<path fill="none" stroke="#000000" d="M285.1254,-80.4567C272.0277,-73.8342 254.4373,-64.9402 240.1509,-57.7167"/>
<polygon fill="#000000" stroke="#000000" points="241.1998,-55.5018 233.8474,-54.5296 238.9888,-59.8746 241.1998,-55.5018"/>
</g>
<!-- step3_acpype_params_gmx&#45;&gt;step3_acpype_params_gmx_out2 -->
<g id="edge11" class="edge">
<title>step3_acpype_params_gmx&#45;&gt;step3_acpype_params_gmx_out2</title>
<path fill="none" stroke="#000000" d="M304,-80.4567C304,-74.9678 304,-67.9184 304,-61.5532"/>
<polygon fill="#000000" stroke="#000000" points="306.4501,-61.5296 304,-54.5296 301.5501,-61.5296 306.4501,-61.5296"/>
</g>
<!-- step3_acpype_params_gmx&#45;&gt;step3_acpype_params_gmx_out3 -->
<g id="edge12" class="edge">
<title>step3_acpype_params_gmx&#45;&gt;step3_acpype_params_gmx_out3</title>
<path fill="none" stroke="#000000" d="M322.8746,-80.4567C335.9723,-73.8342 353.5627,-64.9402 367.8491,-57.7167"/>
<polygon fill="#000000" stroke="#000000" points="369.0112,-59.8746 374.1526,-54.5296 366.8002,-55.5018 369.0112,-59.8746"/>
</g>
</g>
</svg>
